solid OpenSCAD_Model
  facet normal 0.970031 0.242981 0
    outer loop
      vertex 8.01792 1.59486 3.7
      vertex 7.82299 2.37308 0
      vertex 7.82299 2.37308 3.7
    endloop
  endfacet
  facet normal 0.970031 0.242981 0
    outer loop
      vertex 7.82299 2.37308 0
      vertex 8.01792 1.59486 3.7
      vertex 8.01792 1.59486 0
    endloop
  endfacet
  facet normal 0.998795 0.0490677 0
    outer loop
      vertex 8.175 0 3.7
      vertex 8.13563 0.80129 0
      vertex 8.13563 0.80129 3.7
    endloop
  endfacet
  facet normal 0.998795 0.0490677 0
    outer loop
      vertex 8.13563 0.80129 0
      vertex 8.175 0 3.7
      vertex 8.175 0 0
    endloop
  endfacet
  facet normal -0.998795 0.0490677 0
    outer loop
      vertex -8.175 0 0
      vertex -8.13563 0.80129 3.7
      vertex -8.13563 0.80129 0
    endloop
  endfacet
  facet normal -0.998795 0.0490677 0
    outer loop
      vertex -8.13563 0.80129 3.7
      vertex -8.175 0 0
      vertex -8.175 0 3.7
    endloop
  endfacet
  facet normal 0.0490677 0.998795 -0
    outer loop
      vertex 0.80129 8.13563 0
      vertex 0 8.175 3.7
      vertex 0.80129 8.13563 3.7
    endloop
  endfacet
  facet normal 0.0490677 0.998795 0
    outer loop
      vertex 0 8.175 3.7
      vertex 0.80129 8.13563 0
      vertex 0 8.175 0
    endloop
  endfacet
  facet normal 0.740951 0.671559 0
    outer loop
      vertex 6.31936 5.18616 3.7
      vertex 5.7806 5.7806 0
      vertex 5.7806 5.7806 3.7
    endloop
  endfacet
  facet normal 0.740951 0.671559 0
    outer loop
      vertex 5.7806 5.7806 0
      vertex 6.31936 5.18616 3.7
      vertex 6.31936 5.18616 0
    endloop
  endfacet
  facet normal -0.671559 0.740951 0
    outer loop
      vertex -5.18616 6.31936 0
      vertex -5.7806 5.7806 3.7
      vertex -5.18616 6.31936 3.7
    endloop
  endfacet
  facet normal -0.671559 0.740951 0
    outer loop
      vertex -5.7806 5.7806 3.7
      vertex -5.18616 6.31936 0
      vertex -5.7806 5.7806 0
    endloop
  endfacet
  facet normal -0.33689 0.941544 0
    outer loop
      vertex -2.37308 7.82299 0
      vertex -3.12844 7.55271 3.7
      vertex -2.37308 7.82299 3.7
    endloop
  endfacet
  facet normal -0.33689 0.941544 0
    outer loop
      vertex -3.12844 7.55271 3.7
      vertex -2.37308 7.82299 0
      vertex -3.12844 7.55271 0
    endloop
  endfacet
  facet normal -0.803208 -0.595699 0
    outer loop
      vertex -6.31936 -5.18616 0
      vertex -6.79726 -4.54179 3.7
      vertex -6.79726 -4.54179 0
    endloop
  endfacet
  facet normal -0.803208 -0.595699 0
    outer loop
      vertex -6.79726 -4.54179 3.7
      vertex -6.31936 -5.18616 0
      vertex -6.31936 -5.18616 3.7
    endloop
  endfacet
  facet normal 0.941544 0.33689 0
    outer loop
      vertex 7.82299 2.37308 3.7
      vertex 7.55271 3.12844 0
      vertex 7.55271 3.12844 3.7
    endloop
  endfacet
  facet normal 0.941544 0.33689 0
    outer loop
      vertex 7.55271 3.12844 0
      vertex 7.82299 2.37308 3.7
      vertex 7.82299 2.37308 0
    endloop
  endfacet
  facet normal 0.427554 0.90399 -0
    outer loop
      vertex 3.85367 7.20971 0
      vertex 3.12844 7.55271 3.7
      vertex 3.85367 7.20971 3.7
    endloop
  endfacet
  facet normal 0.427554 0.90399 0
    outer loop
      vertex 3.12844 7.55271 3.7
      vertex 3.85367 7.20971 0
      vertex 3.12844 7.55271 0
    endloop
  endfacet
  facet normal -0.857728 0.514104 0
    outer loop
      vertex -7.20971 3.85367 0
      vertex -6.79726 4.54179 3.7
      vertex -6.79726 4.54179 0
    endloop
  endfacet
  facet normal -0.857728 0.514104 0
    outer loop
      vertex -6.79726 4.54179 3.7
      vertex -7.20971 3.85367 0
      vertex -7.20971 3.85367 3.7
    endloop
  endfacet
  facet normal -0.803208 0.595699 0
    outer loop
      vertex -6.79726 4.54179 0
      vertex -6.31936 5.18616 3.7
      vertex -6.31936 5.18616 0
    endloop
  endfacet
  facet normal -0.803208 0.595699 0
    outer loop
      vertex -6.31936 5.18616 3.7
      vertex -6.79726 4.54179 0
      vertex -6.79726 4.54179 3.7
    endloop
  endfacet
  facet normal 0.857728 -0.514104 0
    outer loop
      vertex 6.79726 -4.54179 3.7
      vertex 7.20971 -3.85367 0
      vertex 7.20971 -3.85367 3.7
    endloop
  endfacet
  facet normal 0.857728 -0.514104 0
    outer loop
      vertex 7.20971 -3.85367 0
      vertex 6.79726 -4.54179 3.7
      vertex 6.79726 -4.54179 0
    endloop
  endfacet
  facet normal 0.242981 -0.970031 0
    outer loop
      vertex 1.59486 -8.01792 0
      vertex 2.37308 -7.82299 3.7
      vertex 1.59486 -8.01792 3.7
    endloop
  endfacet
  facet normal 0.242981 -0.970031 0
    outer loop
      vertex 2.37308 -7.82299 3.7
      vertex 1.59486 -8.01792 0
      vertex 2.37308 -7.82299 0
    endloop
  endfacet
  facet normal 0.671559 -0.740951 0
    outer loop
      vertex 5.18616 -6.31936 0
      vertex 5.7806 -5.7806 3.7
      vertex 5.18616 -6.31936 3.7
    endloop
  endfacet
  facet normal 0.671559 -0.740951 0
    outer loop
      vertex 5.7806 -5.7806 3.7
      vertex 5.18616 -6.31936 0
      vertex 5.7806 -5.7806 0
    endloop
  endfacet
  facet normal -0.33689 -0.941544 0
    outer loop
      vertex -3.12844 -7.55271 0
      vertex -2.37308 -7.82299 3.7
      vertex -3.12844 -7.55271 3.7
    endloop
  endfacet
  facet normal -0.33689 -0.941544 -0
    outer loop
      vertex -2.37308 -7.82299 3.7
      vertex -3.12844 -7.55271 0
      vertex -2.37308 -7.82299 0
    endloop
  endfacet
  facet normal -0.514104 -0.857728 0
    outer loop
      vertex -4.54179 -6.79726 0
      vertex -3.85367 -7.20971 3.7
      vertex -4.54179 -6.79726 3.7
    endloop
  endfacet
  facet normal -0.514104 -0.857728 -0
    outer loop
      vertex -3.85367 -7.20971 3.7
      vertex -4.54179 -6.79726 0
      vertex -3.85367 -7.20971 0
    endloop
  endfacet
  facet normal 0.989177 0.14673 0
    outer loop
      vertex 8.13563 0.80129 3.7
      vertex 8.01792 1.59486 0
      vertex 8.01792 1.59486 3.7
    endloop
  endfacet
  facet normal 0.989177 0.14673 0
    outer loop
      vertex 8.01792 1.59486 0
      vertex 8.13563 0.80129 3.7
      vertex 8.13563 0.80129 0
    endloop
  endfacet
  facet normal 0.90399 0.427554 0
    outer loop
      vertex 7.55271 3.12844 3.7
      vertex 7.20971 3.85367 0
      vertex 7.20971 3.85367 3.7
    endloop
  endfacet
  facet normal 0.90399 0.427554 0
    outer loop
      vertex 7.20971 3.85367 0
      vertex 7.55271 3.12844 3.7
      vertex 7.55271 3.12844 0
    endloop
  endfacet
  facet normal 0.857728 0.514104 0
    outer loop
      vertex 7.20971 3.85367 3.7
      vertex 6.79726 4.54179 0
      vertex 6.79726 4.54179 3.7
    endloop
  endfacet
  facet normal 0.857728 0.514104 0
    outer loop
      vertex 6.79726 4.54179 0
      vertex 7.20971 3.85367 3.7
      vertex 7.20971 3.85367 0
    endloop
  endfacet
  facet normal 0.803208 0.595699 0
    outer loop
      vertex 6.79726 4.54179 3.7
      vertex 6.31936 5.18616 0
      vertex 6.31936 5.18616 3.7
    endloop
  endfacet
  facet normal 0.803208 0.595699 0
    outer loop
      vertex 6.31936 5.18616 0
      vertex 6.79726 4.54179 3.7
      vertex 6.79726 4.54179 0
    endloop
  endfacet
  facet normal 0.242981 0.970031 -0
    outer loop
      vertex 2.37308 7.82299 0
      vertex 1.59486 8.01792 3.7
      vertex 2.37308 7.82299 3.7
    endloop
  endfacet
  facet normal 0.242981 0.970031 0
    outer loop
      vertex 1.59486 8.01792 3.7
      vertex 2.37308 7.82299 0
      vertex 1.59486 8.01792 0
    endloop
  endfacet
  facet normal 0.14673 0.989177 -0
    outer loop
      vertex 1.59486 8.01792 0
      vertex 0.80129 8.13563 3.7
      vertex 1.59486 8.01792 3.7
    endloop
  endfacet
  facet normal 0.14673 0.989177 0
    outer loop
      vertex 0.80129 8.13563 3.7
      vertex 1.59486 8.01792 0
      vertex 0.80129 8.13563 0
    endloop
  endfacet
  facet normal 0.671559 0.740951 -0
    outer loop
      vertex 5.7806 5.7806 0
      vertex 5.18616 6.31936 3.7
      vertex 5.7806 5.7806 3.7
    endloop
  endfacet
  facet normal 0.671559 0.740951 0
    outer loop
      vertex 5.18616 6.31936 3.7
      vertex 5.7806 5.7806 0
      vertex 5.18616 6.31936 0
    endloop
  endfacet
  facet normal 0.595699 0.803208 -0
    outer loop
      vertex 5.18616 6.31936 0
      vertex 4.54179 6.79726 3.7
      vertex 5.18616 6.31936 3.7
    endloop
  endfacet
  facet normal 0.595699 0.803208 0
    outer loop
      vertex 4.54179 6.79726 3.7
      vertex 5.18616 6.31936 0
      vertex 4.54179 6.79726 0
    endloop
  endfacet
  facet normal -0.90399 0.427554 0
    outer loop
      vertex -7.55271 3.12844 0
      vertex -7.20971 3.85367 3.7
      vertex -7.20971 3.85367 0
    endloop
  endfacet
  facet normal -0.90399 0.427554 0
    outer loop
      vertex -7.20971 3.85367 3.7
      vertex -7.55271 3.12844 0
      vertex -7.55271 3.12844 3.7
    endloop
  endfacet
  facet normal -0.970031 0.242981 0
    outer loop
      vertex -8.01792 1.59486 0
      vertex -7.82299 2.37308 3.7
      vertex -7.82299 2.37308 0
    endloop
  endfacet
  facet normal -0.970031 0.242981 0
    outer loop
      vertex -7.82299 2.37308 3.7
      vertex -8.01792 1.59486 0
      vertex -8.01792 1.59486 3.7
    endloop
  endfacet
  facet normal -0.989177 0.14673 0
    outer loop
      vertex -8.13563 0.80129 0
      vertex -8.01792 1.59486 3.7
      vertex -8.01792 1.59486 0
    endloop
  endfacet
  facet normal -0.989177 0.14673 0
    outer loop
      vertex -8.01792 1.59486 3.7
      vertex -8.13563 0.80129 0
      vertex -8.13563 0.80129 3.7
    endloop
  endfacet
  facet normal -0.514104 0.857728 0
    outer loop
      vertex -3.85367 7.20971 0
      vertex -4.54179 6.79726 3.7
      vertex -3.85367 7.20971 3.7
    endloop
  endfacet
  facet normal -0.514104 0.857728 0
    outer loop
      vertex -4.54179 6.79726 3.7
      vertex -3.85367 7.20971 0
      vertex -4.54179 6.79726 0
    endloop
  endfacet
  facet normal -0.595699 0.803208 0
    outer loop
      vertex -4.54179 6.79726 0
      vertex -5.18616 6.31936 3.7
      vertex -4.54179 6.79726 3.7
    endloop
  endfacet
  facet normal -0.595699 0.803208 0
    outer loop
      vertex -5.18616 6.31936 3.7
      vertex -4.54179 6.79726 0
      vertex -5.18616 6.31936 0
    endloop
  endfacet
  facet normal -0.0490677 0.998795 0
    outer loop
      vertex 0 8.175 0
      vertex -0.80129 8.13563 3.7
      vertex 0 8.175 3.7
    endloop
  endfacet
  facet normal -0.0490677 0.998795 0
    outer loop
      vertex -0.80129 8.13563 3.7
      vertex 0 8.175 0
      vertex -0.80129 8.13563 0
    endloop
  endfacet
  facet normal -0.242981 0.970031 0
    outer loop
      vertex -1.59486 8.01792 0
      vertex -2.37308 7.82299 3.7
      vertex -1.59486 8.01792 3.7
    endloop
  endfacet
  facet normal -0.242981 0.970031 0
    outer loop
      vertex -2.37308 7.82299 3.7
      vertex -1.59486 8.01792 0
      vertex -2.37308 7.82299 0
    endloop
  endfacet
  facet normal -0.14673 0.989177 0
    outer loop
      vertex -0.80129 8.13563 0
      vertex -1.59486 8.01792 3.7
      vertex -0.80129 8.13563 3.7
    endloop
  endfacet
  facet normal -0.14673 0.989177 0
    outer loop
      vertex -1.59486 8.01792 3.7
      vertex -0.80129 8.13563 0
      vertex -1.59486 8.01792 0
    endloop
  endfacet
  facet normal 0.0490677 -0.998795 0
    outer loop
      vertex 0 -8.175 0
      vertex 0.80129 -8.13563 3.7
      vertex 0 -8.175 3.7
    endloop
  endfacet
  facet normal 0.0490677 -0.998795 0
    outer loop
      vertex 0.80129 -8.13563 3.7
      vertex 0 -8.175 0
      vertex 0.80129 -8.13563 0
    endloop
  endfacet
  facet normal 0.14673 -0.989177 0
    outer loop
      vertex 0.80129 -8.13563 0
      vertex 1.59486 -8.01792 3.7
      vertex 0.80129 -8.13563 3.7
    endloop
  endfacet
  facet normal 0.14673 -0.989177 0
    outer loop
      vertex 1.59486 -8.01792 3.7
      vertex 0.80129 -8.13563 0
      vertex 1.59486 -8.01792 0
    endloop
  endfacet
  facet normal 0.427554 -0.90399 0
    outer loop
      vertex 3.12844 -7.55271 0
      vertex 3.85367 -7.20971 3.7
      vertex 3.12844 -7.55271 3.7
    endloop
  endfacet
  facet normal 0.427554 -0.90399 0
    outer loop
      vertex 3.85367 -7.20971 3.7
      vertex 3.12844 -7.55271 0
      vertex 3.85367 -7.20971 0
    endloop
  endfacet
  facet normal 0.595699 -0.803208 0
    outer loop
      vertex 4.54179 -6.79726 0
      vertex 5.18616 -6.31936 3.7
      vertex 4.54179 -6.79726 3.7
    endloop
  endfacet
  facet normal 0.595699 -0.803208 0
    outer loop
      vertex 5.18616 -6.31936 3.7
      vertex 4.54179 -6.79726 0
      vertex 5.18616 -6.31936 0
    endloop
  endfacet
  facet normal 0.740951 -0.671559 0
    outer loop
      vertex 5.7806 -5.7806 3.7
      vertex 6.31936 -5.18616 0
      vertex 6.31936 -5.18616 3.7
    endloop
  endfacet
  facet normal 0.740951 -0.671559 0
    outer loop
      vertex 6.31936 -5.18616 0
      vertex 5.7806 -5.7806 3.7
      vertex 5.7806 -5.7806 0
    endloop
  endfacet
  facet normal 0.803208 -0.595699 0
    outer loop
      vertex 6.31936 -5.18616 3.7
      vertex 6.79726 -4.54179 0
      vertex 6.79726 -4.54179 3.7
    endloop
  endfacet
  facet normal 0.803208 -0.595699 0
    outer loop
      vertex 6.79726 -4.54179 0
      vertex 6.31936 -5.18616 3.7
      vertex 6.31936 -5.18616 0
    endloop
  endfacet
  facet normal 0.941544 -0.33689 0
    outer loop
      vertex 7.55271 -3.12844 3.7
      vertex 7.82299 -2.37308 0
      vertex 7.82299 -2.37308 3.7
    endloop
  endfacet
  facet normal 0.941544 -0.33689 0
    outer loop
      vertex 7.82299 -2.37308 0
      vertex 7.55271 -3.12844 3.7
      vertex 7.55271 -3.12844 0
    endloop
  endfacet
  facet normal 0.970031 -0.242981 0
    outer loop
      vertex 7.82299 -2.37308 3.7
      vertex 8.01792 -1.59486 0
      vertex 8.01792 -1.59486 3.7
    endloop
  endfacet
  facet normal 0.970031 -0.242981 0
    outer loop
      vertex 8.01792 -1.59486 0
      vertex 7.82299 -2.37308 3.7
      vertex 7.82299 -2.37308 0
    endloop
  endfacet
  facet normal -0.14673 -0.989177 0
    outer loop
      vertex -1.59486 -8.01792 0
      vertex -0.80129 -8.13563 3.7
      vertex -1.59486 -8.01792 3.7
    endloop
  endfacet
  facet normal -0.14673 -0.989177 -0
    outer loop
      vertex -0.80129 -8.13563 3.7
      vertex -1.59486 -8.01792 0
      vertex -0.80129 -8.13563 0
    endloop
  endfacet
  facet normal -0.671559 -0.740951 0
    outer loop
      vertex -5.7806 -5.7806 0
      vertex -5.18616 -6.31936 3.7
      vertex -5.7806 -5.7806 3.7
    endloop
  endfacet
  facet normal -0.671559 -0.740951 -0
    outer loop
      vertex -5.18616 -6.31936 3.7
      vertex -5.7806 -5.7806 0
      vertex -5.18616 -6.31936 0
    endloop
  endfacet
  facet normal -0.427554 -0.90399 0
    outer loop
      vertex -3.85367 -7.20971 0
      vertex -3.12844 -7.55271 3.7
      vertex -3.85367 -7.20971 3.7
    endloop
  endfacet
  facet normal -0.427554 -0.90399 -0
    outer loop
      vertex -3.12844 -7.55271 3.7
      vertex -3.85367 -7.20971 0
      vertex -3.12844 -7.55271 0
    endloop
  endfacet
  facet normal -0.0490677 -0.998795 0
    outer loop
      vertex -0.80129 -8.13563 0
      vertex 0 -8.175 3.7
      vertex -0.80129 -8.13563 3.7
    endloop
  endfacet
  facet normal -0.0490677 -0.998795 -0
    outer loop
      vertex 0 -8.175 3.7
      vertex -0.80129 -8.13563 0
      vertex 0 -8.175 0
    endloop
  endfacet
  facet normal -0.595699 -0.803208 0
    outer loop
      vertex -5.18616 -6.31936 0
      vertex -4.54179 -6.79726 3.7
      vertex -5.18616 -6.31936 3.7
    endloop
  endfacet
  facet normal -0.595699 -0.803208 -0
    outer loop
      vertex -4.54179 -6.79726 3.7
      vertex -5.18616 -6.31936 0
      vertex -4.54179 -6.79726 0
    endloop
  endfacet
  facet normal -0.90399 -0.427554 0
    outer loop
      vertex -7.20971 -3.85367 0
      vertex -7.55271 -3.12844 3.7
      vertex -7.55271 -3.12844 0
    endloop
  endfacet
  facet normal -0.90399 -0.427554 0
    outer loop
      vertex -7.55271 -3.12844 3.7
      vertex -7.20971 -3.85367 0
      vertex -7.20971 -3.85367 3.7
    endloop
  endfacet
  facet normal -0.970031 -0.242981 0
    outer loop
      vertex -7.82299 -2.37308 0
      vertex -8.01792 -1.59486 3.7
      vertex -8.01792 -1.59486 0
    endloop
  endfacet
  facet normal -0.970031 -0.242981 0
    outer loop
      vertex -8.01792 -1.59486 3.7
      vertex -7.82299 -2.37308 0
      vertex -7.82299 -2.37308 3.7
    endloop
  endfacet
  facet normal -0.998795 -0.0490677 0
    outer loop
      vertex -8.13563 -0.80129 0
      vertex -8.175 0 3.7
      vertex -8.175 0 0
    endloop
  endfacet
  facet normal -0.998795 -0.0490677 0
    outer loop
      vertex -8.175 0 3.7
      vertex -8.13563 -0.80129 0
      vertex -8.13563 -0.80129 3.7
    endloop
  endfacet
  facet normal 0 0 -1
    outer loop
      vertex 8.13563 -0.80129 0
      vertex 8.13563 0.80129 0
      vertex 8.175 0 0
    endloop
  endfacet
  facet normal 0 0 -1
    outer loop
      vertex 8.01792 -1.59486 0
      vertex 8.13563 0.80129 0
      vertex 8.13563 -0.80129 0
    endloop
  endfacet
  facet normal 0 0 -1
    outer loop
      vertex 8.01792 -1.59486 0
      vertex 8.01792 1.59486 0
      vertex 8.13563 0.80129 0
    endloop
  endfacet
  facet normal 0 0 -1
    outer loop
      vertex 7.82299 -2.37308 0
      vertex 8.01792 1.59486 0
      vertex 8.01792 -1.59486 0
    endloop
  endfacet
  facet normal 0 0 -1
    outer loop
      vertex 7.82299 -2.37308 0
      vertex 7.82299 2.37308 0
      vertex 8.01792 1.59486 0
    endloop
  endfacet
  facet normal 0 0 -1
    outer loop
      vertex 7.55271 -3.12844 0
      vertex 7.82299 2.37308 0
      vertex 7.82299 -2.37308 0
    endloop
  endfacet
  facet normal 0 0 -1
    outer loop
      vertex 7.55271 -3.12844 0
      vertex 7.55271 3.12844 0
      vertex 7.82299 2.37308 0
    endloop
  endfacet
  facet normal 0 0 -1
    outer loop
      vertex 7.20971 -3.85367 0
      vertex 7.55271 3.12844 0
      vertex 7.55271 -3.12844 0
    endloop
  endfacet
  facet normal 0 0 -1
    outer loop
      vertex 7.20971 -3.85367 0
      vertex 7.20971 3.85367 0
      vertex 7.55271 3.12844 0
    endloop
  endfacet
  facet normal 0 0 -1
    outer loop
      vertex 6.79726 -4.54179 0
      vertex 7.20971 3.85367 0
      vertex 7.20971 -3.85367 0
    endloop
  endfacet
  facet normal 0 0 -1
    outer loop
      vertex 6.79726 -4.54179 0
      vertex 6.79726 4.54179 0
      vertex 7.20971 3.85367 0
    endloop
  endfacet
  facet normal 0 0 -1
    outer loop
      vertex 6.31936 -5.18616 0
      vertex 6.79726 4.54179 0
      vertex 6.79726 -4.54179 0
    endloop
  endfacet
  facet normal 0 0 -1
    outer loop
      vertex 6.31936 -5.18616 0
      vertex 6.31936 5.18616 0
      vertex 6.79726 4.54179 0
    endloop
  endfacet
  facet normal 0 0 -1
    outer loop
      vertex 5.7806 -5.7806 0
      vertex 6.31936 5.18616 0
      vertex 6.31936 -5.18616 0
    endloop
  endfacet
  facet normal 0 0 -1
    outer loop
      vertex 5.7806 -5.7806 0
      vertex 5.7806 5.7806 0
      vertex 6.31936 5.18616 0
    endloop
  endfacet
  facet normal 0 0 -1
    outer loop
      vertex 5.18616 -6.31936 0
      vertex 5.7806 5.7806 0
      vertex 5.7806 -5.7806 0
    endloop
  endfacet
  facet normal 0 0 -1
    outer loop
      vertex 5.18616 -6.31936 0
      vertex 5.18616 6.31936 0
      vertex 5.7806 5.7806 0
    endloop
  endfacet
  facet normal 0 0 -1
    outer loop
      vertex 4.54179 -6.79726 0
      vertex 5.18616 6.31936 0
      vertex 5.18616 -6.31936 0
    endloop
  endfacet
  facet normal 0 0 -1
    outer loop
      vertex 4.54179 -6.79726 0
      vertex 4.54179 6.79726 0
      vertex 5.18616 6.31936 0
    endloop
  endfacet
  facet normal 0 0 -1
    outer loop
      vertex 3.85367 -7.20971 0
      vertex 4.54179 6.79726 0
      vertex 4.54179 -6.79726 0
    endloop
  endfacet
  facet normal 0 0 -1
    outer loop
      vertex 3.85367 -7.20971 0
      vertex 3.85367 7.20971 0
      vertex 4.54179 6.79726 0
    endloop
  endfacet
  facet normal 0 0 -1
    outer loop
      vertex 3.12844 -7.55271 0
      vertex 3.85367 7.20971 0
      vertex 3.85367 -7.20971 0
    endloop
  endfacet
  facet normal 0 0 -1
    outer loop
      vertex 3.12844 -7.55271 0
      vertex 3.12844 7.55271 0
      vertex 3.85367 7.20971 0
    endloop
  endfacet
  facet normal 0 0 -1
    outer loop
      vertex 2.37308 -7.82299 0
      vertex 3.12844 7.55271 0
      vertex 3.12844 -7.55271 0
    endloop
  endfacet
  facet normal 0 0 -1
    outer loop
      vertex 2.37308 -7.82299 0
      vertex 2.37308 7.82299 0
      vertex 3.12844 7.55271 0
    endloop
  endfacet
  facet normal 0 0 -1
    outer loop
      vertex 1.59486 -8.01792 0
      vertex 2.37308 7.82299 0
      vertex 2.37308 -7.82299 0
    endloop
  endfacet
  facet normal 0 0 -1
    outer loop
      vertex 1.59486 -8.01792 0
      vertex 1.59486 8.01792 0
      vertex 2.37308 7.82299 0
    endloop
  endfacet
  facet normal 0 0 -1
    outer loop
      vertex 0.80129 -8.13563 0
      vertex 1.59486 8.01792 0
      vertex 1.59486 -8.01792 0
    endloop
  endfacet
  facet normal 0 0 -1
    outer loop
      vertex 0.80129 -8.13563 0
      vertex 0.80129 8.13563 0
      vertex 1.59486 8.01792 0
    endloop
  endfacet
  facet normal 0 0 -1
    outer loop
      vertex 0 -8.175 0
      vertex 0.80129 8.13563 0
      vertex 0.80129 -8.13563 0
    endloop
  endfacet
  facet normal 0 0 -1
    outer loop
      vertex 0 -8.175 0
      vertex 0 8.175 0
      vertex 0.80129 8.13563 0
    endloop
  endfacet
  facet normal 0 0 -1
    outer loop
      vertex -0.80129 -8.13563 0
      vertex 0 8.175 0
      vertex 0 -8.175 0
    endloop
  endfacet
  facet normal 0 0 -1
    outer loop
      vertex -0.80129 -8.13563 0
      vertex -0.80129 8.13563 0
      vertex 0 8.175 0
    endloop
  endfacet
  facet normal 0 0 -1
    outer loop
      vertex -1.59486 -8.01792 0
      vertex -0.80129 8.13563 0
      vertex -0.80129 -8.13563 0
    endloop
  endfacet
  facet normal 0 0 -1
    outer loop
      vertex -1.59486 -8.01792 0
      vertex -1.59486 8.01792 0
      vertex -0.80129 8.13563 0
    endloop
  endfacet
  facet normal 0 0 -1
    outer loop
      vertex -2.37308 -7.82299 0
      vertex -1.59486 8.01792 0
      vertex -1.59486 -8.01792 0
    endloop
  endfacet
  facet normal 0 0 -1
    outer loop
      vertex -2.37308 -7.82299 0
      vertex -2.37308 7.82299 0
      vertex -1.59486 8.01792 0
    endloop
  endfacet
  facet normal 0 0 -1
    outer loop
      vertex -3.12844 -7.55271 0
      vertex -2.37308 7.82299 0
      vertex -2.37308 -7.82299 0
    endloop
  endfacet
  facet normal 0 0 -1
    outer loop
      vertex -3.12844 -7.55271 0
      vertex -3.12844 7.55271 0
      vertex -2.37308 7.82299 0
    endloop
  endfacet
  facet normal 0 0 -1
    outer loop
      vertex -3.85367 -7.20971 0
      vertex -3.12844 7.55271 0
      vertex -3.12844 -7.55271 0
    endloop
  endfacet
  facet normal 0 0 -1
    outer loop
      vertex -3.85367 -7.20971 0
      vertex -3.85367 7.20971 0
      vertex -3.12844 7.55271 0
    endloop
  endfacet
  facet normal 0 0 -1
    outer loop
      vertex -4.54179 -6.79726 0
      vertex -3.85367 7.20971 0
      vertex -3.85367 -7.20971 0
    endloop
  endfacet
  facet normal 0 0 -1
    outer loop
      vertex -4.54179 -6.79726 0
      vertex -4.54179 6.79726 0
      vertex -3.85367 7.20971 0
    endloop
  endfacet
  facet normal 0 0 -1
    outer loop
      vertex -5.18616 -6.31936 0
      vertex -4.54179 6.79726 0
      vertex -4.54179 -6.79726 0
    endloop
  endfacet
  facet normal 0 0 -1
    outer loop
      vertex -5.18616 -6.31936 0
      vertex -5.18616 6.31936 0
      vertex -4.54179 6.79726 0
    endloop
  endfacet
  facet normal 0 0 -1
    outer loop
      vertex -5.7806 -5.7806 0
      vertex -5.18616 6.31936 0
      vertex -5.18616 -6.31936 0
    endloop
  endfacet
  facet normal 0 0 -1
    outer loop
      vertex -5.7806 -5.7806 0
      vertex -5.7806 5.7806 0
      vertex -5.18616 6.31936 0
    endloop
  endfacet
  facet normal 0 0 -1
    outer loop
      vertex -6.31936 -5.18616 0
      vertex -5.7806 5.7806 0
      vertex -5.7806 -5.7806 0
    endloop
  endfacet
  facet normal 0 0 -1
    outer loop
      vertex -6.31936 -5.18616 0
      vertex -6.31936 5.18616 0
      vertex -5.7806 5.7806 0
    endloop
  endfacet
  facet normal 0 0 -1
    outer loop
      vertex -6.79726 -4.54179 0
      vertex -6.31936 5.18616 0
      vertex -6.31936 -5.18616 0
    endloop
  endfacet
  facet normal 0 0 -1
    outer loop
      vertex -6.79726 -4.54179 0
      vertex -6.79726 4.54179 0
      vertex -6.31936 5.18616 0
    endloop
  endfacet
  facet normal 0 0 -1
    outer loop
      vertex -7.20971 -3.85367 0
      vertex -6.79726 4.54179 0
      vertex -6.79726 -4.54179 0
    endloop
  endfacet
  facet normal 0 0 -1
    outer loop
      vertex -7.20971 -3.85367 0
      vertex -7.20971 3.85367 0
      vertex -6.79726 4.54179 0
    endloop
  endfacet
  facet normal 0 0 -1
    outer loop
      vertex -7.55271 -3.12844 0
      vertex -7.20971 3.85367 0
      vertex -7.20971 -3.85367 0
    endloop
  endfacet
  facet normal 0 0 -1
    outer loop
      vertex -7.55271 -3.12844 0
      vertex -7.55271 3.12844 0
      vertex -7.20971 3.85367 0
    endloop
  endfacet
  facet normal 0 0 -1
    outer loop
      vertex -7.82299 -2.37308 0
      vertex -7.55271 3.12844 0
      vertex -7.55271 -3.12844 0
    endloop
  endfacet
  facet normal 0 0 -1
    outer loop
      vertex -7.82299 -2.37308 0
      vertex -7.82299 2.37308 0
      vertex -7.55271 3.12844 0
    endloop
  endfacet
  facet normal 0 0 -1
    outer loop
      vertex -8.01792 -1.59486 0
      vertex -7.82299 2.37308 0
      vertex -7.82299 -2.37308 0
    endloop
  endfacet
  facet normal 0 0 -1
    outer loop
      vertex -8.01792 -1.59486 0
      vertex -8.01792 1.59486 0
      vertex -7.82299 2.37308 0
    endloop
  endfacet
  facet normal 0 0 -1
    outer loop
      vertex -8.13563 -0.80129 0
      vertex -8.01792 1.59486 0
      vertex -8.01792 -1.59486 0
    endloop
  endfacet
  facet normal 0 0 -1
    outer loop
      vertex -8.13563 -0.80129 0
      vertex -8.13563 0.80129 0
      vertex -8.01792 1.59486 0
    endloop
  endfacet
  facet normal 0 -0 -1
    outer loop
      vertex -8.13563 0.80129 0
      vertex -8.13563 -0.80129 0
      vertex -8.175 0 0
    endloop
  endfacet
  facet normal 0.33689 0.941544 -0
    outer loop
      vertex 3.12844 7.55271 0
      vertex 2.37308 7.82299 3.7
      vertex 3.12844 7.55271 3.7
    endloop
  endfacet
  facet normal 0.33689 0.941544 0
    outer loop
      vertex 2.37308 7.82299 3.7
      vertex 3.12844 7.55271 0
      vertex 2.37308 7.82299 0
    endloop
  endfacet
  facet normal 0.514104 0.857728 -0
    outer loop
      vertex 4.54179 6.79726 0
      vertex 3.85367 7.20971 3.7
      vertex 4.54179 6.79726 3.7
    endloop
  endfacet
  facet normal 0.514104 0.857728 0
    outer loop
      vertex 3.85367 7.20971 3.7
      vertex 4.54179 6.79726 0
      vertex 3.85367 7.20971 0
    endloop
  endfacet
  facet normal -0.740951 0.671559 0
    outer loop
      vertex -6.31936 5.18616 0
      vertex -5.7806 5.7806 3.7
      vertex -5.7806 5.7806 0
    endloop
  endfacet
  facet normal -0.740951 0.671559 0
    outer loop
      vertex -5.7806 5.7806 3.7
      vertex -6.31936 5.18616 0
      vertex -6.31936 5.18616 3.7
    endloop
  endfacet
  facet normal 0 0 1
    outer loop
      vertex 7.65 0 3.7
      vertex 8.175 0 3.7
      vertex 8.13563 0.80129 3.7
    endloop
  endfacet
  facet normal 0 0 1
    outer loop
      vertex 7.61316 0.74983 3.7
      vertex 8.13563 0.80129 3.7
      vertex 8.01792 1.59486 3.7
    endloop
  endfacet
  facet normal 0 0 1
    outer loop
      vertex 8.175 0 3.7
      vertex 7.65 0 3.7
      vertex 8.13563 -0.80129 3.7
    endloop
  endfacet
  facet normal 0 0 1
    outer loop
      vertex 7.50301 1.49244 3.7
      vertex 8.01792 1.59486 3.7
      vertex 7.82299 2.37308 3.7
    endloop
  endfacet
  facet normal -0 0 1
    outer loop
      vertex 7.61316 -0.74983 3.7
      vertex 8.13563 -0.80129 3.7
      vertex 7.65 0 3.7
    endloop
  endfacet
  facet normal 0 0 1
    outer loop
      vertex 8.13563 -0.80129 3.7
      vertex 7.61316 -0.74983 3.7
      vertex 8.01792 -1.59486 3.7
    endloop
  endfacet
  facet normal 0 0 1
    outer loop
      vertex 8.13563 0.80129 3.7
      vertex 7.61316 0.74983 3.7
      vertex 7.65 0 3.7
    endloop
  endfacet
  facet normal 0 0 1
    outer loop
      vertex 7.32059 2.22068 3.7
      vertex 7.82299 2.37308 3.7
      vertex 7.55271 3.12844 3.7
    endloop
  endfacet
  facet normal 0 0 1
    outer loop
      vertex 8.01792 1.59486 3.7
      vertex 7.50301 1.49244 3.7
      vertex 7.61316 0.74983 3.7
    endloop
  endfacet
  facet normal 0 0 1
    outer loop
      vertex 7.82299 2.37308 3.7
      vertex 7.32059 2.22068 3.7
      vertex 7.50301 1.49244 3.7
    endloop
  endfacet
  facet normal 0 0 1
    outer loop
      vertex 7.06768 2.92753 3.7
      vertex 7.55271 3.12844 3.7
      vertex 7.20971 3.85367 3.7
    endloop
  endfacet
  facet normal 0 0 1
    outer loop
      vertex 7.55271 3.12844 3.7
      vertex 7.06768 2.92753 3.7
      vertex 7.32059 2.22068 3.7
    endloop
  endfacet
  facet normal 0 0 1
    outer loop
      vertex 6.7467 3.60618 3.7
      vertex 7.20971 3.85367 3.7
      vertex 6.79726 4.54179 3.7
    endloop
  endfacet
  facet normal 0 0 1
    outer loop
      vertex 7.20971 3.85367 3.7
      vertex 6.7467 3.60618 3.7
      vertex 7.06768 2.92753 3.7
    endloop
  endfacet
  facet normal 0 0 1
    outer loop
      vertex 6.79726 4.54179 3.7
      vertex 6.36074 4.25011 3.7
      vertex 6.7467 3.60618 3.7
    endloop
  endfacet
  facet normal 0 0 1
    outer loop
      vertex 6.31936 5.18616 3.7
      vertex 6.36074 4.25011 3.7
      vertex 6.79726 4.54179 3.7
    endloop
  endfacet
  facet normal 0 0 1
    outer loop
      vertex 6.31936 5.18616 3.7
      vertex 5.91353 4.85311 3.7
      vertex 6.36074 4.25011 3.7
    endloop
  endfacet
  facet normal 0 0 1
    outer loop
      vertex 5.7806 5.7806 3.7
      vertex 5.91353 4.85311 3.7
      vertex 6.31936 5.18616 3.7
    endloop
  endfacet
  facet normal 0 0 1
    outer loop
      vertex 5.7806 5.7806 3.7
      vertex 5.40937 5.40937 3.7
      vertex 5.91353 4.85311 3.7
    endloop
  endfacet
  facet normal 0 0 1
    outer loop
      vertex 5.18616 6.31936 3.7
      vertex 5.40937 5.40937 3.7
      vertex 5.7806 5.7806 3.7
    endloop
  endfacet
  facet normal 0 0 1
    outer loop
      vertex 5.18616 6.31936 3.7
      vertex 4.85311 5.91353 3.7
      vertex 5.40937 5.40937 3.7
    endloop
  endfacet
  facet normal 0 0 1
    outer loop
      vertex 4.54179 6.79726 3.7
      vertex 4.85311 5.91353 3.7
      vertex 5.18616 6.31936 3.7
    endloop
  endfacet
  facet normal 0 0 1
    outer loop
      vertex 4.54179 6.79726 3.7
      vertex 4.25011 6.36074 3.7
      vertex 4.85311 5.91353 3.7
    endloop
  endfacet
  facet normal 0 0 1
    outer loop
      vertex 3.85367 7.20971 3.7
      vertex 4.25011 6.36074 3.7
      vertex 4.54179 6.79726 3.7
    endloop
  endfacet
  facet normal 0 0 1
    outer loop
      vertex 3.85367 7.20971 3.7
      vertex 3.60618 6.7467 3.7
      vertex 4.25011 6.36074 3.7
    endloop
  endfacet
  facet normal 0 0 1
    outer loop
      vertex 3.12844 7.55271 3.7
      vertex 3.60618 6.7467 3.7
      vertex 3.85367 7.20971 3.7
    endloop
  endfacet
  facet normal 0 0 1
    outer loop
      vertex 3.12844 7.55271 3.7
      vertex 2.92753 7.06768 3.7
      vertex 3.60618 6.7467 3.7
    endloop
  endfacet
  facet normal 0 0 1
    outer loop
      vertex 2.37308 7.82299 3.7
      vertex 2.92753 7.06768 3.7
      vertex 3.12844 7.55271 3.7
    endloop
  endfacet
  facet normal 0 0 1
    outer loop
      vertex 2.37308 7.82299 3.7
      vertex 2.22068 7.32059 3.7
      vertex 2.92753 7.06768 3.7
    endloop
  endfacet
  facet normal 0 0 1
    outer loop
      vertex 1.59486 8.01792 3.7
      vertex 2.22068 7.32059 3.7
      vertex 2.37308 7.82299 3.7
    endloop
  endfacet
  facet normal 0 0 1
    outer loop
      vertex 1.59486 8.01792 3.7
      vertex 1.49244 7.50301 3.7
      vertex 2.22068 7.32059 3.7
    endloop
  endfacet
  facet normal 0 0 1
    outer loop
      vertex 0.80129 8.13563 3.7
      vertex 1.49244 7.50301 3.7
      vertex 1.59486 8.01792 3.7
    endloop
  endfacet
  facet normal 0 0 1
    outer loop
      vertex 0.80129 8.13563 3.7
      vertex 0.74983 7.61316 3.7
      vertex 1.49244 7.50301 3.7
    endloop
  endfacet
  facet normal 0 0 1
    outer loop
      vertex 0 8.175 3.7
      vertex 0.74983 7.61316 3.7
      vertex 0.80129 8.13563 3.7
    endloop
  endfacet
  facet normal 0 0 1
    outer loop
      vertex 0 8.175 3.7
      vertex 0 7.65 3.7
      vertex 0.74983 7.61316 3.7
    endloop
  endfacet
  facet normal 0 0 1
    outer loop
      vertex 0 8.175 3.7
      vertex -0.74983 7.61316 3.7
      vertex 0 7.65 3.7
    endloop
  endfacet
  facet normal -0 0 1
    outer loop
      vertex -0.80129 8.13563 3.7
      vertex -0.74983 7.61316 3.7
      vertex 0 8.175 3.7
    endloop
  endfacet
  facet normal 0 0 1
    outer loop
      vertex -0.80129 8.13563 3.7
      vertex -1.49244 7.50301 3.7
      vertex -0.74983 7.61316 3.7
    endloop
  endfacet
  facet normal -0 0 1
    outer loop
      vertex -1.59486 8.01792 3.7
      vertex -1.49244 7.50301 3.7
      vertex -0.80129 8.13563 3.7
    endloop
  endfacet
  facet normal 0 0 1
    outer loop
      vertex -1.59486 8.01792 3.7
      vertex -2.22068 7.32059 3.7
      vertex -1.49244 7.50301 3.7
    endloop
  endfacet
  facet normal -0 0 1
    outer loop
      vertex -2.37308 7.82299 3.7
      vertex -2.22068 7.32059 3.7
      vertex -1.59486 8.01792 3.7
    endloop
  endfacet
  facet normal 0 0 1
    outer loop
      vertex -2.37308 7.82299 3.7
      vertex -2.92753 7.06768 3.7
      vertex -2.22068 7.32059 3.7
    endloop
  endfacet
  facet normal -0 0 1
    outer loop
      vertex -3.12844 7.55271 3.7
      vertex -2.92753 7.06768 3.7
      vertex -2.37308 7.82299 3.7
    endloop
  endfacet
  facet normal 0 0 1
    outer loop
      vertex -3.12844 7.55271 3.7
      vertex -3.60618 6.7467 3.7
      vertex -2.92753 7.06768 3.7
    endloop
  endfacet
  facet normal -0 0 1
    outer loop
      vertex -3.85367 7.20971 3.7
      vertex -3.60618 6.7467 3.7
      vertex -3.12844 7.55271 3.7
    endloop
  endfacet
  facet normal 0 0 1
    outer loop
      vertex -3.85367 7.20971 3.7
      vertex -4.25011 6.36074 3.7
      vertex -3.60618 6.7467 3.7
    endloop
  endfacet
  facet normal -0 0 1
    outer loop
      vertex -4.54179 6.79726 3.7
      vertex -4.25011 6.36074 3.7
      vertex -3.85367 7.20971 3.7
    endloop
  endfacet
  facet normal 0 0 1
    outer loop
      vertex -4.54179 6.79726 3.7
      vertex -4.85311 5.91353 3.7
      vertex -4.25011 6.36074 3.7
    endloop
  endfacet
  facet normal -0 0 1
    outer loop
      vertex -5.18616 6.31936 3.7
      vertex -4.85311 5.91353 3.7
      vertex -4.54179 6.79726 3.7
    endloop
  endfacet
  facet normal 0 0 1
    outer loop
      vertex -5.18616 6.31936 3.7
      vertex -5.40937 5.40937 3.7
      vertex -4.85311 5.91353 3.7
    endloop
  endfacet
  facet normal -0 0 1
    outer loop
      vertex -5.7806 5.7806 3.7
      vertex -5.40937 5.40937 3.7
      vertex -5.18616 6.31936 3.7
    endloop
  endfacet
  facet normal 0 0 1
    outer loop
      vertex -5.7806 5.7806 3.7
      vertex -5.91353 4.85311 3.7
      vertex -5.40937 5.40937 3.7
    endloop
  endfacet
  facet normal -0 0 1
    outer loop
      vertex -6.31936 5.18616 3.7
      vertex -5.91353 4.85311 3.7
      vertex -5.7806 5.7806 3.7
    endloop
  endfacet
  facet normal 0 0 1
    outer loop
      vertex -6.31936 5.18616 3.7
      vertex -6.36074 4.25011 3.7
      vertex -5.91353 4.85311 3.7
    endloop
  endfacet
  facet normal -0 0 1
    outer loop
      vertex -6.79726 4.54179 3.7
      vertex -6.36074 4.25011 3.7
      vertex -6.31936 5.18616 3.7
    endloop
  endfacet
  facet normal 0 0 1
    outer loop
      vertex -6.36074 4.25011 3.7
      vertex -6.79726 4.54179 3.7
      vertex -6.7467 3.60618 3.7
    endloop
  endfacet
  facet normal -0 0 1
    outer loop
      vertex -7.20971 3.85367 3.7
      vertex -6.7467 3.60618 3.7
      vertex -6.79726 4.54179 3.7
    endloop
  endfacet
  facet normal 0 0 1
    outer loop
      vertex -6.7467 3.60618 3.7
      vertex -7.20971 3.85367 3.7
      vertex -7.06768 2.92753 3.7
    endloop
  endfacet
  facet normal -0 0 1
    outer loop
      vertex -7.55271 3.12844 3.7
      vertex -7.06768 2.92753 3.7
      vertex -7.20971 3.85367 3.7
    endloop
  endfacet
  facet normal 0 0 1
    outer loop
      vertex -7.06768 2.92753 3.7
      vertex -7.55271 3.12844 3.7
      vertex -7.32059 2.22068 3.7
    endloop
  endfacet
  facet normal -0 0 1
    outer loop
      vertex -7.82299 2.37308 3.7
      vertex -7.32059 2.22068 3.7
      vertex -7.55271 3.12844 3.7
    endloop
  endfacet
  facet normal 0 0 1
    outer loop
      vertex -7.32059 2.22068 3.7
      vertex -7.82299 2.37308 3.7
      vertex -7.50301 1.49244 3.7
    endloop
  endfacet
  facet normal -0 0 1
    outer loop
      vertex -8.01792 1.59486 3.7
      vertex -7.50301 1.49244 3.7
      vertex -7.82299 2.37308 3.7
    endloop
  endfacet
  facet normal 0 0 1
    outer loop
      vertex -7.50301 1.49244 3.7
      vertex -8.01792 1.59486 3.7
      vertex -7.61316 0.74983 3.7
    endloop
  endfacet
  facet normal -0 0 1
    outer loop
      vertex 7.50301 -1.49244 3.7
      vertex 8.01792 -1.59486 3.7
      vertex 7.61316 -0.74983 3.7
    endloop
  endfacet
  facet normal 0 0 1
    outer loop
      vertex 8.01792 -1.59486 3.7
      vertex 7.50301 -1.49244 3.7
      vertex 7.82299 -2.37308 3.7
    endloop
  endfacet
  facet normal -0 0 1
    outer loop
      vertex 7.32059 -2.22068 3.7
      vertex 7.82299 -2.37308 3.7
      vertex 7.50301 -1.49244 3.7
    endloop
  endfacet
  facet normal 0 0 1
    outer loop
      vertex 7.82299 -2.37308 3.7
      vertex 7.32059 -2.22068 3.7
      vertex 7.55271 -3.12844 3.7
    endloop
  endfacet
  facet normal -0 0 1
    outer loop
      vertex 7.06768 -2.92753 3.7
      vertex 7.55271 -3.12844 3.7
      vertex 7.32059 -2.22068 3.7
    endloop
  endfacet
  facet normal 0 0 1
    outer loop
      vertex 7.55271 -3.12844 3.7
      vertex 7.06768 -2.92753 3.7
      vertex 7.20971 -3.85367 3.7
    endloop
  endfacet
  facet normal -0 0 1
    outer loop
      vertex 6.7467 -3.60618 3.7
      vertex 7.20971 -3.85367 3.7
      vertex 7.06768 -2.92753 3.7
    endloop
  endfacet
  facet normal 0 0 1
    outer loop
      vertex 7.20971 -3.85367 3.7
      vertex 6.7467 -3.60618 3.7
      vertex 6.79726 -4.54179 3.7
    endloop
  endfacet
  facet normal -0 0 1
    outer loop
      vertex 6.36074 -4.25011 3.7
      vertex 6.79726 -4.54179 3.7
      vertex 6.7467 -3.60618 3.7
    endloop
  endfacet
  facet normal 0 0 1
    outer loop
      vertex 6.36074 -4.25011 3.7
      vertex 6.31936 -5.18616 3.7
      vertex 6.79726 -4.54179 3.7
    endloop
  endfacet
  facet normal -0 0 1
    outer loop
      vertex 5.91353 -4.85311 3.7
      vertex 6.31936 -5.18616 3.7
      vertex 6.36074 -4.25011 3.7
    endloop
  endfacet
  facet normal 0 0 1
    outer loop
      vertex 5.91353 -4.85311 3.7
      vertex 5.7806 -5.7806 3.7
      vertex 6.31936 -5.18616 3.7
    endloop
  endfacet
  facet normal -0 0 1
    outer loop
      vertex 5.40937 -5.40937 3.7
      vertex 5.7806 -5.7806 3.7
      vertex 5.91353 -4.85311 3.7
    endloop
  endfacet
  facet normal 0 0 1
    outer loop
      vertex 5.40937 -5.40937 3.7
      vertex 5.18616 -6.31936 3.7
      vertex 5.7806 -5.7806 3.7
    endloop
  endfacet
  facet normal -0 0 1
    outer loop
      vertex 4.85311 -5.91353 3.7
      vertex 5.18616 -6.31936 3.7
      vertex 5.40937 -5.40937 3.7
    endloop
  endfacet
  facet normal 0 0 1
    outer loop
      vertex 4.85311 -5.91353 3.7
      vertex 4.54179 -6.79726 3.7
      vertex 5.18616 -6.31936 3.7
    endloop
  endfacet
  facet normal -0 0 1
    outer loop
      vertex 4.25011 -6.36074 3.7
      vertex 4.54179 -6.79726 3.7
      vertex 4.85311 -5.91353 3.7
    endloop
  endfacet
  facet normal 0 0 1
    outer loop
      vertex 4.25011 -6.36074 3.7
      vertex 3.85367 -7.20971 3.7
      vertex 4.54179 -6.79726 3.7
    endloop
  endfacet
  facet normal -0 0 1
    outer loop
      vertex 3.60618 -6.7467 3.7
      vertex 3.85367 -7.20971 3.7
      vertex 4.25011 -6.36074 3.7
    endloop
  endfacet
  facet normal 0 0 1
    outer loop
      vertex 3.60618 -6.7467 3.7
      vertex 3.12844 -7.55271 3.7
      vertex 3.85367 -7.20971 3.7
    endloop
  endfacet
  facet normal -0 0 1
    outer loop
      vertex 2.92753 -7.06768 3.7
      vertex 3.12844 -7.55271 3.7
      vertex 3.60618 -6.7467 3.7
    endloop
  endfacet
  facet normal 0 0 1
    outer loop
      vertex 2.92753 -7.06768 3.7
      vertex 2.37308 -7.82299 3.7
      vertex 3.12844 -7.55271 3.7
    endloop
  endfacet
  facet normal -0 0 1
    outer loop
      vertex 2.22068 -7.32059 3.7
      vertex 2.37308 -7.82299 3.7
      vertex 2.92753 -7.06768 3.7
    endloop
  endfacet
  facet normal 0 0 1
    outer loop
      vertex 2.22068 -7.32059 3.7
      vertex 1.59486 -8.01792 3.7
      vertex 2.37308 -7.82299 3.7
    endloop
  endfacet
  facet normal -0 0 1
    outer loop
      vertex 1.49244 -7.50301 3.7
      vertex 1.59486 -8.01792 3.7
      vertex 2.22068 -7.32059 3.7
    endloop
  endfacet
  facet normal 0 0 1
    outer loop
      vertex 1.49244 -7.50301 3.7
      vertex 0.80129 -8.13563 3.7
      vertex 1.59486 -8.01792 3.7
    endloop
  endfacet
  facet normal -0 0 1
    outer loop
      vertex 0.74983 -7.61316 3.7
      vertex 0.80129 -8.13563 3.7
      vertex 1.49244 -7.50301 3.7
    endloop
  endfacet
  facet normal -0 0 1
    outer loop
      vertex 0 -7.65 3.7
      vertex 0.80129 -8.13563 3.7
      vertex 0.74983 -7.61316 3.7
    endloop
  endfacet
  facet normal 0 0 1
    outer loop
      vertex 0 -7.65 3.7
      vertex 0 -8.175 3.7
      vertex 0.80129 -8.13563 3.7
    endloop
  endfacet
  facet normal 0 0 1
    outer loop
      vertex -0.74983 -7.61316 3.7
      vertex 0 -8.175 3.7
      vertex 0 -7.65 3.7
    endloop
  endfacet
  facet normal 0 0 1
    outer loop
      vertex -0.74983 -7.61316 3.7
      vertex -0.80129 -8.13563 3.7
      vertex 0 -8.175 3.7
    endloop
  endfacet
  facet normal 0 0 1
    outer loop
      vertex -1.49244 -7.50301 3.7
      vertex -0.80129 -8.13563 3.7
      vertex -0.74983 -7.61316 3.7
    endloop
  endfacet
  facet normal 0 0 1
    outer loop
      vertex -1.49244 -7.50301 3.7
      vertex -1.59486 -8.01792 3.7
      vertex -0.80129 -8.13563 3.7
    endloop
  endfacet
  facet normal 0 0 1
    outer loop
      vertex -2.22068 -7.32059 3.7
      vertex -1.59486 -8.01792 3.7
      vertex -1.49244 -7.50301 3.7
    endloop
  endfacet
  facet normal 0 0 1
    outer loop
      vertex -2.22068 -7.32059 3.7
      vertex -2.37308 -7.82299 3.7
      vertex -1.59486 -8.01792 3.7
    endloop
  endfacet
  facet normal 0 0 1
    outer loop
      vertex -2.92753 -7.06768 3.7
      vertex -2.37308 -7.82299 3.7
      vertex -2.22068 -7.32059 3.7
    endloop
  endfacet
  facet normal 0 0 1
    outer loop
      vertex -2.92753 -7.06768 3.7
      vertex -3.12844 -7.55271 3.7
      vertex -2.37308 -7.82299 3.7
    endloop
  endfacet
  facet normal 0 0 1
    outer loop
      vertex -3.60618 -6.7467 3.7
      vertex -3.12844 -7.55271 3.7
      vertex -2.92753 -7.06768 3.7
    endloop
  endfacet
  facet normal 0 0 1
    outer loop
      vertex -3.60618 -6.7467 3.7
      vertex -3.85367 -7.20971 3.7
      vertex -3.12844 -7.55271 3.7
    endloop
  endfacet
  facet normal 0 0 1
    outer loop
      vertex -4.25011 -6.36074 3.7
      vertex -3.85367 -7.20971 3.7
      vertex -3.60618 -6.7467 3.7
    endloop
  endfacet
  facet normal 0 0 1
    outer loop
      vertex -4.25011 -6.36074 3.7
      vertex -4.54179 -6.79726 3.7
      vertex -3.85367 -7.20971 3.7
    endloop
  endfacet
  facet normal 0 0 1
    outer loop
      vertex -4.85311 -5.91353 3.7
      vertex -4.54179 -6.79726 3.7
      vertex -4.25011 -6.36074 3.7
    endloop
  endfacet
  facet normal 0 0 1
    outer loop
      vertex -4.85311 -5.91353 3.7
      vertex -5.18616 -6.31936 3.7
      vertex -4.54179 -6.79726 3.7
    endloop
  endfacet
  facet normal 0 0 1
    outer loop
      vertex -5.40937 -5.40937 3.7
      vertex -5.18616 -6.31936 3.7
      vertex -4.85311 -5.91353 3.7
    endloop
  endfacet
  facet normal 0 0 1
    outer loop
      vertex -5.40937 -5.40937 3.7
      vertex -5.7806 -5.7806 3.7
      vertex -5.18616 -6.31936 3.7
    endloop
  endfacet
  facet normal 0 0 1
    outer loop
      vertex -5.91353 -4.85311 3.7
      vertex -5.7806 -5.7806 3.7
      vertex -5.40937 -5.40937 3.7
    endloop
  endfacet
  facet normal 0 0 1
    outer loop
      vertex -5.91353 -4.85311 3.7
      vertex -6.31936 -5.18616 3.7
      vertex -5.7806 -5.7806 3.7
    endloop
  endfacet
  facet normal 0 0 1
    outer loop
      vertex -6.36074 -4.25011 3.7
      vertex -6.31936 -5.18616 3.7
      vertex -5.91353 -4.85311 3.7
    endloop
  endfacet
  facet normal 0 0 1
    outer loop
      vertex -6.79726 -4.54179 3.7
      vertex -6.36074 -4.25011 3.7
      vertex -6.7467 -3.60618 3.7
    endloop
  endfacet
  facet normal 0 0 1
    outer loop
      vertex -6.36074 -4.25011 3.7
      vertex -6.79726 -4.54179 3.7
      vertex -6.31936 -5.18616 3.7
    endloop
  endfacet
  facet normal 0 0 1
    outer loop
      vertex -7.20971 -3.85367 3.7
      vertex -6.7467 -3.60618 3.7
      vertex -7.06768 -2.92753 3.7
    endloop
  endfacet
  facet normal 0 0 1
    outer loop
      vertex -6.7467 -3.60618 3.7
      vertex -7.20971 -3.85367 3.7
      vertex -6.79726 -4.54179 3.7
    endloop
  endfacet
  facet normal 0 0 1
    outer loop
      vertex -7.55271 -3.12844 3.7
      vertex -7.06768 -2.92753 3.7
      vertex -7.32059 -2.22068 3.7
    endloop
  endfacet
  facet normal 0 0 1
    outer loop
      vertex -7.82299 -2.37308 3.7
      vertex -7.32059 -2.22068 3.7
      vertex -7.50301 -1.49244 3.7
    endloop
  endfacet
  facet normal 0 0 1
    outer loop
      vertex -7.06768 -2.92753 3.7
      vertex -7.55271 -3.12844 3.7
      vertex -7.20971 -3.85367 3.7
    endloop
  endfacet
  facet normal 0 0 1
    outer loop
      vertex -8.01792 -1.59486 3.7
      vertex -7.50301 -1.49244 3.7
      vertex -7.61316 -0.74983 3.7
    endloop
  endfacet
  facet normal 0 0 1
    outer loop
      vertex -8.13563 -0.80129 3.7
      vertex -7.61316 -0.74983 3.7
      vertex -7.65 0 3.7
    endloop
  endfacet
  facet normal -0 0 1
    outer loop
      vertex -8.13563 0.80129 3.7
      vertex -7.61316 0.74983 3.7
      vertex -8.01792 1.59486 3.7
    endloop
  endfacet
  facet normal 0 0 1
    outer loop
      vertex -7.32059 -2.22068 3.7
      vertex -7.82299 -2.37308 3.7
      vertex -7.55271 -3.12844 3.7
    endloop
  endfacet
  facet normal 0 0 1
    outer loop
      vertex -7.61316 0.74983 3.7
      vertex -8.13563 0.80129 3.7
      vertex -7.65 0 3.7
    endloop
  endfacet
  facet normal 0 0 1
    outer loop
      vertex -7.50301 -1.49244 3.7
      vertex -8.01792 -1.59486 3.7
      vertex -7.82299 -2.37308 3.7
    endloop
  endfacet
  facet normal 0 0 1
    outer loop
      vertex -8.175 0 3.7
      vertex -7.65 0 3.7
      vertex -8.13563 0.80129 3.7
    endloop
  endfacet
  facet normal 0 0 1
    outer loop
      vertex -7.61316 -0.74983 3.7
      vertex -8.13563 -0.80129 3.7
      vertex -8.01792 -1.59486 3.7
    endloop
  endfacet
  facet normal 0 0 1
    outer loop
      vertex -7.65 0 3.7
      vertex -8.175 0 3.7
      vertex -8.13563 -0.80129 3.7
    endloop
  endfacet
  facet normal -0.941544 0.33689 0
    outer loop
      vertex -7.82299 2.37308 0
      vertex -7.55271 3.12844 3.7
      vertex -7.55271 3.12844 0
    endloop
  endfacet
  facet normal -0.941544 0.33689 0
    outer loop
      vertex -7.55271 3.12844 3.7
      vertex -7.82299 2.37308 0
      vertex -7.82299 2.37308 3.7
    endloop
  endfacet
  facet normal -0.427554 0.90399 0
    outer loop
      vertex -3.12844 7.55271 0
      vertex -3.85367 7.20971 3.7
      vertex -3.12844 7.55271 3.7
    endloop
  endfacet
  facet normal -0.427554 0.90399 0
    outer loop
      vertex -3.85367 7.20971 3.7
      vertex -3.12844 7.55271 0
      vertex -3.85367 7.20971 0
    endloop
  endfacet
  facet normal 0.989177 -0.14673 0
    outer loop
      vertex 8.01792 -1.59486 3.7
      vertex 8.13563 -0.80129 0
      vertex 8.13563 -0.80129 3.7
    endloop
  endfacet
  facet normal 0.989177 -0.14673 0
    outer loop
      vertex 8.13563 -0.80129 0
      vertex 8.01792 -1.59486 3.7
      vertex 8.01792 -1.59486 0
    endloop
  endfacet
  facet normal 0.33689 -0.941544 0
    outer loop
      vertex 2.37308 -7.82299 0
      vertex 3.12844 -7.55271 3.7
      vertex 2.37308 -7.82299 3.7
    endloop
  endfacet
  facet normal 0.33689 -0.941544 0
    outer loop
      vertex 3.12844 -7.55271 3.7
      vertex 2.37308 -7.82299 0
      vertex 3.12844 -7.55271 0
    endloop
  endfacet
  facet normal 0.514104 -0.857728 0
    outer loop
      vertex 3.85367 -7.20971 0
      vertex 4.54179 -6.79726 3.7
      vertex 3.85367 -7.20971 3.7
    endloop
  endfacet
  facet normal 0.514104 -0.857728 0
    outer loop
      vertex 4.54179 -6.79726 3.7
      vertex 3.85367 -7.20971 0
      vertex 4.54179 -6.79726 0
    endloop
  endfacet
  facet normal 0.90399 -0.427554 0
    outer loop
      vertex 7.20971 -3.85367 3.7
      vertex 7.55271 -3.12844 0
      vertex 7.55271 -3.12844 3.7
    endloop
  endfacet
  facet normal 0.90399 -0.427554 0
    outer loop
      vertex 7.55271 -3.12844 0
      vertex 7.20971 -3.85367 3.7
      vertex 7.20971 -3.85367 0
    endloop
  endfacet
  facet normal -0.242981 -0.970031 0
    outer loop
      vertex -2.37308 -7.82299 0
      vertex -1.59486 -8.01792 3.7
      vertex -2.37308 -7.82299 3.7
    endloop
  endfacet
  facet normal -0.242981 -0.970031 -0
    outer loop
      vertex -1.59486 -8.01792 3.7
      vertex -2.37308 -7.82299 0
      vertex -1.59486 -8.01792 0
    endloop
  endfacet
  facet normal -0.740951 -0.671559 0
    outer loop
      vertex -5.7806 -5.7806 0
      vertex -6.31936 -5.18616 3.7
      vertex -6.31936 -5.18616 0
    endloop
  endfacet
  facet normal -0.740951 -0.671559 0
    outer loop
      vertex -6.31936 -5.18616 3.7
      vertex -5.7806 -5.7806 0
      vertex -5.7806 -5.7806 3.7
    endloop
  endfacet
  facet normal -0.857728 -0.514104 0
    outer loop
      vertex -6.79726 -4.54179 0
      vertex -7.20971 -3.85367 3.7
      vertex -7.20971 -3.85367 0
    endloop
  endfacet
  facet normal -0.857728 -0.514104 0
    outer loop
      vertex -7.20971 -3.85367 3.7
      vertex -6.79726 -4.54179 0
      vertex -6.79726 -4.54179 3.7
    endloop
  endfacet
  facet normal -0.989177 -0.14673 0
    outer loop
      vertex -8.01792 -1.59486 0
      vertex -8.13563 -0.80129 3.7
      vertex -8.13563 -0.80129 0
    endloop
  endfacet
  facet normal -0.989177 -0.14673 0
    outer loop
      vertex -8.13563 -0.80129 3.7
      vertex -8.01792 -1.59486 0
      vertex -8.01792 -1.59486 3.7
    endloop
  endfacet
  facet normal -0.941544 -0.33689 0
    outer loop
      vertex -7.55271 -3.12844 0
      vertex -7.82299 -2.37308 3.7
      vertex -7.82299 -2.37308 0
    endloop
  endfacet
  facet normal -0.941544 -0.33689 0
    outer loop
      vertex -7.82299 -2.37308 3.7
      vertex -7.55271 -3.12844 0
      vertex -7.55271 -3.12844 3.7
    endloop
  endfacet
  facet normal 0.998795 -0.0490677 0
    outer loop
      vertex 8.13563 -0.80129 3.7
      vertex 8.175 0 0
      vertex 8.175 0 3.7
    endloop
  endfacet
  facet normal 0.998795 -0.0490677 0
    outer loop
      vertex 8.175 0 0
      vertex 8.13563 -0.80129 3.7
      vertex 8.13563 -0.80129 0
    endloop
  endfacet
  facet normal -0.998795 -0.0490674 0
    outer loop
      vertex 7.65 0 0.7
      vertex 7.61316 0.74983 3.7
      vertex 7.61316 0.74983 0.7
    endloop
  endfacet
  facet normal -0.998795 -0.0490674 0
    outer loop
      vertex 7.61316 0.74983 3.7
      vertex 7.65 0 0.7
      vertex 7.65 0 3.7
    endloop
  endfacet
  facet normal 0.998795 -0.0490674 0
    outer loop
      vertex -7.65 0 3.7
      vertex -7.61316 0.74983 0.7
      vertex -7.61316 0.74983 3.7
    endloop
  endfacet
  facet normal 0.998795 -0.0490674 0
    outer loop
      vertex -7.61316 0.74983 0.7
      vertex -7.65 0 3.7
      vertex -7.65 0 0.7
    endloop
  endfacet
  facet normal 0.0490674 -0.998795 0
    outer loop
      vertex -0.74983 7.61316 0.7
      vertex 0 7.65 3.7
      vertex -0.74983 7.61316 3.7
    endloop
  endfacet
  facet normal 0.0490674 -0.998795 0
    outer loop
      vertex 0 7.65 3.7
      vertex -0.74983 7.61316 0.7
      vertex 0 7.65 0.7
    endloop
  endfacet
  facet normal -0.671559 -0.740951 0
    outer loop
      vertex 4.85311 5.91353 0.7
      vertex 5.40937 5.40937 3.7
      vertex 4.85311 5.91353 3.7
    endloop
  endfacet
  facet normal -0.671559 -0.740951 -0
    outer loop
      vertex 5.40937 5.40937 3.7
      vertex 4.85311 5.91353 0.7
      vertex 5.40937 5.40937 0.7
    endloop
  endfacet
  facet normal 0.671559 -0.740951 0
    outer loop
      vertex -5.40937 5.40937 0.7
      vertex -4.85311 5.91353 3.7
      vertex -5.40937 5.40937 3.7
    endloop
  endfacet
  facet normal 0.671559 -0.740951 0
    outer loop
      vertex -4.85311 5.91353 3.7
      vertex -5.40937 5.40937 0.7
      vertex -4.85311 5.91353 0.7
    endloop
  endfacet
  facet normal 0.427554 -0.90399 0
    outer loop
      vertex -3.60618 6.7467 0.7
      vertex -2.92753 7.06768 3.7
      vertex -3.60618 6.7467 3.7
    endloop
  endfacet
  facet normal 0.427554 -0.90399 0
    outer loop
      vertex -2.92753 7.06768 3.7
      vertex -3.60618 6.7467 0.7
      vertex -2.92753 7.06768 0.7
    endloop
  endfacet
  facet normal -0.90399 -0.427554 0
    outer loop
      vertex 7.06768 2.92753 0.7
      vertex 6.7467 3.60618 3.7
      vertex 6.7467 3.60618 0.7
    endloop
  endfacet
  facet normal -0.90399 -0.427554 0
    outer loop
      vertex 6.7467 3.60618 3.7
      vertex 7.06768 2.92753 0.7
      vertex 7.06768 2.92753 3.7
    endloop
  endfacet
  facet normal -0.33689 -0.941544 0
    outer loop
      vertex 2.22068 7.32059 0.7
      vertex 2.92753 7.06768 3.7
      vertex 2.22068 7.32059 3.7
    endloop
  endfacet
  facet normal -0.33689 -0.941544 -0
    outer loop
      vertex 2.92753 7.06768 3.7
      vertex 2.22068 7.32059 0.7
      vertex 2.92753 7.06768 0.7
    endloop
  endfacet
  facet normal -0.514104 -0.857728 0
    outer loop
      vertex 3.60618 6.7467 0.7
      vertex 4.25011 6.36074 3.7
      vertex 3.60618 6.7467 3.7
    endloop
  endfacet
  facet normal -0.514104 -0.857728 -0
    outer loop
      vertex 4.25011 6.36074 3.7
      vertex 3.60618 6.7467 0.7
      vertex 4.25011 6.36074 0.7
    endloop
  endfacet
  facet normal 0.857728 -0.514104 0
    outer loop
      vertex -6.7467 3.60618 3.7
      vertex -6.36074 4.25011 0.7
      vertex -6.36074 4.25011 3.7
    endloop
  endfacet
  facet normal 0.857728 -0.514104 0
    outer loop
      vertex -6.36074 4.25011 0.7
      vertex -6.7467 3.60618 3.7
      vertex -6.7467 3.60618 0.7
    endloop
  endfacet
  facet normal 0.803208 -0.595699 0
    outer loop
      vertex -6.36074 4.25011 3.7
      vertex -5.91353 4.85311 0.7
      vertex -5.91353 4.85311 3.7
    endloop
  endfacet
  facet normal 0.803208 -0.595699 0
    outer loop
      vertex -5.91353 4.85311 0.7
      vertex -6.36074 4.25011 3.7
      vertex -6.36074 4.25011 0.7
    endloop
  endfacet
  facet normal 0.595699 -0.803208 0
    outer loop
      vertex -4.85311 5.91353 0.7
      vertex -4.25011 6.36074 3.7
      vertex -4.85311 5.91353 3.7
    endloop
  endfacet
  facet normal 0.595699 -0.803208 0
    outer loop
      vertex -4.25011 6.36074 3.7
      vertex -4.85311 5.91353 0.7
      vertex -4.25011 6.36074 0.7
    endloop
  endfacet
  facet normal 0.24298 -0.970031 0
    outer loop
      vertex -2.22068 7.32059 0.7
      vertex -1.49244 7.50301 3.7
      vertex -2.22068 7.32059 3.7
    endloop
  endfacet
  facet normal 0.24298 -0.970031 0
    outer loop
      vertex -1.49244 7.50301 3.7
      vertex -2.22068 7.32059 0.7
      vertex -1.49244 7.50301 0.7
    endloop
  endfacet
  facet normal 0.0490674 0.998795 -0
    outer loop
      vertex 0 -7.65 0.7
      vertex -0.74983 -7.61316 3.7
      vertex 0 -7.65 3.7
    endloop
  endfacet
  facet normal 0.0490674 0.998795 0
    outer loop
      vertex -0.74983 -7.61316 3.7
      vertex 0 -7.65 0.7
      vertex -0.74983 -7.61316 0.7
    endloop
  endfacet
  facet normal -0.146731 0.989176 0
    outer loop
      vertex 1.49244 -7.50301 0.7
      vertex 0.74983 -7.61316 3.7
      vertex 1.49244 -7.50301 3.7
    endloop
  endfacet
  facet normal -0.146731 0.989176 0
    outer loop
      vertex 0.74983 -7.61316 3.7
      vertex 1.49244 -7.50301 0.7
      vertex 0.74983 -7.61316 0.7
    endloop
  endfacet
  facet normal -0.970031 -0.24298 0
    outer loop
      vertex 7.50301 1.49244 0.7
      vertex 7.32059 2.22068 3.7
      vertex 7.32059 2.22068 0.7
    endloop
  endfacet
  facet normal -0.970031 -0.24298 0
    outer loop
      vertex 7.32059 2.22068 3.7
      vertex 7.50301 1.49244 0.7
      vertex 7.50301 1.49244 3.7
    endloop
  endfacet
  facet normal -0.989176 -0.146731 0
    outer loop
      vertex 7.61316 0.74983 0.7
      vertex 7.50301 1.49244 3.7
      vertex 7.50301 1.49244 0.7
    endloop
  endfacet
  facet normal -0.989176 -0.146731 0
    outer loop
      vertex 7.50301 1.49244 3.7
      vertex 7.61316 0.74983 0.7
      vertex 7.61316 0.74983 3.7
    endloop
  endfacet
  facet normal -0.941544 -0.33689 0
    outer loop
      vertex 7.32059 2.22068 0.7
      vertex 7.06768 2.92753 3.7
      vertex 7.06768 2.92753 0.7
    endloop
  endfacet
  facet normal -0.941544 -0.33689 0
    outer loop
      vertex 7.06768 2.92753 3.7
      vertex 7.32059 2.22068 0.7
      vertex 7.32059 2.22068 3.7
    endloop
  endfacet
  facet normal -0.803208 -0.595699 0
    outer loop
      vertex 6.36074 4.25011 0.7
      vertex 5.91353 4.85311 3.7
      vertex 5.91353 4.85311 0.7
    endloop
  endfacet
  facet normal -0.803208 -0.595699 0
    outer loop
      vertex 5.91353 4.85311 3.7
      vertex 6.36074 4.25011 0.7
      vertex 6.36074 4.25011 3.7
    endloop
  endfacet
  facet normal -0.740951 -0.671559 0
    outer loop
      vertex 5.91353 4.85311 0.7
      vertex 5.40937 5.40937 3.7
      vertex 5.40937 5.40937 0.7
    endloop
  endfacet
  facet normal -0.740951 -0.671559 0
    outer loop
      vertex 5.40937 5.40937 3.7
      vertex 5.91353 4.85311 0.7
      vertex 5.91353 4.85311 3.7
    endloop
  endfacet
  facet normal -0.146731 -0.989176 0
    outer loop
      vertex 0.74983 7.61316 0.7
      vertex 1.49244 7.50301 3.7
      vertex 0.74983 7.61316 3.7
    endloop
  endfacet
  facet normal -0.146731 -0.989176 -0
    outer loop
      vertex 1.49244 7.50301 3.7
      vertex 0.74983 7.61316 0.7
      vertex 1.49244 7.50301 0.7
    endloop
  endfacet
  facet normal -0.0490674 -0.998795 0
    outer loop
      vertex 0 7.65 0.7
      vertex 0.74983 7.61316 3.7
      vertex 0 7.65 3.7
    endloop
  endfacet
  facet normal -0.0490674 -0.998795 -0
    outer loop
      vertex 0.74983 7.61316 3.7
      vertex 0 7.65 0.7
      vertex 0.74983 7.61316 0.7
    endloop
  endfacet
  facet normal -0.595699 -0.803208 0
    outer loop
      vertex 4.25011 6.36074 0.7
      vertex 4.85311 5.91353 3.7
      vertex 4.25011 6.36074 3.7
    endloop
  endfacet
  facet normal -0.595699 -0.803208 -0
    outer loop
      vertex 4.85311 5.91353 3.7
      vertex 4.25011 6.36074 0.7
      vertex 4.85311 5.91353 0.7
    endloop
  endfacet
  facet normal 0.970031 -0.24298 0
    outer loop
      vertex -7.50301 1.49244 3.7
      vertex -7.32059 2.22068 0.7
      vertex -7.32059 2.22068 3.7
    endloop
  endfacet
  facet normal 0.970031 -0.24298 0
    outer loop
      vertex -7.32059 2.22068 0.7
      vertex -7.50301 1.49244 3.7
      vertex -7.50301 1.49244 0.7
    endloop
  endfacet
  facet normal 0.740951 -0.671559 0
    outer loop
      vertex -5.91353 4.85311 3.7
      vertex -5.40937 5.40937 0.7
      vertex -5.40937 5.40937 3.7
    endloop
  endfacet
  facet normal 0.740951 -0.671559 0
    outer loop
      vertex -5.40937 5.40937 0.7
      vertex -5.91353 4.85311 3.7
      vertex -5.91353 4.85311 0.7
    endloop
  endfacet
  facet normal 0.90399 -0.427554 0
    outer loop
      vertex -7.06768 2.92753 3.7
      vertex -6.7467 3.60618 0.7
      vertex -6.7467 3.60618 3.7
    endloop
  endfacet
  facet normal 0.90399 -0.427554 0
    outer loop
      vertex -6.7467 3.60618 0.7
      vertex -7.06768 2.92753 3.7
      vertex -7.06768 2.92753 0.7
    endloop
  endfacet
  facet normal 0.989176 -0.146731 0
    outer loop
      vertex -7.61316 0.74983 3.7
      vertex -7.50301 1.49244 0.7
      vertex -7.50301 1.49244 3.7
    endloop
  endfacet
  facet normal 0.989176 -0.146731 0
    outer loop
      vertex -7.50301 1.49244 0.7
      vertex -7.61316 0.74983 3.7
      vertex -7.61316 0.74983 0.7
    endloop
  endfacet
  facet normal 0.33689 -0.941544 0
    outer loop
      vertex -2.92753 7.06768 0.7
      vertex -2.22068 7.32059 3.7
      vertex -2.92753 7.06768 3.7
    endloop
  endfacet
  facet normal 0.33689 -0.941544 0
    outer loop
      vertex -2.22068 7.32059 3.7
      vertex -2.92753 7.06768 0.7
      vertex -2.22068 7.32059 0.7
    endloop
  endfacet
  facet normal 0.146731 -0.989176 0
    outer loop
      vertex -1.49244 7.50301 0.7
      vertex -0.74983 7.61316 3.7
      vertex -1.49244 7.50301 3.7
    endloop
  endfacet
  facet normal 0.146731 -0.989176 0
    outer loop
      vertex -0.74983 7.61316 3.7
      vertex -1.49244 7.50301 0.7
      vertex -0.74983 7.61316 0.7
    endloop
  endfacet
  facet normal -0.514104 0.857728 0
    outer loop
      vertex 4.25011 -6.36074 0.7
      vertex 3.60618 -6.7467 3.7
      vertex 4.25011 -6.36074 3.7
    endloop
  endfacet
  facet normal -0.514104 0.857728 0
    outer loop
      vertex 3.60618 -6.7467 3.7
      vertex 4.25011 -6.36074 0.7
      vertex 3.60618 -6.7467 0.7
    endloop
  endfacet
  facet normal -0.803208 0.595699 0
    outer loop
      vertex 5.91353 -4.85311 0.7
      vertex 6.36074 -4.25011 3.7
      vertex 6.36074 -4.25011 0.7
    endloop
  endfacet
  facet normal -0.803208 0.595699 0
    outer loop
      vertex 6.36074 -4.25011 3.7
      vertex 5.91353 -4.85311 0.7
      vertex 5.91353 -4.85311 3.7
    endloop
  endfacet
  facet normal -0.427554 0.90399 0
    outer loop
      vertex 3.60618 -6.7467 0.7
      vertex 2.92753 -7.06768 3.7
      vertex 3.60618 -6.7467 3.7
    endloop
  endfacet
  facet normal -0.427554 0.90399 0
    outer loop
      vertex 2.92753 -7.06768 3.7
      vertex 3.60618 -6.7467 0.7
      vertex 2.92753 -7.06768 0.7
    endloop
  endfacet
  facet normal -0.857728 -0.514104 0
    outer loop
      vertex 6.7467 3.60618 0.7
      vertex 6.36074 4.25011 3.7
      vertex 6.36074 4.25011 0.7
    endloop
  endfacet
  facet normal -0.857728 -0.514104 0
    outer loop
      vertex 6.36074 4.25011 3.7
      vertex 6.7467 3.60618 0.7
      vertex 6.7467 3.60618 3.7
    endloop
  endfacet
  facet normal -0.24298 -0.970031 0
    outer loop
      vertex 1.49244 7.50301 0.7
      vertex 2.22068 7.32059 3.7
      vertex 1.49244 7.50301 3.7
    endloop
  endfacet
  facet normal -0.24298 -0.970031 -0
    outer loop
      vertex 2.22068 7.32059 3.7
      vertex 1.49244 7.50301 0.7
      vertex 2.22068 7.32059 0.7
    endloop
  endfacet
  facet normal -0.427554 -0.90399 0
    outer loop
      vertex 2.92753 7.06768 0.7
      vertex 3.60618 6.7467 3.7
      vertex 2.92753 7.06768 3.7
    endloop
  endfacet
  facet normal -0.427554 -0.90399 -0
    outer loop
      vertex 3.60618 6.7467 3.7
      vertex 2.92753 7.06768 0.7
      vertex 3.60618 6.7467 0.7
    endloop
  endfacet
  facet normal 0.941544 -0.33689 0
    outer loop
      vertex -7.32059 2.22068 3.7
      vertex -7.06768 2.92753 0.7
      vertex -7.06768 2.92753 3.7
    endloop
  endfacet
  facet normal 0.941544 -0.33689 0
    outer loop
      vertex -7.06768 2.92753 0.7
      vertex -7.32059 2.22068 3.7
      vertex -7.32059 2.22068 0.7
    endloop
  endfacet
  facet normal 0.514104 -0.857728 0
    outer loop
      vertex -4.25011 6.36074 0.7
      vertex -3.60618 6.7467 3.7
      vertex -4.25011 6.36074 3.7
    endloop
  endfacet
  facet normal 0.514104 -0.857728 0
    outer loop
      vertex -3.60618 6.7467 3.7
      vertex -4.25011 6.36074 0.7
      vertex -3.60618 6.7467 0.7
    endloop
  endfacet
  facet normal -0.970031 0.24298 0
    outer loop
      vertex 7.32059 -2.22068 0.7
      vertex 7.50301 -1.49244 3.7
      vertex 7.50301 -1.49244 0.7
    endloop
  endfacet
  facet normal -0.970031 0.24298 0
    outer loop
      vertex 7.50301 -1.49244 3.7
      vertex 7.32059 -2.22068 0.7
      vertex 7.32059 -2.22068 3.7
    endloop
  endfacet
  facet normal -0.989176 0.146731 0
    outer loop
      vertex 7.50301 -1.49244 0.7
      vertex 7.61316 -0.74983 3.7
      vertex 7.61316 -0.74983 0.7
    endloop
  endfacet
  facet normal -0.989176 0.146731 0
    outer loop
      vertex 7.61316 -0.74983 3.7
      vertex 7.50301 -1.49244 0.7
      vertex 7.50301 -1.49244 3.7
    endloop
  endfacet
  facet normal -0.998795 0.0490674 0
    outer loop
      vertex 7.61316 -0.74983 0.7
      vertex 7.65 0 3.7
      vertex 7.65 0 0.7
    endloop
  endfacet
  facet normal -0.998795 0.0490674 0
    outer loop
      vertex 7.65 0 3.7
      vertex 7.61316 -0.74983 0.7
      vertex 7.61316 -0.74983 3.7
    endloop
  endfacet
  facet normal -0.941544 0.33689 0
    outer loop
      vertex 7.06768 -2.92753 0.7
      vertex 7.32059 -2.22068 3.7
      vertex 7.32059 -2.22068 0.7
    endloop
  endfacet
  facet normal -0.941544 0.33689 0
    outer loop
      vertex 7.32059 -2.22068 3.7
      vertex 7.06768 -2.92753 0.7
      vertex 7.06768 -2.92753 3.7
    endloop
  endfacet
  facet normal -0.90399 0.427554 0
    outer loop
      vertex 6.7467 -3.60618 0.7
      vertex 7.06768 -2.92753 3.7
      vertex 7.06768 -2.92753 0.7
    endloop
  endfacet
  facet normal -0.90399 0.427554 0
    outer loop
      vertex 7.06768 -2.92753 3.7
      vertex 6.7467 -3.60618 0.7
      vertex 6.7467 -3.60618 3.7
    endloop
  endfacet
  facet normal 0.803208 0.595699 0
    outer loop
      vertex -5.91353 -4.85311 3.7
      vertex -6.36074 -4.25011 0.7
      vertex -6.36074 -4.25011 3.7
    endloop
  endfacet
  facet normal 0.803208 0.595699 0
    outer loop
      vertex -6.36074 -4.25011 0.7
      vertex -5.91353 -4.85311 3.7
      vertex -5.91353 -4.85311 0.7
    endloop
  endfacet
  facet normal 0.90399 0.427554 0
    outer loop
      vertex -6.7467 -3.60618 3.7
      vertex -7.06768 -2.92753 0.7
      vertex -7.06768 -2.92753 3.7
    endloop
  endfacet
  facet normal 0.90399 0.427554 0
    outer loop
      vertex -7.06768 -2.92753 0.7
      vertex -6.7467 -3.60618 3.7
      vertex -6.7467 -3.60618 0.7
    endloop
  endfacet
  facet normal 0.857728 0.514104 0
    outer loop
      vertex -6.36074 -4.25011 3.7
      vertex -6.7467 -3.60618 0.7
      vertex -6.7467 -3.60618 3.7
    endloop
  endfacet
  facet normal 0.857728 0.514104 0
    outer loop
      vertex -6.7467 -3.60618 0.7
      vertex -6.36074 -4.25011 3.7
      vertex -6.36074 -4.25011 0.7
    endloop
  endfacet
  facet normal 0.970031 0.24298 0
    outer loop
      vertex -7.32059 -2.22068 3.7
      vertex -7.50301 -1.49244 0.7
      vertex -7.50301 -1.49244 3.7
    endloop
  endfacet
  facet normal 0.970031 0.24298 0
    outer loop
      vertex -7.50301 -1.49244 0.7
      vertex -7.32059 -2.22068 3.7
      vertex -7.32059 -2.22068 0.7
    endloop
  endfacet
  facet normal 0.998795 0.0490674 0
    outer loop
      vertex -7.61316 -0.74983 3.7
      vertex -7.65 0 0.7
      vertex -7.65 0 3.7
    endloop
  endfacet
  facet normal 0.998795 0.0490674 0
    outer loop
      vertex -7.65 0 0.7
      vertex -7.61316 -0.74983 3.7
      vertex -7.61316 -0.74983 0.7
    endloop
  endfacet
  facet normal 0.989176 0.146731 0
    outer loop
      vertex -7.50301 -1.49244 3.7
      vertex -7.61316 -0.74983 0.7
      vertex -7.61316 -0.74983 3.7
    endloop
  endfacet
  facet normal 0.989176 0.146731 0
    outer loop
      vertex -7.61316 -0.74983 0.7
      vertex -7.50301 -1.49244 3.7
      vertex -7.50301 -1.49244 0.7
    endloop
  endfacet
  facet normal -0.33689 0.941544 0
    outer loop
      vertex 2.92753 -7.06768 0.7
      vertex 2.22068 -7.32059 3.7
      vertex 2.92753 -7.06768 3.7
    endloop
  endfacet
  facet normal -0.33689 0.941544 0
    outer loop
      vertex 2.22068 -7.32059 3.7
      vertex 2.92753 -7.06768 0.7
      vertex 2.22068 -7.32059 0.7
    endloop
  endfacet
  facet normal -0.24298 0.970031 0
    outer loop
      vertex 2.22068 -7.32059 0.7
      vertex 1.49244 -7.50301 3.7
      vertex 2.22068 -7.32059 3.7
    endloop
  endfacet
  facet normal -0.24298 0.970031 0
    outer loop
      vertex 1.49244 -7.50301 3.7
      vertex 2.22068 -7.32059 0.7
      vertex 1.49244 -7.50301 0.7
    endloop
  endfacet
  facet normal -0.671559 0.740951 0
    outer loop
      vertex 5.40937 -5.40937 0.7
      vertex 4.85311 -5.91353 3.7
      vertex 5.40937 -5.40937 3.7
    endloop
  endfacet
  facet normal -0.671559 0.740951 0
    outer loop
      vertex 4.85311 -5.91353 3.7
      vertex 5.40937 -5.40937 0.7
      vertex 4.85311 -5.91353 0.7
    endloop
  endfacet
  facet normal -0.595699 0.803208 0
    outer loop
      vertex 4.85311 -5.91353 0.7
      vertex 4.25011 -6.36074 3.7
      vertex 4.85311 -5.91353 3.7
    endloop
  endfacet
  facet normal -0.595699 0.803208 0
    outer loop
      vertex 4.25011 -6.36074 3.7
      vertex 4.85311 -5.91353 0.7
      vertex 4.25011 -6.36074 0.7
    endloop
  endfacet
  facet normal -0.857728 0.514104 0
    outer loop
      vertex 6.36074 -4.25011 0.7
      vertex 6.7467 -3.60618 3.7
      vertex 6.7467 -3.60618 0.7
    endloop
  endfacet
  facet normal -0.857728 0.514104 0
    outer loop
      vertex 6.7467 -3.60618 3.7
      vertex 6.36074 -4.25011 0.7
      vertex 6.36074 -4.25011 3.7
    endloop
  endfacet
  facet normal -0.0490674 0.998795 0
    outer loop
      vertex 0.74983 -7.61316 0.7
      vertex 0 -7.65 3.7
      vertex 0.74983 -7.61316 3.7
    endloop
  endfacet
  facet normal -0.0490674 0.998795 0
    outer loop
      vertex 0 -7.65 3.7
      vertex 0.74983 -7.61316 0.7
      vertex 0 -7.65 0.7
    endloop
  endfacet
  facet normal 0.146731 0.989176 -0
    outer loop
      vertex -0.74983 -7.61316 0.7
      vertex -1.49244 -7.50301 3.7
      vertex -0.74983 -7.61316 3.7
    endloop
  endfacet
  facet normal 0.146731 0.989176 0
    outer loop
      vertex -1.49244 -7.50301 3.7
      vertex -0.74983 -7.61316 0.7
      vertex -1.49244 -7.50301 0.7
    endloop
  endfacet
  facet normal 0.740951 0.671559 0
    outer loop
      vertex -5.40937 -5.40937 3.7
      vertex -5.91353 -4.85311 0.7
      vertex -5.91353 -4.85311 3.7
    endloop
  endfacet
  facet normal 0.740951 0.671559 0
    outer loop
      vertex -5.91353 -4.85311 0.7
      vertex -5.40937 -5.40937 3.7
      vertex -5.40937 -5.40937 0.7
    endloop
  endfacet
  facet normal 0.941544 0.33689 0
    outer loop
      vertex -7.06768 -2.92753 3.7
      vertex -7.32059 -2.22068 0.7
      vertex -7.32059 -2.22068 3.7
    endloop
  endfacet
  facet normal 0.941544 0.33689 0
    outer loop
      vertex -7.32059 -2.22068 0.7
      vertex -7.06768 -2.92753 3.7
      vertex -7.06768 -2.92753 0.7
    endloop
  endfacet
  facet normal 0 0 1
    outer loop
      vertex 7.61316 0.74983 0.7
      vertex 7.61316 -0.74983 0.7
      vertex 7.65 0 0.7
    endloop
  endfacet
  facet normal 0 0 1
    outer loop
      vertex 7.50301 1.49244 0.7
      vertex 7.61316 -0.74983 0.7
      vertex 7.61316 0.74983 0.7
    endloop
  endfacet
  facet normal 0 0 1
    outer loop
      vertex 7.50301 1.49244 0.7
      vertex 7.50301 -1.49244 0.7
      vertex 7.61316 -0.74983 0.7
    endloop
  endfacet
  facet normal 0 0 1
    outer loop
      vertex 7.32059 2.22068 0.7
      vertex 7.50301 -1.49244 0.7
      vertex 7.50301 1.49244 0.7
    endloop
  endfacet
  facet normal 0 0 1
    outer loop
      vertex 7.32059 2.22068 0.7
      vertex 7.32059 -2.22068 0.7
      vertex 7.50301 -1.49244 0.7
    endloop
  endfacet
  facet normal 0 0 1
    outer loop
      vertex 7.06768 2.92753 0.7
      vertex 7.32059 -2.22068 0.7
      vertex 7.32059 2.22068 0.7
    endloop
  endfacet
  facet normal 0 0 1
    outer loop
      vertex 7.06768 2.92753 0.7
      vertex 7.06768 -2.92753 0.7
      vertex 7.32059 -2.22068 0.7
    endloop
  endfacet
  facet normal 0 0 1
    outer loop
      vertex 6.7467 3.60618 0.7
      vertex 7.06768 -2.92753 0.7
      vertex 7.06768 2.92753 0.7
    endloop
  endfacet
  facet normal 0 0 1
    outer loop
      vertex 6.7467 3.60618 0.7
      vertex 6.7467 -3.60618 0.7
      vertex 7.06768 -2.92753 0.7
    endloop
  endfacet
  facet normal 0 0 1
    outer loop
      vertex 6.36074 4.25011 0.7
      vertex 6.7467 -3.60618 0.7
      vertex 6.7467 3.60618 0.7
    endloop
  endfacet
  facet normal 0 0 1
    outer loop
      vertex 6.36074 4.25011 0.7
      vertex 6.36074 -4.25011 0.7
      vertex 6.7467 -3.60618 0.7
    endloop
  endfacet
  facet normal 0 0 1
    outer loop
      vertex 5.91353 4.85311 0.7
      vertex 6.36074 -4.25011 0.7
      vertex 6.36074 4.25011 0.7
    endloop
  endfacet
  facet normal 0 0 1
    outer loop
      vertex 5.91353 4.85311 0.7
      vertex 5.91353 -4.85311 0.7
      vertex 6.36074 -4.25011 0.7
    endloop
  endfacet
  facet normal 0 0 1
    outer loop
      vertex 5.40937 5.40937 0.7
      vertex 5.91353 -4.85311 0.7
      vertex 5.91353 4.85311 0.7
    endloop
  endfacet
  facet normal 0 0 1
    outer loop
      vertex 5.40937 5.40937 0.7
      vertex 5.40937 -5.40937 0.7
      vertex 5.91353 -4.85311 0.7
    endloop
  endfacet
  facet normal 0 0 1
    outer loop
      vertex 4.85311 5.91353 0.7
      vertex 5.40937 -5.40937 0.7
      vertex 5.40937 5.40937 0.7
    endloop
  endfacet
  facet normal 0 0 1
    outer loop
      vertex 4.85311 5.91353 0.7
      vertex 4.85311 -5.91353 0.7
      vertex 5.40937 -5.40937 0.7
    endloop
  endfacet
  facet normal 0 0 1
    outer loop
      vertex 4.25011 6.36074 0.7
      vertex 4.85311 -5.91353 0.7
      vertex 4.85311 5.91353 0.7
    endloop
  endfacet
  facet normal 0 0 1
    outer loop
      vertex 4.25011 6.36074 0.7
      vertex 4.25011 -6.36074 0.7
      vertex 4.85311 -5.91353 0.7
    endloop
  endfacet
  facet normal 0 0 1
    outer loop
      vertex 3.60618 6.7467 0.7
      vertex 4.25011 -6.36074 0.7
      vertex 4.25011 6.36074 0.7
    endloop
  endfacet
  facet normal 0 0 1
    outer loop
      vertex 3.60618 6.7467 0.7
      vertex 3.60618 -6.7467 0.7
      vertex 4.25011 -6.36074 0.7
    endloop
  endfacet
  facet normal 0 0 1
    outer loop
      vertex 2.92753 7.06768 0.7
      vertex 3.60618 -6.7467 0.7
      vertex 3.60618 6.7467 0.7
    endloop
  endfacet
  facet normal 0 0 1
    outer loop
      vertex 2.92753 7.06768 0.7
      vertex 2.92753 -7.06768 0.7
      vertex 3.60618 -6.7467 0.7
    endloop
  endfacet
  facet normal 0 0 1
    outer loop
      vertex 2.22068 7.32059 0.7
      vertex 2.92753 -7.06768 0.7
      vertex 2.92753 7.06768 0.7
    endloop
  endfacet
  facet normal 0 0 1
    outer loop
      vertex 2.22068 7.32059 0.7
      vertex 2.22068 -7.32059 0.7
      vertex 2.92753 -7.06768 0.7
    endloop
  endfacet
  facet normal 0 0 1
    outer loop
      vertex 1.49244 7.50301 0.7
      vertex 2.22068 -7.32059 0.7
      vertex 2.22068 7.32059 0.7
    endloop
  endfacet
  facet normal 0 0 1
    outer loop
      vertex 1.49244 7.50301 0.7
      vertex 1.49244 -7.50301 0.7
      vertex 2.22068 -7.32059 0.7
    endloop
  endfacet
  facet normal 0 0 1
    outer loop
      vertex 0.74983 7.61316 0.7
      vertex 1.49244 -7.50301 0.7
      vertex 1.49244 7.50301 0.7
    endloop
  endfacet
  facet normal 0 0 1
    outer loop
      vertex 0.74983 7.61316 0.7
      vertex 0.74983 -7.61316 0.7
      vertex 1.49244 -7.50301 0.7
    endloop
  endfacet
  facet normal 0 0 1
    outer loop
      vertex 0 7.65 0.7
      vertex 0.74983 -7.61316 0.7
      vertex 0.74983 7.61316 0.7
    endloop
  endfacet
  facet normal 0 0 1
    outer loop
      vertex 0 7.65 0.7
      vertex 0 -7.65 0.7
      vertex 0.74983 -7.61316 0.7
    endloop
  endfacet
  facet normal -0 0 1
    outer loop
      vertex -0.74983 7.61316 0.7
      vertex 0 -7.65 0.7
      vertex 0 7.65 0.7
    endloop
  endfacet
  facet normal 0 0 1
    outer loop
      vertex -0.74983 7.61316 0.7
      vertex -0.74983 -7.61316 0.7
      vertex 0 -7.65 0.7
    endloop
  endfacet
  facet normal -0 0 1
    outer loop
      vertex -1.49244 7.50301 0.7
      vertex -0.74983 -7.61316 0.7
      vertex -0.74983 7.61316 0.7
    endloop
  endfacet
  facet normal 0 0 1
    outer loop
      vertex -1.49244 7.50301 0.7
      vertex -1.49244 -7.50301 0.7
      vertex -0.74983 -7.61316 0.7
    endloop
  endfacet
  facet normal -0 0 1
    outer loop
      vertex -2.22068 7.32059 0.7
      vertex -1.49244 -7.50301 0.7
      vertex -1.49244 7.50301 0.7
    endloop
  endfacet
  facet normal 0 0 1
    outer loop
      vertex -2.22068 7.32059 0.7
      vertex -2.22068 -7.32059 0.7
      vertex -1.49244 -7.50301 0.7
    endloop
  endfacet
  facet normal -0 0 1
    outer loop
      vertex -2.92753 7.06768 0.7
      vertex -2.22068 -7.32059 0.7
      vertex -2.22068 7.32059 0.7
    endloop
  endfacet
  facet normal 0 0 1
    outer loop
      vertex -2.92753 7.06768 0.7
      vertex -2.92753 -7.06768 0.7
      vertex -2.22068 -7.32059 0.7
    endloop
  endfacet
  facet normal -0 0 1
    outer loop
      vertex -3.60618 6.7467 0.7
      vertex -2.92753 -7.06768 0.7
      vertex -2.92753 7.06768 0.7
    endloop
  endfacet
  facet normal 0 0 1
    outer loop
      vertex -3.60618 6.7467 0.7
      vertex -3.60618 -6.7467 0.7
      vertex -2.92753 -7.06768 0.7
    endloop
  endfacet
  facet normal -0 0 1
    outer loop
      vertex -4.25011 6.36074 0.7
      vertex -3.60618 -6.7467 0.7
      vertex -3.60618 6.7467 0.7
    endloop
  endfacet
  facet normal 0 0 1
    outer loop
      vertex -4.25011 6.36074 0.7
      vertex -4.25011 -6.36074 0.7
      vertex -3.60618 -6.7467 0.7
    endloop
  endfacet
  facet normal -0 0 1
    outer loop
      vertex -4.85311 5.91353 0.7
      vertex -4.25011 -6.36074 0.7
      vertex -4.25011 6.36074 0.7
    endloop
  endfacet
  facet normal 0 0 1
    outer loop
      vertex -4.85311 5.91353 0.7
      vertex -4.85311 -5.91353 0.7
      vertex -4.25011 -6.36074 0.7
    endloop
  endfacet
  facet normal -0 0 1
    outer loop
      vertex -5.40937 5.40937 0.7
      vertex -4.85311 -5.91353 0.7
      vertex -4.85311 5.91353 0.7
    endloop
  endfacet
  facet normal 0 0 1
    outer loop
      vertex -5.40937 5.40937 0.7
      vertex -5.40937 -5.40937 0.7
      vertex -4.85311 -5.91353 0.7
    endloop
  endfacet
  facet normal -0 0 1
    outer loop
      vertex -5.91353 4.85311 0.7
      vertex -5.40937 -5.40937 0.7
      vertex -5.40937 5.40937 0.7
    endloop
  endfacet
  facet normal 0 0 1
    outer loop
      vertex -5.91353 4.85311 0.7
      vertex -5.91353 -4.85311 0.7
      vertex -5.40937 -5.40937 0.7
    endloop
  endfacet
  facet normal -0 0 1
    outer loop
      vertex -6.36074 4.25011 0.7
      vertex -5.91353 -4.85311 0.7
      vertex -5.91353 4.85311 0.7
    endloop
  endfacet
  facet normal 0 0 1
    outer loop
      vertex -6.36074 4.25011 0.7
      vertex -6.36074 -4.25011 0.7
      vertex -5.91353 -4.85311 0.7
    endloop
  endfacet
  facet normal -0 0 1
    outer loop
      vertex -6.7467 3.60618 0.7
      vertex -6.36074 -4.25011 0.7
      vertex -6.36074 4.25011 0.7
    endloop
  endfacet
  facet normal 0 0 1
    outer loop
      vertex -6.7467 3.60618 0.7
      vertex -6.7467 -3.60618 0.7
      vertex -6.36074 -4.25011 0.7
    endloop
  endfacet
  facet normal -0 0 1
    outer loop
      vertex -7.06768 2.92753 0.7
      vertex -6.7467 -3.60618 0.7
      vertex -6.7467 3.60618 0.7
    endloop
  endfacet
  facet normal 0 0 1
    outer loop
      vertex -7.06768 2.92753 0.7
      vertex -7.06768 -2.92753 0.7
      vertex -6.7467 -3.60618 0.7
    endloop
  endfacet
  facet normal -0 0 1
    outer loop
      vertex -7.32059 2.22068 0.7
      vertex -7.06768 -2.92753 0.7
      vertex -7.06768 2.92753 0.7
    endloop
  endfacet
  facet normal 0 0 1
    outer loop
      vertex -7.32059 2.22068 0.7
      vertex -7.32059 -2.22068 0.7
      vertex -7.06768 -2.92753 0.7
    endloop
  endfacet
  facet normal -0 0 1
    outer loop
      vertex -7.50301 1.49244 0.7
      vertex -7.32059 -2.22068 0.7
      vertex -7.32059 2.22068 0.7
    endloop
  endfacet
  facet normal 0 0 1
    outer loop
      vertex -7.50301 1.49244 0.7
      vertex -7.50301 -1.49244 0.7
      vertex -7.32059 -2.22068 0.7
    endloop
  endfacet
  facet normal -0 0 1
    outer loop
      vertex -7.61316 0.74983 0.7
      vertex -7.50301 -1.49244 0.7
      vertex -7.50301 1.49244 0.7
    endloop
  endfacet
  facet normal 0 0 1
    outer loop
      vertex -7.61316 0.74983 0.7
      vertex -7.61316 -0.74983 0.7
      vertex -7.50301 -1.49244 0.7
    endloop
  endfacet
  facet normal 0 -0 1
    outer loop
      vertex -7.61316 -0.74983 0.7
      vertex -7.61316 0.74983 0.7
      vertex -7.65 0 0.7
    endloop
  endfacet
  facet normal -0.740951 0.671559 0
    outer loop
      vertex 5.40937 -5.40937 0.7
      vertex 5.91353 -4.85311 3.7
      vertex 5.91353 -4.85311 0.7
    endloop
  endfacet
  facet normal -0.740951 0.671559 0
    outer loop
      vertex 5.91353 -4.85311 3.7
      vertex 5.40937 -5.40937 0.7
      vertex 5.40937 -5.40937 3.7
    endloop
  endfacet
  facet normal 0.24298 0.970031 -0
    outer loop
      vertex -1.49244 -7.50301 0.7
      vertex -2.22068 -7.32059 3.7
      vertex -1.49244 -7.50301 3.7
    endloop
  endfacet
  facet normal 0.24298 0.970031 0
    outer loop
      vertex -2.22068 -7.32059 3.7
      vertex -1.49244 -7.50301 0.7
      vertex -2.22068 -7.32059 0.7
    endloop
  endfacet
  facet normal 0.671559 0.740951 -0
    outer loop
      vertex -4.85311 -5.91353 0.7
      vertex -5.40937 -5.40937 3.7
      vertex -4.85311 -5.91353 3.7
    endloop
  endfacet
  facet normal 0.671559 0.740951 0
    outer loop
      vertex -5.40937 -5.40937 3.7
      vertex -4.85311 -5.91353 0.7
      vertex -5.40937 -5.40937 0.7
    endloop
  endfacet
  facet normal 0.427554 0.90399 -0
    outer loop
      vertex -2.92753 -7.06768 0.7
      vertex -3.60618 -6.7467 3.7
      vertex -2.92753 -7.06768 3.7
    endloop
  endfacet
  facet normal 0.427554 0.90399 0
    outer loop
      vertex -3.60618 -6.7467 3.7
      vertex -2.92753 -7.06768 0.7
      vertex -3.60618 -6.7467 0.7
    endloop
  endfacet
  facet normal 0.514104 0.857728 -0
    outer loop
      vertex -3.60618 -6.7467 0.7
      vertex -4.25011 -6.36074 3.7
      vertex -3.60618 -6.7467 3.7
    endloop
  endfacet
  facet normal 0.514104 0.857728 0
    outer loop
      vertex -4.25011 -6.36074 3.7
      vertex -3.60618 -6.7467 0.7
      vertex -4.25011 -6.36074 0.7
    endloop
  endfacet
  facet normal 0.33689 0.941544 -0
    outer loop
      vertex -2.22068 -7.32059 0.7
      vertex -2.92753 -7.06768 3.7
      vertex -2.22068 -7.32059 3.7
    endloop
  endfacet
  facet normal 0.33689 0.941544 0
    outer loop
      vertex -2.92753 -7.06768 3.7
      vertex -2.22068 -7.32059 0.7
      vertex -2.92753 -7.06768 0.7
    endloop
  endfacet
  facet normal 0.595699 0.803208 -0
    outer loop
      vertex -4.25011 -6.36074 0.7
      vertex -4.85311 -5.91353 3.7
      vertex -4.25011 -6.36074 3.7
    endloop
  endfacet
  facet normal 0.595699 0.803208 0
    outer loop
      vertex -4.85311 -5.91353 3.7
      vertex -4.25011 -6.36074 0.7
      vertex -4.85311 -5.91353 0.7
    endloop
  endfacet
endsolid OpenSCAD_Model
