solid OpenSCAD_Model
  facet normal 0.671558 0.740952 -0
    outer loop
      vertex 5.83363 5.83363 0
      vertex 5.23374 6.37734 1.7
      vertex 5.83363 5.83363 1.7
    endloop
  endfacet
  facet normal 0.671558 0.740952 0
    outer loop
      vertex 5.23374 6.37734 1.7
      vertex 5.83363 5.83363 0
      vertex 5.23374 6.37734 0
    endloop
  endfacet
  facet normal 0.998795 -0.049068 0
    outer loop
      vertex 8.21027 -0.80864 1.7
      vertex 8.25 0 0
      vertex 8.25 0 1.7
    endloop
  endfacet
  facet normal 0.998795 -0.049068 0
    outer loop
      vertex 8.25 0 0
      vertex 8.21027 -0.80864 1.7
      vertex 8.21027 -0.80864 0
    endloop
  endfacet
  facet normal 0.5957 0.803207 -0
    outer loop
      vertex 5.23374 6.37734 0
      vertex 4.58345 6.85962 1.7
      vertex 5.23374 6.37734 1.7
    endloop
  endfacet
  facet normal 0.5957 0.803207 0
    outer loop
      vertex 4.58345 6.85962 1.7
      vertex 5.23374 6.37734 0
      vertex 4.58345 6.85962 0
    endloop
  endfacet
  facet normal -0.33689 0.941544 0
    outer loop
      vertex -2.39485 7.89476 0
      vertex -3.15714 7.62201 1.7
      vertex -2.39485 7.89476 1.7
    endloop
  endfacet
  facet normal -0.33689 0.941544 0
    outer loop
      vertex -3.15714 7.62201 1.7
      vertex -2.39485 7.89476 0
      vertex -3.15714 7.62201 0
    endloop
  endfacet
  facet normal -0.90399 0.427554 0
    outer loop
      vertex -7.62201 3.15714 0
      vertex -7.27585 3.88902 1.7
      vertex -7.27585 3.88902 0
    endloop
  endfacet
  facet normal -0.90399 0.427554 0
    outer loop
      vertex -7.27585 3.88902 1.7
      vertex -7.62201 3.15714 0
      vertex -7.62201 3.15714 1.7
    endloop
  endfacet
  facet normal -0.90399 -0.427554 0
    outer loop
      vertex -7.27585 -3.88902 0
      vertex -7.62201 -3.15714 1.7
      vertex -7.62201 -3.15714 0
    endloop
  endfacet
  facet normal -0.90399 -0.427554 0
    outer loop
      vertex -7.62201 -3.15714 1.7
      vertex -7.27585 -3.88902 0
      vertex -7.27585 -3.88902 1.7
    endloop
  endfacet
  facet normal 0.970031 0.24298 0
    outer loop
      vertex 8.09148 1.60949 1.7
      vertex 7.89476 2.39485 0
      vertex 7.89476 2.39485 1.7
    endloop
  endfacet
  facet normal 0.970031 0.24298 0
    outer loop
      vertex 7.89476 2.39485 0
      vertex 8.09148 1.60949 1.7
      vertex 8.09148 1.60949 0
    endloop
  endfacet
  facet normal 0.941544 0.33689 0
    outer loop
      vertex 7.89476 2.39485 1.7
      vertex 7.62201 3.15714 0
      vertex 7.62201 3.15714 1.7
    endloop
  endfacet
  facet normal 0.941544 0.33689 0
    outer loop
      vertex 7.62201 3.15714 0
      vertex 7.89476 2.39485 1.7
      vertex 7.89476 2.39485 0
    endloop
  endfacet
  facet normal 0.857728 0.514103 0
    outer loop
      vertex 7.27585 3.88902 1.7
      vertex 6.85962 4.58345 0
      vertex 6.85962 4.58345 1.7
    endloop
  endfacet
  facet normal 0.857728 0.514103 0
    outer loop
      vertex 6.85962 4.58345 0
      vertex 7.27585 3.88902 1.7
      vertex 7.27585 3.88902 0
    endloop
  endfacet
  facet normal 0.803207 0.5957 0
    outer loop
      vertex 6.85962 4.58345 1.7
      vertex 6.37734 5.23374 0
      vertex 6.37734 5.23374 1.7
    endloop
  endfacet
  facet normal 0.803207 0.5957 0
    outer loop
      vertex 6.37734 5.23374 0
      vertex 6.85962 4.58345 1.7
      vertex 6.85962 4.58345 0
    endloop
  endfacet
  facet normal 0.514103 0.857728 -0
    outer loop
      vertex 4.58345 6.85962 0
      vertex 3.88902 7.27585 1.7
      vertex 4.58345 6.85962 1.7
    endloop
  endfacet
  facet normal 0.514103 0.857728 0
    outer loop
      vertex 3.88902 7.27585 1.7
      vertex 4.58345 6.85962 0
      vertex 3.88902 7.27585 0
    endloop
  endfacet
  facet normal -0.5957 0.803207 0
    outer loop
      vertex -4.58345 6.85962 0
      vertex -5.23374 6.37734 1.7
      vertex -4.58345 6.85962 1.7
    endloop
  endfacet
  facet normal -0.5957 0.803207 0
    outer loop
      vertex -5.23374 6.37734 1.7
      vertex -4.58345 6.85962 0
      vertex -5.23374 6.37734 0
    endloop
  endfacet
  facet normal 0.989177 -0.14673 0
    outer loop
      vertex 8.09148 -1.60949 1.7
      vertex 8.21027 -0.80864 0
      vertex 8.21027 -0.80864 1.7
    endloop
  endfacet
  facet normal 0.989177 -0.14673 0
    outer loop
      vertex 8.21027 -0.80864 0
      vertex 8.09148 -1.60949 1.7
      vertex 8.09148 -1.60949 0
    endloop
  endfacet
  facet normal 0.857728 -0.514103 0
    outer loop
      vertex 6.85962 -4.58345 1.7
      vertex 7.27585 -3.88902 0
      vertex 7.27585 -3.88902 1.7
    endloop
  endfacet
  facet normal 0.857728 -0.514103 0
    outer loop
      vertex 7.27585 -3.88902 0
      vertex 6.85962 -4.58345 1.7
      vertex 6.85962 -4.58345 0
    endloop
  endfacet
  facet normal 0.24298 -0.970031 0
    outer loop
      vertex 1.60949 -8.09148 0
      vertex 2.39485 -7.89476 1.7
      vertex 1.60949 -8.09148 1.7
    endloop
  endfacet
  facet normal 0.24298 -0.970031 0
    outer loop
      vertex 2.39485 -7.89476 1.7
      vertex 1.60949 -8.09148 0
      vertex 2.39485 -7.89476 0
    endloop
  endfacet
  facet normal 0.671558 -0.740952 0
    outer loop
      vertex 5.23374 -6.37734 0
      vertex 5.83363 -5.83363 1.7
      vertex 5.23374 -6.37734 1.7
    endloop
  endfacet
  facet normal 0.671558 -0.740952 0
    outer loop
      vertex 5.83363 -5.83363 1.7
      vertex 5.23374 -6.37734 0
      vertex 5.83363 -5.83363 0
    endloop
  endfacet
  facet normal -0.049068 -0.998795 0
    outer loop
      vertex -0.80864 -8.21027 0
      vertex 0 -8.25 1.7
      vertex -0.80864 -8.21027 1.7
    endloop
  endfacet
  facet normal -0.049068 -0.998795 -0
    outer loop
      vertex 0 -8.25 1.7
      vertex -0.80864 -8.21027 0
      vertex 0 -8.25 0
    endloop
  endfacet
  facet normal -0.514103 -0.857728 0
    outer loop
      vertex -4.58345 -6.85962 0
      vertex -3.88902 -7.27585 1.7
      vertex -4.58345 -6.85962 1.7
    endloop
  endfacet
  facet normal -0.514103 -0.857728 -0
    outer loop
      vertex -3.88902 -7.27585 1.7
      vertex -4.58345 -6.85962 0
      vertex -3.88902 -7.27585 0
    endloop
  endfacet
  facet normal -0.740952 -0.671558 0
    outer loop
      vertex -5.83363 -5.83363 0
      vertex -6.37734 -5.23374 1.7
      vertex -6.37734 -5.23374 0
    endloop
  endfacet
  facet normal -0.740952 -0.671558 0
    outer loop
      vertex -6.37734 -5.23374 1.7
      vertex -5.83363 -5.83363 0
      vertex -5.83363 -5.83363 1.7
    endloop
  endfacet
  facet normal 0.90399 0.427554 0
    outer loop
      vertex 7.62201 3.15714 1.7
      vertex 7.27585 3.88902 0
      vertex 7.27585 3.88902 1.7
    endloop
  endfacet
  facet normal 0.90399 0.427554 0
    outer loop
      vertex 7.27585 3.88902 0
      vertex 7.62201 3.15714 1.7
      vertex 7.62201 3.15714 0
    endloop
  endfacet
  facet normal 0.740952 0.671558 0
    outer loop
      vertex 6.37734 5.23374 1.7
      vertex 5.83363 5.83363 0
      vertex 5.83363 5.83363 1.7
    endloop
  endfacet
  facet normal 0.740952 0.671558 0
    outer loop
      vertex 5.83363 5.83363 0
      vertex 6.37734 5.23374 1.7
      vertex 6.37734 5.23374 0
    endloop
  endfacet
  facet normal 0.049068 0.998795 -0
    outer loop
      vertex 0.80864 8.21027 0
      vertex 0 8.25 1.7
      vertex 0.80864 8.21027 1.7
    endloop
  endfacet
  facet normal 0.049068 0.998795 0
    outer loop
      vertex 0 8.25 1.7
      vertex 0.80864 8.21027 0
      vertex 0 8.25 0
    endloop
  endfacet
  facet normal 0.427554 0.90399 -0
    outer loop
      vertex 3.88902 7.27585 0
      vertex 3.15714 7.62201 1.7
      vertex 3.88902 7.27585 1.7
    endloop
  endfacet
  facet normal 0.427554 0.90399 0
    outer loop
      vertex 3.15714 7.62201 1.7
      vertex 3.88902 7.27585 0
      vertex 3.15714 7.62201 0
    endloop
  endfacet
  facet normal 0.33689 0.941544 -0
    outer loop
      vertex 3.15714 7.62201 0
      vertex 2.39485 7.89476 1.7
      vertex 3.15714 7.62201 1.7
    endloop
  endfacet
  facet normal 0.33689 0.941544 0
    outer loop
      vertex 2.39485 7.89476 1.7
      vertex 3.15714 7.62201 0
      vertex 2.39485 7.89476 0
    endloop
  endfacet
  facet normal 0.24298 0.970031 -0
    outer loop
      vertex 2.39485 7.89476 0
      vertex 1.60949 8.09148 1.7
      vertex 2.39485 7.89476 1.7
    endloop
  endfacet
  facet normal 0.24298 0.970031 0
    outer loop
      vertex 1.60949 8.09148 1.7
      vertex 2.39485 7.89476 0
      vertex 1.60949 8.09148 0
    endloop
  endfacet
  facet normal 0.14673 0.989177 -0
    outer loop
      vertex 1.60949 8.09148 0
      vertex 0.80864 8.21027 1.7
      vertex 1.60949 8.09148 1.7
    endloop
  endfacet
  facet normal 0.14673 0.989177 0
    outer loop
      vertex 0.80864 8.21027 1.7
      vertex 1.60949 8.09148 0
      vertex 0.80864 8.21027 0
    endloop
  endfacet
  facet normal -0.998795 0.049068 0
    outer loop
      vertex -8.25 0 0
      vertex -8.21027 0.80864 1.7
      vertex -8.21027 0.80864 0
    endloop
  endfacet
  facet normal -0.998795 0.049068 0
    outer loop
      vertex -8.21027 0.80864 1.7
      vertex -8.25 0 0
      vertex -8.25 0 1.7
    endloop
  endfacet
  facet normal -0.941544 0.33689 0
    outer loop
      vertex -7.89476 2.39485 0
      vertex -7.62201 3.15714 1.7
      vertex -7.62201 3.15714 0
    endloop
  endfacet
  facet normal -0.941544 0.33689 0
    outer loop
      vertex -7.62201 3.15714 1.7
      vertex -7.89476 2.39485 0
      vertex -7.89476 2.39485 1.7
    endloop
  endfacet
  facet normal -0.970031 0.24298 0
    outer loop
      vertex -8.09148 1.60949 0
      vertex -7.89476 2.39485 1.7
      vertex -7.89476 2.39485 0
    endloop
  endfacet
  facet normal -0.970031 0.24298 0
    outer loop
      vertex -7.89476 2.39485 1.7
      vertex -8.09148 1.60949 0
      vertex -8.09148 1.60949 1.7
    endloop
  endfacet
  facet normal -0.740952 0.671558 0
    outer loop
      vertex -6.37734 5.23374 0
      vertex -5.83363 5.83363 1.7
      vertex -5.83363 5.83363 0
    endloop
  endfacet
  facet normal -0.740952 0.671558 0
    outer loop
      vertex -5.83363 5.83363 1.7
      vertex -6.37734 5.23374 0
      vertex -6.37734 5.23374 1.7
    endloop
  endfacet
  facet normal -0.803207 0.5957 0
    outer loop
      vertex -6.85962 4.58345 0
      vertex -6.37734 5.23374 1.7
      vertex -6.37734 5.23374 0
    endloop
  endfacet
  facet normal -0.803207 0.5957 0
    outer loop
      vertex -6.37734 5.23374 1.7
      vertex -6.85962 4.58345 0
      vertex -6.85962 4.58345 1.7
    endloop
  endfacet
  facet normal -0.049068 0.998795 0
    outer loop
      vertex 0 8.25 0
      vertex -0.80864 8.21027 1.7
      vertex 0 8.25 1.7
    endloop
  endfacet
  facet normal -0.049068 0.998795 0
    outer loop
      vertex -0.80864 8.21027 1.7
      vertex 0 8.25 0
      vertex -0.80864 8.21027 0
    endloop
  endfacet
  facet normal -0.14673 0.989177 0
    outer loop
      vertex -0.80864 8.21027 0
      vertex -1.60949 8.09148 1.7
      vertex -0.80864 8.21027 1.7
    endloop
  endfacet
  facet normal -0.14673 0.989177 0
    outer loop
      vertex -1.60949 8.09148 1.7
      vertex -0.80864 8.21027 0
      vertex -1.60949 8.09148 0
    endloop
  endfacet
  facet normal -0.427554 0.90399 0
    outer loop
      vertex -3.15714 7.62201 0
      vertex -3.88902 7.27585 1.7
      vertex -3.15714 7.62201 1.7
    endloop
  endfacet
  facet normal -0.427554 0.90399 0
    outer loop
      vertex -3.88902 7.27585 1.7
      vertex -3.15714 7.62201 0
      vertex -3.88902 7.27585 0
    endloop
  endfacet
  facet normal -0.514103 0.857728 0
    outer loop
      vertex -3.88902 7.27585 0
      vertex -4.58345 6.85962 1.7
      vertex -3.88902 7.27585 1.7
    endloop
  endfacet
  facet normal -0.514103 0.857728 0
    outer loop
      vertex -4.58345 6.85962 1.7
      vertex -3.88902 7.27585 0
      vertex -4.58345 6.85962 0
    endloop
  endfacet
  facet normal -0.671558 0.740952 0
    outer loop
      vertex -5.23374 6.37734 0
      vertex -5.83363 5.83363 1.7
      vertex -5.23374 6.37734 1.7
    endloop
  endfacet
  facet normal -0.671558 0.740952 0
    outer loop
      vertex -5.83363 5.83363 1.7
      vertex -5.23374 6.37734 0
      vertex -5.83363 5.83363 0
    endloop
  endfacet
  facet normal 0.998795 0.049068 0
    outer loop
      vertex 8.25 0 1.7
      vertex 8.21027 0.80864 0
      vertex 8.21027 0.80864 1.7
    endloop
  endfacet
  facet normal 0.998795 0.049068 0
    outer loop
      vertex 8.21027 0.80864 0
      vertex 8.25 0 1.7
      vertex 8.25 0 0
    endloop
  endfacet
  facet normal 0.049068 -0.998795 0
    outer loop
      vertex 0 -8.25 0
      vertex 0.80864 -8.21027 1.7
      vertex 0 -8.25 1.7
    endloop
  endfacet
  facet normal 0.049068 -0.998795 0
    outer loop
      vertex 0.80864 -8.21027 1.7
      vertex 0 -8.25 0
      vertex 0.80864 -8.21027 0
    endloop
  endfacet
  facet normal 0.14673 -0.989177 0
    outer loop
      vertex 0.80864 -8.21027 0
      vertex 1.60949 -8.09148 1.7
      vertex 0.80864 -8.21027 1.7
    endloop
  endfacet
  facet normal 0.14673 -0.989177 0
    outer loop
      vertex 1.60949 -8.09148 1.7
      vertex 0.80864 -8.21027 0
      vertex 1.60949 -8.09148 0
    endloop
  endfacet
  facet normal 0.427554 -0.90399 0
    outer loop
      vertex 3.15714 -7.62201 0
      vertex 3.88902 -7.27585 1.7
      vertex 3.15714 -7.62201 1.7
    endloop
  endfacet
  facet normal 0.427554 -0.90399 0
    outer loop
      vertex 3.88902 -7.27585 1.7
      vertex 3.15714 -7.62201 0
      vertex 3.88902 -7.27585 0
    endloop
  endfacet
  facet normal 0.5957 -0.803207 0
    outer loop
      vertex 4.58345 -6.85962 0
      vertex 5.23374 -6.37734 1.7
      vertex 4.58345 -6.85962 1.7
    endloop
  endfacet
  facet normal 0.5957 -0.803207 0
    outer loop
      vertex 5.23374 -6.37734 1.7
      vertex 4.58345 -6.85962 0
      vertex 5.23374 -6.37734 0
    endloop
  endfacet
  facet normal 0.514103 -0.857728 0
    outer loop
      vertex 3.88902 -7.27585 0
      vertex 4.58345 -6.85962 1.7
      vertex 3.88902 -7.27585 1.7
    endloop
  endfacet
  facet normal 0.514103 -0.857728 0
    outer loop
      vertex 4.58345 -6.85962 1.7
      vertex 3.88902 -7.27585 0
      vertex 4.58345 -6.85962 0
    endloop
  endfacet
  facet normal -0.24298 -0.970031 0
    outer loop
      vertex -2.39485 -7.89476 0
      vertex -1.60949 -8.09148 1.7
      vertex -2.39485 -7.89476 1.7
    endloop
  endfacet
  facet normal -0.24298 -0.970031 -0
    outer loop
      vertex -1.60949 -8.09148 1.7
      vertex -2.39485 -7.89476 0
      vertex -1.60949 -8.09148 0
    endloop
  endfacet
  facet normal -0.33689 -0.941544 0
    outer loop
      vertex -3.15714 -7.62201 0
      vertex -2.39485 -7.89476 1.7
      vertex -3.15714 -7.62201 1.7
    endloop
  endfacet
  facet normal -0.33689 -0.941544 -0
    outer loop
      vertex -2.39485 -7.89476 1.7
      vertex -3.15714 -7.62201 0
      vertex -2.39485 -7.89476 0
    endloop
  endfacet
  facet normal -0.14673 -0.989177 0
    outer loop
      vertex -1.60949 -8.09148 0
      vertex -0.80864 -8.21027 1.7
      vertex -1.60949 -8.09148 1.7
    endloop
  endfacet
  facet normal -0.14673 -0.989177 -0
    outer loop
      vertex -0.80864 -8.21027 1.7
      vertex -1.60949 -8.09148 0
      vertex -0.80864 -8.21027 0
    endloop
  endfacet
  facet normal -0.427554 -0.90399 0
    outer loop
      vertex -3.88902 -7.27585 0
      vertex -3.15714 -7.62201 1.7
      vertex -3.88902 -7.27585 1.7
    endloop
  endfacet
  facet normal -0.427554 -0.90399 -0
    outer loop
      vertex -3.15714 -7.62201 1.7
      vertex -3.88902 -7.27585 0
      vertex -3.15714 -7.62201 0
    endloop
  endfacet
  facet normal -0.671558 -0.740952 0
    outer loop
      vertex -5.83363 -5.83363 0
      vertex -5.23374 -6.37734 1.7
      vertex -5.83363 -5.83363 1.7
    endloop
  endfacet
  facet normal -0.671558 -0.740952 -0
    outer loop
      vertex -5.23374 -6.37734 1.7
      vertex -5.83363 -5.83363 0
      vertex -5.23374 -6.37734 0
    endloop
  endfacet
  facet normal -0.970031 -0.24298 0
    outer loop
      vertex -7.89476 -2.39485 0
      vertex -8.09148 -1.60949 1.7
      vertex -8.09148 -1.60949 0
    endloop
  endfacet
  facet normal -0.970031 -0.24298 0
    outer loop
      vertex -8.09148 -1.60949 1.7
      vertex -7.89476 -2.39485 0
      vertex -7.89476 -2.39485 1.7
    endloop
  endfacet
  facet normal -0.998795 -0.049068 0
    outer loop
      vertex -8.21027 -0.80864 0
      vertex -8.25 0 1.7
      vertex -8.25 0 0
    endloop
  endfacet
  facet normal -0.998795 -0.049068 0
    outer loop
      vertex -8.25 0 1.7
      vertex -8.21027 -0.80864 0
      vertex -8.21027 -0.80864 1.7
    endloop
  endfacet
  facet normal 0 0 -1
    outer loop
      vertex 8.21027 -0.80864 0
      vertex 8.21027 0.80864 0
      vertex 8.25 0 0
    endloop
  endfacet
  facet normal 0 0 -1
    outer loop
      vertex 8.09148 -1.60949 0
      vertex 8.21027 0.80864 0
      vertex 8.21027 -0.80864 0
    endloop
  endfacet
  facet normal 0 0 -1
    outer loop
      vertex 8.09148 -1.60949 0
      vertex 8.09148 1.60949 0
      vertex 8.21027 0.80864 0
    endloop
  endfacet
  facet normal 0 0 -1
    outer loop
      vertex 7.89476 -2.39485 0
      vertex 8.09148 1.60949 0
      vertex 8.09148 -1.60949 0
    endloop
  endfacet
  facet normal 0 0 -1
    outer loop
      vertex 7.89476 -2.39485 0
      vertex 7.89476 2.39485 0
      vertex 8.09148 1.60949 0
    endloop
  endfacet
  facet normal 0 0 -1
    outer loop
      vertex 7.62201 -3.15714 0
      vertex 7.89476 2.39485 0
      vertex 7.89476 -2.39485 0
    endloop
  endfacet
  facet normal 0 0 -1
    outer loop
      vertex 7.62201 -3.15714 0
      vertex 7.62201 3.15714 0
      vertex 7.89476 2.39485 0
    endloop
  endfacet
  facet normal 0 0 -1
    outer loop
      vertex 7.27585 -3.88902 0
      vertex 7.62201 3.15714 0
      vertex 7.62201 -3.15714 0
    endloop
  endfacet
  facet normal 0 0 -1
    outer loop
      vertex 7.27585 -3.88902 0
      vertex 7.27585 3.88902 0
      vertex 7.62201 3.15714 0
    endloop
  endfacet
  facet normal 0 0 -1
    outer loop
      vertex 6.85962 -4.58345 0
      vertex 7.27585 3.88902 0
      vertex 7.27585 -3.88902 0
    endloop
  endfacet
  facet normal 0 0 -1
    outer loop
      vertex 6.85962 -4.58345 0
      vertex 6.85962 4.58345 0
      vertex 7.27585 3.88902 0
    endloop
  endfacet
  facet normal 0 0 -1
    outer loop
      vertex 6.37734 -5.23374 0
      vertex 6.85962 4.58345 0
      vertex 6.85962 -4.58345 0
    endloop
  endfacet
  facet normal 0 0 -1
    outer loop
      vertex 6.37734 -5.23374 0
      vertex 6.37734 5.23374 0
      vertex 6.85962 4.58345 0
    endloop
  endfacet
  facet normal 0 0 -1
    outer loop
      vertex 5.83363 -5.83363 0
      vertex 6.37734 5.23374 0
      vertex 6.37734 -5.23374 0
    endloop
  endfacet
  facet normal 0 0 -1
    outer loop
      vertex 5.83363 -5.83363 0
      vertex 5.83363 5.83363 0
      vertex 6.37734 5.23374 0
    endloop
  endfacet
  facet normal 0 0 -1
    outer loop
      vertex 5.23374 -6.37734 0
      vertex 5.83363 5.83363 0
      vertex 5.83363 -5.83363 0
    endloop
  endfacet
  facet normal 0 0 -1
    outer loop
      vertex 5.23374 -6.37734 0
      vertex 5.23374 6.37734 0
      vertex 5.83363 5.83363 0
    endloop
  endfacet
  facet normal 0 0 -1
    outer loop
      vertex 4.58345 -6.85962 0
      vertex 5.23374 6.37734 0
      vertex 5.23374 -6.37734 0
    endloop
  endfacet
  facet normal 0 0 -1
    outer loop
      vertex 4.58345 -6.85962 0
      vertex 4.58345 6.85962 0
      vertex 5.23374 6.37734 0
    endloop
  endfacet
  facet normal 0 0 -1
    outer loop
      vertex 3.88902 -7.27585 0
      vertex 4.58345 6.85962 0
      vertex 4.58345 -6.85962 0
    endloop
  endfacet
  facet normal 0 0 -1
    outer loop
      vertex 3.88902 -7.27585 0
      vertex 3.88902 7.27585 0
      vertex 4.58345 6.85962 0
    endloop
  endfacet
  facet normal 0 0 -1
    outer loop
      vertex 3.15714 -7.62201 0
      vertex 3.88902 7.27585 0
      vertex 3.88902 -7.27585 0
    endloop
  endfacet
  facet normal 0 0 -1
    outer loop
      vertex 3.15714 -7.62201 0
      vertex 3.15714 7.62201 0
      vertex 3.88902 7.27585 0
    endloop
  endfacet
  facet normal 0 0 -1
    outer loop
      vertex 2.39485 -7.89476 0
      vertex 3.15714 7.62201 0
      vertex 3.15714 -7.62201 0
    endloop
  endfacet
  facet normal 0 0 -1
    outer loop
      vertex 2.39485 -7.89476 0
      vertex 2.39485 7.89476 0
      vertex 3.15714 7.62201 0
    endloop
  endfacet
  facet normal 0 0 -1
    outer loop
      vertex 1.60949 -8.09148 0
      vertex 2.39485 7.89476 0
      vertex 2.39485 -7.89476 0
    endloop
  endfacet
  facet normal 0 0 -1
    outer loop
      vertex 1.60949 -8.09148 0
      vertex 1.60949 8.09148 0
      vertex 2.39485 7.89476 0
    endloop
  endfacet
  facet normal 0 0 -1
    outer loop
      vertex 0.80864 -8.21027 0
      vertex 1.60949 8.09148 0
      vertex 1.60949 -8.09148 0
    endloop
  endfacet
  facet normal 0 0 -1
    outer loop
      vertex 0.80864 -8.21027 0
      vertex 0.80864 8.21027 0
      vertex 1.60949 8.09148 0
    endloop
  endfacet
  facet normal 0 0 -1
    outer loop
      vertex 0 -8.25 0
      vertex 0.80864 8.21027 0
      vertex 0.80864 -8.21027 0
    endloop
  endfacet
  facet normal 0 0 -1
    outer loop
      vertex 0 -8.25 0
      vertex 0 8.25 0
      vertex 0.80864 8.21027 0
    endloop
  endfacet
  facet normal 0 0 -1
    outer loop
      vertex -0.80864 -8.21027 0
      vertex 0 8.25 0
      vertex 0 -8.25 0
    endloop
  endfacet
  facet normal 0 0 -1
    outer loop
      vertex -0.80864 -8.21027 0
      vertex -0.80864 8.21027 0
      vertex 0 8.25 0
    endloop
  endfacet
  facet normal 0 0 -1
    outer loop
      vertex -1.60949 -8.09148 0
      vertex -0.80864 8.21027 0
      vertex -0.80864 -8.21027 0
    endloop
  endfacet
  facet normal 0 0 -1
    outer loop
      vertex -1.60949 -8.09148 0
      vertex -1.60949 8.09148 0
      vertex -0.80864 8.21027 0
    endloop
  endfacet
  facet normal 0 0 -1
    outer loop
      vertex -2.39485 -7.89476 0
      vertex -1.60949 8.09148 0
      vertex -1.60949 -8.09148 0
    endloop
  endfacet
  facet normal 0 0 -1
    outer loop
      vertex -2.39485 -7.89476 0
      vertex -2.39485 7.89476 0
      vertex -1.60949 8.09148 0
    endloop
  endfacet
  facet normal 0 0 -1
    outer loop
      vertex -3.15714 -7.62201 0
      vertex -2.39485 7.89476 0
      vertex -2.39485 -7.89476 0
    endloop
  endfacet
  facet normal 0 0 -1
    outer loop
      vertex -3.15714 -7.62201 0
      vertex -3.15714 7.62201 0
      vertex -2.39485 7.89476 0
    endloop
  endfacet
  facet normal 0 0 -1
    outer loop
      vertex -3.88902 -7.27585 0
      vertex -3.15714 7.62201 0
      vertex -3.15714 -7.62201 0
    endloop
  endfacet
  facet normal 0 0 -1
    outer loop
      vertex -3.88902 -7.27585 0
      vertex -3.88902 7.27585 0
      vertex -3.15714 7.62201 0
    endloop
  endfacet
  facet normal 0 0 -1
    outer loop
      vertex -4.58345 -6.85962 0
      vertex -3.88902 7.27585 0
      vertex -3.88902 -7.27585 0
    endloop
  endfacet
  facet normal 0 0 -1
    outer loop
      vertex -4.58345 -6.85962 0
      vertex -4.58345 6.85962 0
      vertex -3.88902 7.27585 0
    endloop
  endfacet
  facet normal 0 0 -1
    outer loop
      vertex -5.23374 -6.37734 0
      vertex -4.58345 6.85962 0
      vertex -4.58345 -6.85962 0
    endloop
  endfacet
  facet normal 0 0 -1
    outer loop
      vertex -5.23374 -6.37734 0
      vertex -5.23374 6.37734 0
      vertex -4.58345 6.85962 0
    endloop
  endfacet
  facet normal 0 0 -1
    outer loop
      vertex -5.83363 -5.83363 0
      vertex -5.23374 6.37734 0
      vertex -5.23374 -6.37734 0
    endloop
  endfacet
  facet normal 0 0 -1
    outer loop
      vertex -5.83363 -5.83363 0
      vertex -5.83363 5.83363 0
      vertex -5.23374 6.37734 0
    endloop
  endfacet
  facet normal 0 0 -1
    outer loop
      vertex -6.37734 -5.23374 0
      vertex -5.83363 5.83363 0
      vertex -5.83363 -5.83363 0
    endloop
  endfacet
  facet normal 0 0 -1
    outer loop
      vertex -6.37734 -5.23374 0
      vertex -6.37734 5.23374 0
      vertex -5.83363 5.83363 0
    endloop
  endfacet
  facet normal 0 0 -1
    outer loop
      vertex -6.85962 -4.58345 0
      vertex -6.37734 5.23374 0
      vertex -6.37734 -5.23374 0
    endloop
  endfacet
  facet normal 0 0 -1
    outer loop
      vertex -6.85962 -4.58345 0
      vertex -6.85962 4.58345 0
      vertex -6.37734 5.23374 0
    endloop
  endfacet
  facet normal 0 0 -1
    outer loop
      vertex -7.27585 -3.88902 0
      vertex -6.85962 4.58345 0
      vertex -6.85962 -4.58345 0
    endloop
  endfacet
  facet normal 0 0 -1
    outer loop
      vertex -7.27585 -3.88902 0
      vertex -7.27585 3.88902 0
      vertex -6.85962 4.58345 0
    endloop
  endfacet
  facet normal 0 0 -1
    outer loop
      vertex -7.62201 -3.15714 0
      vertex -7.27585 3.88902 0
      vertex -7.27585 -3.88902 0
    endloop
  endfacet
  facet normal 0 0 -1
    outer loop
      vertex -7.62201 -3.15714 0
      vertex -7.62201 3.15714 0
      vertex -7.27585 3.88902 0
    endloop
  endfacet
  facet normal 0 0 -1
    outer loop
      vertex -7.89476 -2.39485 0
      vertex -7.62201 3.15714 0
      vertex -7.62201 -3.15714 0
    endloop
  endfacet
  facet normal 0 0 -1
    outer loop
      vertex -7.89476 -2.39485 0
      vertex -7.89476 2.39485 0
      vertex -7.62201 3.15714 0
    endloop
  endfacet
  facet normal 0 0 -1
    outer loop
      vertex -8.09148 -1.60949 0
      vertex -7.89476 2.39485 0
      vertex -7.89476 -2.39485 0
    endloop
  endfacet
  facet normal 0 0 -1
    outer loop
      vertex -8.09148 -1.60949 0
      vertex -8.09148 1.60949 0
      vertex -7.89476 2.39485 0
    endloop
  endfacet
  facet normal 0 0 -1
    outer loop
      vertex -8.21027 -0.80864 0
      vertex -8.09148 1.60949 0
      vertex -8.09148 -1.60949 0
    endloop
  endfacet
  facet normal 0 0 -1
    outer loop
      vertex -8.21027 -0.80864 0
      vertex -8.21027 0.80864 0
      vertex -8.09148 1.60949 0
    endloop
  endfacet
  facet normal 0 -0 -1
    outer loop
      vertex -8.21027 0.80864 0
      vertex -8.21027 -0.80864 0
      vertex -8.25 0 0
    endloop
  endfacet
  facet normal -0.803207 -0.5957 0
    outer loop
      vertex -6.37734 -5.23374 0
      vertex -6.85962 -4.58345 1.7
      vertex -6.85962 -4.58345 0
    endloop
  endfacet
  facet normal -0.803207 -0.5957 0
    outer loop
      vertex -6.85962 -4.58345 1.7
      vertex -6.37734 -5.23374 0
      vertex -6.37734 -5.23374 1.7
    endloop
  endfacet
  facet normal 0.989177 0.14673 0
    outer loop
      vertex 8.21027 0.80864 1.7
      vertex 8.09148 1.60949 0
      vertex 8.09148 1.60949 1.7
    endloop
  endfacet
  facet normal 0.989177 0.14673 0
    outer loop
      vertex 8.09148 1.60949 0
      vertex 8.21027 0.80864 1.7
      vertex 8.21027 0.80864 0
    endloop
  endfacet
  facet normal 0 0 1
    outer loop
      vertex 7.65 0 1.7
      vertex 8.25 0 1.7
      vertex 8.21027 0.80864 1.7
    endloop
  endfacet
  facet normal 0 0 1
    outer loop
      vertex 7.61316 0.74983 1.7
      vertex 8.21027 0.80864 1.7
      vertex 8.09148 1.60949 1.7
    endloop
  endfacet
  facet normal 0 0 1
    outer loop
      vertex 8.25 0 1.7
      vertex 7.65 0 1.7
      vertex 8.21027 -0.80864 1.7
    endloop
  endfacet
  facet normal 0 0 1
    outer loop
      vertex 7.50301 1.49244 1.7
      vertex 8.09148 1.60949 1.7
      vertex 7.89476 2.39485 1.7
    endloop
  endfacet
  facet normal -0 0 1
    outer loop
      vertex 7.61316 -0.74983 1.7
      vertex 8.21027 -0.80864 1.7
      vertex 7.65 0 1.7
    endloop
  endfacet
  facet normal 0 0 1
    outer loop
      vertex 8.21027 -0.80864 1.7
      vertex 7.61316 -0.74983 1.7
      vertex 8.09148 -1.60949 1.7
    endloop
  endfacet
  facet normal 0 0 1
    outer loop
      vertex 7.32059 2.22068 1.7
      vertex 7.89476 2.39485 1.7
      vertex 7.62201 3.15714 1.7
    endloop
  endfacet
  facet normal 0 0 1
    outer loop
      vertex 8.21027 0.80864 1.7
      vertex 7.61316 0.74983 1.7
      vertex 7.65 0 1.7
    endloop
  endfacet
  facet normal 0 0 1
    outer loop
      vertex 8.09148 1.60949 1.7
      vertex 7.50301 1.49244 1.7
      vertex 7.61316 0.74983 1.7
    endloop
  endfacet
  facet normal 0 0 1
    outer loop
      vertex 7.89476 2.39485 1.7
      vertex 7.32059 2.22068 1.7
      vertex 7.50301 1.49244 1.7
    endloop
  endfacet
  facet normal 0 0 1
    outer loop
      vertex 7.06768 2.92753 1.7
      vertex 7.62201 3.15714 1.7
      vertex 7.27585 3.88902 1.7
    endloop
  endfacet
  facet normal 0 0 1
    outer loop
      vertex 7.62201 3.15714 1.7
      vertex 7.06768 2.92753 1.7
      vertex 7.32059 2.22068 1.7
    endloop
  endfacet
  facet normal 0 0 1
    outer loop
      vertex 6.7467 3.60618 1.7
      vertex 7.27585 3.88902 1.7
      vertex 6.85962 4.58345 1.7
    endloop
  endfacet
  facet normal 0 0 1
    outer loop
      vertex 7.27585 3.88902 1.7
      vertex 6.7467 3.60618 1.7
      vertex 7.06768 2.92753 1.7
    endloop
  endfacet
  facet normal 0 0 1
    outer loop
      vertex 6.36074 4.25011 1.7
      vertex 6.85962 4.58345 1.7
      vertex 6.37734 5.23374 1.7
    endloop
  endfacet
  facet normal 0 0 1
    outer loop
      vertex 6.85962 4.58345 1.7
      vertex 6.36074 4.25011 1.7
      vertex 6.7467 3.60618 1.7
    endloop
  endfacet
  facet normal 0 0 1
    outer loop
      vertex 6.37734 5.23374 1.7
      vertex 5.91353 4.85311 1.7
      vertex 6.36074 4.25011 1.7
    endloop
  endfacet
  facet normal 0 0 1
    outer loop
      vertex 5.83363 5.83363 1.7
      vertex 5.91353 4.85311 1.7
      vertex 6.37734 5.23374 1.7
    endloop
  endfacet
  facet normal 0 0 1
    outer loop
      vertex 5.83363 5.83363 1.7
      vertex 5.40937 5.40937 1.7
      vertex 5.91353 4.85311 1.7
    endloop
  endfacet
  facet normal 0 0 1
    outer loop
      vertex 5.23374 6.37734 1.7
      vertex 5.40937 5.40937 1.7
      vertex 5.83363 5.83363 1.7
    endloop
  endfacet
  facet normal 0 0 1
    outer loop
      vertex 5.23374 6.37734 1.7
      vertex 4.85311 5.91353 1.7
      vertex 5.40937 5.40937 1.7
    endloop
  endfacet
  facet normal 0 0 1
    outer loop
      vertex 4.58345 6.85962 1.7
      vertex 4.85311 5.91353 1.7
      vertex 5.23374 6.37734 1.7
    endloop
  endfacet
  facet normal 0 0 1
    outer loop
      vertex 4.58345 6.85962 1.7
      vertex 4.25011 6.36074 1.7
      vertex 4.85311 5.91353 1.7
    endloop
  endfacet
  facet normal 0 0 1
    outer loop
      vertex 3.88902 7.27585 1.7
      vertex 4.25011 6.36074 1.7
      vertex 4.58345 6.85962 1.7
    endloop
  endfacet
  facet normal 0 0 1
    outer loop
      vertex 3.88902 7.27585 1.7
      vertex 3.60618 6.7467 1.7
      vertex 4.25011 6.36074 1.7
    endloop
  endfacet
  facet normal 0 0 1
    outer loop
      vertex 3.15714 7.62201 1.7
      vertex 3.60618 6.7467 1.7
      vertex 3.88902 7.27585 1.7
    endloop
  endfacet
  facet normal 0 0 1
    outer loop
      vertex 3.15714 7.62201 1.7
      vertex 2.92753 7.06768 1.7
      vertex 3.60618 6.7467 1.7
    endloop
  endfacet
  facet normal 0 0 1
    outer loop
      vertex 2.39485 7.89476 1.7
      vertex 2.92753 7.06768 1.7
      vertex 3.15714 7.62201 1.7
    endloop
  endfacet
  facet normal 0 0 1
    outer loop
      vertex 2.39485 7.89476 1.7
      vertex 2.22068 7.32059 1.7
      vertex 2.92753 7.06768 1.7
    endloop
  endfacet
  facet normal 0 0 1
    outer loop
      vertex 1.60949 8.09148 1.7
      vertex 2.22068 7.32059 1.7
      vertex 2.39485 7.89476 1.7
    endloop
  endfacet
  facet normal 0 0 1
    outer loop
      vertex 1.60949 8.09148 1.7
      vertex 1.49244 7.50301 1.7
      vertex 2.22068 7.32059 1.7
    endloop
  endfacet
  facet normal 0 0 1
    outer loop
      vertex 0.80864 8.21027 1.7
      vertex 1.49244 7.50301 1.7
      vertex 1.60949 8.09148 1.7
    endloop
  endfacet
  facet normal 0 0 1
    outer loop
      vertex 0.80864 8.21027 1.7
      vertex 0.74983 7.61316 1.7
      vertex 1.49244 7.50301 1.7
    endloop
  endfacet
  facet normal 0 0 1
    outer loop
      vertex 0 8.25 1.7
      vertex 0.74983 7.61316 1.7
      vertex 0.80864 8.21027 1.7
    endloop
  endfacet
  facet normal 0 0 1
    outer loop
      vertex 0 8.25 1.7
      vertex 0 7.65 1.7
      vertex 0.74983 7.61316 1.7
    endloop
  endfacet
  facet normal 0 0 1
    outer loop
      vertex 0 8.25 1.7
      vertex -0.74983 7.61316 1.7
      vertex 0 7.65 1.7
    endloop
  endfacet
  facet normal -0 0 1
    outer loop
      vertex -0.80864 8.21027 1.7
      vertex -0.74983 7.61316 1.7
      vertex 0 8.25 1.7
    endloop
  endfacet
  facet normal 0 0 1
    outer loop
      vertex -0.80864 8.21027 1.7
      vertex -1.49244 7.50301 1.7
      vertex -0.74983 7.61316 1.7
    endloop
  endfacet
  facet normal -0 0 1
    outer loop
      vertex -1.60949 8.09148 1.7
      vertex -1.49244 7.50301 1.7
      vertex -0.80864 8.21027 1.7
    endloop
  endfacet
  facet normal 0 0 1
    outer loop
      vertex -1.60949 8.09148 1.7
      vertex -2.22068 7.32059 1.7
      vertex -1.49244 7.50301 1.7
    endloop
  endfacet
  facet normal -0 0 1
    outer loop
      vertex -2.39485 7.89476 1.7
      vertex -2.22068 7.32059 1.7
      vertex -1.60949 8.09148 1.7
    endloop
  endfacet
  facet normal 0 0 1
    outer loop
      vertex -2.39485 7.89476 1.7
      vertex -2.92753 7.06768 1.7
      vertex -2.22068 7.32059 1.7
    endloop
  endfacet
  facet normal -0 0 1
    outer loop
      vertex -3.15714 7.62201 1.7
      vertex -2.92753 7.06768 1.7
      vertex -2.39485 7.89476 1.7
    endloop
  endfacet
  facet normal 0 0 1
    outer loop
      vertex -3.15714 7.62201 1.7
      vertex -3.60618 6.7467 1.7
      vertex -2.92753 7.06768 1.7
    endloop
  endfacet
  facet normal -0 0 1
    outer loop
      vertex -3.88902 7.27585 1.7
      vertex -3.60618 6.7467 1.7
      vertex -3.15714 7.62201 1.7
    endloop
  endfacet
  facet normal 0 0 1
    outer loop
      vertex -3.88902 7.27585 1.7
      vertex -4.25011 6.36074 1.7
      vertex -3.60618 6.7467 1.7
    endloop
  endfacet
  facet normal -0 0 1
    outer loop
      vertex -4.58345 6.85962 1.7
      vertex -4.25011 6.36074 1.7
      vertex -3.88902 7.27585 1.7
    endloop
  endfacet
  facet normal 0 0 1
    outer loop
      vertex -4.58345 6.85962 1.7
      vertex -4.85311 5.91353 1.7
      vertex -4.25011 6.36074 1.7
    endloop
  endfacet
  facet normal -0 0 1
    outer loop
      vertex -5.23374 6.37734 1.7
      vertex -4.85311 5.91353 1.7
      vertex -4.58345 6.85962 1.7
    endloop
  endfacet
  facet normal 0 0 1
    outer loop
      vertex -5.23374 6.37734 1.7
      vertex -5.40937 5.40937 1.7
      vertex -4.85311 5.91353 1.7
    endloop
  endfacet
  facet normal -0 0 1
    outer loop
      vertex -5.83363 5.83363 1.7
      vertex -5.40937 5.40937 1.7
      vertex -5.23374 6.37734 1.7
    endloop
  endfacet
  facet normal 0 0 1
    outer loop
      vertex -5.83363 5.83363 1.7
      vertex -5.91353 4.85311 1.7
      vertex -5.40937 5.40937 1.7
    endloop
  endfacet
  facet normal -0 0 1
    outer loop
      vertex -6.37734 5.23374 1.7
      vertex -5.91353 4.85311 1.7
      vertex -5.83363 5.83363 1.7
    endloop
  endfacet
  facet normal 0 0 1
    outer loop
      vertex -5.91353 4.85311 1.7
      vertex -6.37734 5.23374 1.7
      vertex -6.36074 4.25011 1.7
    endloop
  endfacet
  facet normal -0 0 1
    outer loop
      vertex -6.85962 4.58345 1.7
      vertex -6.36074 4.25011 1.7
      vertex -6.37734 5.23374 1.7
    endloop
  endfacet
  facet normal 0 0 1
    outer loop
      vertex -6.36074 4.25011 1.7
      vertex -6.85962 4.58345 1.7
      vertex -6.7467 3.60618 1.7
    endloop
  endfacet
  facet normal -0 0 1
    outer loop
      vertex -7.27585 3.88902 1.7
      vertex -6.7467 3.60618 1.7
      vertex -6.85962 4.58345 1.7
    endloop
  endfacet
  facet normal 0 0 1
    outer loop
      vertex -6.7467 3.60618 1.7
      vertex -7.27585 3.88902 1.7
      vertex -7.06768 2.92753 1.7
    endloop
  endfacet
  facet normal -0 0 1
    outer loop
      vertex -7.62201 3.15714 1.7
      vertex -7.06768 2.92753 1.7
      vertex -7.27585 3.88902 1.7
    endloop
  endfacet
  facet normal 0 0 1
    outer loop
      vertex -7.06768 2.92753 1.7
      vertex -7.62201 3.15714 1.7
      vertex -7.32059 2.22068 1.7
    endloop
  endfacet
  facet normal -0 0 1
    outer loop
      vertex -7.89476 2.39485 1.7
      vertex -7.32059 2.22068 1.7
      vertex -7.62201 3.15714 1.7
    endloop
  endfacet
  facet normal 0 0 1
    outer loop
      vertex -7.32059 2.22068 1.7
      vertex -7.89476 2.39485 1.7
      vertex -7.50301 1.49244 1.7
    endloop
  endfacet
  facet normal -0 0 1
    outer loop
      vertex -8.09148 1.60949 1.7
      vertex -7.50301 1.49244 1.7
      vertex -7.89476 2.39485 1.7
    endloop
  endfacet
  facet normal 0 0 1
    outer loop
      vertex -7.50301 1.49244 1.7
      vertex -8.09148 1.60949 1.7
      vertex -7.61316 0.74983 1.7
    endloop
  endfacet
  facet normal -0 0 1
    outer loop
      vertex 7.50301 -1.49244 1.7
      vertex 8.09148 -1.60949 1.7
      vertex 7.61316 -0.74983 1.7
    endloop
  endfacet
  facet normal 0 0 1
    outer loop
      vertex 8.09148 -1.60949 1.7
      vertex 7.50301 -1.49244 1.7
      vertex 7.89476 -2.39485 1.7
    endloop
  endfacet
  facet normal -0 0 1
    outer loop
      vertex 7.32059 -2.22068 1.7
      vertex 7.89476 -2.39485 1.7
      vertex 7.50301 -1.49244 1.7
    endloop
  endfacet
  facet normal 0 0 1
    outer loop
      vertex 7.89476 -2.39485 1.7
      vertex 7.32059 -2.22068 1.7
      vertex 7.62201 -3.15714 1.7
    endloop
  endfacet
  facet normal -0 0 1
    outer loop
      vertex 7.06768 -2.92753 1.7
      vertex 7.62201 -3.15714 1.7
      vertex 7.32059 -2.22068 1.7
    endloop
  endfacet
  facet normal 0 0 1
    outer loop
      vertex 7.62201 -3.15714 1.7
      vertex 7.06768 -2.92753 1.7
      vertex 7.27585 -3.88902 1.7
    endloop
  endfacet
  facet normal -0 0 1
    outer loop
      vertex 6.7467 -3.60618 1.7
      vertex 7.27585 -3.88902 1.7
      vertex 7.06768 -2.92753 1.7
    endloop
  endfacet
  facet normal 0 0 1
    outer loop
      vertex 7.27585 -3.88902 1.7
      vertex 6.7467 -3.60618 1.7
      vertex 6.85962 -4.58345 1.7
    endloop
  endfacet
  facet normal -0 0 1
    outer loop
      vertex 6.36074 -4.25011 1.7
      vertex 6.85962 -4.58345 1.7
      vertex 6.7467 -3.60618 1.7
    endloop
  endfacet
  facet normal 0 0 1
    outer loop
      vertex 6.85962 -4.58345 1.7
      vertex 6.36074 -4.25011 1.7
      vertex 6.37734 -5.23374 1.7
    endloop
  endfacet
  facet normal -0 0 1
    outer loop
      vertex 5.91353 -4.85311 1.7
      vertex 6.37734 -5.23374 1.7
      vertex 6.36074 -4.25011 1.7
    endloop
  endfacet
  facet normal 0 0 1
    outer loop
      vertex 5.91353 -4.85311 1.7
      vertex 5.83363 -5.83363 1.7
      vertex 6.37734 -5.23374 1.7
    endloop
  endfacet
  facet normal -0 0 1
    outer loop
      vertex 5.40937 -5.40937 1.7
      vertex 5.83363 -5.83363 1.7
      vertex 5.91353 -4.85311 1.7
    endloop
  endfacet
  facet normal 0 0 1
    outer loop
      vertex 5.40937 -5.40937 1.7
      vertex 5.23374 -6.37734 1.7
      vertex 5.83363 -5.83363 1.7
    endloop
  endfacet
  facet normal -0 0 1
    outer loop
      vertex 4.85311 -5.91353 1.7
      vertex 5.23374 -6.37734 1.7
      vertex 5.40937 -5.40937 1.7
    endloop
  endfacet
  facet normal 0 0 1
    outer loop
      vertex 4.85311 -5.91353 1.7
      vertex 4.58345 -6.85962 1.7
      vertex 5.23374 -6.37734 1.7
    endloop
  endfacet
  facet normal -0 0 1
    outer loop
      vertex 4.25011 -6.36074 1.7
      vertex 4.58345 -6.85962 1.7
      vertex 4.85311 -5.91353 1.7
    endloop
  endfacet
  facet normal 0 0 1
    outer loop
      vertex 4.25011 -6.36074 1.7
      vertex 3.88902 -7.27585 1.7
      vertex 4.58345 -6.85962 1.7
    endloop
  endfacet
  facet normal -0 0 1
    outer loop
      vertex 3.60618 -6.7467 1.7
      vertex 3.88902 -7.27585 1.7
      vertex 4.25011 -6.36074 1.7
    endloop
  endfacet
  facet normal 0 0 1
    outer loop
      vertex 3.60618 -6.7467 1.7
      vertex 3.15714 -7.62201 1.7
      vertex 3.88902 -7.27585 1.7
    endloop
  endfacet
  facet normal -0 0 1
    outer loop
      vertex 2.92753 -7.06768 1.7
      vertex 3.15714 -7.62201 1.7
      vertex 3.60618 -6.7467 1.7
    endloop
  endfacet
  facet normal 0 0 1
    outer loop
      vertex 2.92753 -7.06768 1.7
      vertex 2.39485 -7.89476 1.7
      vertex 3.15714 -7.62201 1.7
    endloop
  endfacet
  facet normal -0 0 1
    outer loop
      vertex 2.22068 -7.32059 1.7
      vertex 2.39485 -7.89476 1.7
      vertex 2.92753 -7.06768 1.7
    endloop
  endfacet
  facet normal 0 0 1
    outer loop
      vertex 2.22068 -7.32059 1.7
      vertex 1.60949 -8.09148 1.7
      vertex 2.39485 -7.89476 1.7
    endloop
  endfacet
  facet normal -0 0 1
    outer loop
      vertex 1.49244 -7.50301 1.7
      vertex 1.60949 -8.09148 1.7
      vertex 2.22068 -7.32059 1.7
    endloop
  endfacet
  facet normal 0 0 1
    outer loop
      vertex 1.49244 -7.50301 1.7
      vertex 0.80864 -8.21027 1.7
      vertex 1.60949 -8.09148 1.7
    endloop
  endfacet
  facet normal -0 0 1
    outer loop
      vertex 0.74983 -7.61316 1.7
      vertex 0.80864 -8.21027 1.7
      vertex 1.49244 -7.50301 1.7
    endloop
  endfacet
  facet normal -0 0 1
    outer loop
      vertex 0 -7.65 1.7
      vertex 0.80864 -8.21027 1.7
      vertex 0.74983 -7.61316 1.7
    endloop
  endfacet
  facet normal 0 0 1
    outer loop
      vertex 0 -7.65 1.7
      vertex 0 -8.25 1.7
      vertex 0.80864 -8.21027 1.7
    endloop
  endfacet
  facet normal 0 0 1
    outer loop
      vertex -0.74983 -7.61316 1.7
      vertex 0 -8.25 1.7
      vertex 0 -7.65 1.7
    endloop
  endfacet
  facet normal 0 0 1
    outer loop
      vertex -0.74983 -7.61316 1.7
      vertex -0.80864 -8.21027 1.7
      vertex 0 -8.25 1.7
    endloop
  endfacet
  facet normal 0 0 1
    outer loop
      vertex -1.49244 -7.50301 1.7
      vertex -0.80864 -8.21027 1.7
      vertex -0.74983 -7.61316 1.7
    endloop
  endfacet
  facet normal 0 0 1
    outer loop
      vertex -1.49244 -7.50301 1.7
      vertex -1.60949 -8.09148 1.7
      vertex -0.80864 -8.21027 1.7
    endloop
  endfacet
  facet normal 0 0 1
    outer loop
      vertex -2.22068 -7.32059 1.7
      vertex -1.60949 -8.09148 1.7
      vertex -1.49244 -7.50301 1.7
    endloop
  endfacet
  facet normal 0 0 1
    outer loop
      vertex -2.22068 -7.32059 1.7
      vertex -2.39485 -7.89476 1.7
      vertex -1.60949 -8.09148 1.7
    endloop
  endfacet
  facet normal 0 0 1
    outer loop
      vertex -2.92753 -7.06768 1.7
      vertex -2.39485 -7.89476 1.7
      vertex -2.22068 -7.32059 1.7
    endloop
  endfacet
  facet normal 0 0 1
    outer loop
      vertex -2.92753 -7.06768 1.7
      vertex -3.15714 -7.62201 1.7
      vertex -2.39485 -7.89476 1.7
    endloop
  endfacet
  facet normal 0 0 1
    outer loop
      vertex -3.60618 -6.7467 1.7
      vertex -3.15714 -7.62201 1.7
      vertex -2.92753 -7.06768 1.7
    endloop
  endfacet
  facet normal 0 0 1
    outer loop
      vertex -3.60618 -6.7467 1.7
      vertex -3.88902 -7.27585 1.7
      vertex -3.15714 -7.62201 1.7
    endloop
  endfacet
  facet normal 0 0 1
    outer loop
      vertex -4.25011 -6.36074 1.7
      vertex -3.88902 -7.27585 1.7
      vertex -3.60618 -6.7467 1.7
    endloop
  endfacet
  facet normal 0 0 1
    outer loop
      vertex -4.25011 -6.36074 1.7
      vertex -4.58345 -6.85962 1.7
      vertex -3.88902 -7.27585 1.7
    endloop
  endfacet
  facet normal 0 0 1
    outer loop
      vertex -4.85311 -5.91353 1.7
      vertex -4.58345 -6.85962 1.7
      vertex -4.25011 -6.36074 1.7
    endloop
  endfacet
  facet normal 0 0 1
    outer loop
      vertex -4.85311 -5.91353 1.7
      vertex -5.23374 -6.37734 1.7
      vertex -4.58345 -6.85962 1.7
    endloop
  endfacet
  facet normal 0 0 1
    outer loop
      vertex -5.40937 -5.40937 1.7
      vertex -5.23374 -6.37734 1.7
      vertex -4.85311 -5.91353 1.7
    endloop
  endfacet
  facet normal 0 0 1
    outer loop
      vertex -5.40937 -5.40937 1.7
      vertex -5.83363 -5.83363 1.7
      vertex -5.23374 -6.37734 1.7
    endloop
  endfacet
  facet normal 0 0 1
    outer loop
      vertex -5.91353 -4.85311 1.7
      vertex -5.83363 -5.83363 1.7
      vertex -5.40937 -5.40937 1.7
    endloop
  endfacet
  facet normal 0 0 1
    outer loop
      vertex -6.37734 -5.23374 1.7
      vertex -5.91353 -4.85311 1.7
      vertex -6.36074 -4.25011 1.7
    endloop
  endfacet
  facet normal 0 0 1
    outer loop
      vertex -5.91353 -4.85311 1.7
      vertex -6.37734 -5.23374 1.7
      vertex -5.83363 -5.83363 1.7
    endloop
  endfacet
  facet normal 0 0 1
    outer loop
      vertex -6.85962 -4.58345 1.7
      vertex -6.36074 -4.25011 1.7
      vertex -6.7467 -3.60618 1.7
    endloop
  endfacet
  facet normal 0 0 1
    outer loop
      vertex -6.36074 -4.25011 1.7
      vertex -6.85962 -4.58345 1.7
      vertex -6.37734 -5.23374 1.7
    endloop
  endfacet
  facet normal 0 0 1
    outer loop
      vertex -7.27585 -3.88902 1.7
      vertex -6.7467 -3.60618 1.7
      vertex -7.06768 -2.92753 1.7
    endloop
  endfacet
  facet normal 0 0 1
    outer loop
      vertex -6.7467 -3.60618 1.7
      vertex -7.27585 -3.88902 1.7
      vertex -6.85962 -4.58345 1.7
    endloop
  endfacet
  facet normal 0 0 1
    outer loop
      vertex -7.62201 -3.15714 1.7
      vertex -7.06768 -2.92753 1.7
      vertex -7.32059 -2.22068 1.7
    endloop
  endfacet
  facet normal 0 0 1
    outer loop
      vertex -7.89476 -2.39485 1.7
      vertex -7.32059 -2.22068 1.7
      vertex -7.50301 -1.49244 1.7
    endloop
  endfacet
  facet normal 0 0 1
    outer loop
      vertex -8.09148 -1.60949 1.7
      vertex -7.50301 -1.49244 1.7
      vertex -7.61316 -0.74983 1.7
    endloop
  endfacet
  facet normal 0 0 1
    outer loop
      vertex -7.06768 -2.92753 1.7
      vertex -7.62201 -3.15714 1.7
      vertex -7.27585 -3.88902 1.7
    endloop
  endfacet
  facet normal 0 0 1
    outer loop
      vertex -8.21027 -0.80864 1.7
      vertex -7.61316 -0.74983 1.7
      vertex -7.65 0 1.7
    endloop
  endfacet
  facet normal -0 0 1
    outer loop
      vertex -8.21027 0.80864 1.7
      vertex -7.61316 0.74983 1.7
      vertex -8.09148 1.60949 1.7
    endloop
  endfacet
  facet normal 0 0 1
    outer loop
      vertex -7.32059 -2.22068 1.7
      vertex -7.89476 -2.39485 1.7
      vertex -7.62201 -3.15714 1.7
    endloop
  endfacet
  facet normal 0 0 1
    outer loop
      vertex -7.61316 0.74983 1.7
      vertex -8.21027 0.80864 1.7
      vertex -7.65 0 1.7
    endloop
  endfacet
  facet normal 0 0 1
    outer loop
      vertex -7.50301 -1.49244 1.7
      vertex -8.09148 -1.60949 1.7
      vertex -7.89476 -2.39485 1.7
    endloop
  endfacet
  facet normal 0 0 1
    outer loop
      vertex -8.25 0 1.7
      vertex -7.65 0 1.7
      vertex -8.21027 0.80864 1.7
    endloop
  endfacet
  facet normal 0 0 1
    outer loop
      vertex -7.61316 -0.74983 1.7
      vertex -8.21027 -0.80864 1.7
      vertex -8.09148 -1.60949 1.7
    endloop
  endfacet
  facet normal 0 0 1
    outer loop
      vertex -7.65 0 1.7
      vertex -8.25 0 1.7
      vertex -8.21027 -0.80864 1.7
    endloop
  endfacet
  facet normal -0.989177 0.14673 0
    outer loop
      vertex -8.21027 0.80864 0
      vertex -8.09148 1.60949 1.7
      vertex -8.09148 1.60949 0
    endloop
  endfacet
  facet normal -0.989177 0.14673 0
    outer loop
      vertex -8.09148 1.60949 1.7
      vertex -8.21027 0.80864 0
      vertex -8.21027 0.80864 1.7
    endloop
  endfacet
  facet normal -0.857728 0.514103 0
    outer loop
      vertex -7.27585 3.88902 0
      vertex -6.85962 4.58345 1.7
      vertex -6.85962 4.58345 0
    endloop
  endfacet
  facet normal -0.857728 0.514103 0
    outer loop
      vertex -6.85962 4.58345 1.7
      vertex -7.27585 3.88902 0
      vertex -7.27585 3.88902 1.7
    endloop
  endfacet
  facet normal -0.24298 0.970031 0
    outer loop
      vertex -1.60949 8.09148 0
      vertex -2.39485 7.89476 1.7
      vertex -1.60949 8.09148 1.7
    endloop
  endfacet
  facet normal -0.24298 0.970031 0
    outer loop
      vertex -2.39485 7.89476 1.7
      vertex -1.60949 8.09148 0
      vertex -2.39485 7.89476 0
    endloop
  endfacet
  facet normal 0.90399 -0.427554 0
    outer loop
      vertex 7.27585 -3.88902 1.7
      vertex 7.62201 -3.15714 0
      vertex 7.62201 -3.15714 1.7
    endloop
  endfacet
  facet normal 0.90399 -0.427554 0
    outer loop
      vertex 7.62201 -3.15714 0
      vertex 7.27585 -3.88902 1.7
      vertex 7.27585 -3.88902 0
    endloop
  endfacet
  facet normal 0.740952 -0.671558 0
    outer loop
      vertex 5.83363 -5.83363 1.7
      vertex 6.37734 -5.23374 0
      vertex 6.37734 -5.23374 1.7
    endloop
  endfacet
  facet normal 0.740952 -0.671558 0
    outer loop
      vertex 6.37734 -5.23374 0
      vertex 5.83363 -5.83363 1.7
      vertex 5.83363 -5.83363 0
    endloop
  endfacet
  facet normal 0.33689 -0.941544 0
    outer loop
      vertex 2.39485 -7.89476 0
      vertex 3.15714 -7.62201 1.7
      vertex 2.39485 -7.89476 1.7
    endloop
  endfacet
  facet normal 0.33689 -0.941544 0
    outer loop
      vertex 3.15714 -7.62201 1.7
      vertex 2.39485 -7.89476 0
      vertex 3.15714 -7.62201 0
    endloop
  endfacet
  facet normal -0.5957 -0.803207 0
    outer loop
      vertex -5.23374 -6.37734 0
      vertex -4.58345 -6.85962 1.7
      vertex -5.23374 -6.37734 1.7
    endloop
  endfacet
  facet normal -0.5957 -0.803207 -0
    outer loop
      vertex -4.58345 -6.85962 1.7
      vertex -5.23374 -6.37734 0
      vertex -4.58345 -6.85962 0
    endloop
  endfacet
  facet normal -0.989177 -0.14673 0
    outer loop
      vertex -8.09148 -1.60949 0
      vertex -8.21027 -0.80864 1.7
      vertex -8.21027 -0.80864 0
    endloop
  endfacet
  facet normal -0.989177 -0.14673 0
    outer loop
      vertex -8.21027 -0.80864 1.7
      vertex -8.09148 -1.60949 0
      vertex -8.09148 -1.60949 1.7
    endloop
  endfacet
  facet normal -0.941544 -0.33689 0
    outer loop
      vertex -7.62201 -3.15714 0
      vertex -7.89476 -2.39485 1.7
      vertex -7.89476 -2.39485 0
    endloop
  endfacet
  facet normal -0.941544 -0.33689 0
    outer loop
      vertex -7.89476 -2.39485 1.7
      vertex -7.62201 -3.15714 0
      vertex -7.62201 -3.15714 1.7
    endloop
  endfacet
  facet normal -0.857728 -0.514103 0
    outer loop
      vertex -6.85962 -4.58345 0
      vertex -7.27585 -3.88902 1.7
      vertex -7.27585 -3.88902 0
    endloop
  endfacet
  facet normal -0.857728 -0.514103 0
    outer loop
      vertex -7.27585 -3.88902 1.7
      vertex -6.85962 -4.58345 0
      vertex -6.85962 -4.58345 1.7
    endloop
  endfacet
  facet normal 0.970031 -0.24298 0
    outer loop
      vertex 7.89476 -2.39485 1.7
      vertex 8.09148 -1.60949 0
      vertex 8.09148 -1.60949 1.7
    endloop
  endfacet
  facet normal 0.970031 -0.24298 0
    outer loop
      vertex 8.09148 -1.60949 0
      vertex 7.89476 -2.39485 1.7
      vertex 7.89476 -2.39485 0
    endloop
  endfacet
  facet normal 0.941544 -0.33689 0
    outer loop
      vertex 7.62201 -3.15714 1.7
      vertex 7.89476 -2.39485 0
      vertex 7.89476 -2.39485 1.7
    endloop
  endfacet
  facet normal 0.941544 -0.33689 0
    outer loop
      vertex 7.89476 -2.39485 0
      vertex 7.62201 -3.15714 1.7
      vertex 7.62201 -3.15714 0
    endloop
  endfacet
  facet normal 0.803207 -0.5957 0
    outer loop
      vertex 6.37734 -5.23374 1.7
      vertex 6.85962 -4.58345 0
      vertex 6.85962 -4.58345 1.7
    endloop
  endfacet
  facet normal 0.803207 -0.5957 0
    outer loop
      vertex 6.85962 -4.58345 0
      vertex 6.37734 -5.23374 1.7
      vertex 6.37734 -5.23374 0
    endloop
  endfacet
  facet normal -0.998795 -0.0490674 0
    outer loop
      vertex 7.65 0 0.7
      vertex 7.61316 0.74983 1.7
      vertex 7.61316 0.74983 0.7
    endloop
  endfacet
  facet normal -0.998795 -0.0490674 0
    outer loop
      vertex 7.61316 0.74983 1.7
      vertex 7.65 0 0.7
      vertex 7.65 0 1.7
    endloop
  endfacet
  facet normal 0.998795 -0.0490674 0
    outer loop
      vertex -7.65 0 1.7
      vertex -7.61316 0.74983 0.7
      vertex -7.61316 0.74983 1.7
    endloop
  endfacet
  facet normal 0.998795 -0.0490674 0
    outer loop
      vertex -7.61316 0.74983 0.7
      vertex -7.65 0 1.7
      vertex -7.65 0 0.7
    endloop
  endfacet
  facet normal 0.0490674 -0.998795 0
    outer loop
      vertex -0.74983 7.61316 0.7
      vertex 0 7.65 1.7
      vertex -0.74983 7.61316 1.7
    endloop
  endfacet
  facet normal 0.0490674 -0.998795 0
    outer loop
      vertex 0 7.65 1.7
      vertex -0.74983 7.61316 0.7
      vertex 0 7.65 0.7
    endloop
  endfacet
  facet normal -0.0490674 0.998795 0
    outer loop
      vertex 0.74983 -7.61316 0.7
      vertex 0 -7.65 1.7
      vertex 0.74983 -7.61316 1.7
    endloop
  endfacet
  facet normal -0.0490674 0.998795 0
    outer loop
      vertex 0 -7.65 1.7
      vertex 0.74983 -7.61316 0.7
      vertex 0 -7.65 0.7
    endloop
  endfacet
  facet normal -0.671559 -0.740951 0
    outer loop
      vertex 4.85311 5.91353 0.7
      vertex 5.40937 5.40937 1.7
      vertex 4.85311 5.91353 1.7
    endloop
  endfacet
  facet normal -0.671559 -0.740951 -0
    outer loop
      vertex 5.40937 5.40937 1.7
      vertex 4.85311 5.91353 0.7
      vertex 5.40937 5.40937 0.7
    endloop
  endfacet
  facet normal 0.671559 -0.740951 0
    outer loop
      vertex -5.40937 5.40937 0.7
      vertex -4.85311 5.91353 1.7
      vertex -5.40937 5.40937 1.7
    endloop
  endfacet
  facet normal 0.671559 -0.740951 0
    outer loop
      vertex -4.85311 5.91353 1.7
      vertex -5.40937 5.40937 0.7
      vertex -4.85311 5.91353 0.7
    endloop
  endfacet
  facet normal 0.427554 -0.90399 0
    outer loop
      vertex -3.60618 6.7467 0.7
      vertex -2.92753 7.06768 1.7
      vertex -3.60618 6.7467 1.7
    endloop
  endfacet
  facet normal 0.427554 -0.90399 0
    outer loop
      vertex -2.92753 7.06768 1.7
      vertex -3.60618 6.7467 0.7
      vertex -2.92753 7.06768 0.7
    endloop
  endfacet
  facet normal -0.90399 -0.427554 0
    outer loop
      vertex 7.06768 2.92753 0.7
      vertex 6.7467 3.60618 1.7
      vertex 6.7467 3.60618 0.7
    endloop
  endfacet
  facet normal -0.90399 -0.427554 0
    outer loop
      vertex 6.7467 3.60618 1.7
      vertex 7.06768 2.92753 0.7
      vertex 7.06768 2.92753 1.7
    endloop
  endfacet
  facet normal -0.33689 -0.941544 0
    outer loop
      vertex 2.22068 7.32059 0.7
      vertex 2.92753 7.06768 1.7
      vertex 2.22068 7.32059 1.7
    endloop
  endfacet
  facet normal -0.33689 -0.941544 -0
    outer loop
      vertex 2.92753 7.06768 1.7
      vertex 2.22068 7.32059 0.7
      vertex 2.92753 7.06768 0.7
    endloop
  endfacet
  facet normal -0.514104 -0.857728 0
    outer loop
      vertex 3.60618 6.7467 0.7
      vertex 4.25011 6.36074 1.7
      vertex 3.60618 6.7467 1.7
    endloop
  endfacet
  facet normal -0.514104 -0.857728 -0
    outer loop
      vertex 4.25011 6.36074 1.7
      vertex 3.60618 6.7467 0.7
      vertex 4.25011 6.36074 0.7
    endloop
  endfacet
  facet normal 0.90399 -0.427554 0
    outer loop
      vertex -7.06768 2.92753 1.7
      vertex -6.7467 3.60618 0.7
      vertex -6.7467 3.60618 1.7
    endloop
  endfacet
  facet normal 0.90399 -0.427554 0
    outer loop
      vertex -6.7467 3.60618 0.7
      vertex -7.06768 2.92753 1.7
      vertex -7.06768 2.92753 0.7
    endloop
  endfacet
  facet normal 0.24298 -0.970031 0
    outer loop
      vertex -2.22068 7.32059 0.7
      vertex -1.49244 7.50301 1.7
      vertex -2.22068 7.32059 1.7
    endloop
  endfacet
  facet normal 0.24298 -0.970031 0
    outer loop
      vertex -1.49244 7.50301 1.7
      vertex -2.22068 7.32059 0.7
      vertex -1.49244 7.50301 0.7
    endloop
  endfacet
  facet normal -0.970031 0.24298 0
    outer loop
      vertex 7.32059 -2.22068 0.7
      vertex 7.50301 -1.49244 1.7
      vertex 7.50301 -1.49244 0.7
    endloop
  endfacet
  facet normal -0.970031 0.24298 0
    outer loop
      vertex 7.50301 -1.49244 1.7
      vertex 7.32059 -2.22068 0.7
      vertex 7.32059 -2.22068 1.7
    endloop
  endfacet
  facet normal -0.146731 0.989176 0
    outer loop
      vertex 1.49244 -7.50301 0.7
      vertex 0.74983 -7.61316 1.7
      vertex 1.49244 -7.50301 1.7
    endloop
  endfacet
  facet normal -0.146731 0.989176 0
    outer loop
      vertex 0.74983 -7.61316 1.7
      vertex 1.49244 -7.50301 0.7
      vertex 0.74983 -7.61316 0.7
    endloop
  endfacet
  facet normal -0.970031 -0.24298 0
    outer loop
      vertex 7.50301 1.49244 0.7
      vertex 7.32059 2.22068 1.7
      vertex 7.32059 2.22068 0.7
    endloop
  endfacet
  facet normal -0.970031 -0.24298 0
    outer loop
      vertex 7.32059 2.22068 1.7
      vertex 7.50301 1.49244 0.7
      vertex 7.50301 1.49244 1.7
    endloop
  endfacet
  facet normal -0.989176 -0.146731 0
    outer loop
      vertex 7.61316 0.74983 0.7
      vertex 7.50301 1.49244 1.7
      vertex 7.50301 1.49244 0.7
    endloop
  endfacet
  facet normal -0.989176 -0.146731 0
    outer loop
      vertex 7.50301 1.49244 1.7
      vertex 7.61316 0.74983 0.7
      vertex 7.61316 0.74983 1.7
    endloop
  endfacet
  facet normal -0.941544 -0.33689 0
    outer loop
      vertex 7.32059 2.22068 0.7
      vertex 7.06768 2.92753 1.7
      vertex 7.06768 2.92753 0.7
    endloop
  endfacet
  facet normal -0.941544 -0.33689 0
    outer loop
      vertex 7.06768 2.92753 1.7
      vertex 7.32059 2.22068 0.7
      vertex 7.32059 2.22068 1.7
    endloop
  endfacet
  facet normal -0.803208 -0.595699 0
    outer loop
      vertex 6.36074 4.25011 0.7
      vertex 5.91353 4.85311 1.7
      vertex 5.91353 4.85311 0.7
    endloop
  endfacet
  facet normal -0.803208 -0.595699 0
    outer loop
      vertex 5.91353 4.85311 1.7
      vertex 6.36074 4.25011 0.7
      vertex 6.36074 4.25011 1.7
    endloop
  endfacet
  facet normal -0.740951 -0.671559 0
    outer loop
      vertex 5.91353 4.85311 0.7
      vertex 5.40937 5.40937 1.7
      vertex 5.40937 5.40937 0.7
    endloop
  endfacet
  facet normal -0.740951 -0.671559 0
    outer loop
      vertex 5.40937 5.40937 1.7
      vertex 5.91353 4.85311 0.7
      vertex 5.91353 4.85311 1.7
    endloop
  endfacet
  facet normal -0.857728 -0.514104 0
    outer loop
      vertex 6.7467 3.60618 0.7
      vertex 6.36074 4.25011 1.7
      vertex 6.36074 4.25011 0.7
    endloop
  endfacet
  facet normal -0.857728 -0.514104 0
    outer loop
      vertex 6.36074 4.25011 1.7
      vertex 6.7467 3.60618 0.7
      vertex 6.7467 3.60618 1.7
    endloop
  endfacet
  facet normal -0.146731 -0.989176 0
    outer loop
      vertex 0.74983 7.61316 0.7
      vertex 1.49244 7.50301 1.7
      vertex 0.74983 7.61316 1.7
    endloop
  endfacet
  facet normal -0.146731 -0.989176 -0
    outer loop
      vertex 1.49244 7.50301 1.7
      vertex 0.74983 7.61316 0.7
      vertex 1.49244 7.50301 0.7
    endloop
  endfacet
  facet normal -0.24298 -0.970031 0
    outer loop
      vertex 1.49244 7.50301 0.7
      vertex 2.22068 7.32059 1.7
      vertex 1.49244 7.50301 1.7
    endloop
  endfacet
  facet normal -0.24298 -0.970031 -0
    outer loop
      vertex 2.22068 7.32059 1.7
      vertex 1.49244 7.50301 0.7
      vertex 2.22068 7.32059 0.7
    endloop
  endfacet
  facet normal -0.0490674 -0.998795 0
    outer loop
      vertex 0 7.65 0.7
      vertex 0.74983 7.61316 1.7
      vertex 0 7.65 1.7
    endloop
  endfacet
  facet normal -0.0490674 -0.998795 -0
    outer loop
      vertex 0.74983 7.61316 1.7
      vertex 0 7.65 0.7
      vertex 0.74983 7.61316 0.7
    endloop
  endfacet
  facet normal -0.427554 -0.90399 0
    outer loop
      vertex 2.92753 7.06768 0.7
      vertex 3.60618 6.7467 1.7
      vertex 2.92753 7.06768 1.7
    endloop
  endfacet
  facet normal -0.427554 -0.90399 -0
    outer loop
      vertex 3.60618 6.7467 1.7
      vertex 2.92753 7.06768 0.7
      vertex 3.60618 6.7467 0.7
    endloop
  endfacet
  facet normal -0.595699 -0.803208 0
    outer loop
      vertex 4.25011 6.36074 0.7
      vertex 4.85311 5.91353 1.7
      vertex 4.25011 6.36074 1.7
    endloop
  endfacet
  facet normal -0.595699 -0.803208 -0
    outer loop
      vertex 4.85311 5.91353 1.7
      vertex 4.25011 6.36074 0.7
      vertex 4.85311 5.91353 0.7
    endloop
  endfacet
  facet normal 0.970031 -0.24298 0
    outer loop
      vertex -7.50301 1.49244 1.7
      vertex -7.32059 2.22068 0.7
      vertex -7.32059 2.22068 1.7
    endloop
  endfacet
  facet normal 0.970031 -0.24298 0
    outer loop
      vertex -7.32059 2.22068 0.7
      vertex -7.50301 1.49244 1.7
      vertex -7.50301 1.49244 0.7
    endloop
  endfacet
  facet normal 0.803208 -0.595699 0
    outer loop
      vertex -6.36074 4.25011 1.7
      vertex -5.91353 4.85311 0.7
      vertex -5.91353 4.85311 1.7
    endloop
  endfacet
  facet normal 0.803208 -0.595699 0
    outer loop
      vertex -5.91353 4.85311 0.7
      vertex -6.36074 4.25011 1.7
      vertex -6.36074 4.25011 0.7
    endloop
  endfacet
  facet normal 0.740951 -0.671559 0
    outer loop
      vertex -5.91353 4.85311 1.7
      vertex -5.40937 5.40937 0.7
      vertex -5.40937 5.40937 1.7
    endloop
  endfacet
  facet normal 0.740951 -0.671559 0
    outer loop
      vertex -5.40937 5.40937 0.7
      vertex -5.91353 4.85311 1.7
      vertex -5.91353 4.85311 0.7
    endloop
  endfacet
  facet normal 0.857728 -0.514104 0
    outer loop
      vertex -6.7467 3.60618 1.7
      vertex -6.36074 4.25011 0.7
      vertex -6.36074 4.25011 1.7
    endloop
  endfacet
  facet normal 0.857728 -0.514104 0
    outer loop
      vertex -6.36074 4.25011 0.7
      vertex -6.7467 3.60618 1.7
      vertex -6.7467 3.60618 0.7
    endloop
  endfacet
  facet normal 0.941544 -0.33689 0
    outer loop
      vertex -7.32059 2.22068 1.7
      vertex -7.06768 2.92753 0.7
      vertex -7.06768 2.92753 1.7
    endloop
  endfacet
  facet normal 0.941544 -0.33689 0
    outer loop
      vertex -7.06768 2.92753 0.7
      vertex -7.32059 2.22068 1.7
      vertex -7.32059 2.22068 0.7
    endloop
  endfacet
  facet normal 0.989176 -0.146731 0
    outer loop
      vertex -7.61316 0.74983 1.7
      vertex -7.50301 1.49244 0.7
      vertex -7.50301 1.49244 1.7
    endloop
  endfacet
  facet normal 0.989176 -0.146731 0
    outer loop
      vertex -7.50301 1.49244 0.7
      vertex -7.61316 0.74983 1.7
      vertex -7.61316 0.74983 0.7
    endloop
  endfacet
  facet normal 0.514104 -0.857728 0
    outer loop
      vertex -4.25011 6.36074 0.7
      vertex -3.60618 6.7467 1.7
      vertex -4.25011 6.36074 1.7
    endloop
  endfacet
  facet normal 0.514104 -0.857728 0
    outer loop
      vertex -3.60618 6.7467 1.7
      vertex -4.25011 6.36074 0.7
      vertex -3.60618 6.7467 0.7
    endloop
  endfacet
  facet normal 0.595699 -0.803208 0
    outer loop
      vertex -4.85311 5.91353 0.7
      vertex -4.25011 6.36074 1.7
      vertex -4.85311 5.91353 1.7
    endloop
  endfacet
  facet normal 0.595699 -0.803208 0
    outer loop
      vertex -4.25011 6.36074 1.7
      vertex -4.85311 5.91353 0.7
      vertex -4.25011 6.36074 0.7
    endloop
  endfacet
  facet normal 0.33689 -0.941544 0
    outer loop
      vertex -2.92753 7.06768 0.7
      vertex -2.22068 7.32059 1.7
      vertex -2.92753 7.06768 1.7
    endloop
  endfacet
  facet normal 0.33689 -0.941544 0
    outer loop
      vertex -2.22068 7.32059 1.7
      vertex -2.92753 7.06768 0.7
      vertex -2.22068 7.32059 0.7
    endloop
  endfacet
  facet normal 0.146731 -0.989176 0
    outer loop
      vertex -1.49244 7.50301 0.7
      vertex -0.74983 7.61316 1.7
      vertex -1.49244 7.50301 1.7
    endloop
  endfacet
  facet normal 0.146731 -0.989176 0
    outer loop
      vertex -0.74983 7.61316 1.7
      vertex -1.49244 7.50301 0.7
      vertex -0.74983 7.61316 0.7
    endloop
  endfacet
  facet normal -0.740951 0.671559 0
    outer loop
      vertex 5.40937 -5.40937 0.7
      vertex 5.91353 -4.85311 1.7
      vertex 5.91353 -4.85311 0.7
    endloop
  endfacet
  facet normal -0.740951 0.671559 0
    outer loop
      vertex 5.91353 -4.85311 1.7
      vertex 5.40937 -5.40937 0.7
      vertex 5.40937 -5.40937 1.7
    endloop
  endfacet
  facet normal 0.90399 0.427554 0
    outer loop
      vertex -6.7467 -3.60618 1.7
      vertex -7.06768 -2.92753 0.7
      vertex -7.06768 -2.92753 1.7
    endloop
  endfacet
  facet normal 0.90399 0.427554 0
    outer loop
      vertex -7.06768 -2.92753 0.7
      vertex -6.7467 -3.60618 1.7
      vertex -6.7467 -3.60618 0.7
    endloop
  endfacet
  facet normal 0 0 1
    outer loop
      vertex 7.61316 0.74983 0.7
      vertex 7.61316 -0.74983 0.7
      vertex 7.65 0 0.7
    endloop
  endfacet
  facet normal 0 0 1
    outer loop
      vertex 7.50301 1.49244 0.7
      vertex 7.61316 -0.74983 0.7
      vertex 7.61316 0.74983 0.7
    endloop
  endfacet
  facet normal 0 0 1
    outer loop
      vertex 7.50301 1.49244 0.7
      vertex 7.50301 -1.49244 0.7
      vertex 7.61316 -0.74983 0.7
    endloop
  endfacet
  facet normal 0 0 1
    outer loop
      vertex 7.32059 2.22068 0.7
      vertex 7.50301 -1.49244 0.7
      vertex 7.50301 1.49244 0.7
    endloop
  endfacet
  facet normal 0 0 1
    outer loop
      vertex 7.32059 2.22068 0.7
      vertex 7.32059 -2.22068 0.7
      vertex 7.50301 -1.49244 0.7
    endloop
  endfacet
  facet normal 0 0 1
    outer loop
      vertex 7.06768 2.92753 0.7
      vertex 7.32059 -2.22068 0.7
      vertex 7.32059 2.22068 0.7
    endloop
  endfacet
  facet normal 0 0 1
    outer loop
      vertex 7.06768 2.92753 0.7
      vertex 7.06768 -2.92753 0.7
      vertex 7.32059 -2.22068 0.7
    endloop
  endfacet
  facet normal 0 0 1
    outer loop
      vertex 6.7467 3.60618 0.7
      vertex 7.06768 -2.92753 0.7
      vertex 7.06768 2.92753 0.7
    endloop
  endfacet
  facet normal 0 0 1
    outer loop
      vertex 6.7467 3.60618 0.7
      vertex 6.7467 -3.60618 0.7
      vertex 7.06768 -2.92753 0.7
    endloop
  endfacet
  facet normal 0 0 1
    outer loop
      vertex 6.36074 4.25011 0.7
      vertex 6.7467 -3.60618 0.7
      vertex 6.7467 3.60618 0.7
    endloop
  endfacet
  facet normal 0 0 1
    outer loop
      vertex 6.36074 4.25011 0.7
      vertex 6.36074 -4.25011 0.7
      vertex 6.7467 -3.60618 0.7
    endloop
  endfacet
  facet normal 0 0 1
    outer loop
      vertex 5.91353 4.85311 0.7
      vertex 6.36074 -4.25011 0.7
      vertex 6.36074 4.25011 0.7
    endloop
  endfacet
  facet normal 0 0 1
    outer loop
      vertex 5.91353 4.85311 0.7
      vertex 5.91353 -4.85311 0.7
      vertex 6.36074 -4.25011 0.7
    endloop
  endfacet
  facet normal 0 0 1
    outer loop
      vertex 5.40937 5.40937 0.7
      vertex 5.91353 -4.85311 0.7
      vertex 5.91353 4.85311 0.7
    endloop
  endfacet
  facet normal 0 0 1
    outer loop
      vertex 5.40937 5.40937 0.7
      vertex 5.40937 -5.40937 0.7
      vertex 5.91353 -4.85311 0.7
    endloop
  endfacet
  facet normal 0 0 1
    outer loop
      vertex 4.85311 5.91353 0.7
      vertex 5.40937 -5.40937 0.7
      vertex 5.40937 5.40937 0.7
    endloop
  endfacet
  facet normal 0 0 1
    outer loop
      vertex 4.85311 5.91353 0.7
      vertex 4.85311 -5.91353 0.7
      vertex 5.40937 -5.40937 0.7
    endloop
  endfacet
  facet normal 0 0 1
    outer loop
      vertex 4.25011 6.36074 0.7
      vertex 4.85311 -5.91353 0.7
      vertex 4.85311 5.91353 0.7
    endloop
  endfacet
  facet normal 0 0 1
    outer loop
      vertex 4.25011 6.36074 0.7
      vertex 4.25011 -6.36074 0.7
      vertex 4.85311 -5.91353 0.7
    endloop
  endfacet
  facet normal 0 0 1
    outer loop
      vertex 3.60618 6.7467 0.7
      vertex 4.25011 -6.36074 0.7
      vertex 4.25011 6.36074 0.7
    endloop
  endfacet
  facet normal 0 0 1
    outer loop
      vertex 3.60618 6.7467 0.7
      vertex 3.60618 -6.7467 0.7
      vertex 4.25011 -6.36074 0.7
    endloop
  endfacet
  facet normal 0 0 1
    outer loop
      vertex 2.92753 7.06768 0.7
      vertex 3.60618 -6.7467 0.7
      vertex 3.60618 6.7467 0.7
    endloop
  endfacet
  facet normal 0 0 1
    outer loop
      vertex 2.92753 7.06768 0.7
      vertex 2.92753 -7.06768 0.7
      vertex 3.60618 -6.7467 0.7
    endloop
  endfacet
  facet normal 0 0 1
    outer loop
      vertex 2.22068 7.32059 0.7
      vertex 2.92753 -7.06768 0.7
      vertex 2.92753 7.06768 0.7
    endloop
  endfacet
  facet normal 0 0 1
    outer loop
      vertex 2.22068 7.32059 0.7
      vertex 2.22068 -7.32059 0.7
      vertex 2.92753 -7.06768 0.7
    endloop
  endfacet
  facet normal 0 0 1
    outer loop
      vertex 1.49244 7.50301 0.7
      vertex 2.22068 -7.32059 0.7
      vertex 2.22068 7.32059 0.7
    endloop
  endfacet
  facet normal 0 0 1
    outer loop
      vertex 1.49244 7.50301 0.7
      vertex 1.49244 -7.50301 0.7
      vertex 2.22068 -7.32059 0.7
    endloop
  endfacet
  facet normal 0 0 1
    outer loop
      vertex 0.74983 7.61316 0.7
      vertex 1.49244 -7.50301 0.7
      vertex 1.49244 7.50301 0.7
    endloop
  endfacet
  facet normal 0 0 1
    outer loop
      vertex 0.74983 7.61316 0.7
      vertex 0.74983 -7.61316 0.7
      vertex 1.49244 -7.50301 0.7
    endloop
  endfacet
  facet normal 0 0 1
    outer loop
      vertex 0 7.65 0.7
      vertex 0.74983 -7.61316 0.7
      vertex 0.74983 7.61316 0.7
    endloop
  endfacet
  facet normal 0 0 1
    outer loop
      vertex 0 7.65 0.7
      vertex 0 -7.65 0.7
      vertex 0.74983 -7.61316 0.7
    endloop
  endfacet
  facet normal -0 0 1
    outer loop
      vertex -0.74983 7.61316 0.7
      vertex 0 -7.65 0.7
      vertex 0 7.65 0.7
    endloop
  endfacet
  facet normal 0 0 1
    outer loop
      vertex -0.74983 7.61316 0.7
      vertex -0.74983 -7.61316 0.7
      vertex 0 -7.65 0.7
    endloop
  endfacet
  facet normal -0 0 1
    outer loop
      vertex -1.49244 7.50301 0.7
      vertex -0.74983 -7.61316 0.7
      vertex -0.74983 7.61316 0.7
    endloop
  endfacet
  facet normal 0 0 1
    outer loop
      vertex -1.49244 7.50301 0.7
      vertex -1.49244 -7.50301 0.7
      vertex -0.74983 -7.61316 0.7
    endloop
  endfacet
  facet normal -0 0 1
    outer loop
      vertex -2.22068 7.32059 0.7
      vertex -1.49244 -7.50301 0.7
      vertex -1.49244 7.50301 0.7
    endloop
  endfacet
  facet normal 0 0 1
    outer loop
      vertex -2.22068 7.32059 0.7
      vertex -2.22068 -7.32059 0.7
      vertex -1.49244 -7.50301 0.7
    endloop
  endfacet
  facet normal -0 0 1
    outer loop
      vertex -2.92753 7.06768 0.7
      vertex -2.22068 -7.32059 0.7
      vertex -2.22068 7.32059 0.7
    endloop
  endfacet
  facet normal 0 0 1
    outer loop
      vertex -2.92753 7.06768 0.7
      vertex -2.92753 -7.06768 0.7
      vertex -2.22068 -7.32059 0.7
    endloop
  endfacet
  facet normal -0 0 1
    outer loop
      vertex -3.60618 6.7467 0.7
      vertex -2.92753 -7.06768 0.7
      vertex -2.92753 7.06768 0.7
    endloop
  endfacet
  facet normal 0 0 1
    outer loop
      vertex -3.60618 6.7467 0.7
      vertex -3.60618 -6.7467 0.7
      vertex -2.92753 -7.06768 0.7
    endloop
  endfacet
  facet normal -0 0 1
    outer loop
      vertex -4.25011 6.36074 0.7
      vertex -3.60618 -6.7467 0.7
      vertex -3.60618 6.7467 0.7
    endloop
  endfacet
  facet normal 0 0 1
    outer loop
      vertex -4.25011 6.36074 0.7
      vertex -4.25011 -6.36074 0.7
      vertex -3.60618 -6.7467 0.7
    endloop
  endfacet
  facet normal -0 0 1
    outer loop
      vertex -4.85311 5.91353 0.7
      vertex -4.25011 -6.36074 0.7
      vertex -4.25011 6.36074 0.7
    endloop
  endfacet
  facet normal 0 0 1
    outer loop
      vertex -4.85311 5.91353 0.7
      vertex -4.85311 -5.91353 0.7
      vertex -4.25011 -6.36074 0.7
    endloop
  endfacet
  facet normal -0 0 1
    outer loop
      vertex -5.40937 5.40937 0.7
      vertex -4.85311 -5.91353 0.7
      vertex -4.85311 5.91353 0.7
    endloop
  endfacet
  facet normal 0 0 1
    outer loop
      vertex -5.40937 5.40937 0.7
      vertex -5.40937 -5.40937 0.7
      vertex -4.85311 -5.91353 0.7
    endloop
  endfacet
  facet normal -0 0 1
    outer loop
      vertex -5.91353 4.85311 0.7
      vertex -5.40937 -5.40937 0.7
      vertex -5.40937 5.40937 0.7
    endloop
  endfacet
  facet normal 0 0 1
    outer loop
      vertex -5.91353 4.85311 0.7
      vertex -5.91353 -4.85311 0.7
      vertex -5.40937 -5.40937 0.7
    endloop
  endfacet
  facet normal -0 0 1
    outer loop
      vertex -6.36074 4.25011 0.7
      vertex -5.91353 -4.85311 0.7
      vertex -5.91353 4.85311 0.7
    endloop
  endfacet
  facet normal 0 0 1
    outer loop
      vertex -6.36074 4.25011 0.7
      vertex -6.36074 -4.25011 0.7
      vertex -5.91353 -4.85311 0.7
    endloop
  endfacet
  facet normal -0 0 1
    outer loop
      vertex -6.7467 3.60618 0.7
      vertex -6.36074 -4.25011 0.7
      vertex -6.36074 4.25011 0.7
    endloop
  endfacet
  facet normal 0 0 1
    outer loop
      vertex -6.7467 3.60618 0.7
      vertex -6.7467 -3.60618 0.7
      vertex -6.36074 -4.25011 0.7
    endloop
  endfacet
  facet normal -0 0 1
    outer loop
      vertex -7.06768 2.92753 0.7
      vertex -6.7467 -3.60618 0.7
      vertex -6.7467 3.60618 0.7
    endloop
  endfacet
  facet normal 0 0 1
    outer loop
      vertex -7.06768 2.92753 0.7
      vertex -7.06768 -2.92753 0.7
      vertex -6.7467 -3.60618 0.7
    endloop
  endfacet
  facet normal -0 0 1
    outer loop
      vertex -7.32059 2.22068 0.7
      vertex -7.06768 -2.92753 0.7
      vertex -7.06768 2.92753 0.7
    endloop
  endfacet
  facet normal 0 0 1
    outer loop
      vertex -7.32059 2.22068 0.7
      vertex -7.32059 -2.22068 0.7
      vertex -7.06768 -2.92753 0.7
    endloop
  endfacet
  facet normal -0 0 1
    outer loop
      vertex -7.50301 1.49244 0.7
      vertex -7.32059 -2.22068 0.7
      vertex -7.32059 2.22068 0.7
    endloop
  endfacet
  facet normal 0 0 1
    outer loop
      vertex -7.50301 1.49244 0.7
      vertex -7.50301 -1.49244 0.7
      vertex -7.32059 -2.22068 0.7
    endloop
  endfacet
  facet normal -0 0 1
    outer loop
      vertex -7.61316 0.74983 0.7
      vertex -7.50301 -1.49244 0.7
      vertex -7.50301 1.49244 0.7
    endloop
  endfacet
  facet normal 0 0 1
    outer loop
      vertex -7.61316 0.74983 0.7
      vertex -7.61316 -0.74983 0.7
      vertex -7.50301 -1.49244 0.7
    endloop
  endfacet
  facet normal 0 -0 1
    outer loop
      vertex -7.61316 -0.74983 0.7
      vertex -7.61316 0.74983 0.7
      vertex -7.65 0 0.7
    endloop
  endfacet
  facet normal -0.427554 0.90399 0
    outer loop
      vertex 3.60618 -6.7467 0.7
      vertex 2.92753 -7.06768 1.7
      vertex 3.60618 -6.7467 1.7
    endloop
  endfacet
  facet normal -0.427554 0.90399 0
    outer loop
      vertex 2.92753 -7.06768 1.7
      vertex 3.60618 -6.7467 0.7
      vertex 2.92753 -7.06768 0.7
    endloop
  endfacet
  facet normal -0.941544 0.33689 0
    outer loop
      vertex 7.06768 -2.92753 0.7
      vertex 7.32059 -2.22068 1.7
      vertex 7.32059 -2.22068 0.7
    endloop
  endfacet
  facet normal -0.941544 0.33689 0
    outer loop
      vertex 7.32059 -2.22068 1.7
      vertex 7.06768 -2.92753 0.7
      vertex 7.06768 -2.92753 1.7
    endloop
  endfacet
  facet normal -0.989176 0.146731 0
    outer loop
      vertex 7.50301 -1.49244 0.7
      vertex 7.61316 -0.74983 1.7
      vertex 7.61316 -0.74983 0.7
    endloop
  endfacet
  facet normal -0.989176 0.146731 0
    outer loop
      vertex 7.61316 -0.74983 1.7
      vertex 7.50301 -1.49244 0.7
      vertex 7.50301 -1.49244 1.7
    endloop
  endfacet
  facet normal -0.998795 0.0490674 0
    outer loop
      vertex 7.61316 -0.74983 0.7
      vertex 7.65 0 1.7
      vertex 7.65 0 0.7
    endloop
  endfacet
  facet normal -0.998795 0.0490674 0
    outer loop
      vertex 7.65 0 1.7
      vertex 7.61316 -0.74983 0.7
      vertex 7.61316 -0.74983 1.7
    endloop
  endfacet
  facet normal -0.671559 0.740951 0
    outer loop
      vertex 5.40937 -5.40937 0.7
      vertex 4.85311 -5.91353 1.7
      vertex 5.40937 -5.40937 1.7
    endloop
  endfacet
  facet normal -0.671559 0.740951 0
    outer loop
      vertex 4.85311 -5.91353 1.7
      vertex 5.40937 -5.40937 0.7
      vertex 4.85311 -5.91353 0.7
    endloop
  endfacet
  facet normal -0.90399 0.427554 0
    outer loop
      vertex 6.7467 -3.60618 0.7
      vertex 7.06768 -2.92753 1.7
      vertex 7.06768 -2.92753 0.7
    endloop
  endfacet
  facet normal -0.90399 0.427554 0
    outer loop
      vertex 7.06768 -2.92753 1.7
      vertex 6.7467 -3.60618 0.7
      vertex 6.7467 -3.60618 1.7
    endloop
  endfacet
  facet normal -0.803208 0.595699 0
    outer loop
      vertex 5.91353 -4.85311 0.7
      vertex 6.36074 -4.25011 1.7
      vertex 6.36074 -4.25011 0.7
    endloop
  endfacet
  facet normal -0.803208 0.595699 0
    outer loop
      vertex 6.36074 -4.25011 1.7
      vertex 5.91353 -4.85311 0.7
      vertex 5.91353 -4.85311 1.7
    endloop
  endfacet
  facet normal 0.970031 0.24298 0
    outer loop
      vertex -7.32059 -2.22068 1.7
      vertex -7.50301 -1.49244 0.7
      vertex -7.50301 -1.49244 1.7
    endloop
  endfacet
  facet normal 0.970031 0.24298 0
    outer loop
      vertex -7.50301 -1.49244 0.7
      vertex -7.32059 -2.22068 1.7
      vertex -7.32059 -2.22068 0.7
    endloop
  endfacet
  facet normal -0.33689 0.941544 0
    outer loop
      vertex 2.92753 -7.06768 0.7
      vertex 2.22068 -7.32059 1.7
      vertex 2.92753 -7.06768 1.7
    endloop
  endfacet
  facet normal -0.33689 0.941544 0
    outer loop
      vertex 2.22068 -7.32059 1.7
      vertex 2.92753 -7.06768 0.7
      vertex 2.22068 -7.32059 0.7
    endloop
  endfacet
  facet normal -0.24298 0.970031 0
    outer loop
      vertex 2.22068 -7.32059 0.7
      vertex 1.49244 -7.50301 1.7
      vertex 2.22068 -7.32059 1.7
    endloop
  endfacet
  facet normal -0.24298 0.970031 0
    outer loop
      vertex 1.49244 -7.50301 1.7
      vertex 2.22068 -7.32059 0.7
      vertex 1.49244 -7.50301 0.7
    endloop
  endfacet
  facet normal -0.514104 0.857728 0
    outer loop
      vertex 4.25011 -6.36074 0.7
      vertex 3.60618 -6.7467 1.7
      vertex 4.25011 -6.36074 1.7
    endloop
  endfacet
  facet normal -0.514104 0.857728 0
    outer loop
      vertex 3.60618 -6.7467 1.7
      vertex 4.25011 -6.36074 0.7
      vertex 3.60618 -6.7467 0.7
    endloop
  endfacet
  facet normal -0.595699 0.803208 0
    outer loop
      vertex 4.85311 -5.91353 0.7
      vertex 4.25011 -6.36074 1.7
      vertex 4.85311 -5.91353 1.7
    endloop
  endfacet
  facet normal -0.595699 0.803208 0
    outer loop
      vertex 4.25011 -6.36074 1.7
      vertex 4.85311 -5.91353 0.7
      vertex 4.25011 -6.36074 0.7
    endloop
  endfacet
  facet normal -0.857728 0.514104 0
    outer loop
      vertex 6.36074 -4.25011 0.7
      vertex 6.7467 -3.60618 1.7
      vertex 6.7467 -3.60618 0.7
    endloop
  endfacet
  facet normal -0.857728 0.514104 0
    outer loop
      vertex 6.7467 -3.60618 1.7
      vertex 6.36074 -4.25011 0.7
      vertex 6.36074 -4.25011 1.7
    endloop
  endfacet
  facet normal 0.146731 0.989176 -0
    outer loop
      vertex -0.74983 -7.61316 0.7
      vertex -1.49244 -7.50301 1.7
      vertex -0.74983 -7.61316 1.7
    endloop
  endfacet
  facet normal 0.146731 0.989176 0
    outer loop
      vertex -1.49244 -7.50301 1.7
      vertex -0.74983 -7.61316 0.7
      vertex -1.49244 -7.50301 0.7
    endloop
  endfacet
  facet normal 0.857728 0.514104 0
    outer loop
      vertex -6.36074 -4.25011 1.7
      vertex -6.7467 -3.60618 0.7
      vertex -6.7467 -3.60618 1.7
    endloop
  endfacet
  facet normal 0.857728 0.514104 0
    outer loop
      vertex -6.7467 -3.60618 0.7
      vertex -6.36074 -4.25011 1.7
      vertex -6.36074 -4.25011 0.7
    endloop
  endfacet
  facet normal 0.740951 0.671559 0
    outer loop
      vertex -5.40937 -5.40937 1.7
      vertex -5.91353 -4.85311 0.7
      vertex -5.91353 -4.85311 1.7
    endloop
  endfacet
  facet normal 0.740951 0.671559 0
    outer loop
      vertex -5.91353 -4.85311 0.7
      vertex -5.40937 -5.40937 1.7
      vertex -5.40937 -5.40937 0.7
    endloop
  endfacet
  facet normal 0.803208 0.595699 0
    outer loop
      vertex -5.91353 -4.85311 1.7
      vertex -6.36074 -4.25011 0.7
      vertex -6.36074 -4.25011 1.7
    endloop
  endfacet
  facet normal 0.803208 0.595699 0
    outer loop
      vertex -6.36074 -4.25011 0.7
      vertex -5.91353 -4.85311 1.7
      vertex -5.91353 -4.85311 0.7
    endloop
  endfacet
  facet normal 0.941544 0.33689 0
    outer loop
      vertex -7.06768 -2.92753 1.7
      vertex -7.32059 -2.22068 0.7
      vertex -7.32059 -2.22068 1.7
    endloop
  endfacet
  facet normal 0.941544 0.33689 0
    outer loop
      vertex -7.32059 -2.22068 0.7
      vertex -7.06768 -2.92753 1.7
      vertex -7.06768 -2.92753 0.7
    endloop
  endfacet
  facet normal 0.989176 0.146731 0
    outer loop
      vertex -7.50301 -1.49244 1.7
      vertex -7.61316 -0.74983 0.7
      vertex -7.61316 -0.74983 1.7
    endloop
  endfacet
  facet normal 0.989176 0.146731 0
    outer loop
      vertex -7.61316 -0.74983 0.7
      vertex -7.50301 -1.49244 1.7
      vertex -7.50301 -1.49244 0.7
    endloop
  endfacet
  facet normal 0.998795 0.0490674 0
    outer loop
      vertex -7.61316 -0.74983 1.7
      vertex -7.65 0 0.7
      vertex -7.65 0 1.7
    endloop
  endfacet
  facet normal 0.998795 0.0490674 0
    outer loop
      vertex -7.65 0 0.7
      vertex -7.61316 -0.74983 1.7
      vertex -7.61316 -0.74983 0.7
    endloop
  endfacet
  facet normal 0.671559 0.740951 -0
    outer loop
      vertex -4.85311 -5.91353 0.7
      vertex -5.40937 -5.40937 1.7
      vertex -4.85311 -5.91353 1.7
    endloop
  endfacet
  facet normal 0.671559 0.740951 0
    outer loop
      vertex -5.40937 -5.40937 1.7
      vertex -4.85311 -5.91353 0.7
      vertex -5.40937 -5.40937 0.7
    endloop
  endfacet
  facet normal 0.24298 0.970031 -0
    outer loop
      vertex -1.49244 -7.50301 0.7
      vertex -2.22068 -7.32059 1.7
      vertex -1.49244 -7.50301 1.7
    endloop
  endfacet
  facet normal 0.24298 0.970031 0
    outer loop
      vertex -2.22068 -7.32059 1.7
      vertex -1.49244 -7.50301 0.7
      vertex -2.22068 -7.32059 0.7
    endloop
  endfacet
  facet normal 0.0490674 0.998795 -0
    outer loop
      vertex 0 -7.65 0.7
      vertex -0.74983 -7.61316 1.7
      vertex 0 -7.65 1.7
    endloop
  endfacet
  facet normal 0.0490674 0.998795 0
    outer loop
      vertex -0.74983 -7.61316 1.7
      vertex 0 -7.65 0.7
      vertex -0.74983 -7.61316 0.7
    endloop
  endfacet
  facet normal 0.427554 0.90399 -0
    outer loop
      vertex -2.92753 -7.06768 0.7
      vertex -3.60618 -6.7467 1.7
      vertex -2.92753 -7.06768 1.7
    endloop
  endfacet
  facet normal 0.427554 0.90399 0
    outer loop
      vertex -3.60618 -6.7467 1.7
      vertex -2.92753 -7.06768 0.7
      vertex -3.60618 -6.7467 0.7
    endloop
  endfacet
  facet normal 0.514104 0.857728 -0
    outer loop
      vertex -3.60618 -6.7467 0.7
      vertex -4.25011 -6.36074 1.7
      vertex -3.60618 -6.7467 1.7
    endloop
  endfacet
  facet normal 0.514104 0.857728 0
    outer loop
      vertex -4.25011 -6.36074 1.7
      vertex -3.60618 -6.7467 0.7
      vertex -4.25011 -6.36074 0.7
    endloop
  endfacet
  facet normal 0.33689 0.941544 -0
    outer loop
      vertex -2.22068 -7.32059 0.7
      vertex -2.92753 -7.06768 1.7
      vertex -2.22068 -7.32059 1.7
    endloop
  endfacet
  facet normal 0.33689 0.941544 0
    outer loop
      vertex -2.92753 -7.06768 1.7
      vertex -2.22068 -7.32059 0.7
      vertex -2.92753 -7.06768 0.7
    endloop
  endfacet
  facet normal 0.595699 0.803208 -0
    outer loop
      vertex -4.25011 -6.36074 0.7
      vertex -4.85311 -5.91353 1.7
      vertex -4.25011 -6.36074 1.7
    endloop
  endfacet
  facet normal 0.595699 0.803208 0
    outer loop
      vertex -4.85311 -5.91353 1.7
      vertex -4.25011 -6.36074 0.7
      vertex -4.85311 -5.91353 0.7
    endloop
  endfacet
endsolid OpenSCAD_Model
