solid OpenSCAD_Model
  facet normal -0.995185 -0.0980169 0
    outer loop
      vertex 14.45 12.95 0
      vertex 14.4212 13.2426 3
      vertex 14.4212 13.2426 0
    endloop
  endfacet
  facet normal -0.995185 -0.0980169 0
    outer loop
      vertex 14.4212 13.2426 3
      vertex 14.45 12.95 0
      vertex 14.45 12.95 3
    endloop
  endfacet
  facet normal 0.0980165 -0.995185 0
    outer loop
      vertex 12.6574 14.4212 0
      vertex 12.95 14.45 3
      vertex 12.6574 14.4212 3
    endloop
  endfacet
  facet normal 0.0980165 -0.995185 0
    outer loop
      vertex 12.95 14.45 3
      vertex 12.6574 14.4212 0
      vertex 12.95 14.45 0
    endloop
  endfacet
  facet normal -0.634391 -0.773013 0
    outer loop
      vertex 13.7834 14.1972 0
      vertex 14.0107 14.0107 3
      vertex 13.7834 14.1972 3
    endloop
  endfacet
  facet normal -0.634391 -0.773013 -0
    outer loop
      vertex 14.0107 14.0107 3
      vertex 13.7834 14.1972 0
      vertex 14.0107 14.0107 0
    endloop
  endfacet
  facet normal 0.773011 -0.634393 0
    outer loop
      vertex 11.7028 13.7834 3
      vertex 11.8893 14.0107 0
      vertex 11.8893 14.0107 3
    endloop
  endfacet
  facet normal 0.773011 -0.634393 0
    outer loop
      vertex 11.8893 14.0107 0
      vertex 11.7028 13.7834 3
      vertex 11.7028 13.7834 0
    endloop
  endfacet
  facet normal 0.471398 -0.881921 0
    outer loop
      vertex 12.1166 14.1972 0
      vertex 12.376 14.3358 3
      vertex 12.1166 14.1972 3
    endloop
  endfacet
  facet normal 0.471398 -0.881921 0
    outer loop
      vertex 12.376 14.3358 3
      vertex 12.1166 14.1972 0
      vertex 12.376 14.3358 0
    endloop
  endfacet
  facet normal -0.773011 0.634392 0
    outer loop
      vertex 14.0107 11.8893 0
      vertex 14.1972 12.1166 3
      vertex 14.1972 12.1166 0
    endloop
  endfacet
  facet normal -0.773011 0.634392 0
    outer loop
      vertex 14.1972 12.1166 3
      vertex 14.0107 11.8893 0
      vertex 14.0107 11.8893 3
    endloop
  endfacet
  facet normal -0.881921 0.471398 0
    outer loop
      vertex 14.1972 12.1166 0
      vertex 14.3358 12.376 3
      vertex 14.3358 12.376 0
    endloop
  endfacet
  facet normal -0.881921 0.471398 0
    outer loop
      vertex 14.3358 12.376 3
      vertex 14.1972 12.1166 0
      vertex 14.1972 12.1166 3
    endloop
  endfacet
  facet normal 0.634394 0.77301 -0
    outer loop
      vertex 12.1166 11.7028 0
      vertex 11.8893 11.8893 3
      vertex 12.1166 11.7028 3
    endloop
  endfacet
  facet normal 0.634394 0.77301 0
    outer loop
      vertex 11.8893 11.8893 3
      vertex 12.1166 11.7028 0
      vertex 11.8893 11.8893 0
    endloop
  endfacet
  facet normal -0.88192 -0.471399 0
    outer loop
      vertex 14.3358 13.524 0
      vertex 14.1972 13.7834 3
      vertex 14.1972 13.7834 0
    endloop
  endfacet
  facet normal -0.88192 -0.471399 0
    outer loop
      vertex 14.1972 13.7834 3
      vertex 14.3358 13.524 0
      vertex 14.3358 13.524 3
    endloop
  endfacet
  facet normal -0.95694 -0.290284 0
    outer loop
      vertex 14.4212 13.2426 0
      vertex 14.3358 13.524 3
      vertex 14.3358 13.524 0
    endloop
  endfacet
  facet normal -0.95694 -0.290284 0
    outer loop
      vertex 14.3358 13.524 3
      vertex 14.4212 13.2426 0
      vertex 14.4212 13.2426 3
    endloop
  endfacet
  facet normal -0.773013 -0.634391 0
    outer loop
      vertex 14.1972 13.7834 0
      vertex 14.0107 14.0107 3
      vertex 14.0107 14.0107 0
    endloop
  endfacet
  facet normal -0.773013 -0.634391 0
    outer loop
      vertex 14.0107 14.0107 3
      vertex 14.1972 13.7834 0
      vertex 14.1972 13.7834 3
    endloop
  endfacet
  facet normal -0.290284 -0.95694 0
    outer loop
      vertex 13.2426 14.4212 0
      vertex 13.524 14.3358 3
      vertex 13.2426 14.4212 3
    endloop
  endfacet
  facet normal -0.290284 -0.95694 -0
    outer loop
      vertex 13.524 14.3358 3
      vertex 13.2426 14.4212 0
      vertex 13.524 14.3358 0
    endloop
  endfacet
  facet normal -0.0980169 -0.995185 0
    outer loop
      vertex 12.95 14.45 0
      vertex 13.2426 14.4212 3
      vertex 12.95 14.45 3
    endloop
  endfacet
  facet normal -0.0980169 -0.995185 -0
    outer loop
      vertex 13.2426 14.4212 3
      vertex 12.95 14.45 0
      vertex 13.2426 14.4212 0
    endloop
  endfacet
  facet normal -0.471399 -0.88192 0
    outer loop
      vertex 13.524 14.3358 0
      vertex 13.7834 14.1972 3
      vertex 13.524 14.3358 3
    endloop
  endfacet
  facet normal -0.471399 -0.88192 -0
    outer loop
      vertex 13.7834 14.1972 3
      vertex 13.524 14.3358 0
      vertex 13.7834 14.1972 0
    endloop
  endfacet
  facet normal 0.95694 -0.290284 0
    outer loop
      vertex 11.4788 13.2426 3
      vertex 11.5642 13.524 0
      vertex 11.5642 13.524 3
    endloop
  endfacet
  facet normal 0.95694 -0.290284 0
    outer loop
      vertex 11.5642 13.524 0
      vertex 11.4788 13.2426 3
      vertex 11.4788 13.2426 0
    endloop
  endfacet
  facet normal 0.881921 -0.471397 0
    outer loop
      vertex 11.5642 13.524 3
      vertex 11.7028 13.7834 0
      vertex 11.7028 13.7834 3
    endloop
  endfacet
  facet normal 0.881921 -0.471397 0
    outer loop
      vertex 11.7028 13.7834 0
      vertex 11.5642 13.524 3
      vertex 11.5642 13.524 0
    endloop
  endfacet
  facet normal 0.995185 -0.0980169 0
    outer loop
      vertex 11.45 12.95 3
      vertex 11.4788 13.2426 0
      vertex 11.4788 13.2426 3
    endloop
  endfacet
  facet normal 0.995185 -0.0980169 0
    outer loop
      vertex 11.4788 13.2426 0
      vertex 11.45 12.95 3
      vertex 11.45 12.95 0
    endloop
  endfacet
  facet normal 0.634392 -0.773011 0
    outer loop
      vertex 11.8893 14.0107 0
      vertex 12.1166 14.1972 3
      vertex 11.8893 14.0107 3
    endloop
  endfacet
  facet normal 0.634392 -0.773011 0
    outer loop
      vertex 12.1166 14.1972 3
      vertex 11.8893 14.0107 0
      vertex 12.1166 14.1972 0
    endloop
  endfacet
  facet normal 0.290285 -0.95694 0
    outer loop
      vertex 12.376 14.3358 0
      vertex 12.6574 14.4212 3
      vertex 12.376 14.3358 3
    endloop
  endfacet
  facet normal 0.290285 -0.95694 0
    outer loop
      vertex 12.6574 14.4212 3
      vertex 12.376 14.3358 0
      vertex 12.6574 14.4212 0
    endloop
  endfacet
  facet normal -0.290284 0.95694 0
    outer loop
      vertex 13.524 11.5642 0
      vertex 13.2426 11.4788 3
      vertex 13.524 11.5642 3
    endloop
  endfacet
  facet normal -0.290284 0.95694 0
    outer loop
      vertex 13.2426 11.4788 3
      vertex 13.524 11.5642 0
      vertex 13.2426 11.4788 0
    endloop
  endfacet
  facet normal -0.634393 0.773011 0
    outer loop
      vertex 14.0107 11.8893 0
      vertex 13.7834 11.7028 3
      vertex 14.0107 11.8893 3
    endloop
  endfacet
  facet normal -0.634393 0.773011 0
    outer loop
      vertex 13.7834 11.7028 3
      vertex 14.0107 11.8893 0
      vertex 13.7834 11.7028 0
    endloop
  endfacet
  facet normal 0.471395 0.881922 -0
    outer loop
      vertex 12.376 11.5642 0
      vertex 12.1166 11.7028 3
      vertex 12.376 11.5642 3
    endloop
  endfacet
  facet normal 0.471395 0.881922 0
    outer loop
      vertex 12.1166 11.7028 3
      vertex 12.376 11.5642 0
      vertex 12.1166 11.7028 0
    endloop
  endfacet
  facet normal 0.0980165 0.995185 -0
    outer loop
      vertex 12.95 11.45 0
      vertex 12.6574 11.4788 3
      vertex 12.95 11.45 3
    endloop
  endfacet
  facet normal 0.0980165 0.995185 0
    outer loop
      vertex 12.6574 11.4788 3
      vertex 12.95 11.45 0
      vertex 12.6574 11.4788 0
    endloop
  endfacet
  facet normal 0.95694 0.290285 0
    outer loop
      vertex 11.5642 12.376 3
      vertex 11.4788 12.6574 0
      vertex 11.4788 12.6574 3
    endloop
  endfacet
  facet normal 0.95694 0.290285 0
    outer loop
      vertex 11.4788 12.6574 0
      vertex 11.5642 12.376 3
      vertex 11.5642 12.376 0
    endloop
  endfacet
  facet normal 0.77301 0.634394 0
    outer loop
      vertex 11.8893 11.8893 3
      vertex 11.7028 12.1166 0
      vertex 11.7028 12.1166 3
    endloop
  endfacet
  facet normal 0.77301 0.634394 0
    outer loop
      vertex 11.7028 12.1166 0
      vertex 11.8893 11.8893 3
      vertex 11.8893 11.8893 0
    endloop
  endfacet
  facet normal 0.881922 0.471395 0
    outer loop
      vertex 11.7028 12.1166 3
      vertex 11.5642 12.376 0
      vertex 11.5642 12.376 3
    endloop
  endfacet
  facet normal 0.881922 0.471395 0
    outer loop
      vertex 11.5642 12.376 0
      vertex 11.7028 12.1166 3
      vertex 11.7028 12.1166 0
    endloop
  endfacet
  facet normal 0.995185 0.0980165 0
    outer loop
      vertex 11.4788 12.6574 3
      vertex 11.45 12.95 0
      vertex 11.45 12.95 3
    endloop
  endfacet
  facet normal 0.995185 0.0980165 0
    outer loop
      vertex 11.45 12.95 0
      vertex 11.4788 12.6574 3
      vertex 11.4788 12.6574 0
    endloop
  endfacet
  facet normal -0.471397 0.881921 0
    outer loop
      vertex 13.7834 11.7028 0
      vertex 13.524 11.5642 3
      vertex 13.7834 11.7028 3
    endloop
  endfacet
  facet normal -0.471397 0.881921 0
    outer loop
      vertex 13.524 11.5642 3
      vertex 13.7834 11.7028 0
      vertex 13.524 11.5642 0
    endloop
  endfacet
  facet normal -0.95694 0.290285 0
    outer loop
      vertex 14.3358 12.376 0
      vertex 14.4212 12.6574 3
      vertex 14.4212 12.6574 0
    endloop
  endfacet
  facet normal -0.95694 0.290285 0
    outer loop
      vertex 14.4212 12.6574 3
      vertex 14.3358 12.376 0
      vertex 14.3358 12.376 3
    endloop
  endfacet
  facet normal 0.290285 0.95694 -0
    outer loop
      vertex 12.6574 11.4788 0
      vertex 12.376 11.5642 3
      vertex 12.6574 11.4788 3
    endloop
  endfacet
  facet normal 0.290285 0.95694 0
    outer loop
      vertex 12.376 11.5642 3
      vertex 12.6574 11.4788 0
      vertex 12.376 11.5642 0
    endloop
  endfacet
  facet normal -0.0980169 0.995185 0
    outer loop
      vertex 13.2426 11.4788 0
      vertex 12.95 11.45 3
      vertex 13.2426 11.4788 3
    endloop
  endfacet
  facet normal -0.0980169 0.995185 0
    outer loop
      vertex 12.95 11.45 3
      vertex 13.2426 11.4788 0
      vertex 12.95 11.45 0
    endloop
  endfacet
  facet normal -0.995185 0.0980165 0
    outer loop
      vertex 14.4212 12.6574 0
      vertex 14.45 12.95 3
      vertex 14.45 12.95 0
    endloop
  endfacet
  facet normal -0.995185 0.0980165 0
    outer loop
      vertex 14.45 12.95 3
      vertex 14.4212 12.6574 0
      vertex 14.4212 12.6574 3
    endloop
  endfacet
  facet normal 0.0980169 -0.995185 0
    outer loop
      vertex -13.2426 14.4212 0
      vertex -12.95 14.45 3
      vertex -13.2426 14.4212 3
    endloop
  endfacet
  facet normal 0.0980169 -0.995185 0
    outer loop
      vertex -12.95 14.45 3
      vertex -13.2426 14.4212 0
      vertex -12.95 14.45 0
    endloop
  endfacet
  facet normal -0.995185 -0.0980169 0
    outer loop
      vertex -11.45 12.95 0
      vertex -11.4788 13.2426 3
      vertex -11.4788 13.2426 0
    endloop
  endfacet
  facet normal -0.995185 -0.0980169 0
    outer loop
      vertex -11.4788 13.2426 3
      vertex -11.45 12.95 0
      vertex -11.45 12.95 3
    endloop
  endfacet
  facet normal 0.773013 -0.634391 0
    outer loop
      vertex -14.1972 13.7834 3
      vertex -14.0107 14.0107 0
      vertex -14.0107 14.0107 3
    endloop
  endfacet
  facet normal 0.773013 -0.634391 0
    outer loop
      vertex -14.0107 14.0107 0
      vertex -14.1972 13.7834 3
      vertex -14.1972 13.7834 0
    endloop
  endfacet
  facet normal 0.634393 0.773011 -0
    outer loop
      vertex -13.7834 11.7028 0
      vertex -14.0107 11.8893 3
      vertex -13.7834 11.7028 3
    endloop
  endfacet
  facet normal 0.634393 0.773011 0
    outer loop
      vertex -14.0107 11.8893 3
      vertex -13.7834 11.7028 0
      vertex -14.0107 11.8893 0
    endloop
  endfacet
  facet normal -0.634392 -0.773011 0
    outer loop
      vertex -12.1166 14.1972 0
      vertex -11.8893 14.0107 3
      vertex -12.1166 14.1972 3
    endloop
  endfacet
  facet normal -0.634392 -0.773011 -0
    outer loop
      vertex -11.8893 14.0107 3
      vertex -12.1166 14.1972 0
      vertex -11.8893 14.0107 0
    endloop
  endfacet
  facet normal -0.471398 -0.881921 0
    outer loop
      vertex -12.376 14.3358 0
      vertex -12.1166 14.1972 3
      vertex -12.376 14.3358 3
    endloop
  endfacet
  facet normal -0.471398 -0.881921 -0
    outer loop
      vertex -12.1166 14.1972 3
      vertex -12.376 14.3358 0
      vertex -12.1166 14.1972 0
    endloop
  endfacet
  facet normal -0.77301 0.634394 0
    outer loop
      vertex -11.8893 11.8893 0
      vertex -11.7028 12.1166 3
      vertex -11.7028 12.1166 0
    endloop
  endfacet
  facet normal -0.77301 0.634394 0
    outer loop
      vertex -11.7028 12.1166 3
      vertex -11.8893 11.8893 0
      vertex -11.8893 11.8893 3
    endloop
  endfacet
  facet normal 0.471399 -0.88192 0
    outer loop
      vertex -13.7834 14.1972 0
      vertex -13.524 14.3358 3
      vertex -13.7834 14.1972 3
    endloop
  endfacet
  facet normal 0.471399 -0.88192 0
    outer loop
      vertex -13.524 14.3358 3
      vertex -13.7834 14.1972 0
      vertex -13.524 14.3358 0
    endloop
  endfacet
  facet normal 0.290284 -0.95694 0
    outer loop
      vertex -13.524 14.3358 0
      vertex -13.2426 14.4212 3
      vertex -13.524 14.3358 3
    endloop
  endfacet
  facet normal 0.290284 -0.95694 0
    outer loop
      vertex -13.2426 14.4212 3
      vertex -13.524 14.3358 0
      vertex -13.2426 14.4212 0
    endloop
  endfacet
  facet normal 0.634391 -0.773013 0
    outer loop
      vertex -14.0107 14.0107 0
      vertex -13.7834 14.1972 3
      vertex -14.0107 14.0107 3
    endloop
  endfacet
  facet normal 0.634391 -0.773013 0
    outer loop
      vertex -13.7834 14.1972 3
      vertex -14.0107 14.0107 0
      vertex -13.7834 14.1972 0
    endloop
  endfacet
  facet normal 0.95694 -0.290284 0
    outer loop
      vertex -14.4212 13.2426 3
      vertex -14.3358 13.524 0
      vertex -14.3358 13.524 3
    endloop
  endfacet
  facet normal 0.95694 -0.290284 0
    outer loop
      vertex -14.3358 13.524 0
      vertex -14.4212 13.2426 3
      vertex -14.4212 13.2426 0
    endloop
  endfacet
  facet normal 0.995185 -0.0980169 0
    outer loop
      vertex -14.45 12.95 3
      vertex -14.4212 13.2426 0
      vertex -14.4212 13.2426 3
    endloop
  endfacet
  facet normal 0.995185 -0.0980169 0
    outer loop
      vertex -14.4212 13.2426 0
      vertex -14.45 12.95 3
      vertex -14.45 12.95 0
    endloop
  endfacet
  facet normal 0.88192 -0.471399 0
    outer loop
      vertex -14.3358 13.524 3
      vertex -14.1972 13.7834 0
      vertex -14.1972 13.7834 3
    endloop
  endfacet
  facet normal 0.88192 -0.471399 0
    outer loop
      vertex -14.1972 13.7834 0
      vertex -14.3358 13.524 3
      vertex -14.3358 13.524 0
    endloop
  endfacet
  facet normal 0.471397 0.881921 -0
    outer loop
      vertex -13.524 11.5642 0
      vertex -13.7834 11.7028 3
      vertex -13.524 11.5642 3
    endloop
  endfacet
  facet normal 0.471397 0.881921 0
    outer loop
      vertex -13.7834 11.7028 3
      vertex -13.524 11.5642 0
      vertex -13.7834 11.7028 0
    endloop
  endfacet
  facet normal 0.0980169 0.995185 -0
    outer loop
      vertex -12.95 11.45 0
      vertex -13.2426 11.4788 3
      vertex -12.95 11.45 3
    endloop
  endfacet
  facet normal 0.0980169 0.995185 0
    outer loop
      vertex -13.2426 11.4788 3
      vertex -12.95 11.45 0
      vertex -13.2426 11.4788 0
    endloop
  endfacet
  facet normal 0.773011 0.634392 0
    outer loop
      vertex -14.0107 11.8893 3
      vertex -14.1972 12.1166 0
      vertex -14.1972 12.1166 3
    endloop
  endfacet
  facet normal 0.773011 0.634392 0
    outer loop
      vertex -14.1972 12.1166 0
      vertex -14.0107 11.8893 3
      vertex -14.0107 11.8893 0
    endloop
  endfacet
  facet normal 0.95694 0.290285 0
    outer loop
      vertex -14.3358 12.376 3
      vertex -14.4212 12.6574 0
      vertex -14.4212 12.6574 3
    endloop
  endfacet
  facet normal 0.95694 0.290285 0
    outer loop
      vertex -14.4212 12.6574 0
      vertex -14.3358 12.376 3
      vertex -14.3358 12.376 0
    endloop
  endfacet
  facet normal -0.0980165 -0.995185 0
    outer loop
      vertex -12.95 14.45 0
      vertex -12.6574 14.4212 3
      vertex -12.95 14.45 3
    endloop
  endfacet
  facet normal -0.0980165 -0.995185 -0
    outer loop
      vertex -12.6574 14.4212 3
      vertex -12.95 14.45 0
      vertex -12.6574 14.4212 0
    endloop
  endfacet
  facet normal -0.881921 -0.471397 0
    outer loop
      vertex -11.5642 13.524 0
      vertex -11.7028 13.7834 3
      vertex -11.7028 13.7834 0
    endloop
  endfacet
  facet normal -0.881921 -0.471397 0
    outer loop
      vertex -11.7028 13.7834 3
      vertex -11.5642 13.524 0
      vertex -11.5642 13.524 3
    endloop
  endfacet
  facet normal -0.95694 -0.290284 0
    outer loop
      vertex -11.4788 13.2426 0
      vertex -11.5642 13.524 3
      vertex -11.5642 13.524 0
    endloop
  endfacet
  facet normal -0.95694 -0.290284 0
    outer loop
      vertex -11.5642 13.524 3
      vertex -11.4788 13.2426 0
      vertex -11.4788 13.2426 3
    endloop
  endfacet
  facet normal -0.773011 -0.634393 0
    outer loop
      vertex -11.7028 13.7834 0
      vertex -11.8893 14.0107 3
      vertex -11.8893 14.0107 0
    endloop
  endfacet
  facet normal -0.773011 -0.634393 0
    outer loop
      vertex -11.8893 14.0107 3
      vertex -11.7028 13.7834 0
      vertex -11.7028 13.7834 3
    endloop
  endfacet
  facet normal -0.881922 0.471395 0
    outer loop
      vertex -11.7028 12.1166 0
      vertex -11.5642 12.376 3
      vertex -11.5642 12.376 0
    endloop
  endfacet
  facet normal -0.881922 0.471395 0
    outer loop
      vertex -11.5642 12.376 3
      vertex -11.7028 12.1166 0
      vertex -11.7028 12.1166 3
    endloop
  endfacet
  facet normal -0.995185 0.0980165 0
    outer loop
      vertex -11.4788 12.6574 0
      vertex -11.45 12.95 3
      vertex -11.45 12.95 0
    endloop
  endfacet
  facet normal -0.995185 0.0980165 0
    outer loop
      vertex -11.45 12.95 3
      vertex -11.4788 12.6574 0
      vertex -11.4788 12.6574 3
    endloop
  endfacet
  facet normal -0.290285 0.95694 0
    outer loop
      vertex -12.376 11.5642 0
      vertex -12.6574 11.4788 3
      vertex -12.376 11.5642 3
    endloop
  endfacet
  facet normal -0.290285 0.95694 0
    outer loop
      vertex -12.6574 11.4788 3
      vertex -12.376 11.5642 0
      vertex -12.6574 11.4788 0
    endloop
  endfacet
  facet normal -0.634394 0.77301 0
    outer loop
      vertex -11.8893 11.8893 0
      vertex -12.1166 11.7028 3
      vertex -11.8893 11.8893 3
    endloop
  endfacet
  facet normal -0.634394 0.77301 0
    outer loop
      vertex -12.1166 11.7028 3
      vertex -11.8893 11.8893 0
      vertex -12.1166 11.7028 0
    endloop
  endfacet
  facet normal 0.995185 0.0980165 0
    outer loop
      vertex -14.4212 12.6574 3
      vertex -14.45 12.95 0
      vertex -14.45 12.95 3
    endloop
  endfacet
  facet normal 0.995185 0.0980165 0
    outer loop
      vertex -14.45 12.95 0
      vertex -14.4212 12.6574 3
      vertex -14.4212 12.6574 0
    endloop
  endfacet
  facet normal 0.290284 0.95694 -0
    outer loop
      vertex -13.2426 11.4788 0
      vertex -13.524 11.5642 3
      vertex -13.2426 11.4788 3
    endloop
  endfacet
  facet normal 0.290284 0.95694 0
    outer loop
      vertex -13.524 11.5642 3
      vertex -13.2426 11.4788 0
      vertex -13.524 11.5642 0
    endloop
  endfacet
  facet normal -0.0980165 0.995185 0
    outer loop
      vertex -12.6574 11.4788 0
      vertex -12.95 11.45 3
      vertex -12.6574 11.4788 3
    endloop
  endfacet
  facet normal -0.0980165 0.995185 0
    outer loop
      vertex -12.95 11.45 3
      vertex -12.6574 11.4788 0
      vertex -12.95 11.45 0
    endloop
  endfacet
  facet normal 0.881921 0.471398 0
    outer loop
      vertex -14.1972 12.1166 3
      vertex -14.3358 12.376 0
      vertex -14.3358 12.376 3
    endloop
  endfacet
  facet normal 0.881921 0.471398 0
    outer loop
      vertex -14.3358 12.376 0
      vertex -14.1972 12.1166 3
      vertex -14.1972 12.1166 0
    endloop
  endfacet
  facet normal -0.290285 -0.95694 0
    outer loop
      vertex -12.6574 14.4212 0
      vertex -12.376 14.3358 3
      vertex -12.6574 14.4212 3
    endloop
  endfacet
  facet normal -0.290285 -0.95694 -0
    outer loop
      vertex -12.376 14.3358 3
      vertex -12.6574 14.4212 0
      vertex -12.376 14.3358 0
    endloop
  endfacet
  facet normal -0.95694 0.290285 0
    outer loop
      vertex -11.5642 12.376 0
      vertex -11.4788 12.6574 3
      vertex -11.4788 12.6574 0
    endloop
  endfacet
  facet normal -0.95694 0.290285 0
    outer loop
      vertex -11.4788 12.6574 3
      vertex -11.5642 12.376 0
      vertex -11.5642 12.376 3
    endloop
  endfacet
  facet normal -0.471395 0.881922 0
    outer loop
      vertex -12.1166 11.7028 0
      vertex -12.376 11.5642 3
      vertex -12.1166 11.7028 3
    endloop
  endfacet
  facet normal -0.471395 0.881922 0
    outer loop
      vertex -12.376 11.5642 3
      vertex -12.1166 11.7028 0
      vertex -12.376 11.5642 0
    endloop
  endfacet
  facet normal 0.471399 0.88192 -0
    outer loop
      vertex -13.524 -14.3358 0
      vertex -13.7834 -14.1972 3
      vertex -13.524 -14.3358 3
    endloop
  endfacet
  facet normal 0.471399 0.88192 0
    outer loop
      vertex -13.7834 -14.1972 3
      vertex -13.524 -14.3358 0
      vertex -13.7834 -14.1972 0
    endloop
  endfacet
  facet normal -0.995185 0.0980169 0
    outer loop
      vertex -11.4788 -13.2426 0
      vertex -11.45 -12.95 3
      vertex -11.45 -12.95 0
    endloop
  endfacet
  facet normal -0.995185 0.0980169 0
    outer loop
      vertex -11.45 -12.95 3
      vertex -11.4788 -13.2426 0
      vertex -11.4788 -13.2426 3
    endloop
  endfacet
  facet normal 0.773011 -0.634392 0
    outer loop
      vertex -14.1972 -12.1166 3
      vertex -14.0107 -11.8893 0
      vertex -14.0107 -11.8893 3
    endloop
  endfacet
  facet normal 0.773011 -0.634392 0
    outer loop
      vertex -14.0107 -11.8893 0
      vertex -14.1972 -12.1166 3
      vertex -14.1972 -12.1166 0
    endloop
  endfacet
  facet normal -0.881922 -0.471395 0
    outer loop
      vertex -11.5642 -12.376 0
      vertex -11.7028 -12.1166 3
      vertex -11.7028 -12.1166 0
    endloop
  endfacet
  facet normal -0.881922 -0.471395 0
    outer loop
      vertex -11.7028 -12.1166 3
      vertex -11.5642 -12.376 0
      vertex -11.5642 -12.376 3
    endloop
  endfacet
  facet normal -0.290285 -0.95694 0
    outer loop
      vertex -12.6574 -11.4788 0
      vertex -12.376 -11.5642 3
      vertex -12.6574 -11.4788 3
    endloop
  endfacet
  facet normal -0.290285 -0.95694 -0
    outer loop
      vertex -12.376 -11.5642 3
      vertex -12.6574 -11.4788 0
      vertex -12.376 -11.5642 0
    endloop
  endfacet
  facet normal 0.88192 0.471399 0
    outer loop
      vertex -14.1972 -13.7834 3
      vertex -14.3358 -13.524 0
      vertex -14.3358 -13.524 3
    endloop
  endfacet
  facet normal 0.88192 0.471399 0
    outer loop
      vertex -14.3358 -13.524 0
      vertex -14.1972 -13.7834 3
      vertex -14.1972 -13.7834 0
    endloop
  endfacet
  facet normal 0.95694 0.290284 0
    outer loop
      vertex -14.3358 -13.524 3
      vertex -14.4212 -13.2426 0
      vertex -14.4212 -13.2426 3
    endloop
  endfacet
  facet normal 0.95694 0.290284 0
    outer loop
      vertex -14.4212 -13.2426 0
      vertex -14.3358 -13.524 3
      vertex -14.3358 -13.524 0
    endloop
  endfacet
  facet normal 0.773013 0.634391 0
    outer loop
      vertex -14.0107 -14.0107 3
      vertex -14.1972 -13.7834 0
      vertex -14.1972 -13.7834 3
    endloop
  endfacet
  facet normal 0.773013 0.634391 0
    outer loop
      vertex -14.1972 -13.7834 0
      vertex -14.0107 -14.0107 3
      vertex -14.0107 -14.0107 0
    endloop
  endfacet
  facet normal 0.0980169 0.995185 -0
    outer loop
      vertex -12.95 -14.45 0
      vertex -13.2426 -14.4212 3
      vertex -12.95 -14.45 3
    endloop
  endfacet
  facet normal 0.0980169 0.995185 0
    outer loop
      vertex -13.2426 -14.4212 3
      vertex -12.95 -14.45 0
      vertex -13.2426 -14.4212 0
    endloop
  endfacet
  facet normal -0.0980165 0.995185 0
    outer loop
      vertex -12.6574 -14.4212 0
      vertex -12.95 -14.45 3
      vertex -12.6574 -14.4212 3
    endloop
  endfacet
  facet normal -0.0980165 0.995185 0
    outer loop
      vertex -12.95 -14.45 3
      vertex -12.6574 -14.4212 0
      vertex -12.95 -14.45 0
    endloop
  endfacet
  facet normal -0.995185 -0.0980165 0
    outer loop
      vertex -11.45 -12.95 0
      vertex -11.4788 -12.6574 3
      vertex -11.4788 -12.6574 0
    endloop
  endfacet
  facet normal -0.995185 -0.0980165 0
    outer loop
      vertex -11.4788 -12.6574 3
      vertex -11.45 -12.95 0
      vertex -11.45 -12.95 3
    endloop
  endfacet
  facet normal -0.881921 0.471397 0
    outer loop
      vertex -11.7028 -13.7834 0
      vertex -11.5642 -13.524 3
      vertex -11.5642 -13.524 0
    endloop
  endfacet
  facet normal -0.881921 0.471397 0
    outer loop
      vertex -11.5642 -13.524 3
      vertex -11.7028 -13.7834 0
      vertex -11.7028 -13.7834 3
    endloop
  endfacet
  facet normal -0.634392 0.773011 0
    outer loop
      vertex -11.8893 -14.0107 0
      vertex -12.1166 -14.1972 3
      vertex -11.8893 -14.0107 3
    endloop
  endfacet
  facet normal -0.634392 0.773011 0
    outer loop
      vertex -12.1166 -14.1972 3
      vertex -11.8893 -14.0107 0
      vertex -12.1166 -14.1972 0
    endloop
  endfacet
  facet normal -0.290285 0.95694 0
    outer loop
      vertex -12.376 -14.3358 0
      vertex -12.6574 -14.4212 3
      vertex -12.376 -14.3358 3
    endloop
  endfacet
  facet normal -0.290285 0.95694 0
    outer loop
      vertex -12.6574 -14.4212 3
      vertex -12.376 -14.3358 0
      vertex -12.6574 -14.4212 0
    endloop
  endfacet
  facet normal 0.995185 0.0980169 0
    outer loop
      vertex -14.4212 -13.2426 3
      vertex -14.45 -12.95 0
      vertex -14.45 -12.95 3
    endloop
  endfacet
  facet normal 0.995185 0.0980169 0
    outer loop
      vertex -14.45 -12.95 0
      vertex -14.4212 -13.2426 3
      vertex -14.4212 -13.2426 0
    endloop
  endfacet
  facet normal 0.995185 -0.0980165 0
    outer loop
      vertex -14.45 -12.95 3
      vertex -14.4212 -12.6574 0
      vertex -14.4212 -12.6574 3
    endloop
  endfacet
  facet normal 0.995185 -0.0980165 0
    outer loop
      vertex -14.4212 -12.6574 0
      vertex -14.45 -12.95 3
      vertex -14.45 -12.95 0
    endloop
  endfacet
  facet normal 0.290284 -0.95694 0
    outer loop
      vertex -13.524 -11.5642 0
      vertex -13.2426 -11.4788 3
      vertex -13.524 -11.5642 3
    endloop
  endfacet
  facet normal 0.290284 -0.95694 0
    outer loop
      vertex -13.2426 -11.4788 3
      vertex -13.524 -11.5642 0
      vertex -13.2426 -11.4788 0
    endloop
  endfacet
  facet normal 0.95694 -0.290285 0
    outer loop
      vertex -14.4212 -12.6574 3
      vertex -14.3358 -12.376 0
      vertex -14.3358 -12.376 3
    endloop
  endfacet
  facet normal 0.95694 -0.290285 0
    outer loop
      vertex -14.3358 -12.376 0
      vertex -14.4212 -12.6574 3
      vertex -14.4212 -12.6574 0
    endloop
  endfacet
  facet normal 0.471397 -0.881921 0
    outer loop
      vertex -13.7834 -11.7028 0
      vertex -13.524 -11.5642 3
      vertex -13.7834 -11.7028 3
    endloop
  endfacet
  facet normal 0.471397 -0.881921 0
    outer loop
      vertex -13.524 -11.5642 3
      vertex -13.7834 -11.7028 0
      vertex -13.524 -11.5642 0
    endloop
  endfacet
  facet normal 0.634393 -0.773011 0
    outer loop
      vertex -14.0107 -11.8893 0
      vertex -13.7834 -11.7028 3
      vertex -14.0107 -11.8893 3
    endloop
  endfacet
  facet normal 0.634393 -0.773011 0
    outer loop
      vertex -13.7834 -11.7028 3
      vertex -14.0107 -11.8893 0
      vertex -13.7834 -11.7028 0
    endloop
  endfacet
  facet normal 0.0980169 -0.995185 0
    outer loop
      vertex -13.2426 -11.4788 0
      vertex -12.95 -11.45 3
      vertex -13.2426 -11.4788 3
    endloop
  endfacet
  facet normal 0.0980169 -0.995185 0
    outer loop
      vertex -12.95 -11.45 3
      vertex -13.2426 -11.4788 0
      vertex -12.95 -11.45 0
    endloop
  endfacet
  facet normal -0.471395 -0.881922 0
    outer loop
      vertex -12.376 -11.5642 0
      vertex -12.1166 -11.7028 3
      vertex -12.376 -11.5642 3
    endloop
  endfacet
  facet normal -0.471395 -0.881922 -0
    outer loop
      vertex -12.1166 -11.7028 3
      vertex -12.376 -11.5642 0
      vertex -12.1166 -11.7028 0
    endloop
  endfacet
  facet normal -0.77301 -0.634394 0
    outer loop
      vertex -11.7028 -12.1166 0
      vertex -11.8893 -11.8893 3
      vertex -11.8893 -11.8893 0
    endloop
  endfacet
  facet normal -0.77301 -0.634394 0
    outer loop
      vertex -11.8893 -11.8893 3
      vertex -11.7028 -12.1166 0
      vertex -11.7028 -12.1166 3
    endloop
  endfacet
  facet normal -0.95694 -0.290285 0
    outer loop
      vertex -11.4788 -12.6574 0
      vertex -11.5642 -12.376 3
      vertex -11.5642 -12.376 0
    endloop
  endfacet
  facet normal -0.95694 -0.290285 0
    outer loop
      vertex -11.5642 -12.376 3
      vertex -11.4788 -12.6574 0
      vertex -11.4788 -12.6574 3
    endloop
  endfacet
  facet normal -0.634394 -0.77301 0
    outer loop
      vertex -12.1166 -11.7028 0
      vertex -11.8893 -11.8893 3
      vertex -12.1166 -11.7028 3
    endloop
  endfacet
  facet normal -0.634394 -0.77301 -0
    outer loop
      vertex -11.8893 -11.8893 3
      vertex -12.1166 -11.7028 0
      vertex -11.8893 -11.8893 0
    endloop
  endfacet
  facet normal 0.634391 0.773013 -0
    outer loop
      vertex -13.7834 -14.1972 0
      vertex -14.0107 -14.0107 3
      vertex -13.7834 -14.1972 3
    endloop
  endfacet
  facet normal 0.634391 0.773013 0
    outer loop
      vertex -14.0107 -14.0107 3
      vertex -13.7834 -14.1972 0
      vertex -14.0107 -14.0107 0
    endloop
  endfacet
  facet normal 0.290284 0.95694 -0
    outer loop
      vertex -13.2426 -14.4212 0
      vertex -13.524 -14.3358 3
      vertex -13.2426 -14.4212 3
    endloop
  endfacet
  facet normal 0.290284 0.95694 0
    outer loop
      vertex -13.524 -14.3358 3
      vertex -13.2426 -14.4212 0
      vertex -13.524 -14.3358 0
    endloop
  endfacet
  facet normal -0.95694 0.290284 0
    outer loop
      vertex -11.5642 -13.524 0
      vertex -11.4788 -13.2426 3
      vertex -11.4788 -13.2426 0
    endloop
  endfacet
  facet normal -0.95694 0.290284 0
    outer loop
      vertex -11.4788 -13.2426 3
      vertex -11.5642 -13.524 0
      vertex -11.5642 -13.524 3
    endloop
  endfacet
  facet normal -0.471398 0.881921 0
    outer loop
      vertex -12.1166 -14.1972 0
      vertex -12.376 -14.3358 3
      vertex -12.1166 -14.1972 3
    endloop
  endfacet
  facet normal -0.471398 0.881921 0
    outer loop
      vertex -12.376 -14.3358 3
      vertex -12.1166 -14.1972 0
      vertex -12.376 -14.3358 0
    endloop
  endfacet
  facet normal -0.773011 0.634393 0
    outer loop
      vertex -11.8893 -14.0107 0
      vertex -11.7028 -13.7834 3
      vertex -11.7028 -13.7834 0
    endloop
  endfacet
  facet normal -0.773011 0.634393 0
    outer loop
      vertex -11.7028 -13.7834 3
      vertex -11.8893 -14.0107 0
      vertex -11.8893 -14.0107 3
    endloop
  endfacet
  facet normal 0.881921 -0.471398 0
    outer loop
      vertex -14.3358 -12.376 3
      vertex -14.1972 -12.1166 0
      vertex -14.1972 -12.1166 3
    endloop
  endfacet
  facet normal 0.881921 -0.471398 0
    outer loop
      vertex -14.1972 -12.1166 0
      vertex -14.3358 -12.376 3
      vertex -14.3358 -12.376 0
    endloop
  endfacet
  facet normal -0.0980165 -0.995185 0
    outer loop
      vertex -12.95 -11.45 0
      vertex -12.6574 -11.4788 3
      vertex -12.95 -11.45 3
    endloop
  endfacet
  facet normal -0.0980165 -0.995185 -0
    outer loop
      vertex -12.6574 -11.4788 3
      vertex -12.95 -11.45 0
      vertex -12.6574 -11.4788 0
    endloop
  endfacet
  facet normal -0.0980169 0.995185 0
    outer loop
      vertex 13.2426 -14.4212 0
      vertex 12.95 -14.45 3
      vertex 13.2426 -14.4212 3
    endloop
  endfacet
  facet normal -0.0980169 0.995185 0
    outer loop
      vertex 12.95 -14.45 3
      vertex 13.2426 -14.4212 0
      vertex 12.95 -14.45 0
    endloop
  endfacet
  facet normal 0.0980165 -0.995185 0
    outer loop
      vertex 12.6574 -11.4788 0
      vertex 12.95 -11.45 3
      vertex 12.6574 -11.4788 3
    endloop
  endfacet
  facet normal 0.0980165 -0.995185 0
    outer loop
      vertex 12.95 -11.45 3
      vertex 12.6574 -11.4788 0
      vertex 12.95 -11.45 0
    endloop
  endfacet
  facet normal -0.995185 -0.0980165 0
    outer loop
      vertex 14.45 -12.95 0
      vertex 14.4212 -12.6574 3
      vertex 14.4212 -12.6574 0
    endloop
  endfacet
  facet normal -0.995185 -0.0980165 0
    outer loop
      vertex 14.4212 -12.6574 3
      vertex 14.45 -12.95 0
      vertex 14.45 -12.95 3
    endloop
  endfacet
  facet normal 0.995185 0.0980169 0
    outer loop
      vertex 11.4788 -13.2426 3
      vertex 11.45 -12.95 0
      vertex 11.45 -12.95 3
    endloop
  endfacet
  facet normal 0.995185 0.0980169 0
    outer loop
      vertex 11.45 -12.95 0
      vertex 11.4788 -13.2426 3
      vertex 11.4788 -13.2426 0
    endloop
  endfacet
  facet normal 0.77301 -0.634394 0
    outer loop
      vertex 11.7028 -12.1166 3
      vertex 11.8893 -11.8893 0
      vertex 11.8893 -11.8893 3
    endloop
  endfacet
  facet normal 0.77301 -0.634394 0
    outer loop
      vertex 11.8893 -11.8893 0
      vertex 11.7028 -12.1166 3
      vertex 11.7028 -12.1166 0
    endloop
  endfacet
  facet normal -0.634393 -0.773011 0
    outer loop
      vertex 13.7834 -11.7028 0
      vertex 14.0107 -11.8893 3
      vertex 13.7834 -11.7028 3
    endloop
  endfacet
  facet normal -0.634393 -0.773011 -0
    outer loop
      vertex 14.0107 -11.8893 3
      vertex 13.7834 -11.7028 0
      vertex 14.0107 -11.8893 0
    endloop
  endfacet
  facet normal -0.881921 -0.471398 0
    outer loop
      vertex 14.3358 -12.376 0
      vertex 14.1972 -12.1166 3
      vertex 14.1972 -12.1166 0
    endloop
  endfacet
  facet normal -0.881921 -0.471398 0
    outer loop
      vertex 14.1972 -12.1166 3
      vertex 14.3358 -12.376 0
      vertex 14.3358 -12.376 3
    endloop
  endfacet
  facet normal 0.471398 0.881921 -0
    outer loop
      vertex 12.376 -14.3358 0
      vertex 12.1166 -14.1972 3
      vertex 12.376 -14.3358 3
    endloop
  endfacet
  facet normal 0.471398 0.881921 0
    outer loop
      vertex 12.1166 -14.1972 3
      vertex 12.376 -14.3358 0
      vertex 12.1166 -14.1972 0
    endloop
  endfacet
  facet normal 0.471395 -0.881922 0
    outer loop
      vertex 12.1166 -11.7028 0
      vertex 12.376 -11.5642 3
      vertex 12.1166 -11.7028 3
    endloop
  endfacet
  facet normal 0.471395 -0.881922 0
    outer loop
      vertex 12.376 -11.5642 3
      vertex 12.1166 -11.7028 0
      vertex 12.376 -11.5642 0
    endloop
  endfacet
  facet normal -0.290284 0.95694 0
    outer loop
      vertex 13.524 -14.3358 0
      vertex 13.2426 -14.4212 3
      vertex 13.524 -14.3358 3
    endloop
  endfacet
  facet normal -0.290284 0.95694 0
    outer loop
      vertex 13.2426 -14.4212 3
      vertex 13.524 -14.3358 0
      vertex 13.2426 -14.4212 0
    endloop
  endfacet
  facet normal -0.634391 0.773013 0
    outer loop
      vertex 14.0107 -14.0107 0
      vertex 13.7834 -14.1972 3
      vertex 14.0107 -14.0107 3
    endloop
  endfacet
  facet normal -0.634391 0.773013 0
    outer loop
      vertex 13.7834 -14.1972 3
      vertex 14.0107 -14.0107 0
      vertex 13.7834 -14.1972 0
    endloop
  endfacet
  facet normal -0.995185 0.0980169 0
    outer loop
      vertex 14.4212 -13.2426 0
      vertex 14.45 -12.95 3
      vertex 14.45 -12.95 0
    endloop
  endfacet
  facet normal -0.995185 0.0980169 0
    outer loop
      vertex 14.45 -12.95 3
      vertex 14.4212 -13.2426 0
      vertex 14.4212 -13.2426 3
    endloop
  endfacet
  facet normal -0.88192 0.471399 0
    outer loop
      vertex 14.1972 -13.7834 0
      vertex 14.3358 -13.524 3
      vertex 14.3358 -13.524 0
    endloop
  endfacet
  facet normal -0.88192 0.471399 0
    outer loop
      vertex 14.3358 -13.524 3
      vertex 14.1972 -13.7834 0
      vertex 14.1972 -13.7834 3
    endloop
  endfacet
  facet normal -0.290284 -0.95694 0
    outer loop
      vertex 13.2426 -11.4788 0
      vertex 13.524 -11.5642 3
      vertex 13.2426 -11.4788 3
    endloop
  endfacet
  facet normal -0.290284 -0.95694 -0
    outer loop
      vertex 13.524 -11.5642 3
      vertex 13.2426 -11.4788 0
      vertex 13.524 -11.5642 0
    endloop
  endfacet
  facet normal -0.471397 -0.881921 0
    outer loop
      vertex 13.524 -11.5642 0
      vertex 13.7834 -11.7028 3
      vertex 13.524 -11.5642 3
    endloop
  endfacet
  facet normal -0.471397 -0.881921 -0
    outer loop
      vertex 13.7834 -11.7028 3
      vertex 13.524 -11.5642 0
      vertex 13.7834 -11.7028 0
    endloop
  endfacet
  facet normal -0.0980169 -0.995185 0
    outer loop
      vertex 12.95 -11.45 0
      vertex 13.2426 -11.4788 3
      vertex 12.95 -11.45 3
    endloop
  endfacet
  facet normal -0.0980169 -0.995185 -0
    outer loop
      vertex 13.2426 -11.4788 3
      vertex 12.95 -11.45 0
      vertex 13.2426 -11.4788 0
    endloop
  endfacet
  facet normal -0.773011 -0.634392 0
    outer loop
      vertex 14.1972 -12.1166 0
      vertex 14.0107 -11.8893 3
      vertex 14.0107 -11.8893 0
    endloop
  endfacet
  facet normal -0.773011 -0.634392 0
    outer loop
      vertex 14.0107 -11.8893 3
      vertex 14.1972 -12.1166 0
      vertex 14.1972 -12.1166 3
    endloop
  endfacet
  facet normal -0.95694 -0.290285 0
    outer loop
      vertex 14.4212 -12.6574 0
      vertex 14.3358 -12.376 3
      vertex 14.3358 -12.376 0
    endloop
  endfacet
  facet normal -0.95694 -0.290285 0
    outer loop
      vertex 14.3358 -12.376 3
      vertex 14.4212 -12.6574 0
      vertex 14.4212 -12.6574 3
    endloop
  endfacet
  facet normal 0.95694 0.290284 0
    outer loop
      vertex 11.5642 -13.524 3
      vertex 11.4788 -13.2426 0
      vertex 11.4788 -13.2426 3
    endloop
  endfacet
  facet normal 0.95694 0.290284 0
    outer loop
      vertex 11.4788 -13.2426 0
      vertex 11.5642 -13.524 3
      vertex 11.5642 -13.524 0
    endloop
  endfacet
  facet normal 0.773011 0.634393 0
    outer loop
      vertex 11.8893 -14.0107 3
      vertex 11.7028 -13.7834 0
      vertex 11.7028 -13.7834 3
    endloop
  endfacet
  facet normal 0.773011 0.634393 0
    outer loop
      vertex 11.7028 -13.7834 0
      vertex 11.8893 -14.0107 3
      vertex 11.8893 -14.0107 0
    endloop
  endfacet
  facet normal 0.95694 -0.290285 0
    outer loop
      vertex 11.4788 -12.6574 3
      vertex 11.5642 -12.376 0
      vertex 11.5642 -12.376 3
    endloop
  endfacet
  facet normal 0.95694 -0.290285 0
    outer loop
      vertex 11.5642 -12.376 0
      vertex 11.4788 -12.6574 3
      vertex 11.4788 -12.6574 0
    endloop
  endfacet
  facet normal 0.881922 -0.471395 0
    outer loop
      vertex 11.5642 -12.376 3
      vertex 11.7028 -12.1166 0
      vertex 11.7028 -12.1166 3
    endloop
  endfacet
  facet normal 0.881922 -0.471395 0
    outer loop
      vertex 11.7028 -12.1166 0
      vertex 11.5642 -12.376 3
      vertex 11.5642 -12.376 0
    endloop
  endfacet
  facet normal 0.995185 -0.0980165 0
    outer loop
      vertex 11.45 -12.95 3
      vertex 11.4788 -12.6574 0
      vertex 11.4788 -12.6574 3
    endloop
  endfacet
  facet normal 0.995185 -0.0980165 0
    outer loop
      vertex 11.4788 -12.6574 0
      vertex 11.45 -12.95 3
      vertex 11.45 -12.95 0
    endloop
  endfacet
  facet normal 0.634394 -0.77301 0
    outer loop
      vertex 11.8893 -11.8893 0
      vertex 12.1166 -11.7028 3
      vertex 11.8893 -11.8893 3
    endloop
  endfacet
  facet normal 0.634394 -0.77301 0
    outer loop
      vertex 12.1166 -11.7028 3
      vertex 11.8893 -11.8893 0
      vertex 12.1166 -11.7028 0
    endloop
  endfacet
  facet normal 0.290285 -0.95694 0
    outer loop
      vertex 12.376 -11.5642 0
      vertex 12.6574 -11.4788 3
      vertex 12.376 -11.5642 3
    endloop
  endfacet
  facet normal 0.290285 -0.95694 0
    outer loop
      vertex 12.6574 -11.4788 3
      vertex 12.376 -11.5642 0
      vertex 12.6574 -11.4788 0
    endloop
  endfacet
  facet normal -0.471399 0.88192 0
    outer loop
      vertex 13.7834 -14.1972 0
      vertex 13.524 -14.3358 3
      vertex 13.7834 -14.1972 3
    endloop
  endfacet
  facet normal -0.471399 0.88192 0
    outer loop
      vertex 13.524 -14.3358 3
      vertex 13.7834 -14.1972 0
      vertex 13.524 -14.3358 0
    endloop
  endfacet
  facet normal -0.773013 0.634391 0
    outer loop
      vertex 14.0107 -14.0107 0
      vertex 14.1972 -13.7834 3
      vertex 14.1972 -13.7834 0
    endloop
  endfacet
  facet normal -0.773013 0.634391 0
    outer loop
      vertex 14.1972 -13.7834 3
      vertex 14.0107 -14.0107 0
      vertex 14.0107 -14.0107 3
    endloop
  endfacet
  facet normal -0.95694 0.290284 0
    outer loop
      vertex 14.3358 -13.524 0
      vertex 14.4212 -13.2426 3
      vertex 14.4212 -13.2426 0
    endloop
  endfacet
  facet normal -0.95694 0.290284 0
    outer loop
      vertex 14.4212 -13.2426 3
      vertex 14.3358 -13.524 0
      vertex 14.3358 -13.524 3
    endloop
  endfacet
  facet normal 0.881921 0.471397 0
    outer loop
      vertex 11.7028 -13.7834 3
      vertex 11.5642 -13.524 0
      vertex 11.5642 -13.524 3
    endloop
  endfacet
  facet normal 0.881921 0.471397 0
    outer loop
      vertex 11.5642 -13.524 0
      vertex 11.7028 -13.7834 3
      vertex 11.7028 -13.7834 0
    endloop
  endfacet
  facet normal 0.634392 0.773011 -0
    outer loop
      vertex 12.1166 -14.1972 0
      vertex 11.8893 -14.0107 3
      vertex 12.1166 -14.1972 3
    endloop
  endfacet
  facet normal 0.634392 0.773011 0
    outer loop
      vertex 11.8893 -14.0107 3
      vertex 12.1166 -14.1972 0
      vertex 11.8893 -14.0107 0
    endloop
  endfacet
  facet normal 0.290285 0.95694 -0
    outer loop
      vertex 12.6574 -14.4212 0
      vertex 12.376 -14.3358 3
      vertex 12.6574 -14.4212 3
    endloop
  endfacet
  facet normal 0.290285 0.95694 0
    outer loop
      vertex 12.376 -14.3358 3
      vertex 12.6574 -14.4212 0
      vertex 12.376 -14.3358 0
    endloop
  endfacet
  facet normal 0.0980165 0.995185 -0
    outer loop
      vertex 12.95 -14.45 0
      vertex 12.6574 -14.4212 3
      vertex 12.95 -14.45 3
    endloop
  endfacet
  facet normal 0.0980165 0.995185 0
    outer loop
      vertex 12.6574 -14.4212 3
      vertex 12.95 -14.45 0
      vertex 12.6574 -14.4212 0
    endloop
  endfacet
  facet normal -0.707107 -0.707107 0
    outer loop
      vertex 17.5 14.3198 3
      vertex 14.3198 17.5 5
      vertex 14.3198 17.5 3
    endloop
  endfacet
  facet normal -0.707107 -0.707107 0
    outer loop
      vertex 14.3198 17.5 5
      vertex 17.5 14.3198 3
      vertex 17.5 14.3198 5
    endloop
  endfacet
  facet normal 0 0 1
    outer loop
      vertex 17.5 17.5 5
      vertex 14.3198 17.5 5
      vertex 17.5 14.3198 5
    endloop
  endfacet
  facet normal 0 0 1
    outer loop
      vertex 11.7028 12.1166 3
      vertex -11.7028 12.1166 3
      vertex 11.8893 11.8893 3
    endloop
  endfacet
  facet normal 0 0 1
    outer loop
      vertex 11.8893 -11.8893 3
      vertex -11.4788 -12.6574 3
      vertex -11.45 -12.95 3
    endloop
  endfacet
  facet normal 0 0 1
    outer loop
      vertex -11.8893 11.8893 3
      vertex 11.8893 11.8893 3
      vertex -11.7028 12.1166 3
    endloop
  endfacet
  facet normal 0 0 1
    outer loop
      vertex 11.8893 -11.8893 3
      vertex -11.5642 -12.376 3
      vertex -11.4788 -12.6574 3
    endloop
  endfacet
  facet normal 0 0 1
    outer loop
      vertex 11.8893 11.8893 3
      vertex -11.8893 11.8893 3
      vertex 11.8893 -11.8893 3
    endloop
  endfacet
  facet normal 0 0 1
    outer loop
      vertex 11.8893 -11.8893 3
      vertex -11.7028 -12.1166 3
      vertex -11.5642 -12.376 3
    endloop
  endfacet
  facet normal 0 0 1
    outer loop
      vertex -11.8893 -11.8893 3
      vertex 11.8893 -11.8893 3
      vertex -11.8893 11.8893 3
    endloop
  endfacet
  facet normal 0 0 1
    outer loop
      vertex 11.8893 -11.8893 3
      vertex -11.8893 -11.8893 3
      vertex -11.7028 -12.1166 3
    endloop
  endfacet
  facet normal -0 0 1
    outer loop
      vertex -12.1166 11.7028 3
      vertex -11.8893 -11.8893 3
      vertex -11.8893 11.8893 3
    endloop
  endfacet
  facet normal 0 0 1
    outer loop
      vertex -12.1166 11.7028 3
      vertex -12.1166 -11.7028 3
      vertex -11.8893 -11.8893 3
    endloop
  endfacet
  facet normal -0 0 1
    outer loop
      vertex -12.376 11.5642 3
      vertex -12.1166 -11.7028 3
      vertex -12.1166 11.7028 3
    endloop
  endfacet
  facet normal 0 0 1
    outer loop
      vertex -12.376 11.5642 3
      vertex -12.376 -11.5642 3
      vertex -12.1166 -11.7028 3
    endloop
  endfacet
  facet normal -0 0 1
    outer loop
      vertex -12.6574 11.4788 3
      vertex -12.376 -11.5642 3
      vertex -12.376 11.5642 3
    endloop
  endfacet
  facet normal 0 0 1
    outer loop
      vertex -12.6574 11.4788 3
      vertex -12.6574 -11.4788 3
      vertex -12.376 -11.5642 3
    endloop
  endfacet
  facet normal -0 0 1
    outer loop
      vertex -12.95 11.45 3
      vertex -12.6574 -11.4788 3
      vertex -12.6574 11.4788 3
    endloop
  endfacet
  facet normal 0 0 1
    outer loop
      vertex -12.95 11.45 3
      vertex -12.95 -11.45 3
      vertex -12.6574 -11.4788 3
    endloop
  endfacet
  facet normal 0 0 1
    outer loop
      vertex -13.2426 11.4788 3
      vertex -12.95 -11.45 3
      vertex -12.95 11.45 3
    endloop
  endfacet
  facet normal 0 0 1
    outer loop
      vertex -13.2426 11.4788 3
      vertex -13.2426 -11.4788 3
      vertex -12.95 -11.45 3
    endloop
  endfacet
  facet normal 0 0 1
    outer loop
      vertex -13.524 11.5642 3
      vertex -13.2426 -11.4788 3
      vertex -13.2426 11.4788 3
    endloop
  endfacet
  facet normal 0 0 1
    outer loop
      vertex -13.524 11.5642 3
      vertex -13.524 -11.5642 3
      vertex -13.2426 -11.4788 3
    endloop
  endfacet
  facet normal 0 0 1
    outer loop
      vertex -13.7834 11.7028 3
      vertex -13.524 -11.5642 3
      vertex -13.524 11.5642 3
    endloop
  endfacet
  facet normal 0 0 1
    outer loop
      vertex -13.7834 11.7028 3
      vertex -13.7834 -11.7028 3
      vertex -13.524 -11.5642 3
    endloop
  endfacet
  facet normal 0 0 1
    outer loop
      vertex -14.0107 11.8893 3
      vertex -13.7834 -11.7028 3
      vertex -13.7834 11.7028 3
    endloop
  endfacet
  facet normal 0 0 1
    outer loop
      vertex -14.0107 11.8893 3
      vertex -14.0107 -11.8893 3
      vertex -13.7834 -11.7028 3
    endloop
  endfacet
  facet normal 0 0 1
    outer loop
      vertex -17.5 14.3198 3
      vertex -14.0107 11.8893 3
      vertex -14.1972 12.1166 3
    endloop
  endfacet
  facet normal 0 0 1
    outer loop
      vertex -14.0107 11.8893 3
      vertex -17.5 14.3198 3
      vertex -14.0107 -11.8893 3
    endloop
  endfacet
  facet normal 0 0 1
    outer loop
      vertex -17.5 14.3198 3
      vertex -14.1972 12.1166 3
      vertex -14.3358 12.376 3
    endloop
  endfacet
  facet normal 0 0 1
    outer loop
      vertex -17.5 -14.3198 3
      vertex -14.0107 -11.8893 3
      vertex -17.5 14.3198 3
    endloop
  endfacet
  facet normal 0 0 1
    outer loop
      vertex -17.5 14.3198 3
      vertex -14.3358 12.376 3
      vertex -14.4212 12.6574 3
    endloop
  endfacet
  facet normal 0 0 1
    outer loop
      vertex -14.0107 -11.8893 3
      vertex -17.5 -14.3198 3
      vertex -14.1972 -12.1166 3
    endloop
  endfacet
  facet normal 0 0 1
    outer loop
      vertex -17.5 14.3198 3
      vertex -14.4212 12.6574 3
      vertex -14.45 12.95 3
    endloop
  endfacet
  facet normal 0 0 1
    outer loop
      vertex -14.1972 -12.1166 3
      vertex -17.5 -14.3198 3
      vertex -14.3358 -12.376 3
    endloop
  endfacet
  facet normal 0 0 1
    outer loop
      vertex 14.1972 12.1166 3
      vertex 17.5 14.3198 3
      vertex 14.3358 12.376 3
    endloop
  endfacet
  facet normal 0 0 1
    outer loop
      vertex 17.5 -14.3198 3
      vertex 14.4212 -12.6574 3
      vertex 14.45 -12.95 3
    endloop
  endfacet
  facet normal 0 0 1
    outer loop
      vertex 14.0107 11.8893 3
      vertex 17.5 14.3198 3
      vertex 14.1972 12.1166 3
    endloop
  endfacet
  facet normal 0 0 1
    outer loop
      vertex 17.5 -14.3198 3
      vertex 14.3358 -12.376 3
      vertex 14.4212 -12.6574 3
    endloop
  endfacet
  facet normal 0 0 1
    outer loop
      vertex 17.5 14.3198 3
      vertex 14.0107 11.8893 3
      vertex 17.5 -14.3198 3
    endloop
  endfacet
  facet normal 0 0 1
    outer loop
      vertex 17.5 -14.3198 3
      vertex 14.1972 -12.1166 3
      vertex 14.3358 -12.376 3
    endloop
  endfacet
  facet normal -0 0 1
    outer loop
      vertex 14.0107 -11.8893 3
      vertex 17.5 -14.3198 3
      vertex 14.0107 11.8893 3
    endloop
  endfacet
  facet normal 0 0 1
    outer loop
      vertex 17.5 -14.3198 3
      vertex 14.0107 -11.8893 3
      vertex 14.1972 -12.1166 3
    endloop
  endfacet
  facet normal -0 0 1
    outer loop
      vertex 13.7834 11.7028 3
      vertex 14.0107 -11.8893 3
      vertex 14.0107 11.8893 3
    endloop
  endfacet
  facet normal 0 0 1
    outer loop
      vertex 13.7834 11.7028 3
      vertex 13.7834 -11.7028 3
      vertex 14.0107 -11.8893 3
    endloop
  endfacet
  facet normal -0 0 1
    outer loop
      vertex 13.524 11.5642 3
      vertex 13.7834 -11.7028 3
      vertex 13.7834 11.7028 3
    endloop
  endfacet
  facet normal 0 0 1
    outer loop
      vertex 13.524 11.5642 3
      vertex 13.524 -11.5642 3
      vertex 13.7834 -11.7028 3
    endloop
  endfacet
  facet normal -0 0 1
    outer loop
      vertex 13.2426 11.4788 3
      vertex 13.524 -11.5642 3
      vertex 13.524 11.5642 3
    endloop
  endfacet
  facet normal 0 0 1
    outer loop
      vertex 13.2426 11.4788 3
      vertex 13.2426 -11.4788 3
      vertex 13.524 -11.5642 3
    endloop
  endfacet
  facet normal -0 0 1
    outer loop
      vertex 12.95 11.45 3
      vertex 13.2426 -11.4788 3
      vertex 13.2426 11.4788 3
    endloop
  endfacet
  facet normal 0 0 1
    outer loop
      vertex 12.95 11.45 3
      vertex 12.95 -11.45 3
      vertex 13.2426 -11.4788 3
    endloop
  endfacet
  facet normal 0 0 1
    outer loop
      vertex 12.6574 11.4788 3
      vertex 12.95 -11.45 3
      vertex 12.95 11.45 3
    endloop
  endfacet
  facet normal 0 0 1
    outer loop
      vertex 12.6574 11.4788 3
      vertex 12.6574 -11.4788 3
      vertex 12.95 -11.45 3
    endloop
  endfacet
  facet normal 0 0 1
    outer loop
      vertex 12.376 11.5642 3
      vertex 12.6574 -11.4788 3
      vertex 12.6574 11.4788 3
    endloop
  endfacet
  facet normal 0 0 1
    outer loop
      vertex 12.376 11.5642 3
      vertex 12.376 -11.5642 3
      vertex 12.6574 -11.4788 3
    endloop
  endfacet
  facet normal 0 0 1
    outer loop
      vertex 12.1166 11.7028 3
      vertex 12.376 -11.5642 3
      vertex 12.376 11.5642 3
    endloop
  endfacet
  facet normal 0 0 1
    outer loop
      vertex 12.1166 11.7028 3
      vertex 12.1166 -11.7028 3
      vertex 12.376 -11.5642 3
    endloop
  endfacet
  facet normal 0 0 1
    outer loop
      vertex 11.8893 11.8893 3
      vertex 12.1166 -11.7028 3
      vertex 12.1166 11.7028 3
    endloop
  endfacet
  facet normal 0 0 1
    outer loop
      vertex 11.8893 11.8893 3
      vertex 11.8893 -11.8893 3
      vertex 12.1166 -11.7028 3
    endloop
  endfacet
  facet normal 0 0 1
    outer loop
      vertex -11.5642 12.376 3
      vertex 11.5642 12.376 3
      vertex -11.4788 12.6574 3
    endloop
  endfacet
  facet normal 0 0 1
    outer loop
      vertex 11.5642 12.376 3
      vertex -11.5642 12.376 3
      vertex 11.7028 12.1166 3
    endloop
  endfacet
  facet normal 0 0 1
    outer loop
      vertex 11.4788 12.6574 3
      vertex -11.4788 12.6574 3
      vertex 11.5642 12.376 3
    endloop
  endfacet
  facet normal 0 0 1
    outer loop
      vertex -11.7028 12.1166 3
      vertex 11.7028 12.1166 3
      vertex -11.5642 12.376 3
    endloop
  endfacet
  facet normal 0 0 1
    outer loop
      vertex -11.4788 12.6574 3
      vertex 11.4788 12.6574 3
      vertex -11.45 12.95 3
    endloop
  endfacet
  facet normal 0 0 1
    outer loop
      vertex 11.8893 -11.8893 3
      vertex -11.45 -12.95 3
      vertex 11.7028 -12.1166 3
    endloop
  endfacet
  facet normal -0 0 1
    outer loop
      vertex -11.45 12.95 3
      vertex 11.4788 12.6574 3
      vertex 11.45 12.95 3
    endloop
  endfacet
  facet normal 0 0 1
    outer loop
      vertex 11.7028 -12.1166 3
      vertex -11.45 -12.95 3
      vertex 11.5642 -12.376 3
    endloop
  endfacet
  facet normal 0 0 1
    outer loop
      vertex 14.4212 12.6574 3
      vertex 17.5 14.3198 3
      vertex 14.45 12.95 3
    endloop
  endfacet
  facet normal 0 0 1
    outer loop
      vertex 17.5 14.3198 3
      vertex 14.4212 13.2426 3
      vertex 14.45 12.95 3
    endloop
  endfacet
  facet normal 0 0 1
    outer loop
      vertex 17.5 14.3198 3
      vertex 14.3358 13.524 3
      vertex 14.4212 13.2426 3
    endloop
  endfacet
  facet normal 0 0 1
    outer loop
      vertex 14.0107 14.0107 3
      vertex 17.5 14.3198 3
      vertex 14.3198 17.5 3
    endloop
  endfacet
  facet normal 0 0 1
    outer loop
      vertex 17.5 14.3198 3
      vertex 14.1972 13.7834 3
      vertex 14.3358 13.524 3
    endloop
  endfacet
  facet normal 0 0 1
    outer loop
      vertex 17.5 14.3198 3
      vertex 14.0107 14.0107 3
      vertex 14.1972 13.7834 3
    endloop
  endfacet
  facet normal 0 0 1
    outer loop
      vertex 14.3198 17.5 3
      vertex 13.7834 14.1972 3
      vertex 14.0107 14.0107 3
    endloop
  endfacet
  facet normal 0 0 1
    outer loop
      vertex 14.3198 17.5 3
      vertex 13.524 14.3358 3
      vertex 13.7834 14.1972 3
    endloop
  endfacet
  facet normal 0 0 1
    outer loop
      vertex 14.3198 17.5 3
      vertex 13.2426 14.4212 3
      vertex 13.524 14.3358 3
    endloop
  endfacet
  facet normal 0 0 1
    outer loop
      vertex 14.3198 17.5 3
      vertex 12.95 14.45 3
      vertex 13.2426 14.4212 3
    endloop
  endfacet
  facet normal 0 0 1
    outer loop
      vertex 14.3198 17.5 3
      vertex 12.6574 14.4212 3
      vertex 12.95 14.45 3
    endloop
  endfacet
  facet normal 0 0 1
    outer loop
      vertex 14.3198 17.5 3
      vertex 12.376 14.3358 3
      vertex 12.6574 14.4212 3
    endloop
  endfacet
  facet normal 0 0 1
    outer loop
      vertex 14.3198 17.5 3
      vertex 12.1166 14.1972 3
      vertex 12.376 14.3358 3
    endloop
  endfacet
  facet normal 0 0 1
    outer loop
      vertex 14.3198 17.5 3
      vertex 11.8893 14.0107 3
      vertex 12.1166 14.1972 3
    endloop
  endfacet
  facet normal 0 0 1
    outer loop
      vertex -11.8893 14.0107 3
      vertex 11.8893 14.0107 3
      vertex 14.3198 17.5 3
    endloop
  endfacet
  facet normal 0 0 1
    outer loop
      vertex 11.5642 -12.376 3
      vertex -11.45 -12.95 3
      vertex 11.4788 -12.6574 3
    endloop
  endfacet
  facet normal 0 0 1
    outer loop
      vertex 11.4788 13.2426 3
      vertex -11.45 12.95 3
      vertex 11.45 12.95 3
    endloop
  endfacet
  facet normal 0 0 1
    outer loop
      vertex -11.4788 13.2426 3
      vertex 11.4788 13.2426 3
      vertex 11.5642 13.524 3
    endloop
  endfacet
  facet normal 0 0 1
    outer loop
      vertex -11.5642 13.524 3
      vertex 11.5642 13.524 3
      vertex 11.7028 13.7834 3
    endloop
  endfacet
  facet normal 0 0 1
    outer loop
      vertex 11.8893 14.0107 3
      vertex -11.8893 14.0107 3
      vertex 11.7028 13.7834 3
    endloop
  endfacet
  facet normal 0 0 1
    outer loop
      vertex 11.4788 13.2426 3
      vertex -11.4788 13.2426 3
      vertex -11.45 12.95 3
    endloop
  endfacet
  facet normal 0 0 1
    outer loop
      vertex 11.5642 13.524 3
      vertex -11.5642 13.524 3
      vertex -11.4788 13.2426 3
    endloop
  endfacet
  facet normal 0 0 1
    outer loop
      vertex 11.7028 13.7834 3
      vertex -11.7028 13.7834 3
      vertex -11.5642 13.524 3
    endloop
  endfacet
  facet normal 0 0 1
    outer loop
      vertex 11.7028 13.7834 3
      vertex -11.8893 14.0107 3
      vertex -11.7028 13.7834 3
    endloop
  endfacet
  facet normal -0 0 1
    outer loop
      vertex -14.3198 17.5 3
      vertex -11.8893 14.0107 3
      vertex 14.3198 17.5 3
    endloop
  endfacet
  facet normal 0 0 1
    outer loop
      vertex -11.8893 14.0107 3
      vertex -14.3198 17.5 3
      vertex -12.1166 14.1972 3
    endloop
  endfacet
  facet normal 0 0 1
    outer loop
      vertex -12.1166 14.1972 3
      vertex -14.3198 17.5 3
      vertex -12.376 14.3358 3
    endloop
  endfacet
  facet normal 0 0 1
    outer loop
      vertex -12.376 14.3358 3
      vertex -14.3198 17.5 3
      vertex -12.6574 14.4212 3
    endloop
  endfacet
  facet normal 0 0 1
    outer loop
      vertex -12.6574 14.4212 3
      vertex -14.3198 17.5 3
      vertex -12.95 14.45 3
    endloop
  endfacet
  facet normal 0 0 1
    outer loop
      vertex -12.95 14.45 3
      vertex -14.3198 17.5 3
      vertex -13.2426 14.4212 3
    endloop
  endfacet
  facet normal 0 0 1
    outer loop
      vertex -14.3198 17.5 3
      vertex -13.524 14.3358 3
      vertex -13.2426 14.4212 3
    endloop
  endfacet
  facet normal 0 0 1
    outer loop
      vertex -14.3198 17.5 3
      vertex -13.7834 14.1972 3
      vertex -13.524 14.3358 3
    endloop
  endfacet
  facet normal 0 0 1
    outer loop
      vertex -14.3198 17.5 3
      vertex -14.0107 14.0107 3
      vertex -13.7834 14.1972 3
    endloop
  endfacet
  facet normal -0 0 1
    outer loop
      vertex -17.5 14.3198 3
      vertex -14.0107 14.0107 3
      vertex -14.3198 17.5 3
    endloop
  endfacet
  facet normal 0 0 1
    outer loop
      vertex -14.0107 14.0107 3
      vertex -17.5 14.3198 3
      vertex -14.1972 13.7834 3
    endloop
  endfacet
  facet normal 0 0 1
    outer loop
      vertex -14.1972 13.7834 3
      vertex -17.5 14.3198 3
      vertex -14.3358 13.524 3
    endloop
  endfacet
  facet normal 0 0 1
    outer loop
      vertex -14.3358 13.524 3
      vertex -17.5 14.3198 3
      vertex -14.4212 13.2426 3
    endloop
  endfacet
  facet normal 0 0 1
    outer loop
      vertex -14.3358 -12.376 3
      vertex -17.5 -14.3198 3
      vertex -14.4212 -12.6574 3
    endloop
  endfacet
  facet normal 0 0 1
    outer loop
      vertex -14.4212 13.2426 3
      vertex -17.5 14.3198 3
      vertex -14.45 12.95 3
    endloop
  endfacet
  facet normal 0 0 1
    outer loop
      vertex 14.3358 12.376 3
      vertex 17.5 14.3198 3
      vertex 14.4212 12.6574 3
    endloop
  endfacet
  facet normal -0 0 1
    outer loop
      vertex 14.4212 -13.2426 3
      vertex 17.5 -14.3198 3
      vertex 14.45 -12.95 3
    endloop
  endfacet
  facet normal -0 0 1
    outer loop
      vertex 14.3358 -13.524 3
      vertex 17.5 -14.3198 3
      vertex 14.4212 -13.2426 3
    endloop
  endfacet
  facet normal -0 0 1
    outer loop
      vertex 14.1972 -13.7834 3
      vertex 17.5 -14.3198 3
      vertex 14.3358 -13.524 3
    endloop
  endfacet
  facet normal -0 0 1
    outer loop
      vertex 14.0107 -14.0107 3
      vertex 17.5 -14.3198 3
      vertex 14.1972 -13.7834 3
    endloop
  endfacet
  facet normal 0 0 1
    outer loop
      vertex 17.5 -14.3198 3
      vertex 14.0107 -14.0107 3
      vertex 14.3198 -17.5 3
    endloop
  endfacet
  facet normal -0 0 1
    outer loop
      vertex 13.7834 -14.1972 3
      vertex 14.3198 -17.5 3
      vertex 14.0107 -14.0107 3
    endloop
  endfacet
  facet normal -0 0 1
    outer loop
      vertex 13.524 -14.3358 3
      vertex 14.3198 -17.5 3
      vertex 13.7834 -14.1972 3
    endloop
  endfacet
  facet normal -0 0 1
    outer loop
      vertex 13.2426 -14.4212 3
      vertex 14.3198 -17.5 3
      vertex 13.524 -14.3358 3
    endloop
  endfacet
  facet normal -0 0 1
    outer loop
      vertex 12.95 -14.45 3
      vertex 14.3198 -17.5 3
      vertex 13.2426 -14.4212 3
    endloop
  endfacet
  facet normal 0 0 1
    outer loop
      vertex 12.6574 -14.4212 3
      vertex 14.3198 -17.5 3
      vertex 12.95 -14.45 3
    endloop
  endfacet
  facet normal 0 0 1
    outer loop
      vertex 12.376 -14.3358 3
      vertex 14.3198 -17.5 3
      vertex 12.6574 -14.4212 3
    endloop
  endfacet
  facet normal 0 0 1
    outer loop
      vertex 12.1166 -14.1972 3
      vertex 14.3198 -17.5 3
      vertex 12.376 -14.3358 3
    endloop
  endfacet
  facet normal 0 0 1
    outer loop
      vertex 11.8893 -14.0107 3
      vertex 14.3198 -17.5 3
      vertex 12.1166 -14.1972 3
    endloop
  endfacet
  facet normal 0 0 1
    outer loop
      vertex -11.8893 -14.0107 3
      vertex 11.8893 -14.0107 3
      vertex 11.7028 -13.7834 3
    endloop
  endfacet
  facet normal 0 0 1
    outer loop
      vertex 11.4788 -12.6574 3
      vertex -11.45 -12.95 3
      vertex 11.45 -12.95 3
    endloop
  endfacet
  facet normal 0 0 1
    outer loop
      vertex 11.45 -12.95 3
      vertex -11.45 -12.95 3
      vertex 11.4788 -13.2426 3
    endloop
  endfacet
  facet normal 0 0 1
    outer loop
      vertex -11.4788 -13.2426 3
      vertex 11.4788 -13.2426 3
      vertex -11.45 -12.95 3
    endloop
  endfacet
  facet normal 0 0 1
    outer loop
      vertex 11.4788 -13.2426 3
      vertex -11.4788 -13.2426 3
      vertex 11.5642 -13.524 3
    endloop
  endfacet
  facet normal 0 0 1
    outer loop
      vertex -11.5642 -13.524 3
      vertex 11.5642 -13.524 3
      vertex -11.4788 -13.2426 3
    endloop
  endfacet
  facet normal 0 0 1
    outer loop
      vertex 11.5642 -13.524 3
      vertex -11.5642 -13.524 3
      vertex 11.7028 -13.7834 3
    endloop
  endfacet
  facet normal 0 0 1
    outer loop
      vertex -11.7028 -13.7834 3
      vertex 11.7028 -13.7834 3
      vertex -11.5642 -13.524 3
    endloop
  endfacet
  facet normal 0 0 1
    outer loop
      vertex -11.8893 -14.0107 3
      vertex 11.7028 -13.7834 3
      vertex -11.7028 -13.7834 3
    endloop
  endfacet
  facet normal 0 0 1
    outer loop
      vertex 11.8893 -14.0107 3
      vertex -11.8893 -14.0107 3
      vertex 14.3198 -17.5 3
    endloop
  endfacet
  facet normal 0 0 1
    outer loop
      vertex -14.3198 -17.5 3
      vertex -11.8893 -14.0107 3
      vertex -12.1166 -14.1972 3
    endloop
  endfacet
  facet normal 0 0 1
    outer loop
      vertex -14.3198 -17.5 3
      vertex -12.1166 -14.1972 3
      vertex -12.376 -14.3358 3
    endloop
  endfacet
  facet normal 0 0 1
    outer loop
      vertex -14.3198 -17.5 3
      vertex -12.376 -14.3358 3
      vertex -12.6574 -14.4212 3
    endloop
  endfacet
  facet normal 0 0 1
    outer loop
      vertex -14.3198 -17.5 3
      vertex -12.6574 -14.4212 3
      vertex -12.95 -14.45 3
    endloop
  endfacet
  facet normal 0 0 1
    outer loop
      vertex -14.3198 -17.5 3
      vertex -12.95 -14.45 3
      vertex -13.2426 -14.4212 3
    endloop
  endfacet
  facet normal 0 0 1
    outer loop
      vertex -11.8893 -14.0107 3
      vertex -14.3198 -17.5 3
      vertex 14.3198 -17.5 3
    endloop
  endfacet
  facet normal 0 0 1
    outer loop
      vertex -13.524 -14.3358 3
      vertex -14.3198 -17.5 3
      vertex -13.2426 -14.4212 3
    endloop
  endfacet
  facet normal 0 0 1
    outer loop
      vertex -13.7834 -14.1972 3
      vertex -14.3198 -17.5 3
      vertex -13.524 -14.3358 3
    endloop
  endfacet
  facet normal 0 0 1
    outer loop
      vertex -14.0107 -14.0107 3
      vertex -14.3198 -17.5 3
      vertex -13.7834 -14.1972 3
    endloop
  endfacet
  facet normal 0 0 1
    outer loop
      vertex -17.5 -14.3198 3
      vertex -14.0107 -14.0107 3
      vertex -14.1972 -13.7834 3
    endloop
  endfacet
  facet normal 0 0 1
    outer loop
      vertex -17.5 -14.3198 3
      vertex -14.1972 -13.7834 3
      vertex -14.3358 -13.524 3
    endloop
  endfacet
  facet normal 0 0 1
    outer loop
      vertex -17.5 -14.3198 3
      vertex -14.3358 -13.524 3
      vertex -14.4212 -13.2426 3
    endloop
  endfacet
  facet normal 0 0 1
    outer loop
      vertex -17.5 -14.3198 3
      vertex -14.4212 -13.2426 3
      vertex -14.45 -12.95 3
    endloop
  endfacet
  facet normal 0 0 1
    outer loop
      vertex -14.4212 -12.6574 3
      vertex -17.5 -14.3198 3
      vertex -14.45 -12.95 3
    endloop
  endfacet
  facet normal 0 0 1
    outer loop
      vertex -14.0107 -14.0107 3
      vertex -17.5 -14.3198 3
      vertex -14.3198 -17.5 3
    endloop
  endfacet
  facet normal 0.707107 -0.707107 0
    outer loop
      vertex -17.5 14.3198 5
      vertex -14.3198 17.5 3
      vertex -14.3198 17.5 5
    endloop
  endfacet
  facet normal 0.707107 -0.707107 0
    outer loop
      vertex -14.3198 17.5 3
      vertex -17.5 14.3198 5
      vertex -17.5 14.3198 3
    endloop
  endfacet
  facet normal -0 0 1
    outer loop
      vertex -17.5 17.5 5
      vertex -17.5 14.3198 5
      vertex -14.3198 17.5 5
    endloop
  endfacet
  facet normal 0.707107 0.707107 0
    outer loop
      vertex -14.3198 -17.5 5
      vertex -17.5 -14.3198 3
      vertex -17.5 -14.3198 5
    endloop
  endfacet
  facet normal 0.707107 0.707107 0
    outer loop
      vertex -17.5 -14.3198 3
      vertex -14.3198 -17.5 5
      vertex -14.3198 -17.5 3
    endloop
  endfacet
  facet normal 0 0 1
    outer loop
      vertex -17.5 -14.3198 5
      vertex -17.5 -17.5 5
      vertex -14.3198 -17.5 5
    endloop
  endfacet
  facet normal -0.707107 0.707107 0
    outer loop
      vertex 14.3198 -17.5 3
      vertex 17.5 -14.3198 5
      vertex 17.5 -14.3198 3
    endloop
  endfacet
  facet normal -0.707107 0.707107 0
    outer loop
      vertex 17.5 -14.3198 5
      vertex 14.3198 -17.5 3
      vertex 14.3198 -17.5 5
    endloop
  endfacet
  facet normal 0 0 1
    outer loop
      vertex 17.5 -14.3198 5
      vertex 14.3198 -17.5 5
      vertex 17.5 -17.5 5
    endloop
  endfacet
  facet normal -1 0 0
    outer loop
      vertex -20.5 -20.5 0
      vertex -20.5 20.5 23
      vertex -20.5 20.5 0
    endloop
  endfacet
  facet normal -1 -0 0
    outer loop
      vertex -20.5 20.5 23
      vertex -20.5 -20.5 0
      vertex -20.5 -20.5 23
    endloop
  endfacet
  facet normal 0 0 1
    outer loop
      vertex 20.5 20.5 23
      vertex 17.5 17.5 23
      vertex 20.5 4.375 23
    endloop
  endfacet
  facet normal 0 0 1
    outer loop
      vertex 20.5 20.5 23
      vertex -17.5 17.5 23
      vertex 17.5 17.5 23
    endloop
  endfacet
  facet normal 0 0 1
    outer loop
      vertex -17.5 17.5 23
      vertex -20.5 20.5 23
      vertex -17.5 -17.5 23
    endloop
  endfacet
  facet normal -0 0 1
    outer loop
      vertex -20.5 20.5 23
      vertex -17.5 17.5 23
      vertex 20.5 20.5 23
    endloop
  endfacet
  facet normal 0 0 1
    outer loop
      vertex 20.5 4.375 23
      vertex 17.5 17.5 23
      vertex 17.5 4.375 23
    endloop
  endfacet
  facet normal 0 0 1
    outer loop
      vertex 17.5 -17.5 23
      vertex 20.5 -4.375 23
      vertex 17.5 -4.375 23
    endloop
  endfacet
  facet normal 0 0 1
    outer loop
      vertex 20.5 -4.375 23
      vertex 17.5 -17.5 23
      vertex 20.5 -20.5 23
    endloop
  endfacet
  facet normal -0 0 1
    outer loop
      vertex -17.5 -17.5 23
      vertex 20.5 -20.5 23
      vertex 17.5 -17.5 23
    endloop
  endfacet
  facet normal 0 0 1
    outer loop
      vertex -17.5 -17.5 23
      vertex -20.5 -20.5 23
      vertex 20.5 -20.5 23
    endloop
  endfacet
  facet normal 0 0 1
    outer loop
      vertex -20.5 -20.5 23
      vertex -17.5 -17.5 23
      vertex -20.5 20.5 23
    endloop
  endfacet
  facet normal 1 0 0
    outer loop
      vertex 20.5 -4.375 23
      vertex 20.5 -20.5 23
      vertex 20.5 -4.375 5
    endloop
  endfacet
  facet normal 1 0 0
    outer loop
      vertex 20.5 4.375 5
      vertex 20.5 20.5 23
      vertex 20.5 4.375 23
    endloop
  endfacet
  facet normal 1 0 0
    outer loop
      vertex 20.5 20.5 23
      vertex 20.5 4.375 5
      vertex 20.5 20.5 0
    endloop
  endfacet
  facet normal 1 -0 0
    outer loop
      vertex 20.5 -4.375 5
      vertex 20.5 20.5 0
      vertex 20.5 4.375 5
    endloop
  endfacet
  facet normal 1 0 0
    outer loop
      vertex 20.5 -4.375 5
      vertex 20.5 -20.5 0
      vertex 20.5 20.5 0
    endloop
  endfacet
  facet normal 1 0 0
    outer loop
      vertex 20.5 -20.5 0
      vertex 20.5 -4.375 5
      vertex 20.5 -20.5 23
    endloop
  endfacet
  facet normal 0 1 -0
    outer loop
      vertex 20.5 20.5 0
      vertex -20.5 20.5 23
      vertex 20.5 20.5 23
    endloop
  endfacet
  facet normal 0 1 0
    outer loop
      vertex -20.5 20.5 23
      vertex 20.5 20.5 0
      vertex -20.5 20.5 0
    endloop
  endfacet
  facet normal 0 -1 0
    outer loop
      vertex -20.5 -20.5 0
      vertex 20.5 -20.5 23
      vertex -20.5 -20.5 23
    endloop
  endfacet
  facet normal 0 -1 -0
    outer loop
      vertex 20.5 -20.5 23
      vertex -20.5 -20.5 0
      vertex 20.5 -20.5 0
    endloop
  endfacet
  facet normal 1 0 0
    outer loop
      vertex -17.5 17.5 23
      vertex -17.5 14.3198 5
      vertex -17.5 17.5 5
    endloop
  endfacet
  facet normal 1 0 0
    outer loop
      vertex -17.5 14.3198 5
      vertex -17.5 -14.3198 5
      vertex -17.5 14.3198 3
    endloop
  endfacet
  facet normal 1 0 0
    outer loop
      vertex -17.5 17.5 23
      vertex -17.5 -14.3198 5
      vertex -17.5 14.3198 5
    endloop
  endfacet
  facet normal 1 -0 0
    outer loop
      vertex -17.5 -17.5 23
      vertex -17.5 -14.3198 5
      vertex -17.5 17.5 23
    endloop
  endfacet
  facet normal 1 0 0
    outer loop
      vertex -17.5 -14.3198 5
      vertex -17.5 -17.5 23
      vertex -17.5 -17.5 5
    endloop
  endfacet
  facet normal 1 0 0
    outer loop
      vertex -17.5 14.3198 3
      vertex -17.5 -14.3198 5
      vertex -17.5 -14.3198 3
    endloop
  endfacet
  facet normal -1 0 0
    outer loop
      vertex 17.5 14.3198 3
      vertex 17.5 4.375 5
      vertex 17.5 14.3198 5
    endloop
  endfacet
  facet normal -1 0 0
    outer loop
      vertex 17.5 14.3198 3
      vertex 17.5 -4.375 5
      vertex 17.5 4.375 5
    endloop
  endfacet
  facet normal -1 0 0
    outer loop
      vertex 17.5 -14.3198 3
      vertex 17.5 -4.375 5
      vertex 17.5 14.3198 3
    endloop
  endfacet
  facet normal -1 0 0
    outer loop
      vertex 17.5 -14.3198 5
      vertex 17.5 -4.375 5
      vertex 17.5 -14.3198 3
    endloop
  endfacet
  facet normal -1 0 0
    outer loop
      vertex 17.5 -4.375 5
      vertex 17.5 -14.3198 5
      vertex 17.5 -4.375 23
    endloop
  endfacet
  facet normal -1 0 0
    outer loop
      vertex 17.5 -17.5 23
      vertex 17.5 -14.3198 5
      vertex 17.5 -17.5 5
    endloop
  endfacet
  facet normal -1 0 0
    outer loop
      vertex 17.5 -14.3198 5
      vertex 17.5 -17.5 23
      vertex 17.5 -4.375 23
    endloop
  endfacet
  facet normal -1 0 0
    outer loop
      vertex 17.5 14.3198 5
      vertex 17.5 17.5 23
      vertex 17.5 17.5 5
    endloop
  endfacet
  facet normal -1 0 0
    outer loop
      vertex 17.5 4.375 23
      vertex 17.5 14.3198 5
      vertex 17.5 4.375 5
    endloop
  endfacet
  facet normal -1 0 0
    outer loop
      vertex 17.5 14.3198 5
      vertex 17.5 4.375 23
      vertex 17.5 17.5 23
    endloop
  endfacet
  facet normal 0 1 -0
    outer loop
      vertex 14.3198 -17.5 3
      vertex -14.3198 -17.5 5
      vertex 14.3198 -17.5 5
    endloop
  endfacet
  facet normal 0 1 0
    outer loop
      vertex -14.3198 -17.5 5
      vertex 14.3198 -17.5 3
      vertex -14.3198 -17.5 3
    endloop
  endfacet
  facet normal 0 1 0
    outer loop
      vertex 14.3198 -17.5 5
      vertex 17.5 -17.5 23
      vertex 17.5 -17.5 5
    endloop
  endfacet
  facet normal 0 1 0
    outer loop
      vertex 17.5 -17.5 23
      vertex 14.3198 -17.5 5
      vertex -17.5 -17.5 23
    endloop
  endfacet
  facet normal 0 1 -0
    outer loop
      vertex -14.3198 -17.5 5
      vertex -17.5 -17.5 23
      vertex 14.3198 -17.5 5
    endloop
  endfacet
  facet normal 0 1 0
    outer loop
      vertex -17.5 -17.5 23
      vertex -14.3198 -17.5 5
      vertex -17.5 -17.5 5
    endloop
  endfacet
  facet normal 0 -1 0
    outer loop
      vertex -14.3198 17.5 3
      vertex 14.3198 17.5 5
      vertex -14.3198 17.5 5
    endloop
  endfacet
  facet normal 0 -1 -0
    outer loop
      vertex 14.3198 17.5 5
      vertex -14.3198 17.5 3
      vertex 14.3198 17.5 3
    endloop
  endfacet
  facet normal 0 -1 0
    outer loop
      vertex -14.3198 17.5 5
      vertex -17.5 17.5 23
      vertex -17.5 17.5 5
    endloop
  endfacet
  facet normal 0 -1 0
    outer loop
      vertex -17.5 17.5 23
      vertex -14.3198 17.5 5
      vertex 17.5 17.5 23
    endloop
  endfacet
  facet normal 0 -1 0
    outer loop
      vertex 14.3198 17.5 5
      vertex 17.5 17.5 23
      vertex -14.3198 17.5 5
    endloop
  endfacet
  facet normal 0 -1 -0
    outer loop
      vertex 17.5 17.5 23
      vertex 14.3198 17.5 5
      vertex 17.5 17.5 5
    endloop
  endfacet
  facet normal 0 0 -1
    outer loop
      vertex 11.7028 -12.1166 0
      vertex -11.7028 -12.1166 0
      vertex 11.8893 -11.8893 0
    endloop
  endfacet
  facet normal 0 0 -1
    outer loop
      vertex 11.8893 11.8893 0
      vertex -11.4788 12.6574 0
      vertex -11.45 12.95 0
    endloop
  endfacet
  facet normal 0 0 -1
    outer loop
      vertex -11.8893 -11.8893 0
      vertex 11.8893 -11.8893 0
      vertex -11.7028 -12.1166 0
    endloop
  endfacet
  facet normal 0 0 -1
    outer loop
      vertex 11.8893 11.8893 0
      vertex -11.5642 12.376 0
      vertex -11.4788 12.6574 0
    endloop
  endfacet
  facet normal 0 0 -1
    outer loop
      vertex 11.8893 -11.8893 0
      vertex -11.8893 -11.8893 0
      vertex 11.8893 11.8893 0
    endloop
  endfacet
  facet normal 0 0 -1
    outer loop
      vertex 11.8893 11.8893 0
      vertex -11.7028 12.1166 0
      vertex -11.5642 12.376 0
    endloop
  endfacet
  facet normal 0 0 -1
    outer loop
      vertex -11.8893 11.8893 0
      vertex 11.8893 11.8893 0
      vertex -11.8893 -11.8893 0
    endloop
  endfacet
  facet normal 0 0 -1
    outer loop
      vertex 11.8893 11.8893 0
      vertex -11.8893 11.8893 0
      vertex -11.7028 12.1166 0
    endloop
  endfacet
  facet normal 0 0 -1
    outer loop
      vertex -12.1166 -11.7028 0
      vertex -11.8893 11.8893 0
      vertex -11.8893 -11.8893 0
    endloop
  endfacet
  facet normal 0 0 -1
    outer loop
      vertex -12.1166 -11.7028 0
      vertex -12.1166 11.7028 0
      vertex -11.8893 11.8893 0
    endloop
  endfacet
  facet normal 0 0 -1
    outer loop
      vertex -12.376 -11.5642 0
      vertex -12.1166 11.7028 0
      vertex -12.1166 -11.7028 0
    endloop
  endfacet
  facet normal 0 0 -1
    outer loop
      vertex -12.376 -11.5642 0
      vertex -12.376 11.5642 0
      vertex -12.1166 11.7028 0
    endloop
  endfacet
  facet normal 0 0 -1
    outer loop
      vertex -12.6574 -11.4788 0
      vertex -12.376 11.5642 0
      vertex -12.376 -11.5642 0
    endloop
  endfacet
  facet normal 0 0 -1
    outer loop
      vertex -12.6574 -11.4788 0
      vertex -12.6574 11.4788 0
      vertex -12.376 11.5642 0
    endloop
  endfacet
  facet normal 0 0 -1
    outer loop
      vertex -12.95 -11.45 0
      vertex -12.6574 11.4788 0
      vertex -12.6574 -11.4788 0
    endloop
  endfacet
  facet normal 0 0 -1
    outer loop
      vertex -12.95 -11.45 0
      vertex -12.95 11.45 0
      vertex -12.6574 11.4788 0
    endloop
  endfacet
  facet normal 0 0 -1
    outer loop
      vertex -13.2426 -11.4788 0
      vertex -12.95 11.45 0
      vertex -12.95 -11.45 0
    endloop
  endfacet
  facet normal 0 0 -1
    outer loop
      vertex -13.2426 -11.4788 0
      vertex -13.2426 11.4788 0
      vertex -12.95 11.45 0
    endloop
  endfacet
  facet normal 0 0 -1
    outer loop
      vertex -13.524 -11.5642 0
      vertex -13.2426 11.4788 0
      vertex -13.2426 -11.4788 0
    endloop
  endfacet
  facet normal 0 0 -1
    outer loop
      vertex -13.524 -11.5642 0
      vertex -13.524 11.5642 0
      vertex -13.2426 11.4788 0
    endloop
  endfacet
  facet normal 0 0 -1
    outer loop
      vertex -13.7834 -11.7028 0
      vertex -13.524 11.5642 0
      vertex -13.524 -11.5642 0
    endloop
  endfacet
  facet normal 0 0 -1
    outer loop
      vertex -13.7834 -11.7028 0
      vertex -13.7834 11.7028 0
      vertex -13.524 11.5642 0
    endloop
  endfacet
  facet normal 0 0 -1
    outer loop
      vertex -14.0107 -11.8893 0
      vertex -13.7834 11.7028 0
      vertex -13.7834 -11.7028 0
    endloop
  endfacet
  facet normal 0 0 -1
    outer loop
      vertex -14.0107 -11.8893 0
      vertex -14.0107 11.8893 0
      vertex -13.7834 11.7028 0
    endloop
  endfacet
  facet normal 0 0 -1
    outer loop
      vertex -14.1972 -12.1166 0
      vertex -14.0107 11.8893 0
      vertex -14.0107 -11.8893 0
    endloop
  endfacet
  facet normal 0 0 -1
    outer loop
      vertex -14.1972 -12.1166 0
      vertex -14.1972 12.1166 0
      vertex -14.0107 11.8893 0
    endloop
  endfacet
  facet normal 0 0 -1
    outer loop
      vertex -14.3358 -12.376 0
      vertex -14.1972 12.1166 0
      vertex -14.1972 -12.1166 0
    endloop
  endfacet
  facet normal 0 0 -1
    outer loop
      vertex -14.3358 -12.376 0
      vertex -14.3358 12.376 0
      vertex -14.1972 12.1166 0
    endloop
  endfacet
  facet normal 0 0 -1
    outer loop
      vertex -20.5 -20.5 0
      vertex -14.3358 -12.376 0
      vertex -14.4212 -12.6574 0
    endloop
  endfacet
  facet normal -0 0 -1
    outer loop
      vertex -14.3358 -12.376 0
      vertex -20.5 -20.5 0
      vertex -14.3358 12.376 0
    endloop
  endfacet
  facet normal 0 0 -1
    outer loop
      vertex -20.5 -20.5 0
      vertex -14.4212 -12.6574 0
      vertex -14.45 -12.95 0
    endloop
  endfacet
  facet normal 0 0 -1
    outer loop
      vertex -20.5 20.5 0
      vertex -14.3358 12.376 0
      vertex -20.5 -20.5 0
    endloop
  endfacet
  facet normal 0 0 -1
    outer loop
      vertex 20.5 -20.5 0
      vertex 14.3358 -12.376 0
      vertex 20.5 20.5 0
    endloop
  endfacet
  facet normal 0 0 -1
    outer loop
      vertex 20.5 20.5 0
      vertex 14.4212 12.6574 0
      vertex 14.45 12.95 0
    endloop
  endfacet
  facet normal 0 0 -1
    outer loop
      vertex 14.3358 12.376 0
      vertex 20.5 20.5 0
      vertex 14.3358 -12.376 0
    endloop
  endfacet
  facet normal 0 0 -1
    outer loop
      vertex 20.5 20.5 0
      vertex 14.3358 12.376 0
      vertex 14.4212 12.6574 0
    endloop
  endfacet
  facet normal 0 0 -1
    outer loop
      vertex 14.1972 -12.1166 0
      vertex 14.3358 12.376 0
      vertex 14.3358 -12.376 0
    endloop
  endfacet
  facet normal 0 0 -1
    outer loop
      vertex 14.1972 -12.1166 0
      vertex 14.1972 12.1166 0
      vertex 14.3358 12.376 0
    endloop
  endfacet
  facet normal 0 0 -1
    outer loop
      vertex 14.0107 -11.8893 0
      vertex 14.1972 12.1166 0
      vertex 14.1972 -12.1166 0
    endloop
  endfacet
  facet normal 0 0 -1
    outer loop
      vertex 14.0107 -11.8893 0
      vertex 14.0107 11.8893 0
      vertex 14.1972 12.1166 0
    endloop
  endfacet
  facet normal 0 0 -1
    outer loop
      vertex 13.7834 -11.7028 0
      vertex 14.0107 11.8893 0
      vertex 14.0107 -11.8893 0
    endloop
  endfacet
  facet normal 0 0 -1
    outer loop
      vertex 13.7834 -11.7028 0
      vertex 13.7834 11.7028 0
      vertex 14.0107 11.8893 0
    endloop
  endfacet
  facet normal 0 0 -1
    outer loop
      vertex 13.524 -11.5642 0
      vertex 13.7834 11.7028 0
      vertex 13.7834 -11.7028 0
    endloop
  endfacet
  facet normal 0 0 -1
    outer loop
      vertex 13.524 -11.5642 0
      vertex 13.524 11.5642 0
      vertex 13.7834 11.7028 0
    endloop
  endfacet
  facet normal 0 0 -1
    outer loop
      vertex 13.2426 -11.4788 0
      vertex 13.524 11.5642 0
      vertex 13.524 -11.5642 0
    endloop
  endfacet
  facet normal 0 0 -1
    outer loop
      vertex 13.2426 -11.4788 0
      vertex 13.2426 11.4788 0
      vertex 13.524 11.5642 0
    endloop
  endfacet
  facet normal 0 0 -1
    outer loop
      vertex 12.95 -11.45 0
      vertex 13.2426 11.4788 0
      vertex 13.2426 -11.4788 0
    endloop
  endfacet
  facet normal 0 0 -1
    outer loop
      vertex 12.95 -11.45 0
      vertex 12.95 11.45 0
      vertex 13.2426 11.4788 0
    endloop
  endfacet
  facet normal 0 0 -1
    outer loop
      vertex 12.6574 -11.4788 0
      vertex 12.95 11.45 0
      vertex 12.95 -11.45 0
    endloop
  endfacet
  facet normal 0 0 -1
    outer loop
      vertex 12.6574 -11.4788 0
      vertex 12.6574 11.4788 0
      vertex 12.95 11.45 0
    endloop
  endfacet
  facet normal 0 0 -1
    outer loop
      vertex 12.376 -11.5642 0
      vertex 12.6574 11.4788 0
      vertex 12.6574 -11.4788 0
    endloop
  endfacet
  facet normal 0 0 -1
    outer loop
      vertex 12.376 -11.5642 0
      vertex 12.376 11.5642 0
      vertex 12.6574 11.4788 0
    endloop
  endfacet
  facet normal 0 0 -1
    outer loop
      vertex 12.1166 -11.7028 0
      vertex 12.376 11.5642 0
      vertex 12.376 -11.5642 0
    endloop
  endfacet
  facet normal 0 0 -1
    outer loop
      vertex 12.1166 -11.7028 0
      vertex 12.1166 11.7028 0
      vertex 12.376 11.5642 0
    endloop
  endfacet
  facet normal 0 0 -1
    outer loop
      vertex 11.8893 -11.8893 0
      vertex 12.1166 11.7028 0
      vertex 12.1166 -11.7028 0
    endloop
  endfacet
  facet normal 0 0 -1
    outer loop
      vertex 11.8893 -11.8893 0
      vertex 11.8893 11.8893 0
      vertex 12.1166 11.7028 0
    endloop
  endfacet
  facet normal 0 0 -1
    outer loop
      vertex -11.5642 -12.376 0
      vertex 11.5642 -12.376 0
      vertex -11.4788 -12.6574 0
    endloop
  endfacet
  facet normal 0 0 -1
    outer loop
      vertex 11.5642 -12.376 0
      vertex -11.5642 -12.376 0
      vertex 11.7028 -12.1166 0
    endloop
  endfacet
  facet normal 0 0 -1
    outer loop
      vertex 11.4788 -12.6574 0
      vertex -11.4788 -12.6574 0
      vertex 11.5642 -12.376 0
    endloop
  endfacet
  facet normal 0 0 -1
    outer loop
      vertex -11.7028 -12.1166 0
      vertex 11.7028 -12.1166 0
      vertex -11.5642 -12.376 0
    endloop
  endfacet
  facet normal 0 0 -1
    outer loop
      vertex -11.4788 -12.6574 0
      vertex 11.4788 -12.6574 0
      vertex -11.45 -12.95 0
    endloop
  endfacet
  facet normal 0 0 -1
    outer loop
      vertex 11.8893 11.8893 0
      vertex -11.45 12.95 0
      vertex 11.7028 12.1166 0
    endloop
  endfacet
  facet normal 0 0 -1
    outer loop
      vertex -11.45 -12.95 0
      vertex 11.4788 -12.6574 0
      vertex 11.45 -12.95 0
    endloop
  endfacet
  facet normal 0 0 -1
    outer loop
      vertex 11.7028 12.1166 0
      vertex -11.45 12.95 0
      vertex 11.5642 12.376 0
    endloop
  endfacet
  facet normal 0 0 -1
    outer loop
      vertex 14.4212 -12.6574 0
      vertex 20.5 -20.5 0
      vertex 14.45 -12.95 0
    endloop
  endfacet
  facet normal 0 0 -1
    outer loop
      vertex 20.5 -20.5 0
      vertex 14.4212 -13.2426 0
      vertex 14.45 -12.95 0
    endloop
  endfacet
  facet normal 0 0 -1
    outer loop
      vertex 20.5 -20.5 0
      vertex 14.3358 -13.524 0
      vertex 14.4212 -13.2426 0
    endloop
  endfacet
  facet normal 0 0 -1
    outer loop
      vertex 20.5 -20.5 0
      vertex 14.1972 -13.7834 0
      vertex 14.3358 -13.524 0
    endloop
  endfacet
  facet normal 0 0 -1
    outer loop
      vertex 20.5 -20.5 0
      vertex 14.0107 -14.0107 0
      vertex 14.1972 -13.7834 0
    endloop
  endfacet
  facet normal 0 0 -1
    outer loop
      vertex 20.5 -20.5 0
      vertex 13.7834 -14.1972 0
      vertex 14.0107 -14.0107 0
    endloop
  endfacet
  facet normal 0 0 -1
    outer loop
      vertex 20.5 -20.5 0
      vertex 13.524 -14.3358 0
      vertex 13.7834 -14.1972 0
    endloop
  endfacet
  facet normal 0 0 -1
    outer loop
      vertex 20.5 -20.5 0
      vertex 13.2426 -14.4212 0
      vertex 13.524 -14.3358 0
    endloop
  endfacet
  facet normal 0 0 -1
    outer loop
      vertex 20.5 -20.5 0
      vertex 12.95 -14.45 0
      vertex 13.2426 -14.4212 0
    endloop
  endfacet
  facet normal 0 0 -1
    outer loop
      vertex 20.5 -20.5 0
      vertex 12.6574 -14.4212 0
      vertex 12.95 -14.45 0
    endloop
  endfacet
  facet normal 0 0 -1
    outer loop
      vertex 20.5 -20.5 0
      vertex 12.376 -14.3358 0
      vertex 12.6574 -14.4212 0
    endloop
  endfacet
  facet normal 0 0 -1
    outer loop
      vertex -12.376 -14.3358 0
      vertex 12.376 -14.3358 0
      vertex 20.5 -20.5 0
    endloop
  endfacet
  facet normal 0 0 -1
    outer loop
      vertex 11.5642 12.376 0
      vertex -11.45 12.95 0
      vertex 11.4788 12.6574 0
    endloop
  endfacet
  facet normal 0 0 -1
    outer loop
      vertex 11.4788 -13.2426 0
      vertex -11.45 -12.95 0
      vertex 11.45 -12.95 0
    endloop
  endfacet
  facet normal 0 0 -1
    outer loop
      vertex -11.4788 -13.2426 0
      vertex 11.4788 -13.2426 0
      vertex 11.5642 -13.524 0
    endloop
  endfacet
  facet normal 0 0 -1
    outer loop
      vertex -11.5642 -13.524 0
      vertex 11.5642 -13.524 0
      vertex 11.7028 -13.7834 0
    endloop
  endfacet
  facet normal 0 0 -1
    outer loop
      vertex -11.7028 -13.7834 0
      vertex 11.7028 -13.7834 0
      vertex 11.8893 -14.0107 0
    endloop
  endfacet
  facet normal 0 0 -1
    outer loop
      vertex -11.8893 -14.0107 0
      vertex 11.8893 -14.0107 0
      vertex 12.1166 -14.1972 0
    endloop
  endfacet
  facet normal 0 0 -1
    outer loop
      vertex 12.376 -14.3358 0
      vertex -12.376 -14.3358 0
      vertex 12.1166 -14.1972 0
    endloop
  endfacet
  facet normal 0 0 -1
    outer loop
      vertex 11.4788 -13.2426 0
      vertex -11.4788 -13.2426 0
      vertex -11.45 -12.95 0
    endloop
  endfacet
  facet normal 0 0 -1
    outer loop
      vertex 11.5642 -13.524 0
      vertex -11.5642 -13.524 0
      vertex -11.4788 -13.2426 0
    endloop
  endfacet
  facet normal 0 0 -1
    outer loop
      vertex 11.7028 -13.7834 0
      vertex -11.7028 -13.7834 0
      vertex -11.5642 -13.524 0
    endloop
  endfacet
  facet normal 0 0 -1
    outer loop
      vertex 11.8893 -14.0107 0
      vertex -11.8893 -14.0107 0
      vertex -11.7028 -13.7834 0
    endloop
  endfacet
  facet normal 0 0 -1
    outer loop
      vertex 12.1166 -14.1972 0
      vertex -12.1166 -14.1972 0
      vertex -11.8893 -14.0107 0
    endloop
  endfacet
  facet normal -0 0 -1
    outer loop
      vertex 12.1166 -14.1972 0
      vertex -12.376 -14.3358 0
      vertex -12.1166 -14.1972 0
    endloop
  endfacet
  facet normal 0 0 -1
    outer loop
      vertex -20.5 -20.5 0
      vertex -12.376 -14.3358 0
      vertex 20.5 -20.5 0
    endloop
  endfacet
  facet normal 0 0 -1
    outer loop
      vertex -12.376 -14.3358 0
      vertex -20.5 -20.5 0
      vertex -12.6574 -14.4212 0
    endloop
  endfacet
  facet normal 0 0 -1
    outer loop
      vertex -12.6574 -14.4212 0
      vertex -20.5 -20.5 0
      vertex -12.95 -14.45 0
    endloop
  endfacet
  facet normal 0 0 -1
    outer loop
      vertex -14.3358 12.376 0
      vertex -20.5 20.5 0
      vertex -14.4212 12.6574 0
    endloop
  endfacet
  facet normal -0 0 -1
    outer loop
      vertex -14.4212 -13.2426 0
      vertex -20.5 -20.5 0
      vertex -14.45 -12.95 0
    endloop
  endfacet
  facet normal -0 0 -1
    outer loop
      vertex -14.3358 -13.524 0
      vertex -20.5 -20.5 0
      vertex -14.4212 -13.2426 0
    endloop
  endfacet
  facet normal -0 0 -1
    outer loop
      vertex -14.1972 -13.7834 0
      vertex -20.5 -20.5 0
      vertex -14.3358 -13.524 0
    endloop
  endfacet
  facet normal -0 0 -1
    outer loop
      vertex -14.0107 -14.0107 0
      vertex -20.5 -20.5 0
      vertex -14.1972 -13.7834 0
    endloop
  endfacet
  facet normal -0 0 -1
    outer loop
      vertex -13.7834 -14.1972 0
      vertex -20.5 -20.5 0
      vertex -14.0107 -14.0107 0
    endloop
  endfacet
  facet normal -0 0 -1
    outer loop
      vertex -13.524 -14.3358 0
      vertex -20.5 -20.5 0
      vertex -13.7834 -14.1972 0
    endloop
  endfacet
  facet normal -0 0 -1
    outer loop
      vertex -13.2426 -14.4212 0
      vertex -20.5 -20.5 0
      vertex -13.524 -14.3358 0
    endloop
  endfacet
  facet normal -0 0 -1
    outer loop
      vertex -12.95 -14.45 0
      vertex -20.5 -20.5 0
      vertex -13.2426 -14.4212 0
    endloop
  endfacet
  facet normal 0 0 -1
    outer loop
      vertex 14.3358 -12.376 0
      vertex 20.5 -20.5 0
      vertex 14.4212 -12.6574 0
    endloop
  endfacet
  facet normal 0 0 -1
    outer loop
      vertex 14.4212 13.2426 0
      vertex 20.5 20.5 0
      vertex 14.45 12.95 0
    endloop
  endfacet
  facet normal 0 0 -1
    outer loop
      vertex 14.3358 13.524 0
      vertex 20.5 20.5 0
      vertex 14.4212 13.2426 0
    endloop
  endfacet
  facet normal 0 0 -1
    outer loop
      vertex 14.1972 13.7834 0
      vertex 20.5 20.5 0
      vertex 14.3358 13.524 0
    endloop
  endfacet
  facet normal 0 0 -1
    outer loop
      vertex 14.0107 14.0107 0
      vertex 20.5 20.5 0
      vertex 14.1972 13.7834 0
    endloop
  endfacet
  facet normal 0 0 -1
    outer loop
      vertex 13.7834 14.1972 0
      vertex 20.5 20.5 0
      vertex 14.0107 14.0107 0
    endloop
  endfacet
  facet normal 0 0 -1
    outer loop
      vertex 13.524 14.3358 0
      vertex 20.5 20.5 0
      vertex 13.7834 14.1972 0
    endloop
  endfacet
  facet normal 0 0 -1
    outer loop
      vertex 13.2426 14.4212 0
      vertex 20.5 20.5 0
      vertex 13.524 14.3358 0
    endloop
  endfacet
  facet normal 0 0 -1
    outer loop
      vertex 12.95 14.45 0
      vertex 20.5 20.5 0
      vertex 13.2426 14.4212 0
    endloop
  endfacet
  facet normal 0 0 -1
    outer loop
      vertex 12.6574 14.4212 0
      vertex 20.5 20.5 0
      vertex 12.95 14.45 0
    endloop
  endfacet
  facet normal 0 0 -1
    outer loop
      vertex 12.376 14.3358 0
      vertex 20.5 20.5 0
      vertex 12.6574 14.4212 0
    endloop
  endfacet
  facet normal 0 0 -1
    outer loop
      vertex -12.376 14.3358 0
      vertex 12.376 14.3358 0
      vertex 12.1166 14.1972 0
    endloop
  endfacet
  facet normal 0 0 -1
    outer loop
      vertex 11.4788 12.6574 0
      vertex -11.45 12.95 0
      vertex 11.45 12.95 0
    endloop
  endfacet
  facet normal 0 0 -1
    outer loop
      vertex 11.45 12.95 0
      vertex -11.45 12.95 0
      vertex 11.4788 13.2426 0
    endloop
  endfacet
  facet normal 0 0 -1
    outer loop
      vertex -11.4788 13.2426 0
      vertex 11.4788 13.2426 0
      vertex -11.45 12.95 0
    endloop
  endfacet
  facet normal 0 0 -1
    outer loop
      vertex 11.4788 13.2426 0
      vertex -11.4788 13.2426 0
      vertex 11.5642 13.524 0
    endloop
  endfacet
  facet normal 0 0 -1
    outer loop
      vertex -11.5642 13.524 0
      vertex 11.5642 13.524 0
      vertex -11.4788 13.2426 0
    endloop
  endfacet
  facet normal 0 0 -1
    outer loop
      vertex 11.5642 13.524 0
      vertex -11.5642 13.524 0
      vertex 11.7028 13.7834 0
    endloop
  endfacet
  facet normal 0 0 -1
    outer loop
      vertex -11.7028 13.7834 0
      vertex 11.7028 13.7834 0
      vertex -11.5642 13.524 0
    endloop
  endfacet
  facet normal 0 0 -1
    outer loop
      vertex 11.7028 13.7834 0
      vertex -11.7028 13.7834 0
      vertex 11.8893 14.0107 0
    endloop
  endfacet
  facet normal 0 0 -1
    outer loop
      vertex -11.8893 14.0107 0
      vertex 11.8893 14.0107 0
      vertex -11.7028 13.7834 0
    endloop
  endfacet
  facet normal 0 0 -1
    outer loop
      vertex 11.8893 14.0107 0
      vertex -11.8893 14.0107 0
      vertex 12.1166 14.1972 0
    endloop
  endfacet
  facet normal 0 0 -1
    outer loop
      vertex -12.1166 14.1972 0
      vertex 12.1166 14.1972 0
      vertex -11.8893 14.0107 0
    endloop
  endfacet
  facet normal 0 0 -1
    outer loop
      vertex -12.376 14.3358 0
      vertex 12.1166 14.1972 0
      vertex -12.1166 14.1972 0
    endloop
  endfacet
  facet normal 0 0 -1
    outer loop
      vertex 12.376 14.3358 0
      vertex -12.376 14.3358 0
      vertex 20.5 20.5 0
    endloop
  endfacet
  facet normal 0 0 -1
    outer loop
      vertex -20.5 20.5 0
      vertex -12.376 14.3358 0
      vertex -12.6574 14.4212 0
    endloop
  endfacet
  facet normal 0 0 -1
    outer loop
      vertex -20.5 20.5 0
      vertex -12.6574 14.4212 0
      vertex -12.95 14.45 0
    endloop
  endfacet
  facet normal 0 0 -1
    outer loop
      vertex -20.5 20.5 0
      vertex -12.95 14.45 0
      vertex -13.2426 14.4212 0
    endloop
  endfacet
  facet normal 0 0 -1
    outer loop
      vertex -14.4212 12.6574 0
      vertex -20.5 20.5 0
      vertex -14.45 12.95 0
    endloop
  endfacet
  facet normal 0 0 -1
    outer loop
      vertex -12.376 14.3358 0
      vertex -20.5 20.5 0
      vertex 20.5 20.5 0
    endloop
  endfacet
  facet normal 0 0 -1
    outer loop
      vertex -13.524 14.3358 0
      vertex -20.5 20.5 0
      vertex -13.2426 14.4212 0
    endloop
  endfacet
  facet normal 0 0 -1
    outer loop
      vertex -13.7834 14.1972 0
      vertex -20.5 20.5 0
      vertex -13.524 14.3358 0
    endloop
  endfacet
  facet normal 0 0 -1
    outer loop
      vertex -14.0107 14.0107 0
      vertex -20.5 20.5 0
      vertex -13.7834 14.1972 0
    endloop
  endfacet
  facet normal 0 0 -1
    outer loop
      vertex -14.1972 13.7834 0
      vertex -20.5 20.5 0
      vertex -14.0107 14.0107 0
    endloop
  endfacet
  facet normal 0 0 -1
    outer loop
      vertex -14.3358 13.524 0
      vertex -20.5 20.5 0
      vertex -14.1972 13.7834 0
    endloop
  endfacet
  facet normal 0 0 -1
    outer loop
      vertex -14.4212 13.2426 0
      vertex -20.5 20.5 0
      vertex -14.3358 13.524 0
    endloop
  endfacet
  facet normal 0 0 -1
    outer loop
      vertex -14.45 12.95 0
      vertex -20.5 20.5 0
      vertex -14.4212 13.2426 0
    endloop
  endfacet
  facet normal 0 -1 0
    outer loop
      vertex 17.5 4.375 5
      vertex 20.5 4.375 23
      vertex 17.5 4.375 23
    endloop
  endfacet
  facet normal 0 -1 -0
    outer loop
      vertex 20.5 4.375 23
      vertex 17.5 4.375 5
      vertex 20.5 4.375 5
    endloop
  endfacet
  facet normal -0 0 1
    outer loop
      vertex 17.5 4.375 5
      vertex 20.5 -4.375 5
      vertex 20.5 4.375 5
    endloop
  endfacet
  facet normal 0 0 1
    outer loop
      vertex 20.5 -4.375 5
      vertex 17.5 4.375 5
      vertex 17.5 -4.375 5
    endloop
  endfacet
  facet normal 0 1 -0
    outer loop
      vertex 20.5 -4.375 5
      vertex 17.5 -4.375 23
      vertex 20.5 -4.375 23
    endloop
  endfacet
  facet normal 0 1 0
    outer loop
      vertex 17.5 -4.375 23
      vertex 20.5 -4.375 5
      vertex 17.5 -4.375 5
    endloop
  endfacet
endsolid OpenSCAD_Model
