solid OpenSCAD_Model
  facet normal 1 -0 0
    outer loop
      vertex 17 -14.1127 1
      vertex 17 8.15 0
      vertex 17 8.15 1
    endloop
  endfacet
  facet normal 1 0 0
    outer loop
      vertex 17 8.15 0
      vertex 17 -14.1127 1
      vertex 17 -14.1127 0
    endloop
  endfacet
  facet normal 0 0 -1
    outer loop
      vertex 8.15 -17 0
      vertex -5.25 -13 0
      vertex 5.25 -13 0
    endloop
  endfacet
  facet normal 0 0 -1
    outer loop
      vertex -11.0875 -12.6196 0
      vertex -5.25 -13 0
      vertex -11.05 -13 0
    endloop
  endfacet
  facet normal 0 0 -1
    outer loop
      vertex -14.1127 -17 0
      vertex -5.25 -13 0
      vertex 8.15 -17 0
    endloop
  endfacet
  facet normal -0 0 -1
    outer loop
      vertex -5.25 -13 0
      vertex -11.0875 -13.3804 0
      vertex -11.05 -13 0
    endloop
  endfacet
  facet normal 0 0 -1
    outer loop
      vertex -5.25 -13 0
      vertex -11.1984 -13.7462 0
      vertex -11.0875 -13.3804 0
    endloop
  endfacet
  facet normal 0 0 -1
    outer loop
      vertex -5.25 -13 0
      vertex -11.3786 -14.0834 0
      vertex -11.1984 -13.7462 0
    endloop
  endfacet
  facet normal 0 0 -1
    outer loop
      vertex -5.25 -13 0
      vertex -11.6211 -14.3789 0
      vertex -11.3786 -14.0834 0
    endloop
  endfacet
  facet normal 0 0 -1
    outer loop
      vertex -5.25 -13 0
      vertex -11.9166 -14.6214 0
      vertex -11.6211 -14.3789 0
    endloop
  endfacet
  facet normal 0 0 -1
    outer loop
      vertex -5.25 -13 0
      vertex -14.1127 -17 0
      vertex -11.9166 -14.6214 0
    endloop
  endfacet
  facet normal 0 0 -1
    outer loop
      vertex -11.9166 -14.6214 0
      vertex -14.1127 -17 0
      vertex -12.2538 -14.8016 0
    endloop
  endfacet
  facet normal 0 0 -1
    outer loop
      vertex -12.2538 -14.8016 0
      vertex -14.1127 -17 0
      vertex -12.6196 -14.9125 0
    endloop
  endfacet
  facet normal 0 0 -1
    outer loop
      vertex -12.6196 -14.9125 0
      vertex -14.1127 -17 0
      vertex -13 -14.95 0
    endloop
  endfacet
  facet normal 0 0 -1
    outer loop
      vertex -14.1127 -17 0
      vertex -13.3804 -14.9125 0
      vertex -13 -14.95 0
    endloop
  endfacet
  facet normal 0 0 -1
    outer loop
      vertex -14.1127 -17 0
      vertex -13.7462 -14.8016 0
      vertex -13.3804 -14.9125 0
    endloop
  endfacet
  facet normal 0 0 -1
    outer loop
      vertex -14.1127 -17 0
      vertex -14.0834 -14.6214 0
      vertex -13.7462 -14.8016 0
    endloop
  endfacet
  facet normal 0 0 -1
    outer loop
      vertex -14.1127 -17 0
      vertex -14.3789 -14.3789 0
      vertex -14.0834 -14.6214 0
    endloop
  endfacet
  facet normal 0 0 -1
    outer loop
      vertex -17 -14.1127 0
      vertex -14.3789 -14.3789 0
      vertex -14.1127 -17 0
    endloop
  endfacet
  facet normal 0 0 -1
    outer loop
      vertex -14.3789 -14.3789 0
      vertex -17 -14.1127 0
      vertex -14.6214 -14.0834 0
    endloop
  endfacet
  facet normal -0 0 -1
    outer loop
      vertex -14.6214 -14.0834 0
      vertex -17 -14.1127 0
      vertex -14.8016 -13.7462 0
    endloop
  endfacet
  facet normal 0 0 -1
    outer loop
      vertex -14.6214 11.9166 0
      vertex -17 14.1127 0
      vertex -14.8016 12.2538 0
    endloop
  endfacet
  facet normal -0 0 -1
    outer loop
      vertex -14.9125 -13.3804 0
      vertex -17 -14.1127 0
      vertex -14.95 -13 0
    endloop
  endfacet
  facet normal -0 0 -1
    outer loop
      vertex -14.8016 -13.7462 0
      vertex -17 -14.1127 0
      vertex -14.9125 -13.3804 0
    endloop
  endfacet
  facet normal 0 0 -1
    outer loop
      vertex -11.0875 13.3804 0
      vertex -8.15 17 0
      vertex -11.05 13 0
    endloop
  endfacet
  facet normal 0 0 -1
    outer loop
      vertex -11.1984 13.7462 0
      vertex -8.15 17 0
      vertex -11.0875 13.3804 0
    endloop
  endfacet
  facet normal 0 0 -1
    outer loop
      vertex -11.3786 14.0834 0
      vertex -8.15 17 0
      vertex -11.1984 13.7462 0
    endloop
  endfacet
  facet normal 0 0 -1
    outer loop
      vertex -11.6211 14.3789 0
      vertex -8.15 17 0
      vertex -11.3786 14.0834 0
    endloop
  endfacet
  facet normal 0 0 -1
    outer loop
      vertex -11.9166 14.6214 0
      vertex -8.15 17 0
      vertex -11.6211 14.3789 0
    endloop
  endfacet
  facet normal 0 0 -1
    outer loop
      vertex -12.2538 14.8016 0
      vertex -8.15 17 0
      vertex -11.9166 14.6214 0
    endloop
  endfacet
  facet normal 0 0 -1
    outer loop
      vertex -14.1127 17 0
      vertex -12.2538 14.8016 0
      vertex -12.6196 14.9125 0
    endloop
  endfacet
  facet normal 0 0 -1
    outer loop
      vertex -14.1127 17 0
      vertex -12.6196 14.9125 0
      vertex -13 14.95 0
    endloop
  endfacet
  facet normal 0 0 -1
    outer loop
      vertex -14.1127 17 0
      vertex -13 14.95 0
      vertex -13.3804 14.9125 0
    endloop
  endfacet
  facet normal 0 0 -1
    outer loop
      vertex -14.1127 17 0
      vertex -13.3804 14.9125 0
      vertex -13.7462 14.8016 0
    endloop
  endfacet
  facet normal 0 0 -1
    outer loop
      vertex -12.2538 14.8016 0
      vertex -14.1127 17 0
      vertex -8.15 17 0
    endloop
  endfacet
  facet normal 0 0 -1
    outer loop
      vertex -14.0834 14.6214 0
      vertex -14.1127 17 0
      vertex -13.7462 14.8016 0
    endloop
  endfacet
  facet normal 0 0 -1
    outer loop
      vertex -14.3789 14.3789 0
      vertex -14.1127 17 0
      vertex -14.0834 14.6214 0
    endloop
  endfacet
  facet normal 0 0 -1
    outer loop
      vertex -17 14.1127 0
      vertex -14.3789 14.3789 0
      vertex -14.6214 14.0834 0
    endloop
  endfacet
  facet normal 0 0 -1
    outer loop
      vertex -17 14.1127 0
      vertex -14.6214 14.0834 0
      vertex -14.8016 13.7462 0
    endloop
  endfacet
  facet normal 0 0 -1
    outer loop
      vertex -17 14.1127 0
      vertex -14.8016 13.7462 0
      vertex -14.9125 13.3804 0
    endloop
  endfacet
  facet normal 0 0 -1
    outer loop
      vertex -14.8016 12.2538 0
      vertex -17 14.1127 0
      vertex -14.9125 12.6196 0
    endloop
  endfacet
  facet normal -0 0 -1
    outer loop
      vertex -14.3789 14.3789 0
      vertex -17 14.1127 0
      vertex -14.1127 17 0
    endloop
  endfacet
  facet normal 0 0 -1
    outer loop
      vertex -14.95 13 0
      vertex -17 14.1127 0
      vertex -14.9125 13.3804 0
    endloop
  endfacet
  facet normal 0 0 -1
    outer loop
      vertex -14.9125 12.6196 0
      vertex -17 14.1127 0
      vertex -14.95 13 0
    endloop
  endfacet
  facet normal 0 0 -1
    outer loop
      vertex 14.6214 -11.9166 0
      vertex 17 -14.1127 0
      vertex 14.8016 -12.2538 0
    endloop
  endfacet
  facet normal 0 0 -1
    outer loop
      vertex 17 8.15 0
      vertex 14.9125 12.6196 0
      vertex 14.95 13 0
    endloop
  endfacet
  facet normal 0 0 -1
    outer loop
      vertex 17 -14.1127 0
      vertex 14.6214 -11.9166 0
      vertex 17 8.15 0
    endloop
  endfacet
  facet normal 0 0 -1
    outer loop
      vertex 17 8.15 0
      vertex 14.8016 12.2538 0
      vertex 14.9125 12.6196 0
    endloop
  endfacet
  facet normal 0 0 -1
    outer loop
      vertex 14.3789 -11.6211 0
      vertex 17 8.15 0
      vertex 14.6214 -11.9166 0
    endloop
  endfacet
  facet normal 0 0 -1
    outer loop
      vertex 17 8.15 0
      vertex 14.6214 11.9166 0
      vertex 14.8016 12.2538 0
    endloop
  endfacet
  facet normal 0 0 -1
    outer loop
      vertex 11.5 -8 0
      vertex 17 8.15 0
      vertex 14.3789 -11.6211 0
    endloop
  endfacet
  facet normal 0 0 -1
    outer loop
      vertex 17 8.15 0
      vertex 14.3789 11.6211 0
      vertex 14.6214 11.9166 0
    endloop
  endfacet
  facet normal 0 0 -1
    outer loop
      vertex 11.5 -8 0
      vertex 14.3789 -11.6211 0
      vertex 14.0834 -11.3786 0
    endloop
  endfacet
  facet normal 0 0 -1
    outer loop
      vertex 11.5 8 0
      vertex 17 8.15 0
      vertex 11.5 -8 0
    endloop
  endfacet
  facet normal 0 0 -1
    outer loop
      vertex 11.5 -8 0
      vertex 14.0834 -11.3786 0
      vertex 13.7462 -11.1984 0
    endloop
  endfacet
  facet normal 0 -0 -1
    outer loop
      vertex 13.3804 11.0875 0
      vertex 17 8.15 0
      vertex 11.5 8 0
    endloop
  endfacet
  facet normal 0 0 -1
    outer loop
      vertex 11.5 -8 0
      vertex 13.7462 -11.1984 0
      vertex 13.3804 -11.0875 0
    endloop
  endfacet
  facet normal 0 0 -1
    outer loop
      vertex 17 8.15 0
      vertex 14.0834 11.3786 0
      vertex 14.3789 11.6211 0
    endloop
  endfacet
  facet normal 0 0 -1
    outer loop
      vertex 11.5 -8 0
      vertex 13.3804 -11.0875 0
      vertex 13 -11.05 0
    endloop
  endfacet
  facet normal 0 0 -1
    outer loop
      vertex 17 8.15 0
      vertex 13.7462 11.1984 0
      vertex 14.0834 11.3786 0
    endloop
  endfacet
  facet normal 0 0 -1
    outer loop
      vertex 11.5 -8 0
      vertex 13 -11.05 0
      vertex 12.6196 -11.0875 0
    endloop
  endfacet
  facet normal 0 0 -1
    outer loop
      vertex 17 8.15 0
      vertex 13.3804 11.0875 0
      vertex 13.7462 11.1984 0
    endloop
  endfacet
  facet normal 0 0 -1
    outer loop
      vertex 11.5 -8 0
      vertex 12.6196 -11.0875 0
      vertex 12.2538 -11.1984 0
    endloop
  endfacet
  facet normal 0 0 -1
    outer loop
      vertex 13.3804 11.0875 0
      vertex 11.5 8 0
      vertex 13 11.05 0
    endloop
  endfacet
  facet normal 0 0 -1
    outer loop
      vertex 11.5 -8 0
      vertex 12.2538 -11.1984 0
      vertex 11.9166 -11.3786 0
    endloop
  endfacet
  facet normal -0 0 -1
    outer loop
      vertex 13 11.05 0
      vertex 11.5 8 0
      vertex 12.6196 11.0875 0
    endloop
  endfacet
  facet normal 0 0 -1
    outer loop
      vertex 11.5 -8 0
      vertex 11.9166 -11.3786 0
      vertex 11.6211 -11.6211 0
    endloop
  endfacet
  facet normal -0 0 -1
    outer loop
      vertex 12.6196 11.0875 0
      vertex 11.5 8 0
      vertex 12.2538 11.1984 0
    endloop
  endfacet
  facet normal -0 0 -1
    outer loop
      vertex 12.2538 11.1984 0
      vertex 11.5 8 0
      vertex 11.9166 11.3786 0
    endloop
  endfacet
  facet normal 0 0 -1
    outer loop
      vertex 11.3786 -11.9166 0
      vertex 11.5 -8 0
      vertex 11.6211 -11.6211 0
    endloop
  endfacet
  facet normal 0 0 -1
    outer loop
      vertex 5.25 -9.9 0
      vertex 11.3786 -11.9166 0
      vertex 11.1984 -12.2538 0
    endloop
  endfacet
  facet normal 0 0 -1
    outer loop
      vertex 5.25 -13 0
      vertex 11.1984 -12.2538 0
      vertex 11.0875 -12.6196 0
    endloop
  endfacet
  facet normal 0 0 -1
    outer loop
      vertex 5.25 -13 0
      vertex 11.0875 -12.6196 0
      vertex 11.05 -13 0
    endloop
  endfacet
  facet normal 0 0 -1
    outer loop
      vertex 11.0875 -13.3804 0
      vertex 5.25 -13 0
      vertex 11.05 -13 0
    endloop
  endfacet
  facet normal -0 0 -1
    outer loop
      vertex 11.1984 -12.2538 0
      vertex 5.25 -13 0
      vertex 5.25 -9.9 0
    endloop
  endfacet
  facet normal 0 0 -1
    outer loop
      vertex 11.3786 -11.9166 0
      vertex 5.25 -9.9 0
      vertex 11.5 -8 0
    endloop
  endfacet
  facet normal 0 0 -1
    outer loop
      vertex -5.25 -9.9 0
      vertex 11.5 -8 0
      vertex 5.25 -9.9 0
    endloop
  endfacet
  facet normal 0 0 -1
    outer loop
      vertex -11.1984 -12.2538 0
      vertex -5.25 -13 0
      vertex -11.0875 -12.6196 0
    endloop
  endfacet
  facet normal 0 0 -1
    outer loop
      vertex -5.25 -13 0
      vertex -11.1984 -12.2538 0
      vertex -5.25 -9.9 0
    endloop
  endfacet
  facet normal 0 0 -1
    outer loop
      vertex -11.3786 -11.9166 0
      vertex -5.25 -9.9 0
      vertex -11.1984 -12.2538 0
    endloop
  endfacet
  facet normal 0 0 -1
    outer loop
      vertex -5.25 -9.9 0
      vertex -11.5 -8 0
      vertex 11.5 -8 0
    endloop
  endfacet
  facet normal 0 0 -1
    outer loop
      vertex -11.3786 -11.9166 0
      vertex -11.5 -8 0
      vertex -5.25 -9.9 0
    endloop
  endfacet
  facet normal 0 0 -1
    outer loop
      vertex -11.9166 -11.3786 0
      vertex -11.5 -8 0
      vertex -11.6211 -11.6211 0
    endloop
  endfacet
  facet normal 0 0 -1
    outer loop
      vertex -11.6211 -11.6211 0
      vertex -11.5 -8 0
      vertex -11.3786 -11.9166 0
    endloop
  endfacet
  facet normal 0 0 -1
    outer loop
      vertex 14.9125 -12.6196 0
      vertex 17 -14.1127 0
      vertex 14.95 -13 0
    endloop
  endfacet
  facet normal 0 0 -1
    outer loop
      vertex 14.8016 -12.2538 0
      vertex 17 -14.1127 0
      vertex 14.9125 -12.6196 0
    endloop
  endfacet
  facet normal 0 0 -1
    outer loop
      vertex 17 -14.1127 0
      vertex 14.9125 -13.3804 0
      vertex 14.95 -13 0
    endloop
  endfacet
  facet normal 0 0 -1
    outer loop
      vertex 17 -14.1127 0
      vertex 14.8016 -13.7462 0
      vertex 14.9125 -13.3804 0
    endloop
  endfacet
  facet normal 0 0 -1
    outer loop
      vertex 17 -14.1127 0
      vertex 14.6214 -14.0834 0
      vertex 14.8016 -13.7462 0
    endloop
  endfacet
  facet normal -0 0 -1
    outer loop
      vertex 17 -14.1127 0
      vertex 14.3789 -14.3789 0
      vertex 14.6214 -14.0834 0
    endloop
  endfacet
  facet normal 0 0 -1
    outer loop
      vertex 14.1127 -17 0
      vertex 14.3789 -14.3789 0
      vertex 17 -14.1127 0
    endloop
  endfacet
  facet normal 0 0 -1
    outer loop
      vertex 14.1127 -17 0
      vertex 14.0834 -14.6214 0
      vertex 14.3789 -14.3789 0
    endloop
  endfacet
  facet normal 0 0 -1
    outer loop
      vertex 14.1127 -17 0
      vertex 13.7462 -14.8016 0
      vertex 14.0834 -14.6214 0
    endloop
  endfacet
  facet normal 0 0 -1
    outer loop
      vertex 14.1127 -17 0
      vertex 13.3804 -14.9125 0
      vertex 13.7462 -14.8016 0
    endloop
  endfacet
  facet normal 0 0 -1
    outer loop
      vertex 14.1127 -17 0
      vertex 13 -14.95 0
      vertex 13.3804 -14.9125 0
    endloop
  endfacet
  facet normal 0 0 -1
    outer loop
      vertex 14.1127 -17 0
      vertex 12.6196 -14.9125 0
      vertex 13 -14.95 0
    endloop
  endfacet
  facet normal 0 0 -1
    outer loop
      vertex 14.1127 -17 0
      vertex 12.2538 -14.8016 0
      vertex 12.6196 -14.9125 0
    endloop
  endfacet
  facet normal 0 0 -1
    outer loop
      vertex 8.15 -17 0
      vertex 12.2538 -14.8016 0
      vertex 14.1127 -17 0
    endloop
  endfacet
  facet normal -0 0 -1
    outer loop
      vertex 12.2538 -14.8016 0
      vertex 8.15 -17 0
      vertex 11.9166 -14.6214 0
    endloop
  endfacet
  facet normal 0 0 -1
    outer loop
      vertex 5.25 -13 0
      vertex 11.0875 -13.3804 0
      vertex 8.15 -17 0
    endloop
  endfacet
  facet normal -0 0 -1
    outer loop
      vertex 11.1984 -13.7462 0
      vertex 8.15 -17 0
      vertex 11.0875 -13.3804 0
    endloop
  endfacet
  facet normal -0 0 -1
    outer loop
      vertex 11.3786 -14.0834 0
      vertex 8.15 -17 0
      vertex 11.1984 -13.7462 0
    endloop
  endfacet
  facet normal -0 0 -1
    outer loop
      vertex 11.6211 -14.3789 0
      vertex 8.15 -17 0
      vertex 11.3786 -14.0834 0
    endloop
  endfacet
  facet normal -0 0 -1
    outer loop
      vertex 11.9166 -14.6214 0
      vertex 8.15 -17 0
      vertex 11.6211 -14.3789 0
    endloop
  endfacet
  facet normal 0 0 -1
    outer loop
      vertex 17 8.15 0
      vertex 14.95 13 0
      vertex 17 14.1127 0
    endloop
  endfacet
  facet normal 0 0 -1
    outer loop
      vertex 14.9125 13.3804 0
      vertex 17 14.1127 0
      vertex 14.95 13 0
    endloop
  endfacet
  facet normal 0 0 -1
    outer loop
      vertex 14.8016 13.7462 0
      vertex 17 14.1127 0
      vertex 14.9125 13.3804 0
    endloop
  endfacet
  facet normal 0 0 -1
    outer loop
      vertex 14.6214 14.0834 0
      vertex 17 14.1127 0
      vertex 14.8016 13.7462 0
    endloop
  endfacet
  facet normal 0 0 -1
    outer loop
      vertex 14.3789 14.3789 0
      vertex 17 14.1127 0
      vertex 14.6214 14.0834 0
    endloop
  endfacet
  facet normal 0 0 -1
    outer loop
      vertex 14.3789 14.3789 0
      vertex 14.1127 17 0
      vertex 17 14.1127 0
    endloop
  endfacet
  facet normal 0 0 -1
    outer loop
      vertex 14.0834 14.6214 0
      vertex 14.1127 17 0
      vertex 14.3789 14.3789 0
    endloop
  endfacet
  facet normal 0 0 -1
    outer loop
      vertex 13.7462 14.8016 0
      vertex 14.1127 17 0
      vertex 14.0834 14.6214 0
    endloop
  endfacet
  facet normal 0 0 -1
    outer loop
      vertex 13.3804 14.9125 0
      vertex 14.1127 17 0
      vertex 13.7462 14.8016 0
    endloop
  endfacet
  facet normal 0 0 -1
    outer loop
      vertex 13 14.95 0
      vertex 14.1127 17 0
      vertex 13.3804 14.9125 0
    endloop
  endfacet
  facet normal 0 0 -1
    outer loop
      vertex 12.6196 14.9125 0
      vertex 14.1127 17 0
      vertex 13 14.95 0
    endloop
  endfacet
  facet normal 0 0 -1
    outer loop
      vertex 12.2538 14.8016 0
      vertex 14.1127 17 0
      vertex 12.6196 14.9125 0
    endloop
  endfacet
  facet normal 0 0 -1
    outer loop
      vertex 11.9166 14.6214 0
      vertex 14.1127 17 0
      vertex 12.2538 14.8016 0
    endloop
  endfacet
  facet normal 0 0 -1
    outer loop
      vertex 11.6211 14.3789 0
      vertex 14.1127 17 0
      vertex 11.9166 14.6214 0
    endloop
  endfacet
  facet normal 0 0 -1
    outer loop
      vertex 11.6211 14.3789 0
      vertex -8.15 17 0
      vertex 14.1127 17 0
    endloop
  endfacet
  facet normal 0 0 -1
    outer loop
      vertex 11.3786 14.0834 0
      vertex -8.15 17 0
      vertex 11.6211 14.3789 0
    endloop
  endfacet
  facet normal 0 0 -1
    outer loop
      vertex 11.1984 13.7462 0
      vertex -8.15 17 0
      vertex 11.3786 14.0834 0
    endloop
  endfacet
  facet normal 0 0 -1
    outer loop
      vertex 11.0875 13.3804 0
      vertex -8.15 17 0
      vertex 11.1984 13.7462 0
    endloop
  endfacet
  facet normal 0 0 -1
    outer loop
      vertex -8.15 17 0
      vertex 11.0875 13.3804 0
      vertex 11.05 13 0
    endloop
  endfacet
  facet normal -0 0 -1
    outer loop
      vertex 11.9166 11.3786 0
      vertex 11.5 8 0
      vertex 11.6211 11.6211 0
    endloop
  endfacet
  facet normal 0 0 -1
    outer loop
      vertex 11.5 8 0
      vertex 11.3786 11.9166 0
      vertex 11.6211 11.6211 0
    endloop
  endfacet
  facet normal 0 0 -1
    outer loop
      vertex 11.5 8 0
      vertex 11.1984 12.2538 0
      vertex 11.3786 11.9166 0
    endloop
  endfacet
  facet normal 0 0 -1
    outer loop
      vertex 11.5 8 0
      vertex 11.0875 12.6196 0
      vertex 11.1984 12.2538 0
    endloop
  endfacet
  facet normal 0 0 -1
    outer loop
      vertex -8.15 17 0
      vertex 11.0875 12.6196 0
      vertex 11.5 8 0
    endloop
  endfacet
  facet normal 0 0 -1
    outer loop
      vertex 11.0875 12.6196 0
      vertex -8.15 17 0
      vertex 11.05 13 0
    endloop
  endfacet
  facet normal 0 0 -1
    outer loop
      vertex -11.5 8 0
      vertex -8.15 17 0
      vertex 11.5 8 0
    endloop
  endfacet
  facet normal 0 0 -1
    outer loop
      vertex -8.15 17 0
      vertex -11.0875 12.6196 0
      vertex -11.05 13 0
    endloop
  endfacet
  facet normal 0 -0 -1
    outer loop
      vertex -11.1984 12.2538 0
      vertex -8.15 17 0
      vertex -11.5 8 0
    endloop
  endfacet
  facet normal 0 0 -1
    outer loop
      vertex -8.15 17 0
      vertex -11.1984 12.2538 0
      vertex -11.0875 12.6196 0
    endloop
  endfacet
  facet normal 0 0 -1
    outer loop
      vertex -11.1984 12.2538 0
      vertex -11.5 8 0
      vertex -11.3786 11.9166 0
    endloop
  endfacet
  facet normal 0 0 -1
    outer loop
      vertex -11.5 8 0
      vertex -11.6211 11.6211 0
      vertex -11.3786 11.9166 0
    endloop
  endfacet
  facet normal 0 0 -1
    outer loop
      vertex -12.2538 -11.1984 0
      vertex -11.5 -8 0
      vertex -11.9166 -11.3786 0
    endloop
  endfacet
  facet normal 0 0 -1
    outer loop
      vertex -12.6196 -11.0875 0
      vertex -11.5 -8 0
      vertex -12.2538 -11.1984 0
    endloop
  endfacet
  facet normal 0 0 -1
    outer loop
      vertex -11.5 8 0
      vertex -11.9166 11.3786 0
      vertex -11.6211 11.6211 0
    endloop
  endfacet
  facet normal 0 0 -1
    outer loop
      vertex -13 -11.05 0
      vertex -11.5 -8 0
      vertex -12.6196 -11.0875 0
    endloop
  endfacet
  facet normal 0 0 -1
    outer loop
      vertex -11.5 8 0
      vertex -12.2538 11.1984 0
      vertex -11.9166 11.3786 0
    endloop
  endfacet
  facet normal 0 0 -1
    outer loop
      vertex -13.3804 -11.0875 0
      vertex -11.5 -8 0
      vertex -13 -11.05 0
    endloop
  endfacet
  facet normal 0 0 -1
    outer loop
      vertex -11.5 8 0
      vertex -12.6196 11.0875 0
      vertex -12.2538 11.1984 0
    endloop
  endfacet
  facet normal 0 0 -1
    outer loop
      vertex -17 -8.15 0
      vertex -13.3804 -11.0875 0
      vertex -13.7462 -11.1984 0
    endloop
  endfacet
  facet normal 0 0 -1
    outer loop
      vertex -11.5 8 0
      vertex -13 11.05 0
      vertex -12.6196 11.0875 0
    endloop
  endfacet
  facet normal 0 0 -1
    outer loop
      vertex -17 -8.15 0
      vertex -13.7462 -11.1984 0
      vertex -14.0834 -11.3786 0
    endloop
  endfacet
  facet normal 0 0 -1
    outer loop
      vertex -11.5 8 0
      vertex -13.3804 11.0875 0
      vertex -13 11.05 0
    endloop
  endfacet
  facet normal 0 0 -1
    outer loop
      vertex -17 -8.15 0
      vertex -14.0834 -11.3786 0
      vertex -14.3789 -11.6211 0
    endloop
  endfacet
  facet normal 0 0 -1
    outer loop
      vertex -11.5 8 0
      vertex -13.7462 11.1984 0
      vertex -13.3804 11.0875 0
    endloop
  endfacet
  facet normal 0 0 -1
    outer loop
      vertex -13.3804 -11.0875 0
      vertex -17 -8.15 0
      vertex -11.5 -8 0
    endloop
  endfacet
  facet normal 0 0 -1
    outer loop
      vertex -11.5 8 0
      vertex -14.0834 11.3786 0
      vertex -13.7462 11.1984 0
    endloop
  endfacet
  facet normal -0 0 -1
    outer loop
      vertex -11.5 -8 0
      vertex -17 -8.15 0
      vertex -11.5 8 0
    endloop
  endfacet
  facet normal 0 0 -1
    outer loop
      vertex -11.5 8 0
      vertex -14.3789 11.6211 0
      vertex -14.0834 11.3786 0
    endloop
  endfacet
  facet normal 0 0 -1
    outer loop
      vertex -14.8016 -12.2538 0
      vertex -17 -8.15 0
      vertex -14.6214 -11.9166 0
    endloop
  endfacet
  facet normal 0 0 -1
    outer loop
      vertex -14.6214 -11.9166 0
      vertex -17 -8.15 0
      vertex -14.3789 -11.6211 0
    endloop
  endfacet
  facet normal 0 0 -1
    outer loop
      vertex -17 -8.15 0
      vertex -14.8016 -12.2538 0
      vertex -17 -14.1127 0
    endloop
  endfacet
  facet normal -0 0 -1
    outer loop
      vertex -11.5 8 0
      vertex -17 -8.15 0
      vertex -14.3789 11.6211 0
    endloop
  endfacet
  facet normal 0 0 -1
    outer loop
      vertex -17 -14.1127 0
      vertex -14.8016 -12.2538 0
      vertex -14.9125 -12.6196 0
    endloop
  endfacet
  facet normal -0 0 -1
    outer loop
      vertex -14.3789 11.6211 0
      vertex -17 -8.15 0
      vertex -14.6214 11.9166 0
    endloop
  endfacet
  facet normal 0 0 -1
    outer loop
      vertex -17 -14.1127 0
      vertex -14.9125 -12.6196 0
      vertex -14.95 -13 0
    endloop
  endfacet
  facet normal 0 0 -1
    outer loop
      vertex -17 14.1127 0
      vertex -14.6214 11.9166 0
      vertex -17 -8.15 0
    endloop
  endfacet
  facet normal 0 1 -0
    outer loop
      vertex 14.1127 17 0
      vertex -8.15 17 1
      vertex 14.1127 17 1
    endloop
  endfacet
  facet normal 0 1 0
    outer loop
      vertex -8.15 17 1
      vertex 14.1127 17 0
      vertex -8.15 17 0
    endloop
  endfacet
  facet normal 0 1 -0
    outer loop
      vertex -8.15 17 0
      vertex -14.1127 17 1
      vertex -8.15 17 1
    endloop
  endfacet
  facet normal 0 1 0
    outer loop
      vertex -14.1127 17 1
      vertex -8.15 17 0
      vertex -14.1127 17 0
    endloop
  endfacet
  facet normal -1 0 0
    outer loop
      vertex -17 -14.1127 0
      vertex -17 -8.15 1
      vertex -17 -8.15 0
    endloop
  endfacet
  facet normal -1 -0 0
    outer loop
      vertex -17 -8.15 1
      vertex -17 -14.1127 0
      vertex -17 -14.1127 1
    endloop
  endfacet
  facet normal 0 -1 0
    outer loop
      vertex 8.15 -17 0
      vertex 14.1127 -17 1
      vertex 8.15 -17 1
    endloop
  endfacet
  facet normal 0 -1 -0
    outer loop
      vertex 14.1127 -17 1
      vertex 8.15 -17 0
      vertex 14.1127 -17 0
    endloop
  endfacet
  facet normal 1 -0 0
    outer loop
      vertex 17 8.15 1
      vertex 17 14.1127 0
      vertex 17 14.1127 1
    endloop
  endfacet
  facet normal 1 0 0
    outer loop
      vertex 17 14.1127 0
      vertex 17 8.15 1
      vertex 17 8.15 0
    endloop
  endfacet
  facet normal -0.707107 -0.707107 0
    outer loop
      vertex -14.1127 -17 0
      vertex -17 -14.1127 1
      vertex -17 -14.1127 0
    endloop
  endfacet
  facet normal -0.707107 -0.707107 0
    outer loop
      vertex -17 -14.1127 1
      vertex -14.1127 -17 0
      vertex -14.1127 -17 1
    endloop
  endfacet
  facet normal 0.707107 -0.707107 0
    outer loop
      vertex 14.1127 -17 1
      vertex 17 -14.1127 0
      vertex 17 -14.1127 1
    endloop
  endfacet
  facet normal 0.707107 -0.707107 0
    outer loop
      vertex 17 -14.1127 0
      vertex 14.1127 -17 1
      vertex 14.1127 -17 0
    endloop
  endfacet
  facet normal 0.707107 0.707107 0
    outer loop
      vertex 17 14.1127 1
      vertex 14.1127 17 0
      vertex 14.1127 17 1
    endloop
  endfacet
  facet normal 0.707107 0.707107 0
    outer loop
      vertex 14.1127 17 0
      vertex 17 14.1127 1
      vertex 17 14.1127 0
    endloop
  endfacet
  facet normal -0.707107 0.707107 0
    outer loop
      vertex -17 14.1127 0
      vertex -14.1127 17 1
      vertex -14.1127 17 0
    endloop
  endfacet
  facet normal -0.707107 0.707107 0
    outer loop
      vertex -14.1127 17 1
      vertex -17 14.1127 0
      vertex -17 14.1127 1
    endloop
  endfacet
  facet normal -0.995185 -0.0980178 0
    outer loop
      vertex -11.05 -13 0
      vertex -11.0875 -12.6196 1
      vertex -11.0875 -12.6196 0
    endloop
  endfacet
  facet normal -0.995185 -0.0980178 0
    outer loop
      vertex -11.0875 -12.6196 1
      vertex -11.05 -13 0
      vertex -11.05 -13 1
    endloop
  endfacet
  facet normal 0.0980176 -0.995185 0
    outer loop
      vertex -13.3804 -11.0875 0
      vertex -13 -11.05 1
      vertex -13.3804 -11.0875 1
    endloop
  endfacet
  facet normal 0.0980176 -0.995185 0
    outer loop
      vertex -13 -11.05 1
      vertex -13.3804 -11.0875 0
      vertex -13 -11.05 0
    endloop
  endfacet
  facet normal -0.0980176 0.995185 0
    outer loop
      vertex -12.6196 -14.9125 0
      vertex -13 -14.95 1
      vertex -12.6196 -14.9125 1
    endloop
  endfacet
  facet normal -0.0980176 0.995185 0
    outer loop
      vertex -13 -14.95 1
      vertex -12.6196 -14.9125 0
      vertex -13 -14.95 0
    endloop
  endfacet
  facet normal -0.634394 -0.77301 0
    outer loop
      vertex -11.9166 -11.3786 0
      vertex -11.6211 -11.6211 1
      vertex -11.9166 -11.3786 1
    endloop
  endfacet
  facet normal -0.634394 -0.77301 -0
    outer loop
      vertex -11.6211 -11.6211 1
      vertex -11.9166 -11.3786 0
      vertex -11.6211 -11.6211 0
    endloop
  endfacet
  facet normal 0.77301 -0.634394 0
    outer loop
      vertex -14.6214 -11.9166 1
      vertex -14.3789 -11.6211 0
      vertex -14.3789 -11.6211 1
    endloop
  endfacet
  facet normal 0.77301 -0.634394 0
    outer loop
      vertex -14.3789 -11.6211 0
      vertex -14.6214 -11.9166 1
      vertex -14.6214 -11.9166 0
    endloop
  endfacet
  facet normal 0.471395 -0.881922 0
    outer loop
      vertex -14.0834 -11.3786 0
      vertex -13.7462 -11.1984 1
      vertex -14.0834 -11.3786 1
    endloop
  endfacet
  facet normal 0.471395 -0.881922 0
    outer loop
      vertex -13.7462 -11.1984 1
      vertex -14.0834 -11.3786 0
      vertex -13.7462 -11.1984 0
    endloop
  endfacet
  facet normal -0.881922 -0.471395 0
    outer loop
      vertex -11.1984 -12.2538 0
      vertex -11.3786 -11.9166 1
      vertex -11.3786 -11.9166 0
    endloop
  endfacet
  facet normal -0.881922 -0.471395 0
    outer loop
      vertex -11.3786 -11.9166 1
      vertex -11.1984 -12.2538 0
      vertex -11.1984 -12.2538 1
    endloop
  endfacet
  facet normal -0.95694 -0.290286 0
    outer loop
      vertex -11.0875 -12.6196 0
      vertex -11.1984 -12.2538 1
      vertex -11.1984 -12.2538 0
    endloop
  endfacet
  facet normal -0.95694 -0.290286 0
    outer loop
      vertex -11.1984 -12.2538 1
      vertex -11.0875 -12.6196 0
      vertex -11.0875 -12.6196 1
    endloop
  endfacet
  facet normal -0.77301 -0.634394 0
    outer loop
      vertex -11.3786 -11.9166 0
      vertex -11.6211 -11.6211 1
      vertex -11.6211 -11.6211 0
    endloop
  endfacet
  facet normal -0.77301 -0.634394 0
    outer loop
      vertex -11.6211 -11.6211 1
      vertex -11.3786 -11.9166 0
      vertex -11.3786 -11.9166 1
    endloop
  endfacet
  facet normal -0.290286 -0.95694 0
    outer loop
      vertex -12.6196 -11.0875 0
      vertex -12.2538 -11.1984 1
      vertex -12.6196 -11.0875 1
    endloop
  endfacet
  facet normal -0.290286 -0.95694 -0
    outer loop
      vertex -12.2538 -11.1984 1
      vertex -12.6196 -11.0875 0
      vertex -12.2538 -11.1984 0
    endloop
  endfacet
  facet normal -0.0980178 -0.995185 0
    outer loop
      vertex -13 -11.05 0
      vertex -12.6196 -11.0875 1
      vertex -13 -11.05 1
    endloop
  endfacet
  facet normal -0.0980178 -0.995185 -0
    outer loop
      vertex -12.6196 -11.0875 1
      vertex -13 -11.05 0
      vertex -12.6196 -11.0875 0
    endloop
  endfacet
  facet normal -0.471395 -0.881922 0
    outer loop
      vertex -12.2538 -11.1984 0
      vertex -11.9166 -11.3786 1
      vertex -12.2538 -11.1984 1
    endloop
  endfacet
  facet normal -0.471395 -0.881922 -0
    outer loop
      vertex -11.9166 -11.3786 1
      vertex -12.2538 -11.1984 0
      vertex -11.9166 -11.3786 0
    endloop
  endfacet
  facet normal 0.95694 -0.290286 0
    outer loop
      vertex -14.9125 -12.6196 1
      vertex -14.8016 -12.2538 0
      vertex -14.8016 -12.2538 1
    endloop
  endfacet
  facet normal 0.95694 -0.290286 0
    outer loop
      vertex -14.8016 -12.2538 0
      vertex -14.9125 -12.6196 1
      vertex -14.9125 -12.6196 0
    endloop
  endfacet
  facet normal 0.881922 -0.471395 0
    outer loop
      vertex -14.8016 -12.2538 1
      vertex -14.6214 -11.9166 0
      vertex -14.6214 -11.9166 1
    endloop
  endfacet
  facet normal 0.881922 -0.471395 0
    outer loop
      vertex -14.6214 -11.9166 0
      vertex -14.8016 -12.2538 1
      vertex -14.8016 -12.2538 0
    endloop
  endfacet
  facet normal 0.995185 -0.0980178 0
    outer loop
      vertex -14.95 -13 1
      vertex -14.9125 -12.6196 0
      vertex -14.9125 -12.6196 1
    endloop
  endfacet
  facet normal 0.995185 -0.0980178 0
    outer loop
      vertex -14.9125 -12.6196 0
      vertex -14.95 -13 1
      vertex -14.95 -13 0
    endloop
  endfacet
  facet normal 0.634394 -0.77301 0
    outer loop
      vertex -14.3789 -11.6211 0
      vertex -14.0834 -11.3786 1
      vertex -14.3789 -11.6211 1
    endloop
  endfacet
  facet normal 0.634394 -0.77301 0
    outer loop
      vertex -14.0834 -11.3786 1
      vertex -14.3789 -11.6211 0
      vertex -14.0834 -11.3786 0
    endloop
  endfacet
  facet normal 0.290286 -0.95694 0
    outer loop
      vertex -13.7462 -11.1984 0
      vertex -13.3804 -11.0875 1
      vertex -13.7462 -11.1984 1
    endloop
  endfacet
  facet normal 0.290286 -0.95694 0
    outer loop
      vertex -13.3804 -11.0875 1
      vertex -13.7462 -11.1984 0
      vertex -13.3804 -11.0875 0
    endloop
  endfacet
  facet normal -0.995185 0.0980176 0
    outer loop
      vertex -11.0875 -13.3804 0
      vertex -11.05 -13 1
      vertex -11.05 -13 0
    endloop
  endfacet
  facet normal -0.995185 0.0980176 0
    outer loop
      vertex -11.05 -13 1
      vertex -11.0875 -13.3804 0
      vertex -11.0875 -13.3804 1
    endloop
  endfacet
  facet normal 0.995185 0.0980176 0
    outer loop
      vertex -14.9125 -13.3804 1
      vertex -14.95 -13 0
      vertex -14.95 -13 1
    endloop
  endfacet
  facet normal 0.995185 0.0980176 0
    outer loop
      vertex -14.95 -13 0
      vertex -14.9125 -13.3804 1
      vertex -14.9125 -13.3804 0
    endloop
  endfacet
  facet normal -0.881922 0.471395 0
    outer loop
      vertex -11.3786 -14.0834 0
      vertex -11.1984 -13.7462 1
      vertex -11.1984 -13.7462 0
    endloop
  endfacet
  facet normal -0.881922 0.471395 0
    outer loop
      vertex -11.1984 -13.7462 1
      vertex -11.3786 -14.0834 0
      vertex -11.3786 -14.0834 1
    endloop
  endfacet
  facet normal 0.290286 0.95694 -0
    outer loop
      vertex -13.3804 -14.9125 0
      vertex -13.7462 -14.8016 1
      vertex -13.3804 -14.9125 1
    endloop
  endfacet
  facet normal 0.290286 0.95694 0
    outer loop
      vertex -13.7462 -14.8016 1
      vertex -13.3804 -14.9125 0
      vertex -13.7462 -14.8016 0
    endloop
  endfacet
  facet normal 0.77301 0.634394 0
    outer loop
      vertex -14.3789 -14.3789 1
      vertex -14.6214 -14.0834 0
      vertex -14.6214 -14.0834 1
    endloop
  endfacet
  facet normal 0.77301 0.634394 0
    outer loop
      vertex -14.6214 -14.0834 0
      vertex -14.3789 -14.3789 1
      vertex -14.3789 -14.3789 0
    endloop
  endfacet
  facet normal 0.95694 0.290286 0
    outer loop
      vertex -14.8016 -13.7462 1
      vertex -14.9125 -13.3804 0
      vertex -14.9125 -13.3804 1
    endloop
  endfacet
  facet normal 0.95694 0.290286 0
    outer loop
      vertex -14.9125 -13.3804 0
      vertex -14.8016 -13.7462 1
      vertex -14.8016 -13.7462 0
    endloop
  endfacet
  facet normal -0.290286 0.95694 0
    outer loop
      vertex -12.2538 -14.8016 0
      vertex -12.6196 -14.9125 1
      vertex -12.2538 -14.8016 1
    endloop
  endfacet
  facet normal -0.290286 0.95694 0
    outer loop
      vertex -12.6196 -14.9125 1
      vertex -12.2538 -14.8016 0
      vertex -12.6196 -14.9125 0
    endloop
  endfacet
  facet normal -0.634394 0.77301 0
    outer loop
      vertex -11.6211 -14.3789 0
      vertex -11.9166 -14.6214 1
      vertex -11.6211 -14.3789 1
    endloop
  endfacet
  facet normal -0.634394 0.77301 0
    outer loop
      vertex -11.9166 -14.6214 1
      vertex -11.6211 -14.3789 0
      vertex -11.9166 -14.6214 0
    endloop
  endfacet
  facet normal -0.95694 0.290286 0
    outer loop
      vertex -11.1984 -13.7462 0
      vertex -11.0875 -13.3804 1
      vertex -11.0875 -13.3804 0
    endloop
  endfacet
  facet normal -0.95694 0.290286 0
    outer loop
      vertex -11.0875 -13.3804 1
      vertex -11.1984 -13.7462 0
      vertex -11.1984 -13.7462 1
    endloop
  endfacet
  facet normal 0.0980178 0.995185 -0
    outer loop
      vertex -13 -14.95 0
      vertex -13.3804 -14.9125 1
      vertex -13 -14.95 1
    endloop
  endfacet
  facet normal 0.0980178 0.995185 0
    outer loop
      vertex -13.3804 -14.9125 1
      vertex -13 -14.95 0
      vertex -13.3804 -14.9125 0
    endloop
  endfacet
  facet normal 0.471395 0.881922 -0
    outer loop
      vertex -13.7462 -14.8016 0
      vertex -14.0834 -14.6214 1
      vertex -13.7462 -14.8016 1
    endloop
  endfacet
  facet normal 0.471395 0.881922 0
    outer loop
      vertex -14.0834 -14.6214 1
      vertex -13.7462 -14.8016 0
      vertex -14.0834 -14.6214 0
    endloop
  endfacet
  facet normal 0.634394 0.77301 -0
    outer loop
      vertex -14.0834 -14.6214 0
      vertex -14.3789 -14.3789 1
      vertex -14.0834 -14.6214 1
    endloop
  endfacet
  facet normal 0.634394 0.77301 0
    outer loop
      vertex -14.3789 -14.3789 1
      vertex -14.0834 -14.6214 0
      vertex -14.3789 -14.3789 0
    endloop
  endfacet
  facet normal 0.881922 0.471395 0
    outer loop
      vertex -14.6214 -14.0834 1
      vertex -14.8016 -13.7462 0
      vertex -14.8016 -13.7462 1
    endloop
  endfacet
  facet normal 0.881922 0.471395 0
    outer loop
      vertex -14.8016 -13.7462 0
      vertex -14.6214 -14.0834 1
      vertex -14.6214 -14.0834 0
    endloop
  endfacet
  facet normal -0.471395 0.881922 0
    outer loop
      vertex -11.9166 -14.6214 0
      vertex -12.2538 -14.8016 1
      vertex -11.9166 -14.6214 1
    endloop
  endfacet
  facet normal -0.471395 0.881922 0
    outer loop
      vertex -12.2538 -14.8016 1
      vertex -11.9166 -14.6214 0
      vertex -12.2538 -14.8016 0
    endloop
  endfacet
  facet normal -0.77301 0.634394 0
    outer loop
      vertex -11.6211 -14.3789 0
      vertex -11.3786 -14.0834 1
      vertex -11.3786 -14.0834 0
    endloop
  endfacet
  facet normal -0.77301 0.634394 0
    outer loop
      vertex -11.3786 -14.0834 1
      vertex -11.6211 -14.3789 0
      vertex -11.6211 -14.3789 1
    endloop
  endfacet
  facet normal -0.995185 -0.0980178 0
    outer loop
      vertex 14.95 -13 0
      vertex 14.9125 -12.6196 1
      vertex 14.9125 -12.6196 0
    endloop
  endfacet
  facet normal -0.995185 -0.0980178 0
    outer loop
      vertex 14.9125 -12.6196 1
      vertex 14.95 -13 0
      vertex 14.95 -13 1
    endloop
  endfacet
  facet normal 0.0980176 -0.995185 0
    outer loop
      vertex 12.6196 -11.0875 0
      vertex 13 -11.05 1
      vertex 12.6196 -11.0875 1
    endloop
  endfacet
  facet normal 0.0980176 -0.995185 0
    outer loop
      vertex 13 -11.05 1
      vertex 12.6196 -11.0875 0
      vertex 13 -11.05 0
    endloop
  endfacet
  facet normal -0.0980178 0.995185 0
    outer loop
      vertex 13.3804 -14.9125 0
      vertex 13 -14.95 1
      vertex 13.3804 -14.9125 1
    endloop
  endfacet
  facet normal -0.0980178 0.995185 0
    outer loop
      vertex 13 -14.95 1
      vertex 13.3804 -14.9125 0
      vertex 13 -14.95 0
    endloop
  endfacet
  facet normal -0.634394 -0.77301 0
    outer loop
      vertex 14.0834 -11.3786 0
      vertex 14.3789 -11.6211 1
      vertex 14.0834 -11.3786 1
    endloop
  endfacet
  facet normal -0.634394 -0.77301 -0
    outer loop
      vertex 14.3789 -11.6211 1
      vertex 14.0834 -11.3786 0
      vertex 14.3789 -11.6211 0
    endloop
  endfacet
  facet normal 0.77301 -0.634394 0
    outer loop
      vertex 11.3786 -11.9166 1
      vertex 11.6211 -11.6211 0
      vertex 11.6211 -11.6211 1
    endloop
  endfacet
  facet normal 0.77301 -0.634394 0
    outer loop
      vertex 11.6211 -11.6211 0
      vertex 11.3786 -11.9166 1
      vertex 11.3786 -11.9166 0
    endloop
  endfacet
  facet normal 0.471395 -0.881922 0
    outer loop
      vertex 11.9166 -11.3786 0
      vertex 12.2538 -11.1984 1
      vertex 11.9166 -11.3786 1
    endloop
  endfacet
  facet normal 0.471395 -0.881922 0
    outer loop
      vertex 12.2538 -11.1984 1
      vertex 11.9166 -11.3786 0
      vertex 12.2538 -11.1984 0
    endloop
  endfacet
  facet normal -0.881922 -0.471395 0
    outer loop
      vertex 14.8016 -12.2538 0
      vertex 14.6214 -11.9166 1
      vertex 14.6214 -11.9166 0
    endloop
  endfacet
  facet normal -0.881922 -0.471395 0
    outer loop
      vertex 14.6214 -11.9166 1
      vertex 14.8016 -12.2538 0
      vertex 14.8016 -12.2538 1
    endloop
  endfacet
  facet normal -0.95694 -0.290286 0
    outer loop
      vertex 14.9125 -12.6196 0
      vertex 14.8016 -12.2538 1
      vertex 14.8016 -12.2538 0
    endloop
  endfacet
  facet normal -0.95694 -0.290286 0
    outer loop
      vertex 14.8016 -12.2538 1
      vertex 14.9125 -12.6196 0
      vertex 14.9125 -12.6196 1
    endloop
  endfacet
  facet normal -0.77301 -0.634394 0
    outer loop
      vertex 14.6214 -11.9166 0
      vertex 14.3789 -11.6211 1
      vertex 14.3789 -11.6211 0
    endloop
  endfacet
  facet normal -0.77301 -0.634394 0
    outer loop
      vertex 14.3789 -11.6211 1
      vertex 14.6214 -11.9166 0
      vertex 14.6214 -11.9166 1
    endloop
  endfacet
  facet normal -0.290286 -0.95694 0
    outer loop
      vertex 13.3804 -11.0875 0
      vertex 13.7462 -11.1984 1
      vertex 13.3804 -11.0875 1
    endloop
  endfacet
  facet normal -0.290286 -0.95694 -0
    outer loop
      vertex 13.7462 -11.1984 1
      vertex 13.3804 -11.0875 0
      vertex 13.7462 -11.1984 0
    endloop
  endfacet
  facet normal -0.0980178 -0.995185 0
    outer loop
      vertex 13 -11.05 0
      vertex 13.3804 -11.0875 1
      vertex 13 -11.05 1
    endloop
  endfacet
  facet normal -0.0980178 -0.995185 -0
    outer loop
      vertex 13.3804 -11.0875 1
      vertex 13 -11.05 0
      vertex 13.3804 -11.0875 0
    endloop
  endfacet
  facet normal -0.471395 -0.881922 0
    outer loop
      vertex 13.7462 -11.1984 0
      vertex 14.0834 -11.3786 1
      vertex 13.7462 -11.1984 1
    endloop
  endfacet
  facet normal -0.471395 -0.881922 -0
    outer loop
      vertex 14.0834 -11.3786 1
      vertex 13.7462 -11.1984 0
      vertex 14.0834 -11.3786 0
    endloop
  endfacet
  facet normal 0.95694 -0.290286 0
    outer loop
      vertex 11.0875 -12.6196 1
      vertex 11.1984 -12.2538 0
      vertex 11.1984 -12.2538 1
    endloop
  endfacet
  facet normal 0.95694 -0.290286 0
    outer loop
      vertex 11.1984 -12.2538 0
      vertex 11.0875 -12.6196 1
      vertex 11.0875 -12.6196 0
    endloop
  endfacet
  facet normal 0.881922 -0.471395 0
    outer loop
      vertex 11.1984 -12.2538 1
      vertex 11.3786 -11.9166 0
      vertex 11.3786 -11.9166 1
    endloop
  endfacet
  facet normal 0.881922 -0.471395 0
    outer loop
      vertex 11.3786 -11.9166 0
      vertex 11.1984 -12.2538 1
      vertex 11.1984 -12.2538 0
    endloop
  endfacet
  facet normal 0.995185 -0.0980178 0
    outer loop
      vertex 11.05 -13 1
      vertex 11.0875 -12.6196 0
      vertex 11.0875 -12.6196 1
    endloop
  endfacet
  facet normal 0.995185 -0.0980178 0
    outer loop
      vertex 11.0875 -12.6196 0
      vertex 11.05 -13 1
      vertex 11.05 -13 0
    endloop
  endfacet
  facet normal 0.634394 -0.77301 0
    outer loop
      vertex 11.6211 -11.6211 0
      vertex 11.9166 -11.3786 1
      vertex 11.6211 -11.6211 1
    endloop
  endfacet
  facet normal 0.634394 -0.77301 0
    outer loop
      vertex 11.9166 -11.3786 1
      vertex 11.6211 -11.6211 0
      vertex 11.9166 -11.3786 0
    endloop
  endfacet
  facet normal 0.290286 -0.95694 0
    outer loop
      vertex 12.2538 -11.1984 0
      vertex 12.6196 -11.0875 1
      vertex 12.2538 -11.1984 1
    endloop
  endfacet
  facet normal 0.290286 -0.95694 0
    outer loop
      vertex 12.6196 -11.0875 1
      vertex 12.2538 -11.1984 0
      vertex 12.6196 -11.0875 0
    endloop
  endfacet
  facet normal -0.995185 0.0980176 0
    outer loop
      vertex 14.9125 -13.3804 0
      vertex 14.95 -13 1
      vertex 14.95 -13 0
    endloop
  endfacet
  facet normal -0.995185 0.0980176 0
    outer loop
      vertex 14.95 -13 1
      vertex 14.9125 -13.3804 0
      vertex 14.9125 -13.3804 1
    endloop
  endfacet
  facet normal 0.995185 0.0980176 0
    outer loop
      vertex 11.0875 -13.3804 1
      vertex 11.05 -13 0
      vertex 11.05 -13 1
    endloop
  endfacet
  facet normal 0.995185 0.0980176 0
    outer loop
      vertex 11.05 -13 0
      vertex 11.0875 -13.3804 1
      vertex 11.0875 -13.3804 0
    endloop
  endfacet
  facet normal -0.881922 0.471395 0
    outer loop
      vertex 14.6214 -14.0834 0
      vertex 14.8016 -13.7462 1
      vertex 14.8016 -13.7462 0
    endloop
  endfacet
  facet normal -0.881922 0.471395 0
    outer loop
      vertex 14.8016 -13.7462 1
      vertex 14.6214 -14.0834 0
      vertex 14.6214 -14.0834 1
    endloop
  endfacet
  facet normal 0.471395 0.881922 -0
    outer loop
      vertex 12.2538 -14.8016 0
      vertex 11.9166 -14.6214 1
      vertex 12.2538 -14.8016 1
    endloop
  endfacet
  facet normal 0.471395 0.881922 0
    outer loop
      vertex 11.9166 -14.6214 1
      vertex 12.2538 -14.8016 0
      vertex 11.9166 -14.6214 0
    endloop
  endfacet
  facet normal 0.77301 0.634394 0
    outer loop
      vertex 11.6211 -14.3789 1
      vertex 11.3786 -14.0834 0
      vertex 11.3786 -14.0834 1
    endloop
  endfacet
  facet normal 0.77301 0.634394 0
    outer loop
      vertex 11.3786 -14.0834 0
      vertex 11.6211 -14.3789 1
      vertex 11.6211 -14.3789 0
    endloop
  endfacet
  facet normal 0.634394 0.77301 -0
    outer loop
      vertex 11.9166 -14.6214 0
      vertex 11.6211 -14.3789 1
      vertex 11.9166 -14.6214 1
    endloop
  endfacet
  facet normal 0.634394 0.77301 0
    outer loop
      vertex 11.6211 -14.3789 1
      vertex 11.9166 -14.6214 0
      vertex 11.6211 -14.3789 0
    endloop
  endfacet
  facet normal -0.634394 0.77301 0
    outer loop
      vertex 14.3789 -14.3789 0
      vertex 14.0834 -14.6214 1
      vertex 14.3789 -14.3789 1
    endloop
  endfacet
  facet normal -0.634394 0.77301 0
    outer loop
      vertex 14.0834 -14.6214 1
      vertex 14.3789 -14.3789 0
      vertex 14.0834 -14.6214 0
    endloop
  endfacet
  facet normal -0.95694 0.290286 0
    outer loop
      vertex 14.8016 -13.7462 0
      vertex 14.9125 -13.3804 1
      vertex 14.9125 -13.3804 0
    endloop
  endfacet
  facet normal -0.95694 0.290286 0
    outer loop
      vertex 14.9125 -13.3804 1
      vertex 14.8016 -13.7462 0
      vertex 14.8016 -13.7462 1
    endloop
  endfacet
  facet normal 0.0980176 0.995185 -0
    outer loop
      vertex 13 -14.95 0
      vertex 12.6196 -14.9125 1
      vertex 13 -14.95 1
    endloop
  endfacet
  facet normal 0.0980176 0.995185 0
    outer loop
      vertex 12.6196 -14.9125 1
      vertex 13 -14.95 0
      vertex 12.6196 -14.9125 0
    endloop
  endfacet
  facet normal 0.881922 0.471395 0
    outer loop
      vertex 11.3786 -14.0834 1
      vertex 11.1984 -13.7462 0
      vertex 11.1984 -13.7462 1
    endloop
  endfacet
  facet normal 0.881922 0.471395 0
    outer loop
      vertex 11.1984 -13.7462 0
      vertex 11.3786 -14.0834 1
      vertex 11.3786 -14.0834 0
    endloop
  endfacet
  facet normal 0.95694 0.290286 0
    outer loop
      vertex 11.1984 -13.7462 1
      vertex 11.0875 -13.3804 0
      vertex 11.0875 -13.3804 1
    endloop
  endfacet
  facet normal 0.95694 0.290286 0
    outer loop
      vertex 11.0875 -13.3804 0
      vertex 11.1984 -13.7462 1
      vertex 11.1984 -13.7462 0
    endloop
  endfacet
  facet normal -0.471395 0.881922 0
    outer loop
      vertex 14.0834 -14.6214 0
      vertex 13.7462 -14.8016 1
      vertex 14.0834 -14.6214 1
    endloop
  endfacet
  facet normal -0.471395 0.881922 0
    outer loop
      vertex 13.7462 -14.8016 1
      vertex 14.0834 -14.6214 0
      vertex 13.7462 -14.8016 0
    endloop
  endfacet
  facet normal -0.290286 0.95694 0
    outer loop
      vertex 13.7462 -14.8016 0
      vertex 13.3804 -14.9125 1
      vertex 13.7462 -14.8016 1
    endloop
  endfacet
  facet normal -0.290286 0.95694 0
    outer loop
      vertex 13.3804 -14.9125 1
      vertex 13.7462 -14.8016 0
      vertex 13.3804 -14.9125 0
    endloop
  endfacet
  facet normal -0.77301 0.634394 0
    outer loop
      vertex 14.3789 -14.3789 0
      vertex 14.6214 -14.0834 1
      vertex 14.6214 -14.0834 0
    endloop
  endfacet
  facet normal -0.77301 0.634394 0
    outer loop
      vertex 14.6214 -14.0834 1
      vertex 14.3789 -14.3789 0
      vertex 14.3789 -14.3789 1
    endloop
  endfacet
  facet normal 0.290286 0.95694 -0
    outer loop
      vertex 12.6196 -14.9125 0
      vertex 12.2538 -14.8016 1
      vertex 12.6196 -14.9125 1
    endloop
  endfacet
  facet normal 0.290286 0.95694 0
    outer loop
      vertex 12.2538 -14.8016 1
      vertex 12.6196 -14.9125 0
      vertex 12.2538 -14.8016 0
    endloop
  endfacet
  facet normal -0.995185 -0.0980178 0
    outer loop
      vertex 14.95 13 0
      vertex 14.9125 13.3804 1
      vertex 14.9125 13.3804 0
    endloop
  endfacet
  facet normal -0.995185 -0.0980178 0
    outer loop
      vertex 14.9125 13.3804 1
      vertex 14.95 13 0
      vertex 14.95 13 1
    endloop
  endfacet
  facet normal 0.0980176 -0.995185 0
    outer loop
      vertex 12.6196 14.9125 0
      vertex 13 14.95 1
      vertex 12.6196 14.9125 1
    endloop
  endfacet
  facet normal 0.0980176 -0.995185 0
    outer loop
      vertex 13 14.95 1
      vertex 12.6196 14.9125 0
      vertex 13 14.95 0
    endloop
  endfacet
  facet normal -0.634394 -0.77301 0
    outer loop
      vertex 14.0834 14.6214 0
      vertex 14.3789 14.3789 1
      vertex 14.0834 14.6214 1
    endloop
  endfacet
  facet normal -0.634394 -0.77301 -0
    outer loop
      vertex 14.3789 14.3789 1
      vertex 14.0834 14.6214 0
      vertex 14.3789 14.3789 0
    endloop
  endfacet
  facet normal 0.77301 -0.634394 0
    outer loop
      vertex 11.3786 14.0834 1
      vertex 11.6211 14.3789 0
      vertex 11.6211 14.3789 1
    endloop
  endfacet
  facet normal 0.77301 -0.634394 0
    outer loop
      vertex 11.6211 14.3789 0
      vertex 11.3786 14.0834 1
      vertex 11.3786 14.0834 0
    endloop
  endfacet
  facet normal 0.471395 -0.881922 0
    outer loop
      vertex 11.9166 14.6214 0
      vertex 12.2538 14.8016 1
      vertex 11.9166 14.6214 1
    endloop
  endfacet
  facet normal 0.471395 -0.881922 0
    outer loop
      vertex 12.2538 14.8016 1
      vertex 11.9166 14.6214 0
      vertex 12.2538 14.8016 0
    endloop
  endfacet
  facet normal -0.881922 -0.471395 0
    outer loop
      vertex 14.8016 13.7462 0
      vertex 14.6214 14.0834 1
      vertex 14.6214 14.0834 0
    endloop
  endfacet
  facet normal -0.881922 -0.471395 0
    outer loop
      vertex 14.6214 14.0834 1
      vertex 14.8016 13.7462 0
      vertex 14.8016 13.7462 1
    endloop
  endfacet
  facet normal -0.95694 -0.290286 0
    outer loop
      vertex 14.9125 13.3804 0
      vertex 14.8016 13.7462 1
      vertex 14.8016 13.7462 0
    endloop
  endfacet
  facet normal -0.95694 -0.290286 0
    outer loop
      vertex 14.8016 13.7462 1
      vertex 14.9125 13.3804 0
      vertex 14.9125 13.3804 1
    endloop
  endfacet
  facet normal -0.77301 -0.634394 0
    outer loop
      vertex 14.6214 14.0834 0
      vertex 14.3789 14.3789 1
      vertex 14.3789 14.3789 0
    endloop
  endfacet
  facet normal -0.77301 -0.634394 0
    outer loop
      vertex 14.3789 14.3789 1
      vertex 14.6214 14.0834 0
      vertex 14.6214 14.0834 1
    endloop
  endfacet
  facet normal -0.290286 -0.95694 0
    outer loop
      vertex 13.3804 14.9125 0
      vertex 13.7462 14.8016 1
      vertex 13.3804 14.9125 1
    endloop
  endfacet
  facet normal -0.290286 -0.95694 -0
    outer loop
      vertex 13.7462 14.8016 1
      vertex 13.3804 14.9125 0
      vertex 13.7462 14.8016 0
    endloop
  endfacet
  facet normal -0.0980178 -0.995185 0
    outer loop
      vertex 13 14.95 0
      vertex 13.3804 14.9125 1
      vertex 13 14.95 1
    endloop
  endfacet
  facet normal -0.0980178 -0.995185 -0
    outer loop
      vertex 13.3804 14.9125 1
      vertex 13 14.95 0
      vertex 13.3804 14.9125 0
    endloop
  endfacet
  facet normal -0.471395 -0.881922 0
    outer loop
      vertex 13.7462 14.8016 0
      vertex 14.0834 14.6214 1
      vertex 13.7462 14.8016 1
    endloop
  endfacet
  facet normal -0.471395 -0.881922 -0
    outer loop
      vertex 14.0834 14.6214 1
      vertex 13.7462 14.8016 0
      vertex 14.0834 14.6214 0
    endloop
  endfacet
  facet normal 0.95694 -0.290286 0
    outer loop
      vertex 11.0875 13.3804 1
      vertex 11.1984 13.7462 0
      vertex 11.1984 13.7462 1
    endloop
  endfacet
  facet normal 0.95694 -0.290286 0
    outer loop
      vertex 11.1984 13.7462 0
      vertex 11.0875 13.3804 1
      vertex 11.0875 13.3804 0
    endloop
  endfacet
  facet normal 0.881922 -0.471395 0
    outer loop
      vertex 11.1984 13.7462 1
      vertex 11.3786 14.0834 0
      vertex 11.3786 14.0834 1
    endloop
  endfacet
  facet normal 0.881922 -0.471395 0
    outer loop
      vertex 11.3786 14.0834 0
      vertex 11.1984 13.7462 1
      vertex 11.1984 13.7462 0
    endloop
  endfacet
  facet normal 0.995185 -0.0980178 0
    outer loop
      vertex 11.05 13 1
      vertex 11.0875 13.3804 0
      vertex 11.0875 13.3804 1
    endloop
  endfacet
  facet normal 0.995185 -0.0980178 0
    outer loop
      vertex 11.0875 13.3804 0
      vertex 11.05 13 1
      vertex 11.05 13 0
    endloop
  endfacet
  facet normal 0.634394 -0.77301 0
    outer loop
      vertex 11.6211 14.3789 0
      vertex 11.9166 14.6214 1
      vertex 11.6211 14.3789 1
    endloop
  endfacet
  facet normal 0.634394 -0.77301 0
    outer loop
      vertex 11.9166 14.6214 1
      vertex 11.6211 14.3789 0
      vertex 11.9166 14.6214 0
    endloop
  endfacet
  facet normal 0.290286 -0.95694 0
    outer loop
      vertex 12.2538 14.8016 0
      vertex 12.6196 14.9125 1
      vertex 12.2538 14.8016 1
    endloop
  endfacet
  facet normal 0.290286 -0.95694 0
    outer loop
      vertex 12.6196 14.9125 1
      vertex 12.2538 14.8016 0
      vertex 12.6196 14.9125 0
    endloop
  endfacet
  facet normal -0.881922 0.471395 0
    outer loop
      vertex 14.6214 11.9166 0
      vertex 14.8016 12.2538 1
      vertex 14.8016 12.2538 0
    endloop
  endfacet
  facet normal -0.881922 0.471395 0
    outer loop
      vertex 14.8016 12.2538 1
      vertex 14.6214 11.9166 0
      vertex 14.6214 11.9166 1
    endloop
  endfacet
  facet normal -0.995185 0.0980176 0
    outer loop
      vertex 14.9125 12.6196 0
      vertex 14.95 13 1
      vertex 14.95 13 0
    endloop
  endfacet
  facet normal -0.995185 0.0980176 0
    outer loop
      vertex 14.95 13 1
      vertex 14.9125 12.6196 0
      vertex 14.9125 12.6196 1
    endloop
  endfacet
  facet normal 0.0980176 0.995185 -0
    outer loop
      vertex 13 11.05 0
      vertex 12.6196 11.0875 1
      vertex 13 11.05 1
    endloop
  endfacet
  facet normal 0.0980176 0.995185 0
    outer loop
      vertex 12.6196 11.0875 1
      vertex 13 11.05 0
      vertex 12.6196 11.0875 0
    endloop
  endfacet
  facet normal 0.995185 0.0980176 0
    outer loop
      vertex 11.0875 12.6196 1
      vertex 11.05 13 0
      vertex 11.05 13 1
    endloop
  endfacet
  facet normal 0.995185 0.0980176 0
    outer loop
      vertex 11.05 13 0
      vertex 11.0875 12.6196 1
      vertex 11.0875 12.6196 0
    endloop
  endfacet
  facet normal -0.634394 0.77301 0
    outer loop
      vertex 14.3789 11.6211 0
      vertex 14.0834 11.3786 1
      vertex 14.3789 11.6211 1
    endloop
  endfacet
  facet normal -0.634394 0.77301 0
    outer loop
      vertex 14.0834 11.3786 1
      vertex 14.3789 11.6211 0
      vertex 14.0834 11.3786 0
    endloop
  endfacet
  facet normal 0.290286 0.95694 -0
    outer loop
      vertex 12.6196 11.0875 0
      vertex 12.2538 11.1984 1
      vertex 12.6196 11.0875 1
    endloop
  endfacet
  facet normal 0.290286 0.95694 0
    outer loop
      vertex 12.2538 11.1984 1
      vertex 12.6196 11.0875 0
      vertex 12.2538 11.1984 0
    endloop
  endfacet
  facet normal 0.77301 0.634394 0
    outer loop
      vertex 11.6211 11.6211 1
      vertex 11.3786 11.9166 0
      vertex 11.3786 11.9166 1
    endloop
  endfacet
  facet normal 0.77301 0.634394 0
    outer loop
      vertex 11.3786 11.9166 0
      vertex 11.6211 11.6211 1
      vertex 11.6211 11.6211 0
    endloop
  endfacet
  facet normal 0.95694 0.290286 0
    outer loop
      vertex 11.1984 12.2538 1
      vertex 11.0875 12.6196 0
      vertex 11.0875 12.6196 1
    endloop
  endfacet
  facet normal 0.95694 0.290286 0
    outer loop
      vertex 11.0875 12.6196 0
      vertex 11.1984 12.2538 1
      vertex 11.1984 12.2538 0
    endloop
  endfacet
  facet normal 0.881922 0.471395 0
    outer loop
      vertex 11.3786 11.9166 1
      vertex 11.1984 12.2538 0
      vertex 11.1984 12.2538 1
    endloop
  endfacet
  facet normal 0.881922 0.471395 0
    outer loop
      vertex 11.1984 12.2538 0
      vertex 11.3786 11.9166 1
      vertex 11.3786 11.9166 0
    endloop
  endfacet
  facet normal -0.290286 0.95694 0
    outer loop
      vertex 13.7462 11.1984 0
      vertex 13.3804 11.0875 1
      vertex 13.7462 11.1984 1
    endloop
  endfacet
  facet normal -0.290286 0.95694 0
    outer loop
      vertex 13.3804 11.0875 1
      vertex 13.7462 11.1984 0
      vertex 13.3804 11.0875 0
    endloop
  endfacet
  facet normal -0.77301 0.634394 0
    outer loop
      vertex 14.3789 11.6211 0
      vertex 14.6214 11.9166 1
      vertex 14.6214 11.9166 0
    endloop
  endfacet
  facet normal -0.77301 0.634394 0
    outer loop
      vertex 14.6214 11.9166 1
      vertex 14.3789 11.6211 0
      vertex 14.3789 11.6211 1
    endloop
  endfacet
  facet normal -0.95694 0.290286 0
    outer loop
      vertex 14.8016 12.2538 0
      vertex 14.9125 12.6196 1
      vertex 14.9125 12.6196 0
    endloop
  endfacet
  facet normal -0.95694 0.290286 0
    outer loop
      vertex 14.9125 12.6196 1
      vertex 14.8016 12.2538 0
      vertex 14.8016 12.2538 1
    endloop
  endfacet
  facet normal -0.0980178 0.995185 0
    outer loop
      vertex 13.3804 11.0875 0
      vertex 13 11.05 1
      vertex 13.3804 11.0875 1
    endloop
  endfacet
  facet normal -0.0980178 0.995185 0
    outer loop
      vertex 13 11.05 1
      vertex 13.3804 11.0875 0
      vertex 13 11.05 0
    endloop
  endfacet
  facet normal 0.471395 0.881922 -0
    outer loop
      vertex 12.2538 11.1984 0
      vertex 11.9166 11.3786 1
      vertex 12.2538 11.1984 1
    endloop
  endfacet
  facet normal 0.471395 0.881922 0
    outer loop
      vertex 11.9166 11.3786 1
      vertex 12.2538 11.1984 0
      vertex 11.9166 11.3786 0
    endloop
  endfacet
  facet normal 0.634394 0.77301 -0
    outer loop
      vertex 11.9166 11.3786 0
      vertex 11.6211 11.6211 1
      vertex 11.9166 11.3786 1
    endloop
  endfacet
  facet normal 0.634394 0.77301 0
    outer loop
      vertex 11.6211 11.6211 1
      vertex 11.9166 11.3786 0
      vertex 11.6211 11.6211 0
    endloop
  endfacet
  facet normal -0.471395 0.881922 0
    outer loop
      vertex 14.0834 11.3786 0
      vertex 13.7462 11.1984 1
      vertex 14.0834 11.3786 1
    endloop
  endfacet
  facet normal -0.471395 0.881922 0
    outer loop
      vertex 13.7462 11.1984 1
      vertex 14.0834 11.3786 0
      vertex 13.7462 11.1984 0
    endloop
  endfacet
  facet normal -0.881922 -0.471395 0
    outer loop
      vertex -11.1984 13.7462 0
      vertex -11.3786 14.0834 1
      vertex -11.3786 14.0834 0
    endloop
  endfacet
  facet normal -0.881922 -0.471395 0
    outer loop
      vertex -11.3786 14.0834 1
      vertex -11.1984 13.7462 0
      vertex -11.1984 13.7462 1
    endloop
  endfacet
  facet normal 0.995185 -0.0980178 0
    outer loop
      vertex -14.95 13 1
      vertex -14.9125 13.3804 0
      vertex -14.9125 13.3804 1
    endloop
  endfacet
  facet normal 0.995185 -0.0980178 0
    outer loop
      vertex -14.9125 13.3804 0
      vertex -14.95 13 1
      vertex -14.95 13 0
    endloop
  endfacet
  facet normal -0.77301 -0.634394 0
    outer loop
      vertex -11.3786 14.0834 0
      vertex -11.6211 14.3789 1
      vertex -11.6211 14.3789 0
    endloop
  endfacet
  facet normal -0.77301 -0.634394 0
    outer loop
      vertex -11.6211 14.3789 1
      vertex -11.3786 14.0834 0
      vertex -11.3786 14.0834 1
    endloop
  endfacet
  facet normal -0.290286 -0.95694 0
    outer loop
      vertex -12.6196 14.9125 0
      vertex -12.2538 14.8016 1
      vertex -12.6196 14.9125 1
    endloop
  endfacet
  facet normal -0.290286 -0.95694 -0
    outer loop
      vertex -12.2538 14.8016 1
      vertex -12.6196 14.9125 0
      vertex -12.2538 14.8016 0
    endloop
  endfacet
  facet normal 0.471395 -0.881922 0
    outer loop
      vertex -14.0834 14.6214 0
      vertex -13.7462 14.8016 1
      vertex -14.0834 14.6214 1
    endloop
  endfacet
  facet normal 0.471395 -0.881922 0
    outer loop
      vertex -13.7462 14.8016 1
      vertex -14.0834 14.6214 0
      vertex -13.7462 14.8016 0
    endloop
  endfacet
  facet normal 0.95694 -0.290286 0
    outer loop
      vertex -14.9125 13.3804 1
      vertex -14.8016 13.7462 0
      vertex -14.8016 13.7462 1
    endloop
  endfacet
  facet normal 0.95694 -0.290286 0
    outer loop
      vertex -14.8016 13.7462 0
      vertex -14.9125 13.3804 1
      vertex -14.9125 13.3804 0
    endloop
  endfacet
  facet normal -0.995185 0.0980176 0
    outer loop
      vertex -11.0875 12.6196 0
      vertex -11.05 13 1
      vertex -11.05 13 0
    endloop
  endfacet
  facet normal -0.995185 0.0980176 0
    outer loop
      vertex -11.05 13 1
      vertex -11.0875 12.6196 0
      vertex -11.0875 12.6196 1
    endloop
  endfacet
  facet normal -0.290286 0.95694 0
    outer loop
      vertex -12.2538 11.1984 0
      vertex -12.6196 11.0875 1
      vertex -12.2538 11.1984 1
    endloop
  endfacet
  facet normal -0.290286 0.95694 0
    outer loop
      vertex -12.6196 11.0875 1
      vertex -12.2538 11.1984 0
      vertex -12.6196 11.0875 0
    endloop
  endfacet
  facet normal -0.95694 -0.290286 0
    outer loop
      vertex -11.0875 13.3804 0
      vertex -11.1984 13.7462 1
      vertex -11.1984 13.7462 0
    endloop
  endfacet
  facet normal -0.95694 -0.290286 0
    outer loop
      vertex -11.1984 13.7462 1
      vertex -11.0875 13.3804 0
      vertex -11.0875 13.3804 1
    endloop
  endfacet
  facet normal -0.634394 -0.77301 0
    outer loop
      vertex -11.9166 14.6214 0
      vertex -11.6211 14.3789 1
      vertex -11.9166 14.6214 1
    endloop
  endfacet
  facet normal -0.634394 -0.77301 -0
    outer loop
      vertex -11.6211 14.3789 1
      vertex -11.9166 14.6214 0
      vertex -11.6211 14.3789 0
    endloop
  endfacet
  facet normal 0.0980176 -0.995185 0
    outer loop
      vertex -13.3804 14.9125 0
      vertex -13 14.95 1
      vertex -13.3804 14.9125 1
    endloop
  endfacet
  facet normal 0.0980176 -0.995185 0
    outer loop
      vertex -13 14.95 1
      vertex -13.3804 14.9125 0
      vertex -13 14.95 0
    endloop
  endfacet
  facet normal -0.471395 -0.881922 0
    outer loop
      vertex -12.2538 14.8016 0
      vertex -11.9166 14.6214 1
      vertex -12.2538 14.8016 1
    endloop
  endfacet
  facet normal -0.471395 -0.881922 -0
    outer loop
      vertex -11.9166 14.6214 1
      vertex -12.2538 14.8016 0
      vertex -11.9166 14.6214 0
    endloop
  endfacet
  facet normal 0.995185 0.0980176 0
    outer loop
      vertex -14.9125 12.6196 1
      vertex -14.95 13 0
      vertex -14.95 13 1
    endloop
  endfacet
  facet normal 0.995185 0.0980176 0
    outer loop
      vertex -14.95 13 0
      vertex -14.9125 12.6196 1
      vertex -14.9125 12.6196 0
    endloop
  endfacet
  facet normal 0.881922 -0.471395 0
    outer loop
      vertex -14.8016 13.7462 1
      vertex -14.6214 14.0834 0
      vertex -14.6214 14.0834 1
    endloop
  endfacet
  facet normal 0.881922 -0.471395 0
    outer loop
      vertex -14.6214 14.0834 0
      vertex -14.8016 13.7462 1
      vertex -14.8016 13.7462 0
    endloop
  endfacet
  facet normal 0.634394 -0.77301 0
    outer loop
      vertex -14.3789 14.3789 0
      vertex -14.0834 14.6214 1
      vertex -14.3789 14.3789 1
    endloop
  endfacet
  facet normal 0.634394 -0.77301 0
    outer loop
      vertex -14.0834 14.6214 1
      vertex -14.3789 14.3789 0
      vertex -14.0834 14.6214 0
    endloop
  endfacet
  facet normal 0.290286 -0.95694 0
    outer loop
      vertex -13.7462 14.8016 0
      vertex -13.3804 14.9125 1
      vertex -13.7462 14.8016 1
    endloop
  endfacet
  facet normal 0.290286 -0.95694 0
    outer loop
      vertex -13.3804 14.9125 1
      vertex -13.7462 14.8016 0
      vertex -13.3804 14.9125 0
    endloop
  endfacet
  facet normal 0.77301 -0.634394 0
    outer loop
      vertex -14.6214 14.0834 1
      vertex -14.3789 14.3789 0
      vertex -14.3789 14.3789 1
    endloop
  endfacet
  facet normal 0.77301 -0.634394 0
    outer loop
      vertex -14.3789 14.3789 0
      vertex -14.6214 14.0834 1
      vertex -14.6214 14.0834 0
    endloop
  endfacet
  facet normal -0.995185 -0.0980178 0
    outer loop
      vertex -11.05 13 0
      vertex -11.0875 13.3804 1
      vertex -11.0875 13.3804 0
    endloop
  endfacet
  facet normal -0.995185 -0.0980178 0
    outer loop
      vertex -11.0875 13.3804 1
      vertex -11.05 13 0
      vertex -11.05 13 1
    endloop
  endfacet
  facet normal -0.634394 0.77301 0
    outer loop
      vertex -11.6211 11.6211 0
      vertex -11.9166 11.3786 1
      vertex -11.6211 11.6211 1
    endloop
  endfacet
  facet normal -0.634394 0.77301 0
    outer loop
      vertex -11.9166 11.3786 1
      vertex -11.6211 11.6211 0
      vertex -11.9166 11.3786 0
    endloop
  endfacet
  facet normal -0.881922 0.471395 0
    outer loop
      vertex -11.3786 11.9166 0
      vertex -11.1984 12.2538 1
      vertex -11.1984 12.2538 0
    endloop
  endfacet
  facet normal -0.881922 0.471395 0
    outer loop
      vertex -11.1984 12.2538 1
      vertex -11.3786 11.9166 0
      vertex -11.3786 11.9166 1
    endloop
  endfacet
  facet normal -0.0980178 -0.995185 0
    outer loop
      vertex -13 14.95 0
      vertex -12.6196 14.9125 1
      vertex -13 14.95 1
    endloop
  endfacet
  facet normal -0.0980178 -0.995185 -0
    outer loop
      vertex -12.6196 14.9125 1
      vertex -13 14.95 0
      vertex -12.6196 14.9125 0
    endloop
  endfacet
  facet normal 0.0980178 0.995185 -0
    outer loop
      vertex -13 11.05 0
      vertex -13.3804 11.0875 1
      vertex -13 11.05 1
    endloop
  endfacet
  facet normal 0.0980178 0.995185 0
    outer loop
      vertex -13.3804 11.0875 1
      vertex -13 11.05 0
      vertex -13.3804 11.0875 0
    endloop
  endfacet
  facet normal 0.95694 0.290286 0
    outer loop
      vertex -14.8016 12.2538 1
      vertex -14.9125 12.6196 0
      vertex -14.9125 12.6196 1
    endloop
  endfacet
  facet normal 0.95694 0.290286 0
    outer loop
      vertex -14.9125 12.6196 0
      vertex -14.8016 12.2538 1
      vertex -14.8016 12.2538 0
    endloop
  endfacet
  facet normal -0.95694 0.290286 0
    outer loop
      vertex -11.1984 12.2538 0
      vertex -11.0875 12.6196 1
      vertex -11.0875 12.6196 0
    endloop
  endfacet
  facet normal -0.95694 0.290286 0
    outer loop
      vertex -11.0875 12.6196 1
      vertex -11.1984 12.2538 0
      vertex -11.1984 12.2538 1
    endloop
  endfacet
  facet normal 0.471395 0.881922 -0
    outer loop
      vertex -13.7462 11.1984 0
      vertex -14.0834 11.3786 1
      vertex -13.7462 11.1984 1
    endloop
  endfacet
  facet normal 0.471395 0.881922 0
    outer loop
      vertex -14.0834 11.3786 1
      vertex -13.7462 11.1984 0
      vertex -14.0834 11.3786 0
    endloop
  endfacet
  facet normal -0.0980176 0.995185 0
    outer loop
      vertex -12.6196 11.0875 0
      vertex -13 11.05 1
      vertex -12.6196 11.0875 1
    endloop
  endfacet
  facet normal -0.0980176 0.995185 0
    outer loop
      vertex -13 11.05 1
      vertex -12.6196 11.0875 0
      vertex -13 11.05 0
    endloop
  endfacet
  facet normal 0.290286 0.95694 -0
    outer loop
      vertex -13.3804 11.0875 0
      vertex -13.7462 11.1984 1
      vertex -13.3804 11.0875 1
    endloop
  endfacet
  facet normal 0.290286 0.95694 0
    outer loop
      vertex -13.7462 11.1984 1
      vertex -13.3804 11.0875 0
      vertex -13.7462 11.1984 0
    endloop
  endfacet
  facet normal 0.881922 0.471395 0
    outer loop
      vertex -14.6214 11.9166 1
      vertex -14.8016 12.2538 0
      vertex -14.8016 12.2538 1
    endloop
  endfacet
  facet normal 0.881922 0.471395 0
    outer loop
      vertex -14.8016 12.2538 0
      vertex -14.6214 11.9166 1
      vertex -14.6214 11.9166 0
    endloop
  endfacet
  facet normal 0.634394 0.77301 -0
    outer loop
      vertex -14.0834 11.3786 0
      vertex -14.3789 11.6211 1
      vertex -14.0834 11.3786 1
    endloop
  endfacet
  facet normal 0.634394 0.77301 0
    outer loop
      vertex -14.3789 11.6211 1
      vertex -14.0834 11.3786 0
      vertex -14.3789 11.6211 0
    endloop
  endfacet
  facet normal 0.77301 0.634394 0
    outer loop
      vertex -14.3789 11.6211 1
      vertex -14.6214 11.9166 0
      vertex -14.6214 11.9166 1
    endloop
  endfacet
  facet normal 0.77301 0.634394 0
    outer loop
      vertex -14.6214 11.9166 0
      vertex -14.3789 11.6211 1
      vertex -14.3789 11.6211 0
    endloop
  endfacet
  facet normal -0.471395 0.881922 0
    outer loop
      vertex -11.9166 11.3786 0
      vertex -12.2538 11.1984 1
      vertex -11.9166 11.3786 1
    endloop
  endfacet
  facet normal -0.471395 0.881922 0
    outer loop
      vertex -12.2538 11.1984 1
      vertex -11.9166 11.3786 0
      vertex -12.2538 11.1984 0
    endloop
  endfacet
  facet normal -0.77301 0.634394 0
    outer loop
      vertex -11.6211 11.6211 0
      vertex -11.3786 11.9166 1
      vertex -11.3786 11.9166 0
    endloop
  endfacet
  facet normal -0.77301 0.634394 0
    outer loop
      vertex -11.3786 11.9166 1
      vertex -11.6211 11.6211 0
      vertex -11.6211 11.6211 1
    endloop
  endfacet
  facet normal -1 0 0
    outer loop
      vertex -17 -8.15 0
      vertex -17 14.1127 1
      vertex -17 14.1127 0
    endloop
  endfacet
  facet normal -1 -0 0
    outer loop
      vertex -17 14.1127 1
      vertex -17 -8.15 0
      vertex -17 -8.15 1
    endloop
  endfacet
  facet normal 0 -1 0
    outer loop
      vertex -14.1127 -17 0
      vertex 8.15 -17 1
      vertex -14.1127 -17 1
    endloop
  endfacet
  facet normal 0 -1 -0
    outer loop
      vertex 8.15 -17 1
      vertex -14.1127 -17 0
      vertex 8.15 -17 0
    endloop
  endfacet
  facet normal 1 -0 0
    outer loop
      vertex -11.5 -8 1
      vertex -11.5 8 0
      vertex -11.5 8 1
    endloop
  endfacet
  facet normal 1 0 0
    outer loop
      vertex -11.5 8 0
      vertex -11.5 -8 1
      vertex -11.5 -8 0
    endloop
  endfacet
  facet normal -1 0 0
    outer loop
      vertex 11.5 -8 0
      vertex 11.5 8 1
      vertex 11.5 8 0
    endloop
  endfacet
  facet normal -1 -0 0
    outer loop
      vertex 11.5 8 1
      vertex 11.5 -8 0
      vertex 11.5 -8 1
    endloop
  endfacet
  facet normal 1 -0 0
    outer loop
      vertex -5.25 -13 1
      vertex -5.25 -9.9 0
      vertex -5.25 -9.9 1
    endloop
  endfacet
  facet normal 1 0 0
    outer loop
      vertex -5.25 -9.9 0
      vertex -5.25 -13 1
      vertex -5.25 -13 0
    endloop
  endfacet
  facet normal -1 0 0
    outer loop
      vertex 5.25 -13 0
      vertex 5.25 -9.9 1
      vertex 5.25 -9.9 0
    endloop
  endfacet
  facet normal -1 -0 0
    outer loop
      vertex 5.25 -9.9 1
      vertex 5.25 -13 0
      vertex 5.25 -13 1
    endloop
  endfacet
  facet normal 0 -1 0
    outer loop
      vertex -5.25 -9.9 0
      vertex 5.25 -9.9 1
      vertex -5.25 -9.9 1
    endloop
  endfacet
  facet normal 0 -1 -0
    outer loop
      vertex 5.25 -9.9 1
      vertex -5.25 -9.9 0
      vertex 5.25 -9.9 0
    endloop
  endfacet
  facet normal 0 1 -0
    outer loop
      vertex 5.25 -13 0
      vertex -5.25 -13 1
      vertex 5.25 -13 1
    endloop
  endfacet
  facet normal 0 1 0
    outer loop
      vertex -5.25 -13 1
      vertex 5.25 -13 0
      vertex -5.25 -13 0
    endloop
  endfacet
  facet normal 0 -1 0
    outer loop
      vertex -11.5 8 0
      vertex 11.5 8 1
      vertex -11.5 8 1
    endloop
  endfacet
  facet normal 0 -1 -0
    outer loop
      vertex 11.5 8 1
      vertex -11.5 8 0
      vertex 11.5 8 0
    endloop
  endfacet
  facet normal 0 1 -0
    outer loop
      vertex 11.5 -8 0
      vertex -11.5 -8 1
      vertex 11.5 -8 1
    endloop
  endfacet
  facet normal 0 1 0
    outer loop
      vertex -11.5 -8 1
      vertex 11.5 -8 0
      vertex -11.5 -8 0
    endloop
  endfacet
  facet normal 0 0 1
    outer loop
      vertex -8.15 17 1
      vertex -11.0875 13.3804 1
      vertex -11.05 13 1
    endloop
  endfacet
  facet normal 0 0 1
    outer loop
      vertex -8.15 17 1
      vertex -11.1984 13.7462 1
      vertex -11.0875 13.3804 1
    endloop
  endfacet
  facet normal 0 0 1
    outer loop
      vertex -8.15 17 1
      vertex -11.3786 14.0834 1
      vertex -11.1984 13.7462 1
    endloop
  endfacet
  facet normal 0 0 1
    outer loop
      vertex -8.15 17 1
      vertex -11.6211 14.3789 1
      vertex -11.3786 14.0834 1
    endloop
  endfacet
  facet normal 0 0 1
    outer loop
      vertex -8.15 17 1
      vertex -11.9166 14.6214 1
      vertex -11.6211 14.3789 1
    endloop
  endfacet
  facet normal 0 0 1
    outer loop
      vertex -8.15 17 1
      vertex -12.2538 14.8016 1
      vertex -11.9166 14.6214 1
    endloop
  endfacet
  facet normal -0 0 1
    outer loop
      vertex -14.1127 17 1
      vertex -12.2538 14.8016 1
      vertex -8.15 17 1
    endloop
  endfacet
  facet normal 0 0 1
    outer loop
      vertex -12.2538 14.8016 1
      vertex -14.1127 17 1
      vertex -12.6196 14.9125 1
    endloop
  endfacet
  facet normal 0 0 1
    outer loop
      vertex -12.6196 14.9125 1
      vertex -14.1127 17 1
      vertex -13 14.95 1
    endloop
  endfacet
  facet normal 0 0 1
    outer loop
      vertex -13 14.95 1
      vertex -14.1127 17 1
      vertex -13.3804 14.9125 1
    endloop
  endfacet
  facet normal 0 0 1
    outer loop
      vertex -13.3804 14.9125 1
      vertex -14.1127 17 1
      vertex -13.7462 14.8016 1
    endloop
  endfacet
  facet normal 0 0 1
    outer loop
      vertex -14.1127 17 1
      vertex -14.0834 14.6214 1
      vertex -13.7462 14.8016 1
    endloop
  endfacet
  facet normal 0 0 1
    outer loop
      vertex -14.1127 17 1
      vertex -14.3789 14.3789 1
      vertex -14.0834 14.6214 1
    endloop
  endfacet
  facet normal 0 0 1
    outer loop
      vertex -17 14.1127 1
      vertex -14.3789 14.3789 1
      vertex -14.1127 17 1
    endloop
  endfacet
  facet normal 0 0 1
    outer loop
      vertex -14.3789 14.3789 1
      vertex -17 14.1127 1
      vertex -14.6214 14.0834 1
    endloop
  endfacet
  facet normal 0 0 1
    outer loop
      vertex -14.6214 14.0834 1
      vertex -17 14.1127 1
      vertex -14.8016 13.7462 1
    endloop
  endfacet
  facet normal 0 0 1
    outer loop
      vertex -17 -14.1127 1
      vertex -14.8016 -12.2538 1
      vertex -17 -8.15 1
    endloop
  endfacet
  facet normal 0 0 1
    outer loop
      vertex -14.9125 13.3804 1
      vertex -17 14.1127 1
      vertex -14.95 13 1
    endloop
  endfacet
  facet normal 0 0 1
    outer loop
      vertex -14.8016 13.7462 1
      vertex -17 14.1127 1
      vertex -14.9125 13.3804 1
    endloop
  endfacet
  facet normal 0 0 1
    outer loop
      vertex 11.0875 -13.3804 1
      vertex 5.25 -13 1
      vertex 8.15 -17 1
    endloop
  endfacet
  facet normal -0 0 1
    outer loop
      vertex -5.25 -13 1
      vertex 8.15 -17 1
      vertex 5.25 -13 1
    endloop
  endfacet
  facet normal 0 0 1
    outer loop
      vertex -11.0875 -13.3804 1
      vertex -5.25 -13 1
      vertex -11.05 -13 1
    endloop
  endfacet
  facet normal 0 0 1
    outer loop
      vertex -11.1984 -13.7462 1
      vertex -5.25 -13 1
      vertex -11.0875 -13.3804 1
    endloop
  endfacet
  facet normal 0 0 1
    outer loop
      vertex -11.3786 -14.0834 1
      vertex -5.25 -13 1
      vertex -11.1984 -13.7462 1
    endloop
  endfacet
  facet normal 0 0 1
    outer loop
      vertex -11.6211 -14.3789 1
      vertex -5.25 -13 1
      vertex -11.3786 -14.0834 1
    endloop
  endfacet
  facet normal 0 0 1
    outer loop
      vertex -11.9166 -14.6214 1
      vertex -5.25 -13 1
      vertex -11.6211 -14.3789 1
    endloop
  endfacet
  facet normal 0 0 1
    outer loop
      vertex -14.1127 -17 1
      vertex -5.25 -13 1
      vertex -11.9166 -14.6214 1
    endloop
  endfacet
  facet normal 0 0 1
    outer loop
      vertex -14.1127 -17 1
      vertex -11.9166 -14.6214 1
      vertex -12.2538 -14.8016 1
    endloop
  endfacet
  facet normal 0 0 1
    outer loop
      vertex -14.1127 -17 1
      vertex -12.2538 -14.8016 1
      vertex -12.6196 -14.9125 1
    endloop
  endfacet
  facet normal 0 0 1
    outer loop
      vertex -14.1127 -17 1
      vertex -12.6196 -14.9125 1
      vertex -13 -14.95 1
    endloop
  endfacet
  facet normal 0 0 1
    outer loop
      vertex -5.25 -13 1
      vertex -14.1127 -17 1
      vertex 8.15 -17 1
    endloop
  endfacet
  facet normal 0 0 1
    outer loop
      vertex -13.3804 -14.9125 1
      vertex -14.1127 -17 1
      vertex -13 -14.95 1
    endloop
  endfacet
  facet normal 0 0 1
    outer loop
      vertex -13.7462 -14.8016 1
      vertex -14.1127 -17 1
      vertex -13.3804 -14.9125 1
    endloop
  endfacet
  facet normal 0 0 1
    outer loop
      vertex -14.0834 -14.6214 1
      vertex -14.1127 -17 1
      vertex -13.7462 -14.8016 1
    endloop
  endfacet
  facet normal 0 0 1
    outer loop
      vertex -14.3789 -14.3789 1
      vertex -14.1127 -17 1
      vertex -14.0834 -14.6214 1
    endloop
  endfacet
  facet normal -0 0 1
    outer loop
      vertex -17 -14.1127 1
      vertex -14.3789 -14.3789 1
      vertex -14.6214 -14.0834 1
    endloop
  endfacet
  facet normal 0 0 1
    outer loop
      vertex -17 -14.1127 1
      vertex -14.6214 -14.0834 1
      vertex -14.8016 -13.7462 1
    endloop
  endfacet
  facet normal 0 0 1
    outer loop
      vertex -17 -14.1127 1
      vertex -14.8016 -13.7462 1
      vertex -14.9125 -13.3804 1
    endloop
  endfacet
  facet normal 0 0 1
    outer loop
      vertex -14.8016 -12.2538 1
      vertex -17 -14.1127 1
      vertex -14.9125 -12.6196 1
    endloop
  endfacet
  facet normal 0 0 1
    outer loop
      vertex -14.9125 -12.6196 1
      vertex -17 -14.1127 1
      vertex -14.95 -13 1
    endloop
  endfacet
  facet normal 0 0 1
    outer loop
      vertex -14.95 -13 1
      vertex -17 -14.1127 1
      vertex -14.9125 -13.3804 1
    endloop
  endfacet
  facet normal 0 0 1
    outer loop
      vertex -14.3789 -14.3789 1
      vertex -17 -14.1127 1
      vertex -14.1127 -17 1
    endloop
  endfacet
  facet normal 0 0 1
    outer loop
      vertex 17 14.1127 1
      vertex 14.8016 12.2538 1
      vertex 17 8.15 1
    endloop
  endfacet
  facet normal 0 0 1
    outer loop
      vertex 17 8.15 1
      vertex 14.9125 -12.6196 1
      vertex 14.95 -13 1
    endloop
  endfacet
  facet normal -0 0 1
    outer loop
      vertex 14.6214 11.9166 1
      vertex 17 8.15 1
      vertex 14.8016 12.2538 1
    endloop
  endfacet
  facet normal 0 0 1
    outer loop
      vertex 17 8.15 1
      vertex 14.8016 -12.2538 1
      vertex 14.9125 -12.6196 1
    endloop
  endfacet
  facet normal -0 0 1
    outer loop
      vertex 14.3789 11.6211 1
      vertex 17 8.15 1
      vertex 14.6214 11.9166 1
    endloop
  endfacet
  facet normal 0 0 1
    outer loop
      vertex 17 8.15 1
      vertex 14.6214 -11.9166 1
      vertex 14.8016 -12.2538 1
    endloop
  endfacet
  facet normal -0 0 1
    outer loop
      vertex 14.0834 11.3786 1
      vertex 17 8.15 1
      vertex 14.3789 11.6211 1
    endloop
  endfacet
  facet normal 0 0 1
    outer loop
      vertex 17 8.15 1
      vertex 14.3789 -11.6211 1
      vertex 14.6214 -11.9166 1
    endloop
  endfacet
  facet normal -0 0 1
    outer loop
      vertex 13.7462 11.1984 1
      vertex 17 8.15 1
      vertex 14.0834 11.3786 1
    endloop
  endfacet
  facet normal 0 0 1
    outer loop
      vertex 11.5 -8 1
      vertex 17 8.15 1
      vertex 11.5 8 1
    endloop
  endfacet
  facet normal -0 0 1
    outer loop
      vertex 13.3804 11.0875 1
      vertex 17 8.15 1
      vertex 13.7462 11.1984 1
    endloop
  endfacet
  facet normal 0 0 1
    outer loop
      vertex 17 8.15 1
      vertex 11.5 -8 1
      vertex 14.3789 -11.6211 1
    endloop
  endfacet
  facet normal 0 0 1
    outer loop
      vertex 17 8.15 1
      vertex 13.3804 11.0875 1
      vertex 11.5 8 1
    endloop
  endfacet
  facet normal 0 0 1
    outer loop
      vertex 14.3789 -11.6211 1
      vertex 11.5 -8 1
      vertex 14.0834 -11.3786 1
    endloop
  endfacet
  facet normal 0 0 1
    outer loop
      vertex 11.5 8 1
      vertex 13.3804 11.0875 1
      vertex 13 11.05 1
    endloop
  endfacet
  facet normal 0 0 1
    outer loop
      vertex 14.0834 -11.3786 1
      vertex 11.5 -8 1
      vertex 13.7462 -11.1984 1
    endloop
  endfacet
  facet normal 0 0 1
    outer loop
      vertex 11.5 8 1
      vertex 13 11.05 1
      vertex 12.6196 11.0875 1
    endloop
  endfacet
  facet normal 0 0 1
    outer loop
      vertex 13.7462 -11.1984 1
      vertex 11.5 -8 1
      vertex 13.3804 -11.0875 1
    endloop
  endfacet
  facet normal 0 0 1
    outer loop
      vertex 11.5 8 1
      vertex 12.6196 11.0875 1
      vertex 12.2538 11.1984 1
    endloop
  endfacet
  facet normal 0 0 1
    outer loop
      vertex 13.3804 -11.0875 1
      vertex 11.5 -8 1
      vertex 13 -11.05 1
    endloop
  endfacet
  facet normal 0 0 1
    outer loop
      vertex 11.5 8 1
      vertex 12.2538 11.1984 1
      vertex 11.9166 11.3786 1
    endloop
  endfacet
  facet normal 0 0 1
    outer loop
      vertex 13 -11.05 1
      vertex 11.5 -8 1
      vertex 12.6196 -11.0875 1
    endloop
  endfacet
  facet normal 0 0 1
    outer loop
      vertex 11.5 8 1
      vertex 11.9166 11.3786 1
      vertex 11.6211 11.6211 1
    endloop
  endfacet
  facet normal 0 0 1
    outer loop
      vertex 12.6196 -11.0875 1
      vertex 11.5 -8 1
      vertex 12.2538 -11.1984 1
    endloop
  endfacet
  facet normal 0 0 1
    outer loop
      vertex 12.2538 -11.1984 1
      vertex 11.5 -8 1
      vertex 11.9166 -11.3786 1
    endloop
  endfacet
  facet normal 0 0 1
    outer loop
      vertex 11.3786 11.9166 1
      vertex 11.5 8 1
      vertex 11.6211 11.6211 1
    endloop
  endfacet
  facet normal 0 0 1
    outer loop
      vertex 11.1984 12.2538 1
      vertex 11.5 8 1
      vertex 11.3786 11.9166 1
    endloop
  endfacet
  facet normal 0 0 1
    outer loop
      vertex 11.0875 12.6196 1
      vertex 11.5 8 1
      vertex 11.1984 12.2538 1
    endloop
  endfacet
  facet normal 0 0 1
    outer loop
      vertex -8.15 17 1
      vertex 11.0875 12.6196 1
      vertex 11.05 13 1
    endloop
  endfacet
  facet normal 0 0 1
    outer loop
      vertex 11.0875 12.6196 1
      vertex -8.15 17 1
      vertex 11.5 8 1
    endloop
  endfacet
  facet normal 0 0 1
    outer loop
      vertex -11.0875 12.6196 1
      vertex -8.15 17 1
      vertex -11.05 13 1
    endloop
  endfacet
  facet normal 0 0 1
    outer loop
      vertex -11.1984 12.2538 1
      vertex -8.15 17 1
      vertex -11.0875 12.6196 1
    endloop
  endfacet
  facet normal 0 0 1
    outer loop
      vertex -8.15 17 1
      vertex -11.1984 12.2538 1
      vertex -11.5 8 1
    endloop
  endfacet
  facet normal 0 0 1
    outer loop
      vertex -11.5 8 1
      vertex -11.1984 12.2538 1
      vertex -11.3786 11.9166 1
    endloop
  endfacet
  facet normal 0 0 1
    outer loop
      vertex -8.15 17 1
      vertex -11.5 8 1
      vertex 11.5 8 1
    endloop
  endfacet
  facet normal -0 0 1
    outer loop
      vertex -11.9166 11.3786 1
      vertex -11.5 8 1
      vertex -11.6211 11.6211 1
    endloop
  endfacet
  facet normal -0 0 1
    outer loop
      vertex -11.6211 11.6211 1
      vertex -11.5 8 1
      vertex -11.3786 11.9166 1
    endloop
  endfacet
  facet normal 0 0 1
    outer loop
      vertex 14.9125 12.6196 1
      vertex 17 14.1127 1
      vertex 14.95 13 1
    endloop
  endfacet
  facet normal 0 0 1
    outer loop
      vertex 14.8016 12.2538 1
      vertex 17 14.1127 1
      vertex 14.9125 12.6196 1
    endloop
  endfacet
  facet normal 0 0 1
    outer loop
      vertex 17 14.1127 1
      vertex 14.9125 13.3804 1
      vertex 14.95 13 1
    endloop
  endfacet
  facet normal 0 0 1
    outer loop
      vertex 17 14.1127 1
      vertex 14.8016 13.7462 1
      vertex 14.9125 13.3804 1
    endloop
  endfacet
  facet normal 0 0 1
    outer loop
      vertex 17 14.1127 1
      vertex 14.6214 14.0834 1
      vertex 14.8016 13.7462 1
    endloop
  endfacet
  facet normal 0 0 1
    outer loop
      vertex 17 14.1127 1
      vertex 14.3789 14.3789 1
      vertex 14.6214 14.0834 1
    endloop
  endfacet
  facet normal 0 0 1
    outer loop
      vertex 14.1127 17 1
      vertex 14.3789 14.3789 1
      vertex 17 14.1127 1
    endloop
  endfacet
  facet normal 0 0 1
    outer loop
      vertex 14.1127 17 1
      vertex 14.0834 14.6214 1
      vertex 14.3789 14.3789 1
    endloop
  endfacet
  facet normal 0 0 1
    outer loop
      vertex 14.1127 17 1
      vertex 13.7462 14.8016 1
      vertex 14.0834 14.6214 1
    endloop
  endfacet
  facet normal 0 0 1
    outer loop
      vertex 14.1127 17 1
      vertex 13.3804 14.9125 1
      vertex 13.7462 14.8016 1
    endloop
  endfacet
  facet normal 0 0 1
    outer loop
      vertex 14.1127 17 1
      vertex 13 14.95 1
      vertex 13.3804 14.9125 1
    endloop
  endfacet
  facet normal 0 0 1
    outer loop
      vertex 14.1127 17 1
      vertex 12.6196 14.9125 1
      vertex 13 14.95 1
    endloop
  endfacet
  facet normal 0 0 1
    outer loop
      vertex 14.1127 17 1
      vertex 12.2538 14.8016 1
      vertex 12.6196 14.9125 1
    endloop
  endfacet
  facet normal 0 0 1
    outer loop
      vertex 14.1127 17 1
      vertex 11.9166 14.6214 1
      vertex 12.2538 14.8016 1
    endloop
  endfacet
  facet normal 0 0 1
    outer loop
      vertex 14.1127 17 1
      vertex 11.6211 14.3789 1
      vertex 11.9166 14.6214 1
    endloop
  endfacet
  facet normal 0 0 1
    outer loop
      vertex 11.0875 13.3804 1
      vertex -8.15 17 1
      vertex 11.05 13 1
    endloop
  endfacet
  facet normal 0 0 1
    outer loop
      vertex 11.1984 13.7462 1
      vertex -8.15 17 1
      vertex 11.0875 13.3804 1
    endloop
  endfacet
  facet normal 0 0 1
    outer loop
      vertex 11.3786 14.0834 1
      vertex -8.15 17 1
      vertex 11.1984 13.7462 1
    endloop
  endfacet
  facet normal 0 0 1
    outer loop
      vertex 11.6211 14.3789 1
      vertex -8.15 17 1
      vertex 11.3786 14.0834 1
    endloop
  endfacet
  facet normal -0 0 1
    outer loop
      vertex -8.15 17 1
      vertex 11.6211 14.3789 1
      vertex 14.1127 17 1
    endloop
  endfacet
  facet normal 0 0 1
    outer loop
      vertex 17 8.15 1
      vertex 14.95 -13 1
      vertex 17 -14.1127 1
    endloop
  endfacet
  facet normal -0 0 1
    outer loop
      vertex 14.9125 -13.3804 1
      vertex 17 -14.1127 1
      vertex 14.95 -13 1
    endloop
  endfacet
  facet normal -0 0 1
    outer loop
      vertex 14.8016 -13.7462 1
      vertex 17 -14.1127 1
      vertex 14.9125 -13.3804 1
    endloop
  endfacet
  facet normal -0 0 1
    outer loop
      vertex 14.6214 -14.0834 1
      vertex 17 -14.1127 1
      vertex 14.8016 -13.7462 1
    endloop
  endfacet
  facet normal 0 0 1
    outer loop
      vertex 14.3789 -14.3789 1
      vertex 17 -14.1127 1
      vertex 14.6214 -14.0834 1
    endloop
  endfacet
  facet normal -0 0 1
    outer loop
      vertex 14.3789 -14.3789 1
      vertex 14.1127 -17 1
      vertex 17 -14.1127 1
    endloop
  endfacet
  facet normal -0 0 1
    outer loop
      vertex 14.0834 -14.6214 1
      vertex 14.1127 -17 1
      vertex 14.3789 -14.3789 1
    endloop
  endfacet
  facet normal -0 0 1
    outer loop
      vertex 13.7462 -14.8016 1
      vertex 14.1127 -17 1
      vertex 14.0834 -14.6214 1
    endloop
  endfacet
  facet normal -0 0 1
    outer loop
      vertex 13.3804 -14.9125 1
      vertex 14.1127 -17 1
      vertex 13.7462 -14.8016 1
    endloop
  endfacet
  facet normal -0 0 1
    outer loop
      vertex 13 -14.95 1
      vertex 14.1127 -17 1
      vertex 13.3804 -14.9125 1
    endloop
  endfacet
  facet normal 0 0 1
    outer loop
      vertex 12.6196 -14.9125 1
      vertex 14.1127 -17 1
      vertex 13 -14.95 1
    endloop
  endfacet
  facet normal 0 0 1
    outer loop
      vertex 12.2538 -14.8016 1
      vertex 14.1127 -17 1
      vertex 12.6196 -14.9125 1
    endloop
  endfacet
  facet normal 0 0 1
    outer loop
      vertex 8.15 -17 1
      vertex 12.2538 -14.8016 1
      vertex 11.9166 -14.6214 1
    endloop
  endfacet
  facet normal 0 0 1
    outer loop
      vertex 8.15 -17 1
      vertex 11.9166 -14.6214 1
      vertex 11.6211 -14.3789 1
    endloop
  endfacet
  facet normal 0 0 1
    outer loop
      vertex 12.2538 -14.8016 1
      vertex 8.15 -17 1
      vertex 14.1127 -17 1
    endloop
  endfacet
  facet normal 0 0 1
    outer loop
      vertex 11.3786 -14.0834 1
      vertex 8.15 -17 1
      vertex 11.6211 -14.3789 1
    endloop
  endfacet
  facet normal 0 0 1
    outer loop
      vertex 11.1984 -13.7462 1
      vertex 8.15 -17 1
      vertex 11.3786 -14.0834 1
    endloop
  endfacet
  facet normal 0 0 1
    outer loop
      vertex 11.0875 -13.3804 1
      vertex 8.15 -17 1
      vertex 11.1984 -13.7462 1
    endloop
  endfacet
  facet normal -0 0 1
    outer loop
      vertex 5.25 -13 1
      vertex 11.0875 -13.3804 1
      vertex 11.05 -13 1
    endloop
  endfacet
  facet normal 0 0 1
    outer loop
      vertex 11.9166 -11.3786 1
      vertex 11.5 -8 1
      vertex 11.6211 -11.6211 1
    endloop
  endfacet
  facet normal 0 0 1
    outer loop
      vertex 11.5 -8 1
      vertex 11.3786 -11.9166 1
      vertex 11.6211 -11.6211 1
    endloop
  endfacet
  facet normal -0 0 1
    outer loop
      vertex 5.25 -9.9 1
      vertex 11.3786 -11.9166 1
      vertex 11.5 -8 1
    endloop
  endfacet
  facet normal 0 0 1
    outer loop
      vertex 11.3786 -11.9166 1
      vertex 5.25 -9.9 1
      vertex 11.1984 -12.2538 1
    endloop
  endfacet
  facet normal 0 0 1
    outer loop
      vertex 5.25 -13 1
      vertex 11.1984 -12.2538 1
      vertex 5.25 -9.9 1
    endloop
  endfacet
  facet normal 0 0 1
    outer loop
      vertex 11.1984 -12.2538 1
      vertex 5.25 -13 1
      vertex 11.0875 -12.6196 1
    endloop
  endfacet
  facet normal 0 0 1
    outer loop
      vertex 11.0875 -12.6196 1
      vertex 5.25 -13 1
      vertex 11.05 -13 1
    endloop
  endfacet
  facet normal 0 0 1
    outer loop
      vertex 11.5 -8 1
      vertex -5.25 -9.9 1
      vertex 5.25 -9.9 1
    endloop
  endfacet
  facet normal -0 0 1
    outer loop
      vertex -11.1984 -12.2538 1
      vertex -5.25 -13 1
      vertex -5.25 -9.9 1
    endloop
  endfacet
  facet normal 0 0 1
    outer loop
      vertex -5.25 -13 1
      vertex -11.0875 -12.6196 1
      vertex -11.05 -13 1
    endloop
  endfacet
  facet normal 0 0 1
    outer loop
      vertex -5.25 -13 1
      vertex -11.1984 -12.2538 1
      vertex -11.0875 -12.6196 1
    endloop
  endfacet
  facet normal 0 0 1
    outer loop
      vertex -5.25 -9.9 1
      vertex -11.3786 -11.9166 1
      vertex -11.1984 -12.2538 1
    endloop
  endfacet
  facet normal -0 0 1
    outer loop
      vertex -11.5 -8 1
      vertex -5.25 -9.9 1
      vertex 11.5 -8 1
    endloop
  endfacet
  facet normal 0 0 1
    outer loop
      vertex -11.5 -8 1
      vertex -11.3786 -11.9166 1
      vertex -5.25 -9.9 1
    endloop
  endfacet
  facet normal 0 0 1
    outer loop
      vertex -11.5 -8 1
      vertex -11.6211 -11.6211 1
      vertex -11.3786 -11.9166 1
    endloop
  endfacet
  facet normal -0 0 1
    outer loop
      vertex -12.2538 11.1984 1
      vertex -11.5 8 1
      vertex -11.9166 11.3786 1
    endloop
  endfacet
  facet normal -0 0 1
    outer loop
      vertex -12.6196 11.0875 1
      vertex -11.5 8 1
      vertex -12.2538 11.1984 1
    endloop
  endfacet
  facet normal 0 0 1
    outer loop
      vertex -11.5 -8 1
      vertex -11.9166 -11.3786 1
      vertex -11.6211 -11.6211 1
    endloop
  endfacet
  facet normal -0 0 1
    outer loop
      vertex -13 11.05 1
      vertex -11.5 8 1
      vertex -12.6196 11.0875 1
    endloop
  endfacet
  facet normal 0 0 1
    outer loop
      vertex -11.5 -8 1
      vertex -12.2538 -11.1984 1
      vertex -11.9166 -11.3786 1
    endloop
  endfacet
  facet normal 0 0 1
    outer loop
      vertex -13.3804 11.0875 1
      vertex -11.5 8 1
      vertex -13 11.05 1
    endloop
  endfacet
  facet normal 0 0 1
    outer loop
      vertex -11.5 -8 1
      vertex -12.6196 -11.0875 1
      vertex -12.2538 -11.1984 1
    endloop
  endfacet
  facet normal 0 0 1
    outer loop
      vertex -11.5 -8 1
      vertex -13 -11.05 1
      vertex -12.6196 -11.0875 1
    endloop
  endfacet
  facet normal 0 0 1
    outer loop
      vertex -13.7462 11.1984 1
      vertex -11.5 8 1
      vertex -13.3804 11.0875 1
    endloop
  endfacet
  facet normal 0 0 1
    outer loop
      vertex -14.0834 11.3786 1
      vertex -11.5 8 1
      vertex -13.7462 11.1984 1
    endloop
  endfacet
  facet normal 0 0 1
    outer loop
      vertex -11.5 -8 1
      vertex -13.3804 -11.0875 1
      vertex -13 -11.05 1
    endloop
  endfacet
  facet normal 0 0 1
    outer loop
      vertex -14.3789 11.6211 1
      vertex -11.5 8 1
      vertex -14.0834 11.3786 1
    endloop
  endfacet
  facet normal -0 0 1
    outer loop
      vertex -17 -8.15 1
      vertex -13.3804 -11.0875 1
      vertex -11.5 -8 1
    endloop
  endfacet
  facet normal 0 0 1
    outer loop
      vertex -17 -8.15 1
      vertex -11.5 8 1
      vertex -14.3789 11.6211 1
    endloop
  endfacet
  facet normal 0 0 1
    outer loop
      vertex -13.3804 -11.0875 1
      vertex -17 -8.15 1
      vertex -13.7462 -11.1984 1
    endloop
  endfacet
  facet normal 0 0 1
    outer loop
      vertex -11.5 8 1
      vertex -17 -8.15 1
      vertex -11.5 -8 1
    endloop
  endfacet
  facet normal 0 0 1
    outer loop
      vertex -13.7462 -11.1984 1
      vertex -17 -8.15 1
      vertex -14.0834 -11.3786 1
    endloop
  endfacet
  facet normal 0 0 1
    outer loop
      vertex -17 14.1127 1
      vertex -14.3789 11.6211 1
      vertex -14.6214 11.9166 1
    endloop
  endfacet
  facet normal 0 0 1
    outer loop
      vertex -17 -8.15 1
      vertex -14.3789 11.6211 1
      vertex -17 14.1127 1
    endloop
  endfacet
  facet normal 0 0 1
    outer loop
      vertex -17 14.1127 1
      vertex -14.6214 11.9166 1
      vertex -14.8016 12.2538 1
    endloop
  endfacet
  facet normal 0 0 1
    outer loop
      vertex -14.0834 -11.3786 1
      vertex -17 -8.15 1
      vertex -14.3789 -11.6211 1
    endloop
  endfacet
  facet normal 0 0 1
    outer loop
      vertex -17 14.1127 1
      vertex -14.8016 12.2538 1
      vertex -14.9125 12.6196 1
    endloop
  endfacet
  facet normal 0 0 1
    outer loop
      vertex -14.3789 -11.6211 1
      vertex -17 -8.15 1
      vertex -14.6214 -11.9166 1
    endloop
  endfacet
  facet normal 0 0 1
    outer loop
      vertex -17 14.1127 1
      vertex -14.9125 12.6196 1
      vertex -14.95 13 1
    endloop
  endfacet
  facet normal 0 0 1
    outer loop
      vertex -14.6214 -11.9166 1
      vertex -17 -8.15 1
      vertex -14.8016 -12.2538 1
    endloop
  endfacet
endsolid OpenSCAD_Model
