solid OpenSCAD_Model
  facet normal -1 0 0
    outer loop
      vertex 0 3.33333 5
      vertex 0 5 15
      vertex 0 5 0
    endloop
  endfacet
  facet normal -1 0 0
    outer loop
      vertex 0 3.33333 17
      vertex 0 5 15
      vertex 0 3.33333 5
    endloop
  endfacet
  facet normal -1 0 0
    outer loop
      vertex 0 5 0
      vertex 0 1.66667 5
      vertex 0 3.33333 5
    endloop
  endfacet
  facet normal -1 0 0
    outer loop
      vertex 0 0 0
      vertex 0 1.66667 5
      vertex 0 5 0
    endloop
  endfacet
  facet normal -1 0 0
    outer loop
      vertex 0 0 15
      vertex 0 1.66667 5
      vertex 0 0 0
    endloop
  endfacet
  facet normal -1 0 0
    outer loop
      vertex 0 1.66667 5
      vertex 0 0 15
      vertex 0 1.66667 17
    endloop
  endfacet
  facet normal -1 0 0
    outer loop
      vertex 0 0 15
      vertex 0 0 17
      vertex 0 1.66667 17
    endloop
  endfacet
  facet normal -1 0 0
    outer loop
      vertex 0 -1 16
      vertex 0 0 15
      vertex 0 -1 15
    endloop
  endfacet
  facet normal -1 0 0
    outer loop
      vertex 0 0 15
      vertex 0 -1 16
      vertex 0 0 17
    endloop
  endfacet
  facet normal -1 0 0
    outer loop
      vertex 0 5 15
      vertex 0 6 16
      vertex 0 6 15
    endloop
  endfacet
  facet normal -1 -0 0
    outer loop
      vertex 0 6 16
      vertex 0 5 15
      vertex 0 5 17
    endloop
  endfacet
  facet normal -1 0 0
    outer loop
      vertex 0 5 15
      vertex 0 3.33333 17
      vertex 0 5 17
    endloop
  endfacet
  facet normal 1 0 0
    outer loop
      vertex 3 0 15
      vertex 3 1.66667 17
      vertex 3 0 17
    endloop
  endfacet
  facet normal 1 0 0
    outer loop
      vertex 3 5 15
      vertex 3 6 16
      vertex 3 5 17
    endloop
  endfacet
  facet normal 1 0 0
    outer loop
      vertex 3 6 16
      vertex 3 5 15
      vertex 3 6 15
    endloop
  endfacet
  facet normal 1 -0 0
    outer loop
      vertex 3 3.33333 17
      vertex 3 5 15
      vertex 3 5 17
    endloop
  endfacet
  facet normal 1 0 0
    outer loop
      vertex 3 5 15
      vertex 3 3.33333 17
      vertex 3 3.33333 5
    endloop
  endfacet
  facet normal 1 0 0
    outer loop
      vertex 3 5 15
      vertex 3 3.33333 5
      vertex 3 5 0
    endloop
  endfacet
  facet normal 1 -0 0
    outer loop
      vertex 3 1.66667 5
      vertex 3 5 0
      vertex 3 3.33333 5
    endloop
  endfacet
  facet normal 1 0 0
    outer loop
      vertex 3 1.66667 17
      vertex 3 0 15
      vertex 3 1.66667 5
    endloop
  endfacet
  facet normal 1 0 0
    outer loop
      vertex 3 1.66667 5
      vertex 3 0 0
      vertex 3 5 0
    endloop
  endfacet
  facet normal 1 0 0
    outer loop
      vertex 3 0 0
      vertex 3 1.66667 5
      vertex 3 0 15
    endloop
  endfacet
  facet normal 1 -0 0
    outer loop
      vertex 3 -1 16
      vertex 3 0 15
      vertex 3 0 17
    endloop
  endfacet
  facet normal 1 0 0
    outer loop
      vertex 3 0 15
      vertex 3 -1 16
      vertex 3 -1 15
    endloop
  endfacet
  facet normal 0 0 -1
    outer loop
      vertex 0 -1 15
      vertex 3 0 15
      vertex 3 -1 15
    endloop
  endfacet
  facet normal -0 0 -1
    outer loop
      vertex 3 0 15
      vertex 0 -1 15
      vertex 0 0 15
    endloop
  endfacet
  facet normal 0 -1 0
    outer loop
      vertex 0 -1 15
      vertex 3 -1 16
      vertex 0 -1 16
    endloop
  endfacet
  facet normal 0 -1 -0
    outer loop
      vertex 3 -1 16
      vertex 0 -1 15
      vertex 3 -1 15
    endloop
  endfacet
  facet normal 0 -0.707107 0.707107
    outer loop
      vertex 0 -1 16
      vertex 3 0 17
      vertex 0 0 17
    endloop
  endfacet
  facet normal 0 -0.707107 0.707107
    outer loop
      vertex 3 0 17
      vertex 0 -1 16
      vertex 3 -1 16
    endloop
  endfacet
  facet normal -0 0 1
    outer loop
      vertex 0 1.66667 17
      vertex 3 0 17
      vertex 3 1.66667 17
    endloop
  endfacet
  facet normal 0 0 1
    outer loop
      vertex 3 0 17
      vertex 0 1.66667 17
      vertex 0 0 17
    endloop
  endfacet
  facet normal 0 1 -0
    outer loop
      vertex 3 1.66667 5
      vertex 0 1.66667 17
      vertex 3 1.66667 17
    endloop
  endfacet
  facet normal 0 1 0
    outer loop
      vertex 0 1.66667 17
      vertex 3 1.66667 5
      vertex 0 1.66667 5
    endloop
  endfacet
  facet normal 0 0 -1
    outer loop
      vertex 0 5 15
      vertex 3 6 15
      vertex 3 5 15
    endloop
  endfacet
  facet normal -0 0 -1
    outer loop
      vertex 3 6 15
      vertex 0 5 15
      vertex 0 6 15
    endloop
  endfacet
  facet normal 0 1 -0
    outer loop
      vertex 3 6 15
      vertex 0 6 16
      vertex 3 6 16
    endloop
  endfacet
  facet normal 0 1 0
    outer loop
      vertex 0 6 16
      vertex 3 6 15
      vertex 0 6 15
    endloop
  endfacet
  facet normal 0 0.707107 0.707107
    outer loop
      vertex 3 6 16
      vertex 0 5 17
      vertex 3 5 17
    endloop
  endfacet
  facet normal 0 0.707107 0.707107
    outer loop
      vertex 0 5 17
      vertex 3 6 16
      vertex 0 6 16
    endloop
  endfacet
  facet normal -0 0 1
    outer loop
      vertex 0 5 17
      vertex 3 3.33333 17
      vertex 3 5 17
    endloop
  endfacet
  facet normal 0 0 1
    outer loop
      vertex 3 3.33333 17
      vertex 0 5 17
      vertex 0 3.33333 17
    endloop
  endfacet
  facet normal 0 -1 0
    outer loop
      vertex 0 3.33333 5
      vertex 3 3.33333 17
      vertex 0 3.33333 17
    endloop
  endfacet
  facet normal 0 -1 -0
    outer loop
      vertex 3 3.33333 17
      vertex 0 3.33333 5
      vertex 3 3.33333 5
    endloop
  endfacet
  facet normal -0 0 1
    outer loop
      vertex 0 3.33333 5
      vertex 3 1.66667 5
      vertex 3 3.33333 5
    endloop
  endfacet
  facet normal 0 0 1
    outer loop
      vertex 3 1.66667 5
      vertex 0 3.33333 5
      vertex 0 1.66667 5
    endloop
  endfacet
  facet normal 0 1 -0
    outer loop
      vertex 3 5 0
      vertex 0 5 15
      vertex 3 5 15
    endloop
  endfacet
  facet normal 0 1 0
    outer loop
      vertex 0 5 15
      vertex 3 5 0
      vertex 0 5 0
    endloop
  endfacet
  facet normal 0 -1 0
    outer loop
      vertex 0 0 0
      vertex 3 0 15
      vertex 0 0 15
    endloop
  endfacet
  facet normal 0 -1 -0
    outer loop
      vertex 3 0 15
      vertex 0 0 0
      vertex 3 0 0
    endloop
  endfacet
  facet normal 0 0 -1
    outer loop
      vertex 0 0 0
      vertex 3 5 0
      vertex 3 0 0
    endloop
  endfacet
  facet normal -0 0 -1
    outer loop
      vertex 3 5 0
      vertex 0 0 0
      vertex 0 5 0
    endloop
  endfacet
endsolid OpenSCAD_Model
