solid OpenSCAD_Model
  facet normal -1 0 0
    outer loop
      vertex 0 5 0
      vertex 0 3.33333 5
      vertex 0 5 9
    endloop
  endfacet
  facet normal -1 0 0
    outer loop
      vertex 0 5 0
      vertex 0 1.66667 5
      vertex 0 3.33333 5
    endloop
  endfacet
  facet normal -1 0 0
    outer loop
      vertex 0 0 0
      vertex 0 1.66667 5
      vertex 0 5 0
    endloop
  endfacet
  facet normal -1 0 0
    outer loop
      vertex 0 0 9
      vertex 0 1.66667 5
      vertex 0 0 0
    endloop
  endfacet
  facet normal -1 0 0
    outer loop
      vertex 0 1.66667 5
      vertex 0 0 9
      vertex 0 1.66667 9.8
    endloop
  endfacet
  facet normal -1 0 0
    outer loop
      vertex 0 0 9
      vertex 0 -0.6 9.8
      vertex 0 1.66667 9.8
    endloop
  endfacet
  facet normal -1 0 0
    outer loop
      vertex 0 -1 9.4
      vertex 0 0 9
      vertex 0 -1 9
    endloop
  endfacet
  facet normal -1 0 0
    outer loop
      vertex 0 0 9
      vertex 0 -1 9.4
      vertex 0 -0.6 9.8
    endloop
  endfacet
  facet normal -1 0 0
    outer loop
      vertex 0 5 9
      vertex 0 6 9.4
      vertex 0 6 9
    endloop
  endfacet
  facet normal -1 -0 0
    outer loop
      vertex 0 6 9.4
      vertex 0 5 9
      vertex 0 5.6 9.8
    endloop
  endfacet
  facet normal -1 0 0
    outer loop
      vertex 0 5 9
      vertex 0 3.33333 9.8
      vertex 0 5.6 9.8
    endloop
  endfacet
  facet normal -1 0 0
    outer loop
      vertex 0 3.33333 9.8
      vertex 0 5 9
      vertex 0 3.33333 5
    endloop
  endfacet
  facet normal -0 0 1
    outer loop
      vertex 0 1.66667 9.8
      vertex 3 -0.6 9.8
      vertex 3 1.66667 9.8
    endloop
  endfacet
  facet normal 0 0 1
    outer loop
      vertex 3 -0.6 9.8
      vertex 0 1.66667 9.8
      vertex 0 -0.6 9.8
    endloop
  endfacet
  facet normal 1 0 0
    outer loop
      vertex 3 1.66667 9.8
      vertex 3 0 9
      vertex 3 1.66667 5
    endloop
  endfacet
  facet normal 1 -0 0
    outer loop
      vertex 3 -0.6 9.8
      vertex 3 0 9
      vertex 3 1.66667 9.8
    endloop
  endfacet
  facet normal 1 -0 0
    outer loop
      vertex 3 -1 9.4
      vertex 3 0 9
      vertex 3 -0.6 9.8
    endloop
  endfacet
  facet normal 1 0 0
    outer loop
      vertex 3 0 9
      vertex 3 -1 9.4
      vertex 3 -1 9
    endloop
  endfacet
  facet normal 1 0 0
    outer loop
      vertex 3 5 9
      vertex 3 6 9.4
      vertex 3 5.6 9.8
    endloop
  endfacet
  facet normal 1 0 0
    outer loop
      vertex 3 6 9.4
      vertex 3 5 9
      vertex 3 6 9
    endloop
  endfacet
  facet normal 1 -0 0
    outer loop
      vertex 3 3.33333 9.8
      vertex 3 5 9
      vertex 3 5.6 9.8
    endloop
  endfacet
  facet normal 1 0 0
    outer loop
      vertex 3 3.33333 5
      vertex 3 5 9
      vertex 3 3.33333 9.8
    endloop
  endfacet
  facet normal 1 0 0
    outer loop
      vertex 3 5 9
      vertex 3 3.33333 5
      vertex 3 5 0
    endloop
  endfacet
  facet normal 1 -0 0
    outer loop
      vertex 3 1.66667 5
      vertex 3 5 0
      vertex 3 3.33333 5
    endloop
  endfacet
  facet normal 1 0 0
    outer loop
      vertex 3 1.66667 5
      vertex 3 0 0
      vertex 3 5 0
    endloop
  endfacet
  facet normal 1 0 0
    outer loop
      vertex 3 0 0
      vertex 3 1.66667 5
      vertex 3 0 9
    endloop
  endfacet
  facet normal 0 0 -1
    outer loop
      vertex 0 -1 9
      vertex 3 0 9
      vertex 3 -1 9
    endloop
  endfacet
  facet normal -0 0 -1
    outer loop
      vertex 3 0 9
      vertex 0 -1 9
      vertex 0 0 9
    endloop
  endfacet
  facet normal 0 -1 0
    outer loop
      vertex 0 -1 9
      vertex 3 -1 9.4
      vertex 0 -1 9.4
    endloop
  endfacet
  facet normal 0 -1 -0
    outer loop
      vertex 3 -1 9.4
      vertex 0 -1 9
      vertex 3 -1 9
    endloop
  endfacet
  facet normal 0 -0.707107 0.707107
    outer loop
      vertex 0 -1 9.4
      vertex 3 -0.6 9.8
      vertex 0 -0.6 9.8
    endloop
  endfacet
  facet normal 0 -0.707107 0.707107
    outer loop
      vertex 3 -0.6 9.8
      vertex 0 -1 9.4
      vertex 3 -1 9.4
    endloop
  endfacet
  facet normal 0 1 -0
    outer loop
      vertex 3 1.66667 5
      vertex 0 1.66667 9.8
      vertex 3 1.66667 9.8
    endloop
  endfacet
  facet normal 0 1 0
    outer loop
      vertex 0 1.66667 9.8
      vertex 3 1.66667 5
      vertex 0 1.66667 5
    endloop
  endfacet
  facet normal -0 0 1
    outer loop
      vertex 0 5.6 9.8
      vertex 3 3.33333 9.8
      vertex 3 5.6 9.8
    endloop
  endfacet
  facet normal 0 0 1
    outer loop
      vertex 3 3.33333 9.8
      vertex 0 5.6 9.8
      vertex 0 3.33333 9.8
    endloop
  endfacet
  facet normal 0 0 -1
    outer loop
      vertex 0 5 9
      vertex 3 6 9
      vertex 3 5 9
    endloop
  endfacet
  facet normal -0 0 -1
    outer loop
      vertex 3 6 9
      vertex 0 5 9
      vertex 0 6 9
    endloop
  endfacet
  facet normal 0 1 -0
    outer loop
      vertex 3 6 9
      vertex 0 6 9.4
      vertex 3 6 9.4
    endloop
  endfacet
  facet normal 0 1 0
    outer loop
      vertex 0 6 9.4
      vertex 3 6 9
      vertex 0 6 9
    endloop
  endfacet
  facet normal 0 0.707107 0.707107
    outer loop
      vertex 3 6 9.4
      vertex 0 5.6 9.8
      vertex 3 5.6 9.8
    endloop
  endfacet
  facet normal 0 0.707107 0.707107
    outer loop
      vertex 0 5.6 9.8
      vertex 3 6 9.4
      vertex 0 6 9.4
    endloop
  endfacet
  facet normal 0 -1 0
    outer loop
      vertex 0 3.33333 5
      vertex 3 3.33333 9.8
      vertex 0 3.33333 9.8
    endloop
  endfacet
  facet normal 0 -1 -0
    outer loop
      vertex 3 3.33333 9.8
      vertex 0 3.33333 5
      vertex 3 3.33333 5
    endloop
  endfacet
  facet normal -0 0 1
    outer loop
      vertex 0 3.33333 5
      vertex 3 1.66667 5
      vertex 3 3.33333 5
    endloop
  endfacet
  facet normal 0 0 1
    outer loop
      vertex 3 1.66667 5
      vertex 0 3.33333 5
      vertex 0 1.66667 5
    endloop
  endfacet
  facet normal 0 1 -0
    outer loop
      vertex 3 5 0
      vertex 0 5 9
      vertex 3 5 9
    endloop
  endfacet
  facet normal 0 1 0
    outer loop
      vertex 0 5 9
      vertex 3 5 0
      vertex 0 5 0
    endloop
  endfacet
  facet normal 0 -1 0
    outer loop
      vertex 0 0 0
      vertex 3 0 9
      vertex 0 0 9
    endloop
  endfacet
  facet normal 0 -1 -0
    outer loop
      vertex 3 0 9
      vertex 0 0 0
      vertex 3 0 0
    endloop
  endfacet
  facet normal 0 0 -1
    outer loop
      vertex 0 0 0
      vertex 3 5 0
      vertex 3 0 0
    endloop
  endfacet
  facet normal -0 0 -1
    outer loop
      vertex 3 5 0
      vertex 0 0 0
      vertex 0 5 0
    endloop
  endfacet
endsolid OpenSCAD_Model
