solid OpenSCAD_Model
  facet normal -1 0 0
    outer loop
      vertex -16.5 -16.5 0
      vertex -16.5 16.5 17
      vertex -16.5 16.5 0
    endloop
  endfacet
  facet normal -1 -0 0
    outer loop
      vertex -16.5 16.5 17
      vertex -16.5 -16.5 0
      vertex -16.5 -16.5 17
    endloop
  endfacet
  facet normal 0 0 1
    outer loop
      vertex 16.5 16.5 17
      vertex 16.4756 16.4756 17
      vertex 16.5 -16.5 17
    endloop
  endfacet
  facet normal 0 0 1
    outer loop
      vertex 16.5 16.5 17
      vertex -16.4756 16.4756 17
      vertex 16.4756 16.4756 17
    endloop
  endfacet
  facet normal 0 0 1
    outer loop
      vertex -16.4756 16.4756 17
      vertex -16.5 16.5 17
      vertex -16.4756 -16.4756 17
    endloop
  endfacet
  facet normal -0 0 1
    outer loop
      vertex -16.5 16.5 17
      vertex -16.4756 16.4756 17
      vertex 16.5 16.5 17
    endloop
  endfacet
  facet normal -0 0 1
    outer loop
      vertex 16.4756 -16.4756 17
      vertex 16.5 -16.5 17
      vertex 16.4756 16.4756 17
    endloop
  endfacet
  facet normal -0 0 1
    outer loop
      vertex -16.4756 -16.4756 17
      vertex 16.5 -16.5 17
      vertex 16.4756 -16.4756 17
    endloop
  endfacet
  facet normal 0 0 1
    outer loop
      vertex -16.4756 -16.4756 17
      vertex -16.5 -16.5 17
      vertex 16.5 -16.5 17
    endloop
  endfacet
  facet normal 0 0 1
    outer loop
      vertex -16.5 -16.5 17
      vertex -16.4756 -16.4756 17
      vertex -16.5 16.5 17
    endloop
  endfacet
  facet normal 1 -0 0
    outer loop
      vertex 16.5 -16.5 17
      vertex 16.5 16.5 0
      vertex 16.5 16.5 17
    endloop
  endfacet
  facet normal 1 0 0
    outer loop
      vertex 16.5 16.5 0
      vertex 16.5 -16.5 17
      vertex 16.5 -16.5 0
    endloop
  endfacet
  facet normal 0 1 -0
    outer loop
      vertex 16.5 16.5 0
      vertex -16.5 16.5 17
      vertex 16.5 16.5 17
    endloop
  endfacet
  facet normal 0 1 0
    outer loop
      vertex -16.5 16.5 17
      vertex 16.5 16.5 0
      vertex -16.5 16.5 0
    endloop
  endfacet
  facet normal 0 0 -1
    outer loop
      vertex -16.5 -16.5 0
      vertex 16.5 16.5 0
      vertex 16.5 -16.5 0
    endloop
  endfacet
  facet normal -0 0 -1
    outer loop
      vertex 16.5 16.5 0
      vertex -16.5 -16.5 0
      vertex -16.5 16.5 0
    endloop
  endfacet
  facet normal 0 -1 0
    outer loop
      vertex -16.5 -16.5 0
      vertex 16.5 -16.5 17
      vertex -16.5 -16.5 17
    endloop
  endfacet
  facet normal 0 -1 -0
    outer loop
      vertex 16.5 -16.5 17
      vertex -16.5 -16.5 0
      vertex 16.5 -16.5 0
    endloop
  endfacet
  facet normal 0 0.737652 0.675181
    outer loop
      vertex 16.4756 16.4756 17
      vertex -16.4756 16.4756 17
      vertex 0 0 35
    endloop
  endfacet
  facet normal -0.737652 0 0.675181
    outer loop
      vertex -16.4756 16.4756 17
      vertex -16.4756 -16.4756 17
      vertex 0 0 35
    endloop
  endfacet
  facet normal 0 -0.737652 0.675181
    outer loop
      vertex 0 0 35
      vertex -16.4756 -16.4756 17
      vertex 16.4756 -16.4756 17
    endloop
  endfacet
  facet normal 0.737652 0 0.675181
    outer loop
      vertex 16.4756 16.4756 17
      vertex 0 0 35
      vertex 16.4756 -16.4756 17
    endloop
  endfacet
endsolid OpenSCAD_Model
