solid OpenSCAD_Model
  facet normal -0 0 1
    outer loop
      vertex -16.5 16.5 33
      vertex 16.5 -16.5 33
      vertex 16.5 16.5 33
    endloop
  endfacet
  facet normal 0 0 1
    outer loop
      vertex 16.5 -16.5 33
      vertex -16.5 16.5 33
      vertex -16.5 -16.5 33
    endloop
  endfacet
  facet normal 0 0 -1
    outer loop
      vertex -16.5 -16.5 0
      vertex 16.5 16.5 0
      vertex 16.5 -16.5 0
    endloop
  endfacet
  facet normal -0 0 -1
    outer loop
      vertex 16.5 16.5 0
      vertex -16.5 -16.5 0
      vertex -16.5 16.5 0
    endloop
  endfacet
  facet normal 0 -1 0
    outer loop
      vertex -16.5 -16.5 0
      vertex 16.5 -16.5 33
      vertex -16.5 -16.5 33
    endloop
  endfacet
  facet normal 0 -1 -0
    outer loop
      vertex 16.5 -16.5 33
      vertex -16.5 -16.5 0
      vertex 16.5 -16.5 0
    endloop
  endfacet
  facet normal 1 -0 0
    outer loop
      vertex 16.5 -16.5 33
      vertex 16.5 16.5 0
      vertex 16.5 16.5 33
    endloop
  endfacet
  facet normal 1 0 0
    outer loop
      vertex 16.5 16.5 0
      vertex 16.5 -16.5 33
      vertex 16.5 -16.5 0
    endloop
  endfacet
  facet normal 0 1 -0
    outer loop
      vertex 16.5 16.5 0
      vertex -16.5 16.5 33
      vertex 16.5 16.5 33
    endloop
  endfacet
  facet normal 0 1 0
    outer loop
      vertex -16.5 16.5 33
      vertex 16.5 16.5 0
      vertex -16.5 16.5 0
    endloop
  endfacet
  facet normal -1 0 0
    outer loop
      vertex -16.5 -16.5 0
      vertex -16.5 16.5 33
      vertex -16.5 16.5 0
    endloop
  endfacet
  facet normal -1 -0 0
    outer loop
      vertex -16.5 16.5 33
      vertex -16.5 -16.5 0
      vertex -16.5 -16.5 33
    endloop
  endfacet
endsolid OpenSCAD_Model
